%TF.GenerationSoftware,KiCad,Pcbnew,(5.1.10)-1*%
%TF.CreationDate,2021-08-20T00:09:58-04:00*%
%TF.ProjectId,Back_F407_expansion_board,4261636b-5f46-4343-9037-5f657870616e,rev?*%
%TF.SameCoordinates,Original*%
%TF.FileFunction,Copper,L2,Bot*%
%TF.FilePolarity,Positive*%
%FSLAX46Y46*%
G04 Gerber Fmt 4.6, Leading zero omitted, Abs format (unit mm)*
G04 Created by KiCad (PCBNEW (5.1.10)-1) date 2021-08-20 00:09:58*
%MOMM*%
%LPD*%
G01*
G04 APERTURE LIST*
%TA.AperFunction,ComponentPad*%
%ADD10C,2.780000*%
%TD*%
%TA.AperFunction,ComponentPad*%
%ADD11O,1.740000X2.190000*%
%TD*%
%TA.AperFunction,ComponentPad*%
%ADD12O,1.700000X1.700000*%
%TD*%
%TA.AperFunction,ComponentPad*%
%ADD13R,1.700000X1.700000*%
%TD*%
%TA.AperFunction,ComponentPad*%
%ADD14O,1.600000X1.600000*%
%TD*%
%TA.AperFunction,ComponentPad*%
%ADD15R,1.600000X1.600000*%
%TD*%
%TA.AperFunction,SMDPad,CuDef*%
%ADD16R,0.900000X1.200000*%
%TD*%
%TA.AperFunction,ComponentPad*%
%ADD17C,1.600000*%
%TD*%
%TA.AperFunction,ComponentPad*%
%ADD18C,2.600000*%
%TD*%
%TA.AperFunction,ComponentPad*%
%ADD19R,2.600000X2.600000*%
%TD*%
%TA.AperFunction,ComponentPad*%
%ADD20O,2.000000X1.700000*%
%TD*%
%TA.AperFunction,ComponentPad*%
%ADD21O,1.905000X2.000000*%
%TD*%
%TA.AperFunction,ComponentPad*%
%ADD22R,1.905000X2.000000*%
%TD*%
%TA.AperFunction,ViaPad*%
%ADD23C,0.800000*%
%TD*%
%TA.AperFunction,Conductor*%
%ADD24C,2.999999*%
%TD*%
%TA.AperFunction,Conductor*%
%ADD25C,1.000000*%
%TD*%
%TA.AperFunction,Conductor*%
%ADD26C,0.250000*%
%TD*%
%TA.AperFunction,Conductor*%
%ADD27C,2.000000*%
%TD*%
%TA.AperFunction,Conductor*%
%ADD28C,0.500000*%
%TD*%
%TA.AperFunction,Conductor*%
%ADD29C,1.500000*%
%TD*%
%TA.AperFunction,Conductor*%
%ADD30C,0.750000*%
%TD*%
%TA.AperFunction,Conductor*%
%ADD31C,0.254000*%
%TD*%
%TA.AperFunction,Conductor*%
%ADD32C,0.100000*%
%TD*%
G04 APERTURE END LIST*
D10*
%TO.P,F5,2*%
%TO.N,Net-(F5-Pad2)*%
X163550600Y-118956600D03*
X163550600Y-122656600D03*
%TO.P,F5,1*%
%TO.N,VDD*%
X163550600Y-126956600D03*
X163550600Y-130656600D03*
%TD*%
%TO.P,F4,2*%
%TO.N,+5VD*%
X84176600Y-40411400D03*
X87876600Y-40411400D03*
%TO.P,F4,1*%
%TO.N,Net-(F4-Pad1)*%
X92176600Y-40411400D03*
X95876600Y-40411400D03*
%TD*%
%TO.P,F3,2*%
%TO.N,+12V*%
X143824200Y-120421400D03*
X147524200Y-120421400D03*
%TO.P,F3,1*%
%TO.N,Net-(F3-Pad1)*%
X151824200Y-120421400D03*
X155524200Y-120421400D03*
%TD*%
%TO.P,F2,2*%
%TO.N,+24V*%
X133958600Y-44526200D03*
X130258600Y-44526200D03*
%TO.P,F2,1*%
%TO.N,Net-(F2-Pad1)*%
X125958600Y-44526200D03*
X122258600Y-44526200D03*
%TD*%
%TO.P,F1,2*%
%TO.N,+48V*%
X137912600Y-36906200D03*
X134212600Y-36906200D03*
%TO.P,F1,1*%
%TO.N,Net-(F1-Pad1)*%
X129912600Y-36906200D03*
X126212600Y-36906200D03*
%TD*%
%TO.P,D19,2*%
%TO.N,Net-(D19-Pad2)*%
%TA.AperFunction,SMDPad,CuDef*%
G36*
G01*
X87729900Y-124043600D02*
X87729900Y-122793600D01*
G75*
G02*
X87979900Y-122543600I250000J0D01*
G01*
X88729900Y-122543600D01*
G75*
G02*
X88979900Y-122793600I0J-250000D01*
G01*
X88979900Y-124043600D01*
G75*
G02*
X88729900Y-124293600I-250000J0D01*
G01*
X87979900Y-124293600D01*
G75*
G02*
X87729900Y-124043600I0J250000D01*
G01*
G37*
%TD.AperFunction*%
%TO.P,D19,1*%
%TO.N,/FET6*%
%TA.AperFunction,SMDPad,CuDef*%
G36*
G01*
X84929900Y-124043600D02*
X84929900Y-122793600D01*
G75*
G02*
X85179900Y-122543600I250000J0D01*
G01*
X85929900Y-122543600D01*
G75*
G02*
X86179900Y-122793600I0J-250000D01*
G01*
X86179900Y-124043600D01*
G75*
G02*
X85929900Y-124293600I-250000J0D01*
G01*
X85179900Y-124293600D01*
G75*
G02*
X84929900Y-124043600I0J250000D01*
G01*
G37*
%TD.AperFunction*%
%TD*%
%TO.P,D17,2*%
%TO.N,Net-(D17-Pad2)*%
%TA.AperFunction,SMDPad,CuDef*%
G36*
G01*
X98093100Y-123738800D02*
X98093100Y-122488800D01*
G75*
G02*
X98343100Y-122238800I250000J0D01*
G01*
X99093100Y-122238800D01*
G75*
G02*
X99343100Y-122488800I0J-250000D01*
G01*
X99343100Y-123738800D01*
G75*
G02*
X99093100Y-123988800I-250000J0D01*
G01*
X98343100Y-123988800D01*
G75*
G02*
X98093100Y-123738800I0J250000D01*
G01*
G37*
%TD.AperFunction*%
%TO.P,D17,1*%
%TO.N,/FET5*%
%TA.AperFunction,SMDPad,CuDef*%
G36*
G01*
X95293100Y-123738800D02*
X95293100Y-122488800D01*
G75*
G02*
X95543100Y-122238800I250000J0D01*
G01*
X96293100Y-122238800D01*
G75*
G02*
X96543100Y-122488800I0J-250000D01*
G01*
X96543100Y-123738800D01*
G75*
G02*
X96293100Y-123988800I-250000J0D01*
G01*
X95543100Y-123988800D01*
G75*
G02*
X95293100Y-123738800I0J250000D01*
G01*
G37*
%TD.AperFunction*%
%TD*%
%TO.P,D15,2*%
%TO.N,Net-(D15-Pad2)*%
%TA.AperFunction,SMDPad,CuDef*%
G36*
G01*
X108507100Y-123637200D02*
X108507100Y-122387200D01*
G75*
G02*
X108757100Y-122137200I250000J0D01*
G01*
X109507100Y-122137200D01*
G75*
G02*
X109757100Y-122387200I0J-250000D01*
G01*
X109757100Y-123637200D01*
G75*
G02*
X109507100Y-123887200I-250000J0D01*
G01*
X108757100Y-123887200D01*
G75*
G02*
X108507100Y-123637200I0J250000D01*
G01*
G37*
%TD.AperFunction*%
%TO.P,D15,1*%
%TO.N,/FET4*%
%TA.AperFunction,SMDPad,CuDef*%
G36*
G01*
X105707100Y-123637200D02*
X105707100Y-122387200D01*
G75*
G02*
X105957100Y-122137200I250000J0D01*
G01*
X106707100Y-122137200D01*
G75*
G02*
X106957100Y-122387200I0J-250000D01*
G01*
X106957100Y-123637200D01*
G75*
G02*
X106707100Y-123887200I-250000J0D01*
G01*
X105957100Y-123887200D01*
G75*
G02*
X105707100Y-123637200I0J250000D01*
G01*
G37*
%TD.AperFunction*%
%TD*%
%TO.P,D13,2*%
%TO.N,Net-(D13-Pad2)*%
%TA.AperFunction,SMDPad,CuDef*%
G36*
G01*
X118932800Y-123484800D02*
X118932800Y-122234800D01*
G75*
G02*
X119182800Y-121984800I250000J0D01*
G01*
X119932800Y-121984800D01*
G75*
G02*
X120182800Y-122234800I0J-250000D01*
G01*
X120182800Y-123484800D01*
G75*
G02*
X119932800Y-123734800I-250000J0D01*
G01*
X119182800Y-123734800D01*
G75*
G02*
X118932800Y-123484800I0J250000D01*
G01*
G37*
%TD.AperFunction*%
%TO.P,D13,1*%
%TO.N,/FET3*%
%TA.AperFunction,SMDPad,CuDef*%
G36*
G01*
X116132800Y-123484800D02*
X116132800Y-122234800D01*
G75*
G02*
X116382800Y-121984800I250000J0D01*
G01*
X117132800Y-121984800D01*
G75*
G02*
X117382800Y-122234800I0J-250000D01*
G01*
X117382800Y-123484800D01*
G75*
G02*
X117132800Y-123734800I-250000J0D01*
G01*
X116382800Y-123734800D01*
G75*
G02*
X116132800Y-123484800I0J250000D01*
G01*
G37*
%TD.AperFunction*%
%TD*%
%TO.P,D11,2*%
%TO.N,Net-(D11-Pad2)*%
%TA.AperFunction,SMDPad,CuDef*%
G36*
G01*
X129092800Y-123383200D02*
X129092800Y-122133200D01*
G75*
G02*
X129342800Y-121883200I250000J0D01*
G01*
X130092800Y-121883200D01*
G75*
G02*
X130342800Y-122133200I0J-250000D01*
G01*
X130342800Y-123383200D01*
G75*
G02*
X130092800Y-123633200I-250000J0D01*
G01*
X129342800Y-123633200D01*
G75*
G02*
X129092800Y-123383200I0J250000D01*
G01*
G37*
%TD.AperFunction*%
%TO.P,D11,1*%
%TO.N,/FET2*%
%TA.AperFunction,SMDPad,CuDef*%
G36*
G01*
X126292800Y-123383200D02*
X126292800Y-122133200D01*
G75*
G02*
X126542800Y-121883200I250000J0D01*
G01*
X127292800Y-121883200D01*
G75*
G02*
X127542800Y-122133200I0J-250000D01*
G01*
X127542800Y-123383200D01*
G75*
G02*
X127292800Y-123633200I-250000J0D01*
G01*
X126542800Y-123633200D01*
G75*
G02*
X126292800Y-123383200I0J250000D01*
G01*
G37*
%TD.AperFunction*%
%TD*%
%TO.P,D9,2*%
%TO.N,Net-(D9-Pad2)*%
%TA.AperFunction,SMDPad,CuDef*%
G36*
G01*
X139913200Y-125770800D02*
X139913200Y-124520800D01*
G75*
G02*
X140163200Y-124270800I250000J0D01*
G01*
X140913200Y-124270800D01*
G75*
G02*
X141163200Y-124520800I0J-250000D01*
G01*
X141163200Y-125770800D01*
G75*
G02*
X140913200Y-126020800I-250000J0D01*
G01*
X140163200Y-126020800D01*
G75*
G02*
X139913200Y-125770800I0J250000D01*
G01*
G37*
%TD.AperFunction*%
%TO.P,D9,1*%
%TO.N,/FET1*%
%TA.AperFunction,SMDPad,CuDef*%
G36*
G01*
X137113200Y-125770800D02*
X137113200Y-124520800D01*
G75*
G02*
X137363200Y-124270800I250000J0D01*
G01*
X138113200Y-124270800D01*
G75*
G02*
X138363200Y-124520800I0J-250000D01*
G01*
X138363200Y-125770800D01*
G75*
G02*
X138113200Y-126020800I-250000J0D01*
G01*
X137363200Y-126020800D01*
G75*
G02*
X137113200Y-125770800I0J250000D01*
G01*
G37*
%TD.AperFunction*%
%TD*%
%TO.P,R57,2*%
%TO.N,Net-(D19-Pad2)*%
%TA.AperFunction,SMDPad,CuDef*%
G36*
G01*
X91571000Y-124340719D02*
X90050719Y-125861000D01*
G75*
G02*
X89697167Y-125861000I-176776J176776D01*
G01*
X89255224Y-125419057D01*
G75*
G02*
X89255224Y-125065505I176776J176776D01*
G01*
X90775505Y-123545224D01*
G75*
G02*
X91129057Y-123545224I176776J-176776D01*
G01*
X91571000Y-123987167D01*
G75*
G02*
X91571000Y-124340719I-176776J-176776D01*
G01*
G37*
%TD.AperFunction*%
%TO.P,R57,1*%
%TO.N,VDD*%
%TA.AperFunction,SMDPad,CuDef*%
G36*
G01*
X93639288Y-126409007D02*
X92119007Y-127929288D01*
G75*
G02*
X91765455Y-127929288I-176776J176776D01*
G01*
X91323512Y-127487345D01*
G75*
G02*
X91323512Y-127133793I176776J176776D01*
G01*
X92843793Y-125613512D01*
G75*
G02*
X93197345Y-125613512I176776J-176776D01*
G01*
X93639288Y-126055455D01*
G75*
G02*
X93639288Y-126409007I-176776J-176776D01*
G01*
G37*
%TD.AperFunction*%
%TD*%
%TO.P,R55,2*%
%TO.N,Net-(D17-Pad2)*%
%TA.AperFunction,SMDPad,CuDef*%
G36*
G01*
X101629400Y-124289919D02*
X100109119Y-125810200D01*
G75*
G02*
X99755567Y-125810200I-176776J176776D01*
G01*
X99313624Y-125368257D01*
G75*
G02*
X99313624Y-125014705I176776J176776D01*
G01*
X100833905Y-123494424D01*
G75*
G02*
X101187457Y-123494424I176776J-176776D01*
G01*
X101629400Y-123936367D01*
G75*
G02*
X101629400Y-124289919I-176776J-176776D01*
G01*
G37*
%TD.AperFunction*%
%TO.P,R55,1*%
%TO.N,VDD*%
%TA.AperFunction,SMDPad,CuDef*%
G36*
G01*
X103697688Y-126358207D02*
X102177407Y-127878488D01*
G75*
G02*
X101823855Y-127878488I-176776J176776D01*
G01*
X101381912Y-127436545D01*
G75*
G02*
X101381912Y-127082993I176776J176776D01*
G01*
X102902193Y-125562712D01*
G75*
G02*
X103255745Y-125562712I176776J-176776D01*
G01*
X103697688Y-126004655D01*
G75*
G02*
X103697688Y-126358207I-176776J-176776D01*
G01*
G37*
%TD.AperFunction*%
%TD*%
%TO.P,R53,2*%
%TO.N,Net-(D15-Pad2)*%
%TA.AperFunction,SMDPad,CuDef*%
G36*
G01*
X111789400Y-124442319D02*
X110269119Y-125962600D01*
G75*
G02*
X109915567Y-125962600I-176776J176776D01*
G01*
X109473624Y-125520657D01*
G75*
G02*
X109473624Y-125167105I176776J176776D01*
G01*
X110993905Y-123646824D01*
G75*
G02*
X111347457Y-123646824I176776J-176776D01*
G01*
X111789400Y-124088767D01*
G75*
G02*
X111789400Y-124442319I-176776J-176776D01*
G01*
G37*
%TD.AperFunction*%
%TO.P,R53,1*%
%TO.N,VDD*%
%TA.AperFunction,SMDPad,CuDef*%
G36*
G01*
X113857688Y-126510607D02*
X112337407Y-128030888D01*
G75*
G02*
X111983855Y-128030888I-176776J176776D01*
G01*
X111541912Y-127588945D01*
G75*
G02*
X111541912Y-127235393I176776J176776D01*
G01*
X113062193Y-125715112D01*
G75*
G02*
X113415745Y-125715112I176776J-176776D01*
G01*
X113857688Y-126157055D01*
G75*
G02*
X113857688Y-126510607I-176776J-176776D01*
G01*
G37*
%TD.AperFunction*%
%TD*%
%TO.P,R51,2*%
%TO.N,Net-(D13-Pad2)*%
%TA.AperFunction,SMDPad,CuDef*%
G36*
G01*
X122036488Y-124377007D02*
X120516207Y-125897288D01*
G75*
G02*
X120162655Y-125897288I-176776J176776D01*
G01*
X119720712Y-125455345D01*
G75*
G02*
X119720712Y-125101793I176776J176776D01*
G01*
X121240993Y-123581512D01*
G75*
G02*
X121594545Y-123581512I176776J-176776D01*
G01*
X122036488Y-124023455D01*
G75*
G02*
X122036488Y-124377007I-176776J-176776D01*
G01*
G37*
%TD.AperFunction*%
%TO.P,R51,1*%
%TO.N,VDD*%
%TA.AperFunction,SMDPad,CuDef*%
G36*
G01*
X124104776Y-126445295D02*
X122584495Y-127965576D01*
G75*
G02*
X122230943Y-127965576I-176776J176776D01*
G01*
X121789000Y-127523633D01*
G75*
G02*
X121789000Y-127170081I176776J176776D01*
G01*
X123309281Y-125649800D01*
G75*
G02*
X123662833Y-125649800I176776J-176776D01*
G01*
X124104776Y-126091743D01*
G75*
G02*
X124104776Y-126445295I-176776J-176776D01*
G01*
G37*
%TD.AperFunction*%
%TD*%
%TO.P,R49,2*%
%TO.N,Net-(D11-Pad2)*%
%TA.AperFunction,SMDPad,CuDef*%
G36*
G01*
X132044088Y-124478607D02*
X130523807Y-125998888D01*
G75*
G02*
X130170255Y-125998888I-176776J176776D01*
G01*
X129728312Y-125556945D01*
G75*
G02*
X129728312Y-125203393I176776J176776D01*
G01*
X131248593Y-123683112D01*
G75*
G02*
X131602145Y-123683112I176776J-176776D01*
G01*
X132044088Y-124125055D01*
G75*
G02*
X132044088Y-124478607I-176776J-176776D01*
G01*
G37*
%TD.AperFunction*%
%TO.P,R49,1*%
%TO.N,VDD*%
%TA.AperFunction,SMDPad,CuDef*%
G36*
G01*
X134112376Y-126546895D02*
X132592095Y-128067176D01*
G75*
G02*
X132238543Y-128067176I-176776J176776D01*
G01*
X131796600Y-127625233D01*
G75*
G02*
X131796600Y-127271681I176776J176776D01*
G01*
X133316881Y-125751400D01*
G75*
G02*
X133670433Y-125751400I176776J-176776D01*
G01*
X134112376Y-126193343D01*
G75*
G02*
X134112376Y-126546895I-176776J-176776D01*
G01*
G37*
%TD.AperFunction*%
%TD*%
%TO.P,R47,2*%
%TO.N,Net-(D9-Pad2)*%
%TA.AperFunction,SMDPad,CuDef*%
G36*
G01*
X142827900Y-124629599D02*
X142827900Y-126779601D01*
G75*
G02*
X142577901Y-127029600I-249999J0D01*
G01*
X141952899Y-127029600D01*
G75*
G02*
X141702900Y-126779601I0J249999D01*
G01*
X141702900Y-124629599D01*
G75*
G02*
X141952899Y-124379600I249999J0D01*
G01*
X142577901Y-124379600D01*
G75*
G02*
X142827900Y-124629599I0J-249999D01*
G01*
G37*
%TD.AperFunction*%
%TO.P,R47,1*%
%TO.N,VDD*%
%TA.AperFunction,SMDPad,CuDef*%
G36*
G01*
X145752900Y-124629599D02*
X145752900Y-126779601D01*
G75*
G02*
X145502901Y-127029600I-249999J0D01*
G01*
X144877899Y-127029600D01*
G75*
G02*
X144627900Y-126779601I0J249999D01*
G01*
X144627900Y-124629599D01*
G75*
G02*
X144877899Y-124379600I249999J0D01*
G01*
X145502901Y-124379600D01*
G75*
G02*
X145752900Y-124629599I0J-249999D01*
G01*
G37*
%TD.AperFunction*%
%TD*%
D11*
%TO.P,J8,2*%
%TO.N,Net-(J8-Pad2)*%
X96342200Y-106400600D03*
%TO.P,J8,1*%
%TO.N,Net-(J8-Pad1)*%
%TA.AperFunction,ComponentPad*%
G36*
G01*
X92932200Y-107245601D02*
X92932200Y-105555599D01*
G75*
G02*
X93182199Y-105305600I249999J0D01*
G01*
X94422201Y-105305600D01*
G75*
G02*
X94672200Y-105555599I0J-249999D01*
G01*
X94672200Y-107245601D01*
G75*
G02*
X94422201Y-107495600I-249999J0D01*
G01*
X93182199Y-107495600D01*
G75*
G02*
X92932200Y-107245601I0J249999D01*
G01*
G37*
%TD.AperFunction*%
%TD*%
D12*
%TO.P,J29,2*%
%TO.N,+24V*%
X116332000Y-86614000D03*
D13*
%TO.P,J29,1*%
%TO.N,/FAN10*%
X113792000Y-86614000D03*
%TD*%
D12*
%TO.P,J28,2*%
%TO.N,+24V*%
X125349000Y-86614000D03*
D13*
%TO.P,J28,1*%
%TO.N,/FAN9*%
X122809000Y-86614000D03*
%TD*%
D12*
%TO.P,J27,2*%
%TO.N,+24V*%
X134366000Y-86614000D03*
D13*
%TO.P,J27,1*%
%TO.N,/FAN8*%
X131826000Y-86614000D03*
%TD*%
D12*
%TO.P,J26,2*%
%TO.N,+24V*%
X116205000Y-74803000D03*
D13*
%TO.P,J26,1*%
%TO.N,/FAN7*%
X113665000Y-74803000D03*
%TD*%
D12*
%TO.P,J20,2*%
%TO.N,+24V*%
X125222000Y-74803000D03*
D13*
%TO.P,J20,1*%
%TO.N,/FAN6*%
X122682000Y-74803000D03*
%TD*%
D12*
%TO.P,J19,2*%
%TO.N,+24V*%
X134239000Y-74803000D03*
D13*
%TO.P,J19,1*%
%TO.N,/FAN5*%
X131699000Y-74803000D03*
%TD*%
D12*
%TO.P,J18,2*%
%TO.N,+24V*%
X116205000Y-63119000D03*
D13*
%TO.P,J18,1*%
%TO.N,/FAN4*%
X113665000Y-63119000D03*
%TD*%
D12*
%TO.P,J17,2*%
%TO.N,+24V*%
X125262000Y-63119000D03*
D13*
%TO.P,J17,1*%
%TO.N,/FAN3*%
X122722000Y-63119000D03*
%TD*%
D12*
%TO.P,J13,2*%
%TO.N,+24V*%
X134239000Y-63119000D03*
D13*
%TO.P,J13,1*%
%TO.N,/FAN2*%
X131699000Y-63119000D03*
%TD*%
D12*
%TO.P,J10,2*%
%TO.N,+24V*%
X134289800Y-54432200D03*
D13*
%TO.P,J10,1*%
%TO.N,/FAN1*%
X131749800Y-54432200D03*
%TD*%
D12*
%TO.P,J2,48*%
%TO.N,/PB15_spi2MOSI*%
X142070000Y-105260000D03*
%TO.P,J2,47*%
%TO.N,/PD8*%
X139530000Y-105260000D03*
%TO.P,J2,46*%
%TO.N,/PD9*%
X142070000Y-102720000D03*
%TO.P,J2,45*%
%TO.N,/PD10*%
X139530000Y-102720000D03*
%TO.P,J2,44*%
%TO.N,/PD11*%
X142070000Y-100180000D03*
%TO.P,J2,43*%
%TO.N,/PD12*%
X139530000Y-100180000D03*
%TO.P,J2,42*%
%TO.N,/PD13*%
X142070000Y-97640000D03*
%TO.P,J2,41*%
%TO.N,/PD14*%
X139530000Y-97640000D03*
%TO.P,J2,40*%
%TO.N,/PD15*%
X142070000Y-95100000D03*
%TO.P,J2,39*%
%TO.N,/PC6*%
X139530000Y-95100000D03*
%TO.P,J2,38*%
%TO.N,/PC7*%
X142070000Y-92560000D03*
%TO.P,J2,37*%
%TO.N,/PC8*%
X139530000Y-92560000D03*
%TO.P,J2,36*%
%TO.N,/PC9*%
X142070000Y-90020000D03*
%TO.P,J2,35*%
%TO.N,/PA8*%
X139530000Y-90020000D03*
%TO.P,J2,34*%
%TO.N,/PA9*%
X142070000Y-87480000D03*
%TO.P,J2,33*%
%TO.N,/PA10*%
X139530000Y-87480000D03*
%TO.P,J2,32*%
%TO.N,N/C*%
X142070000Y-84940000D03*
%TO.P,J2,31*%
X139530000Y-84940000D03*
%TO.P,J2,30*%
%TO.N,/PA15*%
X142070000Y-82400000D03*
%TO.P,J2,29*%
%TO.N,/PC10*%
X139530000Y-82400000D03*
%TO.P,J2,28*%
%TO.N,/PC11*%
X142070000Y-79860000D03*
%TO.P,J2,27*%
%TO.N,/PC12*%
X139530000Y-79860000D03*
%TO.P,J2,26*%
%TO.N,/PD0*%
X142070000Y-77320000D03*
%TO.P,J2,25*%
%TO.N,/PD1*%
X139530000Y-77320000D03*
%TO.P,J2,24*%
%TO.N,/PD2*%
X142070000Y-74780000D03*
%TO.P,J2,23*%
%TO.N,/PD3*%
X139530000Y-74780000D03*
%TO.P,J2,22*%
%TO.N,/PD4*%
X142070000Y-72240000D03*
%TO.P,J2,21*%
%TO.N,/PD5*%
X139530000Y-72240000D03*
%TO.P,J2,20*%
%TO.N,/PD6*%
X142070000Y-69700000D03*
%TO.P,J2,19*%
%TO.N,/PD7*%
X139530000Y-69700000D03*
%TO.P,J2,18*%
%TO.N,N/C*%
X142070000Y-67160000D03*
%TO.P,J2,17*%
X139530000Y-67160000D03*
%TO.P,J2,16*%
%TO.N,/PB6*%
X142070000Y-64620000D03*
%TO.P,J2,15*%
%TO.N,/PB7*%
X139530000Y-64620000D03*
%TO.P,J2,14*%
%TO.N,N/C*%
X142070000Y-62080000D03*
%TO.P,J2,13*%
%TO.N,/PB9*%
X139530000Y-62080000D03*
%TO.P,J2,12*%
%TO.N,/PE0*%
X142070000Y-59540000D03*
%TO.P,J2,11*%
%TO.N,/PE1*%
X139530000Y-59540000D03*
%TO.P,J2,10*%
%TO.N,GND*%
X142070000Y-57000000D03*
%TO.P,J2,9*%
X139530000Y-57000000D03*
%TO.P,J2,8*%
X142070000Y-54460000D03*
%TO.P,J2,7*%
X139530000Y-54460000D03*
%TO.P,J2,6*%
%TO.N,N/C*%
X142070000Y-51920000D03*
%TO.P,J2,5*%
X139530000Y-51920000D03*
%TO.P,J2,4*%
%TO.N,+3V3*%
X142070000Y-49380000D03*
%TO.P,J2,3*%
X139530000Y-49380000D03*
%TO.P,J2,2*%
X142070000Y-46840000D03*
D13*
%TO.P,J2,1*%
X139530000Y-46840000D03*
%TD*%
D12*
%TO.P,J48,3*%
%TO.N,/PC13*%
X100584000Y-54991000D03*
%TO.P,J48,2*%
%TO.N,+5VD*%
X100584000Y-57531000D03*
D13*
%TO.P,J48,1*%
%TO.N,GND*%
X100584000Y-60071000D03*
%TD*%
D12*
%TO.P,J47,3*%
%TO.N,/PE6*%
X96901000Y-54991000D03*
%TO.P,J47,2*%
%TO.N,+5VD*%
X96901000Y-57531000D03*
D13*
%TO.P,J47,1*%
%TO.N,GND*%
X96901000Y-60071000D03*
%TD*%
D12*
%TO.P,J46,3*%
%TO.N,/PE5*%
X93345000Y-54991000D03*
%TO.P,J46,2*%
%TO.N,+5VD*%
X93345000Y-57531000D03*
D13*
%TO.P,J46,1*%
%TO.N,GND*%
X93345000Y-60071000D03*
%TD*%
D12*
%TO.P,J45,3*%
%TO.N,/PE12*%
X86360000Y-97282000D03*
%TO.P,J45,2*%
%TO.N,/PE10*%
X83820000Y-97282000D03*
D13*
%TO.P,J45,1*%
%TO.N,/PE9*%
X81280000Y-97282000D03*
%TD*%
D12*
%TO.P,J1,48*%
%TO.N,/PB14_spi2MISO*%
X75650000Y-105270000D03*
%TO.P,J1,47*%
%TO.N,/PB13_spi2SCK*%
X73110000Y-105270000D03*
%TO.P,J1,46*%
%TO.N,/PB12_spi2SS*%
X75650000Y-102730000D03*
%TO.P,J1,45*%
%TO.N,/PB11*%
X73110000Y-102730000D03*
%TO.P,J1,44*%
%TO.N,/PB10*%
X75650000Y-100190000D03*
%TO.P,J1,43*%
%TO.N,/PE15*%
X73110000Y-100190000D03*
%TO.P,J1,42*%
%TO.N,/PE14*%
X75650000Y-97650000D03*
%TO.P,J1,41*%
%TO.N,/PE13*%
X73110000Y-97650000D03*
%TO.P,J1,40*%
%TO.N,/PE12*%
X75650000Y-95110000D03*
%TO.P,J1,39*%
%TO.N,/PE11*%
X73110000Y-95110000D03*
%TO.P,J1,38*%
%TO.N,/PE10*%
X75650000Y-92570000D03*
%TO.P,J1,37*%
%TO.N,/PE9*%
X73110000Y-92570000D03*
%TO.P,J1,36*%
%TO.N,/PE8*%
X75650000Y-90030000D03*
%TO.P,J1,35*%
%TO.N,/PE7*%
X73110000Y-90030000D03*
%TO.P,J1,34*%
%TO.N,/PB1*%
X75650000Y-87490000D03*
%TO.P,J1,33*%
%TO.N,/PB0*%
X73110000Y-87490000D03*
%TO.P,J1,32*%
%TO.N,/PC5*%
X75650000Y-84950000D03*
%TO.P,J1,31*%
%TO.N,/PC4*%
X73110000Y-84950000D03*
%TO.P,J1,30*%
%TO.N,/PA7_spi1MOSI*%
X75650000Y-82410000D03*
%TO.P,J1,29*%
%TO.N,/PA6_spi1MISO*%
X73110000Y-82410000D03*
%TO.P,J1,28*%
%TO.N,/PA5_spi1SCK*%
X75650000Y-79870000D03*
%TO.P,J1,27*%
%TO.N,/PA4_spi1SS*%
X73110000Y-79870000D03*
%TO.P,J1,26*%
%TO.N,/PA3*%
X75650000Y-77330000D03*
%TO.P,J1,25*%
%TO.N,/PA2*%
X73110000Y-77330000D03*
%TO.P,J1,24*%
%TO.N,/PA1*%
X75650000Y-74790000D03*
%TO.P,J1,23*%
%TO.N,/PA0*%
X73110000Y-74790000D03*
%TO.P,J1,22*%
%TO.N,N/C*%
X75650000Y-72250000D03*
%TO.P,J1,21*%
X73110000Y-72250000D03*
%TO.P,J1,20*%
%TO.N,/PC3*%
X75650000Y-69710000D03*
%TO.P,J1,19*%
%TO.N,/PC2*%
X73110000Y-69710000D03*
%TO.P,J1,18*%
%TO.N,/PC1*%
X75650000Y-67170000D03*
%TO.P,J1,17*%
%TO.N,/PC0*%
X73110000Y-67170000D03*
%TO.P,J1,16*%
%TO.N,/PC13*%
X75650000Y-64630000D03*
%TO.P,J1,15*%
%TO.N,/PE6*%
X73110000Y-64630000D03*
%TO.P,J1,14*%
%TO.N,/PE5*%
X75650000Y-62090000D03*
%TO.P,J1,13*%
%TO.N,/PE4*%
X73110000Y-62090000D03*
%TO.P,J1,12*%
%TO.N,/PE3*%
X75650000Y-59550000D03*
%TO.P,J1,11*%
%TO.N,/PE2*%
X73110000Y-59550000D03*
%TO.P,J1,10*%
%TO.N,GND*%
X75650000Y-57010000D03*
%TO.P,J1,9*%
X73110000Y-57010000D03*
%TO.P,J1,8*%
%TO.N,N/C*%
X75650000Y-54470000D03*
%TO.P,J1,7*%
X73110000Y-54470000D03*
%TO.P,J1,6*%
X75650000Y-51930000D03*
%TO.P,J1,5*%
X73110000Y-51930000D03*
%TO.P,J1,4*%
%TO.N,+5V*%
X75650000Y-49390000D03*
%TO.P,J1,3*%
X73110000Y-49390000D03*
%TO.P,J1,2*%
X75650000Y-46850000D03*
D13*
%TO.P,J1,1*%
X73110000Y-46850000D03*
%TD*%
D14*
%TO.P,U1,8*%
%TO.N,N/C*%
X111125000Y-116713000D03*
%TO.P,U1,4*%
%TO.N,/PE15*%
X103505000Y-109093000D03*
%TO.P,U1,7*%
%TO.N,Net-(Q2-Pad1)*%
X108585000Y-116713000D03*
%TO.P,U1,3*%
%TO.N,GND*%
X106045000Y-109093000D03*
%TO.P,U1,6*%
%TO.N,+12V*%
X106045000Y-116713000D03*
%TO.P,U1,2*%
%TO.N,/PB11*%
X108585000Y-109093000D03*
%TO.P,U1,5*%
%TO.N,Net-(Q1-Pad1)*%
X103505000Y-116713000D03*
D15*
%TO.P,U1,1*%
%TO.N,N/C*%
X111125000Y-109093000D03*
%TD*%
D14*
%TO.P,A3,16*%
%TO.N,/PD11*%
X164211000Y-48768000D03*
%TO.P,A3,8*%
%TO.N,+48V*%
X146431000Y-36068000D03*
%TO.P,A3,15*%
%TO.N,/PE0*%
X161671000Y-48768000D03*
%TO.P,A3,7*%
%TO.N,GND*%
X148971000Y-36068000D03*
%TO.P,A3,14*%
%TO.N,N/C*%
X159131000Y-48768000D03*
%TO.P,A3,6*%
%TO.N,Net-(A3-Pad6)*%
X151511000Y-36068000D03*
%TO.P,A3,13*%
%TO.N,N/C*%
X156591000Y-48768000D03*
%TO.P,A3,5*%
%TO.N,Net-(A3-Pad5)*%
X154051000Y-36068000D03*
%TO.P,A3,12*%
%TO.N,Net-(A3-Pad12)*%
X154051000Y-48768000D03*
%TO.P,A3,4*%
%TO.N,Net-(A3-Pad4)*%
X156591000Y-36068000D03*
%TO.P,A3,11*%
%TO.N,Net-(A3-Pad11)*%
X151511000Y-48768000D03*
%TO.P,A3,3*%
%TO.N,Net-(A3-Pad3)*%
X159131000Y-36068000D03*
%TO.P,A3,10*%
%TO.N,Net-(A3-Pad10)*%
X148971000Y-48768000D03*
%TO.P,A3,2*%
%TO.N,Net-(A3-Pad2)*%
X161671000Y-36068000D03*
%TO.P,A3,9*%
%TO.N,Net-(A3-Pad9)*%
X146431000Y-48768000D03*
D15*
%TO.P,A3,1*%
%TO.N,GND*%
X164211000Y-36068000D03*
%TD*%
D14*
%TO.P,A1,16*%
%TO.N,/PC11*%
X164211000Y-80518000D03*
%TO.P,A1,8*%
%TO.N,+48V*%
X146431000Y-67818000D03*
%TO.P,A1,15*%
%TO.N,/PD0*%
X161671000Y-80518000D03*
%TO.P,A1,7*%
%TO.N,GND*%
X148971000Y-67818000D03*
%TO.P,A1,14*%
%TO.N,N/C*%
X159131000Y-80518000D03*
%TO.P,A1,6*%
%TO.N,Net-(A1-Pad6)*%
X151511000Y-67818000D03*
%TO.P,A1,13*%
%TO.N,N/C*%
X156591000Y-80518000D03*
%TO.P,A1,5*%
%TO.N,Net-(A1-Pad5)*%
X154051000Y-67818000D03*
%TO.P,A1,12*%
%TO.N,Net-(A1-Pad12)*%
X154051000Y-80518000D03*
%TO.P,A1,4*%
%TO.N,Net-(A1-Pad4)*%
X156591000Y-67818000D03*
%TO.P,A1,11*%
%TO.N,Net-(A1-Pad11)*%
X151511000Y-80518000D03*
%TO.P,A1,3*%
%TO.N,Net-(A1-Pad3)*%
X159131000Y-67818000D03*
%TO.P,A1,10*%
%TO.N,Net-(A1-Pad10)*%
X148971000Y-80518000D03*
%TO.P,A1,2*%
%TO.N,Net-(A1-Pad2)*%
X161671000Y-67818000D03*
%TO.P,A1,9*%
%TO.N,Net-(A1-Pad9)*%
X146431000Y-80518000D03*
D15*
%TO.P,A1,1*%
%TO.N,GND*%
X164211000Y-67818000D03*
%TD*%
D12*
%TO.P,J15,4*%
%TO.N,Net-(A2-Pad6)*%
X167640000Y-62484000D03*
%TO.P,J15,3*%
%TO.N,Net-(A2-Pad5)*%
X167640000Y-59944000D03*
%TO.P,J15,2*%
%TO.N,Net-(A2-Pad4)*%
X167640000Y-57404000D03*
D13*
%TO.P,J15,1*%
%TO.N,Net-(A2-Pad3)*%
X167640000Y-54864000D03*
%TD*%
D16*
%TO.P,D4,2*%
%TO.N,+3V3*%
X169797000Y-51816000D03*
%TO.P,D4,1*%
%TO.N,Net-(A2-Pad2)*%
X166497000Y-51816000D03*
%TD*%
D17*
%TO.P,C4,2*%
%TO.N,GND*%
X149977000Y-54483000D03*
D15*
%TO.P,C4,1*%
%TO.N,+48V*%
X146177000Y-54483000D03*
%TD*%
D14*
%TO.P,A2,16*%
%TO.N,/PD4*%
X164211000Y-64643000D03*
%TO.P,A2,8*%
%TO.N,+48V*%
X146431000Y-51943000D03*
%TO.P,A2,15*%
%TO.N,/PD6*%
X161671000Y-64643000D03*
%TO.P,A2,7*%
%TO.N,GND*%
X148971000Y-51943000D03*
%TO.P,A2,14*%
%TO.N,N/C*%
X159131000Y-64643000D03*
%TO.P,A2,6*%
%TO.N,Net-(A2-Pad6)*%
X151511000Y-51943000D03*
%TO.P,A2,13*%
%TO.N,N/C*%
X156591000Y-64643000D03*
%TO.P,A2,5*%
%TO.N,Net-(A2-Pad5)*%
X154051000Y-51943000D03*
%TO.P,A2,12*%
%TO.N,Net-(A2-Pad12)*%
X154051000Y-64643000D03*
%TO.P,A2,4*%
%TO.N,Net-(A2-Pad4)*%
X156591000Y-51943000D03*
%TO.P,A2,11*%
%TO.N,Net-(A2-Pad11)*%
X151511000Y-64643000D03*
%TO.P,A2,3*%
%TO.N,Net-(A2-Pad3)*%
X159131000Y-51943000D03*
%TO.P,A2,10*%
%TO.N,Net-(A2-Pad10)*%
X148971000Y-64643000D03*
%TO.P,A2,2*%
%TO.N,Net-(A2-Pad2)*%
X161671000Y-51943000D03*
%TO.P,A2,9*%
%TO.N,Net-(A2-Pad9)*%
X146431000Y-64643000D03*
D15*
%TO.P,A2,1*%
%TO.N,GND*%
X164211000Y-51943000D03*
%TD*%
D12*
%TO.P,J40,6*%
%TO.N,Net-(A2-Pad12)*%
X156083000Y-61341000D03*
%TO.P,J40,5*%
%TO.N,Net-(A2-Pad2)*%
X156083000Y-58801000D03*
%TO.P,J40,4*%
%TO.N,Net-(A2-Pad11)*%
X153543000Y-61341000D03*
%TO.P,J40,3*%
%TO.N,Net-(A2-Pad2)*%
X153543000Y-58801000D03*
%TO.P,J40,2*%
%TO.N,Net-(A2-Pad10)*%
X151003000Y-61341000D03*
D13*
%TO.P,J40,1*%
%TO.N,Net-(A2-Pad2)*%
X151003000Y-58801000D03*
%TD*%
D11*
%TO.P,J4,4*%
%TO.N,/PA7_spi1MOSI*%
X79502000Y-84201000D03*
%TO.P,J4,3*%
%TO.N,/PA6_spi1MISO*%
X82042000Y-84201000D03*
%TO.P,J4,2*%
%TO.N,/PA5_spi1SCK*%
X84582000Y-84201000D03*
%TO.P,J4,1*%
%TO.N,/PA4_spi1SS*%
%TA.AperFunction,ComponentPad*%
G36*
G01*
X87992000Y-83355999D02*
X87992000Y-85046001D01*
G75*
G02*
X87742001Y-85296000I-249999J0D01*
G01*
X86501999Y-85296000D01*
G75*
G02*
X86252000Y-85046001I0J249999D01*
G01*
X86252000Y-83355999D01*
G75*
G02*
X86501999Y-83106000I249999J0D01*
G01*
X87742001Y-83106000D01*
G75*
G02*
X87992000Y-83355999I0J-249999D01*
G01*
G37*
%TD.AperFunction*%
%TD*%
%TO.P,J5,4*%
%TO.N,/PB5_spi3MOSI*%
X79375000Y-54229000D03*
%TO.P,J5,3*%
%TO.N,/PB4_spi3MISO*%
X81915000Y-54229000D03*
%TO.P,J5,2*%
%TO.N,/PB3_spi3SCK*%
X84455000Y-54229000D03*
%TO.P,J5,1*%
%TO.N,/PB8_spi3SS*%
%TA.AperFunction,ComponentPad*%
G36*
G01*
X87865000Y-53383999D02*
X87865000Y-55074001D01*
G75*
G02*
X87615001Y-55324000I-249999J0D01*
G01*
X86374999Y-55324000D01*
G75*
G02*
X86125000Y-55074001I0J249999D01*
G01*
X86125000Y-53383999D01*
G75*
G02*
X86374999Y-53134000I249999J0D01*
G01*
X87615001Y-53134000D01*
G75*
G02*
X87865000Y-53383999I0J-249999D01*
G01*
G37*
%TD.AperFunction*%
%TD*%
D14*
%TO.P,A4,16*%
%TO.N,/PA9*%
X164211000Y-96393000D03*
%TO.P,A4,8*%
%TO.N,+48V*%
X146431000Y-83693000D03*
%TO.P,A4,15*%
%TO.N,/PA15*%
X161671000Y-96393000D03*
%TO.P,A4,7*%
%TO.N,GND*%
X148971000Y-83693000D03*
%TO.P,A4,14*%
%TO.N,N/C*%
X159131000Y-96393000D03*
%TO.P,A4,6*%
%TO.N,Net-(A4-Pad6)*%
X151511000Y-83693000D03*
%TO.P,A4,13*%
%TO.N,N/C*%
X156591000Y-96393000D03*
%TO.P,A4,5*%
%TO.N,Net-(A4-Pad5)*%
X154051000Y-83693000D03*
%TO.P,A4,12*%
%TO.N,Net-(A4-Pad12)*%
X154051000Y-96393000D03*
%TO.P,A4,4*%
%TO.N,Net-(A4-Pad4)*%
X156591000Y-83693000D03*
%TO.P,A4,11*%
%TO.N,Net-(A4-Pad11)*%
X151511000Y-96393000D03*
%TO.P,A4,3*%
%TO.N,Net-(A4-Pad3)*%
X159131000Y-83693000D03*
%TO.P,A4,10*%
%TO.N,Net-(A4-Pad10)*%
X148971000Y-96393000D03*
%TO.P,A4,2*%
%TO.N,Net-(A4-Pad2)*%
X161671000Y-83693000D03*
%TO.P,A4,9*%
%TO.N,Net-(A4-Pad9)*%
X146431000Y-96393000D03*
D15*
%TO.P,A4,1*%
%TO.N,GND*%
X164211000Y-83693000D03*
%TD*%
D12*
%TO.P,J44,6*%
%TO.N,Net-(A5-Pad12)*%
X156464000Y-108839000D03*
%TO.P,J44,5*%
%TO.N,Net-(A5-Pad2)*%
X156464000Y-106299000D03*
%TO.P,J44,4*%
%TO.N,Net-(A5-Pad11)*%
X153924000Y-108839000D03*
%TO.P,J44,3*%
%TO.N,Net-(A5-Pad2)*%
X153924000Y-106299000D03*
%TO.P,J44,2*%
%TO.N,Net-(A5-Pad10)*%
X151384000Y-108839000D03*
D13*
%TO.P,J44,1*%
%TO.N,Net-(A5-Pad2)*%
X151384000Y-106299000D03*
%TD*%
D12*
%TO.P,J43,6*%
%TO.N,Net-(A4-Pad12)*%
X156210000Y-93218000D03*
%TO.P,J43,5*%
%TO.N,Net-(A4-Pad2)*%
X156210000Y-90678000D03*
%TO.P,J43,4*%
%TO.N,Net-(A4-Pad11)*%
X153670000Y-93218000D03*
%TO.P,J43,3*%
%TO.N,Net-(A4-Pad2)*%
X153670000Y-90678000D03*
%TO.P,J43,2*%
%TO.N,Net-(A4-Pad10)*%
X151130000Y-93218000D03*
D13*
%TO.P,J43,1*%
%TO.N,Net-(A4-Pad2)*%
X151130000Y-90678000D03*
%TD*%
D12*
%TO.P,J42,6*%
%TO.N,Net-(A3-Pad12)*%
X157607000Y-44958000D03*
%TO.P,J42,5*%
%TO.N,Net-(A3-Pad2)*%
X157607000Y-42418000D03*
%TO.P,J42,4*%
%TO.N,Net-(A3-Pad11)*%
X155067000Y-44958000D03*
%TO.P,J42,3*%
%TO.N,Net-(A3-Pad2)*%
X155067000Y-42418000D03*
%TO.P,J42,2*%
%TO.N,Net-(A3-Pad10)*%
X152527000Y-44958000D03*
D13*
%TO.P,J42,1*%
%TO.N,Net-(A3-Pad2)*%
X152527000Y-42418000D03*
%TD*%
D12*
%TO.P,J41,6*%
%TO.N,Net-(A1-Pad12)*%
X156083000Y-77343000D03*
%TO.P,J41,5*%
%TO.N,Net-(A1-Pad2)*%
X156083000Y-74803000D03*
%TO.P,J41,4*%
%TO.N,Net-(A1-Pad11)*%
X153543000Y-77343000D03*
%TO.P,J41,3*%
%TO.N,Net-(A1-Pad2)*%
X153543000Y-74803000D03*
%TO.P,J41,2*%
%TO.N,Net-(A1-Pad10)*%
X151003000Y-77343000D03*
D13*
%TO.P,J41,1*%
%TO.N,Net-(A1-Pad2)*%
X151003000Y-74803000D03*
%TD*%
D12*
%TO.P,J12,4*%
%TO.N,GND*%
X105156000Y-105156000D03*
%TO.P,J12,3*%
%TO.N,+12V*%
X105156000Y-102616000D03*
%TO.P,J12,2*%
%TO.N,N/C*%
X105156000Y-100076000D03*
D13*
%TO.P,J12,1*%
%TO.N,/PC8*%
X105156000Y-97536000D03*
%TD*%
D12*
%TO.P,J39,4*%
%TO.N,GND*%
X135636000Y-105156000D03*
%TO.P,J39,3*%
%TO.N,+12V*%
X135636000Y-102616000D03*
%TO.P,J39,2*%
%TO.N,N/C*%
X135636000Y-100076000D03*
D13*
%TO.P,J39,1*%
%TO.N,/PD9*%
X135636000Y-97536000D03*
%TD*%
%TO.P,J38,1*%
%TO.N,/PD10*%
X130556000Y-97536000D03*
D12*
%TO.P,J38,2*%
%TO.N,N/C*%
X130556000Y-100076000D03*
%TO.P,J38,3*%
%TO.N,+12V*%
X130556000Y-102616000D03*
%TO.P,J38,4*%
%TO.N,GND*%
X130556000Y-105156000D03*
%TD*%
%TO.P,J37,4*%
%TO.N,GND*%
X125476000Y-105156000D03*
%TO.P,J37,3*%
%TO.N,+12V*%
X125476000Y-102616000D03*
%TO.P,J37,2*%
%TO.N,N/C*%
X125476000Y-100076000D03*
D13*
%TO.P,J37,1*%
%TO.N,/PD8*%
X125476000Y-97536000D03*
%TD*%
D12*
%TO.P,J36,4*%
%TO.N,GND*%
X120396000Y-105156000D03*
%TO.P,J36,3*%
%TO.N,+12V*%
X120396000Y-102616000D03*
%TO.P,J36,2*%
%TO.N,N/C*%
X120396000Y-100076000D03*
D13*
%TO.P,J36,1*%
%TO.N,/PD12*%
X120396000Y-97536000D03*
%TD*%
D12*
%TO.P,J35,4*%
%TO.N,GND*%
X115316000Y-105156000D03*
%TO.P,J35,3*%
%TO.N,+12V*%
X115316000Y-102616000D03*
%TO.P,J35,2*%
%TO.N,N/C*%
X115316000Y-100076000D03*
D13*
%TO.P,J35,1*%
%TO.N,/PD14*%
X115316000Y-97536000D03*
%TD*%
D12*
%TO.P,J34,4*%
%TO.N,GND*%
X110236000Y-105156000D03*
%TO.P,J34,3*%
%TO.N,+12V*%
X110236000Y-102616000D03*
%TO.P,J34,2*%
%TO.N,N/C*%
X110236000Y-100076000D03*
D13*
%TO.P,J34,1*%
%TO.N,/PC6*%
X110236000Y-97536000D03*
%TD*%
D18*
%TO.P,J33,8*%
%TO.N,VDD*%
X114173000Y-128778000D03*
%TO.P,J33,7*%
%TO.N,/FET4*%
X109093000Y-128778000D03*
%TO.P,J33,6*%
%TO.N,VDD*%
X104013000Y-128778000D03*
%TO.P,J33,5*%
%TO.N,/FET5*%
X98933000Y-128778000D03*
%TO.P,J33,4*%
%TO.N,VDD*%
X93853000Y-128778000D03*
%TO.P,J33,3*%
%TO.N,/FET6*%
X88773000Y-128778000D03*
%TO.P,J33,2*%
%TO.N,GND*%
X83693000Y-128778000D03*
D19*
%TO.P,J33,1*%
X78613000Y-128778000D03*
%TD*%
D18*
%TO.P,J32,8*%
%TO.N,Net-(F5-Pad2)*%
X154813000Y-128778000D03*
%TO.P,J32,7*%
%TO.N,Net-(F3-Pad1)*%
X149733000Y-128778000D03*
%TO.P,J32,6*%
%TO.N,VDD*%
X144653000Y-128778000D03*
%TO.P,J32,5*%
%TO.N,/FET1*%
X139573000Y-128778000D03*
%TO.P,J32,4*%
%TO.N,VDD*%
X134493000Y-128778000D03*
%TO.P,J32,3*%
%TO.N,/FET2*%
X129413000Y-128778000D03*
%TO.P,J32,2*%
%TO.N,VDD*%
X124333000Y-128778000D03*
D19*
%TO.P,J32,1*%
%TO.N,/FET3*%
X119253000Y-128778000D03*
%TD*%
D18*
%TO.P,J31,4*%
%TO.N,Net-(F4-Pad1)*%
X100838000Y-38608000D03*
%TO.P,J31,3*%
%TO.N,GND*%
X105918000Y-38608000D03*
%TO.P,J31,2*%
%TO.N,Net-(F2-Pad1)*%
X110998000Y-38608000D03*
D19*
%TO.P,J31,1*%
%TO.N,Net-(F1-Pad1)*%
X116078000Y-38608000D03*
%TD*%
D20*
%TO.P,R2,2*%
%TO.N,GND*%
X80391000Y-65064000D03*
%TO.P,R2,1*%
%TO.N,/PC0*%
%TA.AperFunction,ComponentPad*%
G36*
G01*
X81141000Y-68414000D02*
X79641000Y-68414000D01*
G75*
G02*
X79391000Y-68164000I0J250000D01*
G01*
X79391000Y-66964000D01*
G75*
G02*
X79641000Y-66714000I250000J0D01*
G01*
X81141000Y-66714000D01*
G75*
G02*
X81391000Y-66964000I0J-250000D01*
G01*
X81391000Y-68164000D01*
G75*
G02*
X81141000Y-68414000I-250000J0D01*
G01*
G37*
%TD.AperFunction*%
%TD*%
%TO.P,R22,2*%
%TO.N,GND*%
X88265000Y-73573000D03*
%TO.P,R22,1*%
%TO.N,/PA0*%
%TA.AperFunction,ComponentPad*%
G36*
G01*
X89015000Y-76923000D02*
X87515000Y-76923000D01*
G75*
G02*
X87265000Y-76673000I0J250000D01*
G01*
X87265000Y-75473000D01*
G75*
G02*
X87515000Y-75223000I250000J0D01*
G01*
X89015000Y-75223000D01*
G75*
G02*
X89265000Y-75473000I0J-250000D01*
G01*
X89265000Y-76673000D01*
G75*
G02*
X89015000Y-76923000I-250000J0D01*
G01*
G37*
%TD.AperFunction*%
%TD*%
%TO.P,R20,2*%
%TO.N,GND*%
X80391000Y-73573000D03*
%TO.P,R20,1*%
%TO.N,/PC3*%
%TA.AperFunction,ComponentPad*%
G36*
G01*
X81141000Y-76923000D02*
X79641000Y-76923000D01*
G75*
G02*
X79391000Y-76673000I0J250000D01*
G01*
X79391000Y-75473000D01*
G75*
G02*
X79641000Y-75223000I250000J0D01*
G01*
X81141000Y-75223000D01*
G75*
G02*
X81391000Y-75473000I0J-250000D01*
G01*
X81391000Y-76673000D01*
G75*
G02*
X81141000Y-76923000I-250000J0D01*
G01*
G37*
%TD.AperFunction*%
%TD*%
%TO.P,R19,2*%
%TO.N,GND*%
X96139000Y-65064000D03*
%TO.P,R19,1*%
%TO.N,/PC2*%
%TA.AperFunction,ComponentPad*%
G36*
G01*
X96889000Y-68414000D02*
X95389000Y-68414000D01*
G75*
G02*
X95139000Y-68164000I0J250000D01*
G01*
X95139000Y-66964000D01*
G75*
G02*
X95389000Y-66714000I250000J0D01*
G01*
X96889000Y-66714000D01*
G75*
G02*
X97139000Y-66964000I0J-250000D01*
G01*
X97139000Y-68164000D01*
G75*
G02*
X96889000Y-68414000I-250000J0D01*
G01*
G37*
%TD.AperFunction*%
%TD*%
%TO.P,R17,2*%
%TO.N,GND*%
X88265000Y-65064000D03*
%TO.P,R17,1*%
%TO.N,/PC1*%
%TA.AperFunction,ComponentPad*%
G36*
G01*
X89015000Y-68414000D02*
X87515000Y-68414000D01*
G75*
G02*
X87265000Y-68164000I0J250000D01*
G01*
X87265000Y-66964000D01*
G75*
G02*
X87515000Y-66714000I250000J0D01*
G01*
X89015000Y-66714000D01*
G75*
G02*
X89265000Y-66964000I0J-250000D01*
G01*
X89265000Y-68164000D01*
G75*
G02*
X89015000Y-68414000I-250000J0D01*
G01*
G37*
%TD.AperFunction*%
%TD*%
D14*
%TO.P,U3,8*%
%TO.N,N/C*%
X89916000Y-116713000D03*
%TO.P,U3,4*%
%TO.N,/PB10*%
X82296000Y-109093000D03*
%TO.P,U3,7*%
%TO.N,Net-(Q6-Pad1)*%
X87376000Y-116713000D03*
%TO.P,U3,3*%
%TO.N,GND*%
X84836000Y-109093000D03*
%TO.P,U3,6*%
%TO.N,+12V*%
X84836000Y-116713000D03*
%TO.P,U3,2*%
%TO.N,/PE14*%
X87376000Y-109093000D03*
%TO.P,U3,5*%
%TO.N,Net-(Q5-Pad1)*%
X82296000Y-116713000D03*
D15*
%TO.P,U3,1*%
%TO.N,N/C*%
X89916000Y-109093000D03*
%TD*%
D14*
%TO.P,U2,8*%
%TO.N,N/C*%
X132334000Y-116713000D03*
%TO.P,U2,4*%
%TO.N,/PE13*%
X124714000Y-109093000D03*
%TO.P,U2,7*%
%TO.N,Net-(Q4-Pad1)*%
X129794000Y-116713000D03*
%TO.P,U2,3*%
%TO.N,GND*%
X127254000Y-109093000D03*
%TO.P,U2,6*%
%TO.N,+12V*%
X127254000Y-116713000D03*
%TO.P,U2,2*%
%TO.N,/PE11*%
X129794000Y-109093000D03*
%TO.P,U2,5*%
%TO.N,Net-(Q3-Pad1)*%
X124714000Y-116713000D03*
D15*
%TO.P,U2,1*%
%TO.N,N/C*%
X132334000Y-109093000D03*
%TD*%
D21*
%TO.P,Q6,3*%
%TO.N,GND*%
X88773000Y-119507000D03*
%TO.P,Q6,2*%
%TO.N,/FET5*%
X91313000Y-119507000D03*
D22*
%TO.P,Q6,1*%
%TO.N,Net-(Q6-Pad1)*%
X93853000Y-119507000D03*
%TD*%
D21*
%TO.P,Q5,3*%
%TO.N,GND*%
X78105000Y-119507000D03*
%TO.P,Q5,2*%
%TO.N,/FET6*%
X80645000Y-119507000D03*
D22*
%TO.P,Q5,1*%
%TO.N,Net-(Q5-Pad1)*%
X83185000Y-119507000D03*
%TD*%
D21*
%TO.P,Q4,3*%
%TO.N,GND*%
X131445000Y-119507000D03*
%TO.P,Q4,2*%
%TO.N,/FET1*%
X133985000Y-119507000D03*
D22*
%TO.P,Q4,1*%
%TO.N,Net-(Q4-Pad1)*%
X136525000Y-119507000D03*
%TD*%
D21*
%TO.P,Q3,3*%
%TO.N,GND*%
X120777000Y-119507000D03*
%TO.P,Q3,2*%
%TO.N,/FET2*%
X123317000Y-119507000D03*
D22*
%TO.P,Q3,1*%
%TO.N,Net-(Q3-Pad1)*%
X125857000Y-119507000D03*
%TD*%
D21*
%TO.P,Q2,3*%
%TO.N,GND*%
X110109000Y-119507000D03*
%TO.P,Q2,2*%
%TO.N,/FET3*%
X112649000Y-119507000D03*
D22*
%TO.P,Q2,1*%
%TO.N,Net-(Q2-Pad1)*%
X115189000Y-119507000D03*
%TD*%
D21*
%TO.P,Q1,3*%
%TO.N,GND*%
X99441000Y-119507000D03*
%TO.P,Q1,2*%
%TO.N,/FET4*%
X101981000Y-119507000D03*
D22*
%TO.P,Q1,1*%
%TO.N,Net-(Q1-Pad1)*%
X104521000Y-119507000D03*
%TD*%
D12*
%TO.P,J30,4*%
%TO.N,Net-(A5-Pad6)*%
X167894000Y-109982000D03*
%TO.P,J30,3*%
%TO.N,Net-(A5-Pad5)*%
X167894000Y-107442000D03*
%TO.P,J30,2*%
%TO.N,Net-(A5-Pad4)*%
X167894000Y-104902000D03*
D13*
%TO.P,J30,1*%
%TO.N,Net-(A5-Pad3)*%
X167894000Y-102362000D03*
%TD*%
D12*
%TO.P,J25,2*%
%TO.N,/PA3*%
X98552000Y-80137000D03*
D13*
%TO.P,J25,1*%
%TO.N,Net-(J25-Pad1)*%
X96012000Y-80137000D03*
%TD*%
D12*
%TO.P,J24,2*%
%TO.N,/PA2*%
X98552000Y-76327000D03*
D13*
%TO.P,J24,1*%
%TO.N,Net-(J24-Pad1)*%
X96012000Y-76327000D03*
%TD*%
D12*
%TO.P,J23,2*%
%TO.N,/PA1*%
X98552000Y-72517000D03*
D13*
%TO.P,J23,1*%
%TO.N,Net-(J23-Pad1)*%
X96012000Y-72517000D03*
%TD*%
D12*
%TO.P,J22,4*%
%TO.N,Net-(A4-Pad6)*%
X168275000Y-94488000D03*
%TO.P,J22,3*%
%TO.N,Net-(A4-Pad5)*%
X168275000Y-91948000D03*
%TO.P,J22,2*%
%TO.N,Net-(A4-Pad4)*%
X168275000Y-89408000D03*
D13*
%TO.P,J22,1*%
%TO.N,Net-(A4-Pad3)*%
X168275000Y-86868000D03*
%TD*%
D12*
%TO.P,J21,4*%
%TO.N,Net-(A3-Pad6)*%
X167640000Y-46609000D03*
%TO.P,J21,3*%
%TO.N,Net-(A3-Pad5)*%
X167640000Y-44069000D03*
%TO.P,J21,2*%
%TO.N,Net-(A3-Pad4)*%
X167640000Y-41529000D03*
D13*
%TO.P,J21,1*%
%TO.N,Net-(A3-Pad3)*%
X167640000Y-38989000D03*
%TD*%
D12*
%TO.P,J16,4*%
%TO.N,Net-(A1-Pad6)*%
X167894000Y-78359000D03*
%TO.P,J16,3*%
%TO.N,Net-(A1-Pad5)*%
X167894000Y-75819000D03*
%TO.P,J16,2*%
%TO.N,Net-(A1-Pad4)*%
X167894000Y-73279000D03*
D13*
%TO.P,J16,1*%
%TO.N,Net-(A1-Pad3)*%
X167894000Y-70739000D03*
%TD*%
D12*
%TO.P,J14,5*%
%TO.N,GND*%
X105473500Y-46291500D03*
%TO.P,J14,4*%
%TO.N,/PE3*%
X102933500Y-46291500D03*
%TO.P,J14,3*%
%TO.N,GND*%
X100393500Y-46291500D03*
%TO.P,J14,2*%
%TO.N,+5VD*%
X97853500Y-46291500D03*
D13*
%TO.P,J14,1*%
%TO.N,/PE2*%
X95313500Y-46291500D03*
%TD*%
D12*
%TO.P,J11,3*%
%TO.N,+5VD*%
X93980000Y-50800000D03*
%TO.P,J11,2*%
%TO.N,/PE4*%
X96520000Y-50800000D03*
D13*
%TO.P,J11,1*%
%TO.N,GND*%
X99060000Y-50800000D03*
%TD*%
D12*
%TO.P,J7,8*%
%TO.N,/PB8_spi3SS*%
X88260000Y-46360000D03*
%TO.P,J7,7*%
%TO.N,/PB4_spi3MISO*%
X88260000Y-48900000D03*
%TO.P,J7,6*%
%TO.N,/PB5_spi3MOSI*%
X85720000Y-46360000D03*
%TO.P,J7,5*%
%TO.N,/PB3_spi3SCK*%
X85720000Y-48900000D03*
%TO.P,J7,4*%
%TO.N,N/C*%
X83180000Y-46360000D03*
%TO.P,J7,3*%
X83180000Y-48900000D03*
%TO.P,J7,2*%
X80640000Y-46360000D03*
D13*
%TO.P,J7,1*%
X80640000Y-48900000D03*
%TD*%
D11*
%TO.P,J6,4*%
%TO.N,/PB15_spi2MOSI*%
X79375000Y-103632000D03*
%TO.P,J6,3*%
%TO.N,/PB14_spi2MISO*%
X81915000Y-103632000D03*
%TO.P,J6,2*%
%TO.N,/PB13_spi2SCK*%
X84455000Y-103632000D03*
%TO.P,J6,1*%
%TO.N,/PB12_spi2SS*%
%TA.AperFunction,ComponentPad*%
G36*
G01*
X87865000Y-102786999D02*
X87865000Y-104477001D01*
G75*
G02*
X87615001Y-104727000I-249999J0D01*
G01*
X86374999Y-104727000D01*
G75*
G02*
X86125000Y-104477001I0J249999D01*
G01*
X86125000Y-102786999D01*
G75*
G02*
X86374999Y-102537000I249999J0D01*
G01*
X87615001Y-102537000D01*
G75*
G02*
X87865000Y-102786999I0J-249999D01*
G01*
G37*
%TD.AperFunction*%
%TD*%
%TO.P,J3,6*%
%TO.N,/PE8*%
X92202000Y-91440000D03*
%TO.P,J3,5*%
%TO.N,/PE7*%
X89662000Y-91440000D03*
%TO.P,J3,4*%
%TO.N,/PB1*%
X87122000Y-91440000D03*
%TO.P,J3,3*%
%TO.N,/PB0*%
X84582000Y-91440000D03*
%TO.P,J3,2*%
%TO.N,/PC5*%
X82042000Y-91440000D03*
%TO.P,J3,1*%
%TO.N,/PC4*%
%TA.AperFunction,ComponentPad*%
G36*
G01*
X78632000Y-92285001D02*
X78632000Y-90594999D01*
G75*
G02*
X78881999Y-90345000I249999J0D01*
G01*
X80122001Y-90345000D01*
G75*
G02*
X80372000Y-90594999I0J-249999D01*
G01*
X80372000Y-92285001D01*
G75*
G02*
X80122001Y-92535000I-249999J0D01*
G01*
X78881999Y-92535000D01*
G75*
G02*
X78632000Y-92285001I0J249999D01*
G01*
G37*
%TD.AperFunction*%
%TD*%
D16*
%TO.P,D8,2*%
%TO.N,+3V3*%
X169924000Y-99187000D03*
%TO.P,D8,1*%
%TO.N,Net-(A5-Pad2)*%
X166624000Y-99187000D03*
%TD*%
%TO.P,D7,2*%
%TO.N,+3V3*%
X169797000Y-83693000D03*
%TO.P,D7,1*%
%TO.N,Net-(A4-Pad2)*%
X166497000Y-83693000D03*
%TD*%
%TO.P,D6,2*%
%TO.N,+3V3*%
X169924000Y-35941000D03*
%TO.P,D6,1*%
%TO.N,Net-(A3-Pad2)*%
X166624000Y-35941000D03*
%TD*%
%TO.P,D5,2*%
%TO.N,+3V3*%
X169925000Y-67564000D03*
%TO.P,D5,1*%
%TO.N,Net-(A1-Pad2)*%
X166625000Y-67564000D03*
%TD*%
D17*
%TO.P,C5,2*%
%TO.N,GND*%
X150104000Y-70358000D03*
D15*
%TO.P,C5,1*%
%TO.N,+48V*%
X146304000Y-70358000D03*
%TD*%
D17*
%TO.P,C3,2*%
%TO.N,GND*%
X150114000Y-102108000D03*
D15*
%TO.P,C3,1*%
%TO.N,+48V*%
X146314000Y-102108000D03*
%TD*%
D17*
%TO.P,C2,2*%
%TO.N,GND*%
X150114000Y-86233000D03*
D15*
%TO.P,C2,1*%
%TO.N,+48V*%
X146314000Y-86233000D03*
%TD*%
D17*
%TO.P,C1,2*%
%TO.N,GND*%
X150104000Y-38481000D03*
D15*
%TO.P,C1,1*%
%TO.N,+48V*%
X146304000Y-38481000D03*
%TD*%
D14*
%TO.P,A5,16*%
%TO.N,/PC7*%
X164211000Y-112268000D03*
%TO.P,A5,8*%
%TO.N,+48V*%
X146431000Y-99568000D03*
%TO.P,A5,15*%
%TO.N,/PD15*%
X161671000Y-112268000D03*
%TO.P,A5,7*%
%TO.N,GND*%
X148971000Y-99568000D03*
%TO.P,A5,14*%
%TO.N,N/C*%
X159131000Y-112268000D03*
%TO.P,A5,6*%
%TO.N,Net-(A5-Pad6)*%
X151511000Y-99568000D03*
%TO.P,A5,13*%
%TO.N,N/C*%
X156591000Y-112268000D03*
%TO.P,A5,5*%
%TO.N,Net-(A5-Pad5)*%
X154051000Y-99568000D03*
%TO.P,A5,12*%
%TO.N,Net-(A5-Pad12)*%
X154051000Y-112268000D03*
%TO.P,A5,4*%
%TO.N,Net-(A5-Pad4)*%
X156591000Y-99568000D03*
%TO.P,A5,11*%
%TO.N,Net-(A5-Pad11)*%
X151511000Y-112268000D03*
%TO.P,A5,3*%
%TO.N,Net-(A5-Pad3)*%
X159131000Y-99568000D03*
%TO.P,A5,10*%
%TO.N,Net-(A5-Pad10)*%
X148971000Y-112268000D03*
%TO.P,A5,2*%
%TO.N,Net-(A5-Pad2)*%
X161671000Y-99568000D03*
%TO.P,A5,9*%
%TO.N,Net-(A5-Pad9)*%
X146431000Y-112268000D03*
D15*
%TO.P,A5,1*%
%TO.N,GND*%
X164211000Y-99568000D03*
%TD*%
D23*
%TO.N,+48V*%
X144399000Y-44704000D03*
X144399000Y-43815000D03*
X143256000Y-44577000D03*
X143256000Y-43815000D03*
%TO.N,+3V3*%
X91548990Y-78123010D03*
X92710000Y-74422000D03*
X92710000Y-71374000D03*
X85866187Y-77074813D03*
X85090000Y-68326000D03*
%TO.N,/PE15*%
X81669485Y-113962979D03*
%TO.N,/PE13*%
X80301000Y-116567130D03*
X72490010Y-106807000D03*
%TO.N,/PA0*%
X83642200Y-78460600D03*
%TO.N,+24V*%
X121589800Y-55905400D03*
%TO.N,+5VD*%
X102489000Y-63754000D03*
X103378000Y-63754000D03*
X103441500Y-62357000D03*
X102489000Y-62357000D03*
%TO.N,/PD2*%
X147701000Y-79502000D03*
%TO.N,/PC9*%
X147701000Y-95504000D03*
%TO.N,/PB11*%
X80889855Y-114792427D03*
%TO.N,/PD13*%
X147955000Y-110998000D03*
%TO.N,/PB6*%
X146050000Y-46863000D03*
X162814000Y-49911000D03*
X147828000Y-49911000D03*
%TO.N,/PB7*%
X147701000Y-63627000D03*
X140716000Y-68453000D03*
%TO.N,/PE11*%
X81026000Y-117348000D03*
%TD*%
D24*
%TO.N,+48V*%
X146304000Y-38481000D02*
X145669000Y-38481000D01*
D25*
X144399000Y-40386000D02*
X146304000Y-38481000D01*
X144399000Y-44704000D02*
X144399000Y-40386000D01*
X146304000Y-38481000D02*
X144780000Y-38481000D01*
X143256000Y-43815000D02*
X143256000Y-44577000D01*
X143256000Y-40005000D02*
X143256000Y-43815000D01*
X143700500Y-44005500D02*
X144399000Y-44704000D01*
X143700500Y-39560500D02*
X143700500Y-44005500D01*
X144780000Y-38481000D02*
X143700500Y-39560500D01*
X143700500Y-39560500D02*
X143256000Y-40005000D01*
%TO.N,GND*%
X89965010Y-66570490D02*
X88458520Y-65064000D01*
X88458520Y-65064000D02*
X88265000Y-65064000D01*
X89965010Y-71872990D02*
X89965010Y-66570490D01*
X88265000Y-73573000D02*
X89965010Y-71872990D01*
%TO.N,Net-(A1-Pad6)*%
X162869869Y-73045029D02*
X159139818Y-73045028D01*
X159139818Y-73045028D02*
X157939810Y-71845020D01*
X166089999Y-76265159D02*
X162869869Y-73045029D01*
X157096879Y-71845019D02*
X155896871Y-70645011D01*
X167640000Y-78486000D02*
X166089999Y-76935999D01*
X154173929Y-69445001D02*
X153011001Y-69445001D01*
X153011001Y-69445001D02*
X151511000Y-67945000D01*
X155896871Y-70645011D02*
X155373938Y-70645010D01*
X157939810Y-71845020D02*
X157096879Y-71845019D01*
X155373938Y-70645010D02*
X154173929Y-69445001D01*
X166089999Y-76935999D02*
X166089999Y-76265159D01*
%TO.N,Net-(A1-Pad5)*%
X163449000Y-71927090D02*
X163449000Y-71919140D01*
X159636879Y-71845019D02*
X158436871Y-70645011D01*
X163374880Y-71845020D02*
X159636879Y-71845019D01*
X167640000Y-75946000D02*
X167467910Y-75946000D01*
X156393931Y-69445001D02*
X155870999Y-69445001D01*
X157593940Y-70645010D02*
X156393931Y-69445001D01*
X167467910Y-75946000D02*
X163449000Y-71927090D01*
X154370998Y-67945000D02*
X154051000Y-67945000D01*
X155870999Y-69445001D02*
X154370998Y-67945000D01*
X163449000Y-71919140D02*
X163374880Y-71845020D01*
X158436871Y-70645011D02*
X157593940Y-70645010D01*
%TO.N,Net-(A1-Pad4)*%
X160133940Y-70645010D02*
X158933931Y-69445001D01*
X163871940Y-70645010D02*
X160133940Y-70645010D01*
X166632930Y-73406000D02*
X163871940Y-70645010D01*
X158091001Y-69445001D02*
X156591000Y-67945000D01*
X158933931Y-69445001D02*
X158091001Y-69445001D01*
X167640000Y-73406000D02*
X166632930Y-73406000D01*
%TO.N,Net-(A1-Pad3)*%
X167640000Y-70866000D02*
X165790000Y-70866000D01*
X164369001Y-69445001D02*
X160631001Y-69445001D01*
X165790000Y-70866000D02*
X164369001Y-69445001D01*
X160631001Y-69445001D02*
X159131000Y-67945000D01*
D26*
%TO.N,Net-(A1-Pad2)*%
X156083000Y-74803000D02*
X151003000Y-74803000D01*
X165753999Y-66692999D02*
X166625000Y-67564000D01*
X162796001Y-66692999D02*
X165753999Y-66692999D01*
X161671000Y-67818000D02*
X162796001Y-66692999D01*
X151102001Y-74703999D02*
X151003000Y-74803000D01*
X151229001Y-69328003D02*
X151229001Y-74576999D01*
X150385999Y-68485001D02*
X151229001Y-69328003D01*
X150385999Y-67277999D02*
X150385999Y-68485001D01*
X150970999Y-66692999D02*
X150385999Y-67277999D01*
X159671001Y-66692999D02*
X150970999Y-66692999D01*
X159798001Y-66819999D02*
X159671001Y-66692999D01*
X151229001Y-74576999D02*
X151003000Y-74803000D01*
X160545999Y-66819999D02*
X159798001Y-66819999D01*
X161671000Y-67945000D02*
X160545999Y-66819999D01*
X162796001Y-66819999D02*
X161671000Y-67945000D01*
D25*
%TO.N,Net-(A2-Pad6)*%
X167640000Y-62484000D02*
X166089999Y-60933999D01*
X157096879Y-55843019D02*
X155896871Y-54643011D01*
X166089999Y-60263159D02*
X162869869Y-57043029D01*
X162869869Y-57043029D02*
X159139818Y-57043028D01*
X155896871Y-54643011D02*
X155373938Y-54643010D01*
X159139818Y-57043028D02*
X157939810Y-55843020D01*
X157939810Y-55843020D02*
X157096879Y-55843019D01*
X166089999Y-60933999D02*
X166089999Y-60263159D01*
X155373938Y-54643010D02*
X154173929Y-53443001D01*
X154173929Y-53443001D02*
X153011001Y-53443001D01*
X153011001Y-53443001D02*
X151511000Y-51943000D01*
%TO.N,Net-(A2-Pad5)*%
X155870999Y-53443001D02*
X154370998Y-51943000D01*
X156393931Y-53443001D02*
X155870999Y-53443001D01*
X154370998Y-51943000D02*
X154051000Y-51943000D01*
X167640000Y-59944000D02*
X167467910Y-59944000D01*
X167467910Y-59944000D02*
X163449000Y-55925090D01*
X163374880Y-55843020D02*
X159636879Y-55843019D01*
X159636879Y-55843019D02*
X158436871Y-54643011D01*
X158436871Y-54643011D02*
X157593940Y-54643010D01*
X157593940Y-54643010D02*
X156393931Y-53443001D01*
X163449000Y-55925090D02*
X163449000Y-55917140D01*
X163449000Y-55917140D02*
X163374880Y-55843020D01*
%TO.N,Net-(A2-Pad4)*%
X160133940Y-54643010D02*
X158933931Y-53443001D01*
X158933931Y-53443001D02*
X158091001Y-53443001D01*
X158091001Y-53443001D02*
X156591000Y-51943000D01*
X166632930Y-57404000D02*
X163871940Y-54643010D01*
X167640000Y-57404000D02*
X166632930Y-57404000D01*
X163871940Y-54643010D02*
X160133940Y-54643010D01*
%TO.N,Net-(A2-Pad3)*%
X164369001Y-53443001D02*
X160631001Y-53443001D01*
X160631001Y-53443001D02*
X159131000Y-51943000D01*
X167640000Y-54864000D02*
X165790000Y-54864000D01*
X165790000Y-54864000D02*
X164369001Y-53443001D01*
D26*
%TO.N,Net-(A2-Pad2)*%
X165498999Y-50817999D02*
X162796001Y-50817999D01*
X150385999Y-51402999D02*
X150970999Y-50817999D01*
X150970999Y-50817999D02*
X160545999Y-50817999D01*
X151003000Y-58801000D02*
X151102001Y-58701999D01*
X162796001Y-50817999D02*
X161671000Y-51943000D01*
X150385999Y-52483001D02*
X150385999Y-51402999D01*
X151102001Y-53199003D02*
X150385999Y-52483001D01*
X151102001Y-58701999D02*
X151102001Y-53199003D01*
X166497000Y-51816000D02*
X165498999Y-50817999D01*
X160545999Y-50817999D02*
X161671000Y-51943000D01*
X156083000Y-58801000D02*
X151003000Y-58801000D01*
D25*
%TO.N,Net-(A3-Pad6)*%
X167640000Y-46363002D02*
X166089999Y-44813001D01*
X167640000Y-46609000D02*
X167640000Y-46363002D01*
X166089999Y-43970071D02*
X163311957Y-41192029D01*
X166089999Y-44813001D02*
X166089999Y-43970071D01*
X163311957Y-41192029D02*
X159163818Y-41192028D01*
X157939810Y-39968020D02*
X157096879Y-39968019D01*
X159163818Y-41192028D02*
X157939810Y-39968020D01*
X155896871Y-38768011D02*
X155373938Y-38768010D01*
X157096879Y-39968019D02*
X155896871Y-38768011D01*
X153011001Y-37568001D02*
X151511000Y-36068000D01*
X154173929Y-37568001D02*
X153011001Y-37568001D01*
X155373938Y-38768010D02*
X154173929Y-37568001D01*
%TO.N,Net-(A3-Pad5)*%
X167640000Y-43823002D02*
X164788990Y-40971992D01*
X167640000Y-44069000D02*
X167640000Y-43823002D01*
X164706020Y-39992020D02*
X159660879Y-39992019D01*
X164788990Y-40074990D02*
X164706020Y-39992020D01*
X164788990Y-40971992D02*
X164788990Y-40074990D01*
X158436871Y-38768011D02*
X157593940Y-38768010D01*
X159660879Y-39992019D02*
X158436871Y-38768011D01*
X157593940Y-38768010D02*
X156393931Y-37568001D01*
X154370998Y-36068000D02*
X154051000Y-36068000D01*
X155870999Y-37568001D02*
X154370998Y-36068000D01*
X156393931Y-37568001D02*
X155870999Y-37568001D01*
%TO.N,Net-(A3-Pad4)*%
X165989000Y-40298002D02*
X165989000Y-39416070D01*
X166369999Y-40679001D02*
X165989000Y-40298002D01*
X166790001Y-40679001D02*
X166369999Y-40679001D01*
X167640000Y-41529000D02*
X166790001Y-40679001D01*
X165364940Y-38792010D02*
X160157940Y-38792010D01*
X165989000Y-39416070D02*
X165364940Y-38792010D01*
X158091001Y-37568001D02*
X156591000Y-36068000D01*
X158933931Y-37568001D02*
X158091001Y-37568001D01*
X160157940Y-38792010D02*
X158933931Y-37568001D01*
%TO.N,Net-(A3-Pad3)*%
X167640000Y-38989000D02*
X167259000Y-38989000D01*
X167259000Y-38989000D02*
X165862000Y-37592000D01*
X160631001Y-37568001D02*
X159131000Y-36068000D01*
X162282001Y-37568001D02*
X160631001Y-37568001D01*
X162306000Y-37592000D02*
X162282001Y-37568001D01*
X165862000Y-37592000D02*
X162306000Y-37592000D01*
D26*
%TO.N,Net-(A3-Pad2)*%
X162796001Y-34942999D02*
X161671000Y-36068000D01*
X165625999Y-34942999D02*
X162796001Y-34942999D01*
X166624000Y-35941000D02*
X165625999Y-34942999D01*
X157607000Y-42418000D02*
X152527000Y-42418000D01*
X160545999Y-34942999D02*
X161671000Y-36068000D01*
X150970999Y-34942999D02*
X160545999Y-34942999D01*
X150385999Y-35527999D02*
X150970999Y-34942999D01*
X150385999Y-37097997D02*
X150385999Y-35527999D01*
X152527000Y-39238998D02*
X150385999Y-37097997D01*
X152527000Y-42418000D02*
X152527000Y-39238998D01*
D25*
%TO.N,Net-(A4-Pad6)*%
X162869869Y-88920029D02*
X159139818Y-88920028D01*
X159139818Y-88920028D02*
X157939810Y-87720020D01*
X166089999Y-92140159D02*
X162869869Y-88920029D01*
X157096879Y-87720019D02*
X155896871Y-86520011D01*
X167640000Y-94361000D02*
X166089999Y-92810999D01*
X154173929Y-85320001D02*
X153011001Y-85320001D01*
X153011001Y-85320001D02*
X151511000Y-83820000D01*
X155896871Y-86520011D02*
X155373938Y-86520010D01*
X157939810Y-87720020D02*
X157096879Y-87720019D01*
X155373938Y-86520010D02*
X154173929Y-85320001D01*
X166089999Y-92810999D02*
X166089999Y-92140159D01*
%TO.N,Net-(A4-Pad5)*%
X163449000Y-87802090D02*
X163449000Y-87794140D01*
X159636879Y-87720019D02*
X158436871Y-86520011D01*
X163374880Y-87720020D02*
X159636879Y-87720019D01*
X167640000Y-91821000D02*
X167467910Y-91821000D01*
X156393931Y-85320001D02*
X155870999Y-85320001D01*
X157593940Y-86520010D02*
X156393931Y-85320001D01*
X167467910Y-91821000D02*
X163449000Y-87802090D01*
X154370998Y-83820000D02*
X154051000Y-83820000D01*
X155870999Y-85320001D02*
X154370998Y-83820000D01*
X163449000Y-87794140D02*
X163374880Y-87720020D01*
X158436871Y-86520011D02*
X157593940Y-86520010D01*
%TO.N,Net-(A4-Pad4)*%
X160133940Y-86520010D02*
X158933931Y-85320001D01*
X163871940Y-86520010D02*
X160133940Y-86520010D01*
X166632930Y-89281000D02*
X163871940Y-86520010D01*
X158091001Y-85320001D02*
X156591000Y-83820000D01*
X158933931Y-85320001D02*
X158091001Y-85320001D01*
X167640000Y-89281000D02*
X166632930Y-89281000D01*
%TO.N,Net-(A4-Pad3)*%
X167640000Y-86741000D02*
X165790000Y-86741000D01*
X164369001Y-85320001D02*
X160631001Y-85320001D01*
X165790000Y-86741000D02*
X164369001Y-85320001D01*
X160631001Y-85320001D02*
X159131000Y-83820000D01*
D26*
%TO.N,Net-(A4-Pad2)*%
X162796001Y-82694999D02*
X161671000Y-83820000D01*
X160545999Y-82694999D02*
X161671000Y-83820000D01*
X166497000Y-83693000D02*
X165498999Y-82694999D01*
X162796001Y-82567999D02*
X161671000Y-83693000D01*
X165371999Y-82567999D02*
X162796001Y-82567999D01*
X166497000Y-83693000D02*
X165371999Y-82567999D01*
X151003000Y-90678000D02*
X156083000Y-90678000D01*
X151102001Y-90578999D02*
X151003000Y-90678000D01*
X151239001Y-85213003D02*
X151239001Y-90568999D01*
X150385999Y-84360001D02*
X151239001Y-85213003D01*
X150385999Y-83152999D02*
X150385999Y-84360001D01*
X151239001Y-90568999D02*
X151130000Y-90678000D01*
X150970999Y-82567999D02*
X150385999Y-83152999D01*
X160545999Y-82567999D02*
X150970999Y-82567999D01*
X161671000Y-83693000D02*
X160545999Y-82567999D01*
D25*
%TO.N,Net-(A5-Pad6)*%
X154338011Y-102268011D02*
X151638000Y-99568000D01*
X166216999Y-108558999D02*
X166216999Y-107888159D01*
X158066810Y-103468020D02*
X157223879Y-103468019D01*
X159266818Y-104668028D02*
X158066810Y-103468020D01*
X156023871Y-102268011D02*
X155500938Y-102268010D01*
X162996869Y-104668029D02*
X159266818Y-104668028D01*
X166216999Y-107888159D02*
X162996869Y-104668029D01*
X157223879Y-103468019D02*
X156023871Y-102268011D01*
X167767000Y-110109000D02*
X166216999Y-108558999D01*
X156023871Y-102268011D02*
X154338011Y-102268011D01*
%TO.N,Net-(A5-Pad5)*%
X155551001Y-101068001D02*
X154051000Y-99568000D01*
X156520931Y-101068001D02*
X155551001Y-101068001D01*
X157720940Y-102268010D02*
X156520931Y-101068001D01*
X159763879Y-103468019D02*
X158563871Y-102268011D01*
X163576000Y-103542140D02*
X163501880Y-103468020D01*
X158563871Y-102268011D02*
X157720940Y-102268010D01*
X163576000Y-103550090D02*
X163576000Y-103542140D01*
X163501880Y-103468020D02*
X159763879Y-103468019D01*
X167594910Y-107569000D02*
X163576000Y-103550090D01*
X167767000Y-107569000D02*
X167594910Y-107569000D01*
%TO.N,Net-(A5-Pad4)*%
X163998940Y-102268010D02*
X160260940Y-102268010D01*
X167767000Y-105029000D02*
X166759930Y-105029000D01*
X166759930Y-105029000D02*
X163998940Y-102268010D01*
X158218001Y-101068001D02*
X156718000Y-99568000D01*
X159060931Y-101068001D02*
X158218001Y-101068001D01*
X160260940Y-102268010D02*
X159060931Y-101068001D01*
%TO.N,Net-(A5-Pad3)*%
X165917000Y-102489000D02*
X164496001Y-101068001D01*
X167767000Y-102489000D02*
X165917000Y-102489000D01*
X160758001Y-101068001D02*
X159258000Y-99568000D01*
X164496001Y-101068001D02*
X160758001Y-101068001D01*
D26*
%TO.N,Net-(A5-Pad2)*%
X160672999Y-98442999D02*
X161798000Y-99568000D01*
X166624000Y-99441000D02*
X165625999Y-98442999D01*
X162923001Y-98442999D02*
X161798000Y-99568000D01*
X151130000Y-106426000D02*
X151229001Y-106326999D01*
X160672999Y-98442999D02*
X150970999Y-98442999D01*
X162923001Y-98442999D02*
X165625999Y-98442999D01*
X156464000Y-106299000D02*
X151384000Y-106299000D01*
X150385999Y-99027999D02*
X150970999Y-98442999D01*
X150385999Y-100108001D02*
X150385999Y-99027999D01*
X150385999Y-100108001D02*
X151511000Y-101233002D01*
X151511000Y-106172000D02*
X151384000Y-106299000D01*
X151511000Y-101233002D02*
X151511000Y-106172000D01*
D27*
%TO.N,+3V3*%
X86914384Y-78123010D02*
X91548990Y-78123010D01*
X91548990Y-78123010D02*
X92710000Y-76962000D01*
X92710000Y-76962000D02*
X92710000Y-74422000D01*
X92710000Y-74422000D02*
X92710000Y-71374000D01*
X85866187Y-77074813D02*
X86914384Y-78123010D01*
X85090000Y-76298626D02*
X85866187Y-77074813D01*
D26*
X169924000Y-35941000D02*
X169924000Y-35812000D01*
D25*
X169925000Y-68198000D02*
X169926000Y-68199000D01*
X169925000Y-67564000D02*
X169925000Y-68198000D01*
D28*
X142919999Y-45990001D02*
X142070000Y-46840000D01*
X151654001Y-45990001D02*
X142919999Y-45990001D01*
X164241001Y-46258001D02*
X151922001Y-46258001D01*
X164798179Y-46815179D02*
X164241001Y-46258001D01*
X164798179Y-46817179D02*
X164798179Y-46815179D01*
X151922001Y-46258001D02*
X151654001Y-45990001D01*
X169797000Y-51816000D02*
X164798179Y-46817179D01*
D25*
X169797000Y-36068000D02*
X169924000Y-35941000D01*
X169797000Y-51816000D02*
X169797000Y-36068000D01*
X169797000Y-67436000D02*
X169925000Y-67564000D01*
X169797000Y-51816000D02*
X169797000Y-67436000D01*
X169925000Y-83565000D02*
X169797000Y-83693000D01*
X169925000Y-67564000D02*
X169925000Y-83565000D01*
X169924000Y-83820000D02*
X169797000Y-83693000D01*
X169924000Y-99187000D02*
X169924000Y-83820000D01*
D27*
X85090000Y-68326000D02*
X85090000Y-76298626D01*
D26*
%TO.N,/PB12_spi2SS*%
X76168010Y-102211990D02*
X75650000Y-102730000D01*
X86995000Y-103632000D02*
X86369999Y-103632000D01*
%TO.N,/PB10*%
X76825001Y-101365001D02*
X75650000Y-100190000D01*
X76825001Y-103633410D02*
X76825001Y-101365001D01*
X82284591Y-109093000D02*
X76825001Y-103633410D01*
X82296000Y-109093000D02*
X82284591Y-109093000D01*
%TO.N,/PE15*%
X76825001Y-105834001D02*
X76825001Y-104705999D01*
X76214001Y-106445001D02*
X76825001Y-105834001D01*
X75085999Y-106445001D02*
X76214001Y-106445001D01*
X75085999Y-103905001D02*
X74285001Y-103104003D01*
X76024003Y-103905001D02*
X75085999Y-103905001D01*
X73115040Y-108415960D02*
X75085999Y-106445001D01*
X76825001Y-104705999D02*
X76024003Y-103905001D01*
X73115040Y-112482220D02*
X73115040Y-108415960D01*
X73281820Y-112649000D02*
X73115040Y-112482220D01*
X74285001Y-101365001D02*
X73110000Y-100190000D01*
X74285001Y-103104003D02*
X74285001Y-101365001D01*
X80355506Y-112649000D02*
X73281820Y-112649000D01*
X81669485Y-113962979D02*
X80355506Y-112649000D01*
%TO.N,/PE14*%
X86250999Y-107967999D02*
X87376000Y-109093000D01*
X78179990Y-104351989D02*
X81796000Y-107967999D01*
X78179990Y-100179990D02*
X78179990Y-104351989D01*
X81796000Y-107967999D02*
X86250999Y-107967999D01*
X75650000Y-97650000D02*
X78179990Y-100179990D01*
%TO.N,/PE13*%
X80301000Y-116567130D02*
X79335140Y-117532990D01*
X79335140Y-117532990D02*
X77146990Y-117532990D01*
X76575416Y-116961416D02*
X76575416Y-114972450D01*
X77146990Y-117532990D02*
X76575416Y-116961416D01*
X76575416Y-114972450D02*
X75267966Y-113665000D01*
X75267966Y-113665000D02*
X73025000Y-113665000D01*
X73025000Y-113665000D02*
X72215020Y-112855020D01*
X72215020Y-112855020D02*
X72215020Y-106981980D01*
X72315030Y-106981980D02*
X72490010Y-106807000D01*
X72215020Y-106981980D02*
X72315030Y-106981980D01*
%TO.N,/PA7_spi1MOSI*%
X75650000Y-83210998D02*
X75650000Y-82410000D01*
X76640002Y-84201000D02*
X75650000Y-83210998D01*
X79502000Y-84201000D02*
X76640002Y-84201000D01*
%TO.N,/PA6_spi1MISO*%
X74285001Y-85324003D02*
X74285001Y-83585001D01*
X75085999Y-86125001D02*
X74285001Y-85324003D01*
X76214001Y-86125001D02*
X75085999Y-86125001D01*
X76717992Y-85621010D02*
X76214001Y-86125001D01*
X80621990Y-85621010D02*
X76717992Y-85621010D01*
X74285001Y-83585001D02*
X73110000Y-82410000D01*
X82042000Y-84201000D02*
X80621990Y-85621010D01*
%TO.N,/PA5_spi1SCK*%
X72735997Y-81045001D02*
X74474999Y-81045001D01*
X74474999Y-81045001D02*
X75650000Y-79870000D01*
X71934999Y-81845999D02*
X72735997Y-81045001D01*
X71934999Y-85514001D02*
X71934999Y-81845999D01*
X73552001Y-86125001D02*
X72545999Y-86125001D01*
X74285001Y-86858001D02*
X73552001Y-86125001D01*
X75085999Y-88665001D02*
X74285001Y-87864003D01*
X81462999Y-88665001D02*
X75085999Y-88665001D01*
X72545999Y-86125001D02*
X71934999Y-85514001D01*
X84582000Y-85546000D02*
X81462999Y-88665001D01*
X74285001Y-87864003D02*
X74285001Y-86858001D01*
X84582000Y-84201000D02*
X84582000Y-85546000D01*
%TO.N,/PA4_spi1SS*%
X86496999Y-84201000D02*
X84972999Y-82677000D01*
X87122000Y-84201000D02*
X86496999Y-84201000D01*
X84972999Y-82677000D02*
X77724000Y-82677000D01*
X77724000Y-82677000D02*
X76962000Y-81915000D01*
X74285001Y-78694999D02*
X73110000Y-79870000D01*
X76214001Y-78694999D02*
X74285001Y-78694999D01*
X76962000Y-79442998D02*
X76214001Y-78694999D01*
X76962000Y-81915000D02*
X76962000Y-79442998D01*
%TO.N,/PA2*%
X97376999Y-77502001D02*
X98552000Y-76327000D01*
X96361997Y-77502001D02*
X97376999Y-77502001D01*
X93965968Y-79898030D02*
X96361997Y-77502001D01*
X80121620Y-79898030D02*
X93965968Y-79898030D01*
X74285001Y-76154999D02*
X76378589Y-76154999D01*
X76378589Y-76154999D02*
X80121620Y-79898030D01*
X73110000Y-77330000D02*
X74285001Y-76154999D01*
%TO.N,/PA0*%
X80615410Y-78460600D02*
X83642200Y-78460600D01*
X79065990Y-76466988D02*
X79065990Y-76911180D01*
X79065990Y-76911180D02*
X80615410Y-78460600D01*
X76214001Y-73614999D02*
X79065990Y-76466988D01*
X74285001Y-73614999D02*
X76214001Y-73614999D01*
X73110000Y-74790000D02*
X74285001Y-73614999D01*
%TO.N,/PC3*%
X79065990Y-73125990D02*
X75650000Y-69710000D01*
X79065990Y-74747990D02*
X79065990Y-73125990D01*
X80391000Y-76073000D02*
X79065990Y-74747990D01*
%TO.N,/PC2*%
X71934999Y-66605999D02*
X71934999Y-68534999D01*
X72545999Y-65994999D02*
X71934999Y-66605999D01*
X76214001Y-65994999D02*
X72545999Y-65994999D01*
X71934999Y-68534999D02*
X73110000Y-69710000D01*
X96139000Y-67564000D02*
X92463990Y-63888990D01*
X78320010Y-63888990D02*
X83599390Y-63888990D01*
X76214001Y-65994999D02*
X78320010Y-63888990D01*
X83599390Y-63888990D02*
X83377725Y-63888990D01*
X92463990Y-63888990D02*
X83599390Y-63888990D01*
%TO.N,/PC1*%
X75675410Y-67170000D02*
X75650000Y-67170000D01*
X76606400Y-66239010D02*
X75675410Y-67170000D01*
X86940010Y-66239010D02*
X76606400Y-66239010D01*
X88265000Y-67564000D02*
X86940010Y-66239010D01*
%TO.N,/PC0*%
X74285001Y-68345001D02*
X73110000Y-67170000D01*
X79609999Y-68345001D02*
X74285001Y-68345001D01*
X80391000Y-67564000D02*
X79609999Y-68345001D01*
D28*
%TO.N,+5V*%
X73110000Y-46850000D02*
X73110000Y-49390000D01*
X73110000Y-49390000D02*
X75650000Y-49390000D01*
X75650000Y-47926649D02*
X75644999Y-47921648D01*
X75650000Y-49390000D02*
X75650000Y-47926649D01*
X75650000Y-47926649D02*
X75650000Y-46850000D01*
X75650000Y-46850000D02*
X73110000Y-46850000D01*
D26*
%TO.N,/PB15_spi2MOSI*%
X80795010Y-102211990D02*
X79375000Y-103632000D01*
X85377411Y-98900999D02*
X82066420Y-102211990D01*
X136200001Y-98900999D02*
X85377411Y-98900999D01*
X137922000Y-102851002D02*
X137922000Y-100622998D01*
X137922000Y-100622998D02*
X136200001Y-98900999D01*
X138965999Y-103895001D02*
X137922000Y-102851002D01*
X82066420Y-102211990D02*
X80795010Y-102211990D01*
X140705001Y-103895001D02*
X138965999Y-103895001D01*
X142070000Y-105260000D02*
X140705001Y-103895001D01*
%TO.N,VDD*%
X113220500Y-127825500D02*
X114173000Y-128778000D01*
X113220500Y-126604000D02*
X113220500Y-127825500D01*
X123317000Y-127762000D02*
X124333000Y-128778000D01*
X123317000Y-126604000D02*
X123317000Y-127762000D01*
D27*
X144653000Y-126242000D02*
X145190400Y-125704600D01*
X144653000Y-128778000D02*
X144653000Y-126242000D01*
%TO.N,/FET1*%
X133985000Y-121392600D02*
X133985000Y-119507000D01*
X137738200Y-125145800D02*
X133985000Y-121392600D01*
X137738200Y-126943200D02*
X137738200Y-125145800D01*
X139573000Y-128778000D02*
X137738200Y-126943200D01*
%TO.N,/FET2*%
X129413000Y-128778000D02*
X128295400Y-127660400D01*
X128295400Y-127660400D02*
X128295400Y-126060200D01*
X127019400Y-124784200D02*
X127019400Y-122758200D01*
X128295400Y-126060200D02*
X127019400Y-124784200D01*
X123317000Y-121079502D02*
X123317000Y-119507000D01*
X124995698Y-122758200D02*
X123317000Y-121079502D01*
X127019400Y-122758200D02*
X124995698Y-122758200D01*
X127019400Y-124781902D02*
X124995698Y-122758200D01*
X127019400Y-124784200D02*
X127019400Y-124781902D01*
%TO.N,/FET3*%
X119380000Y-127889000D02*
X119380000Y-128778000D01*
D26*
X118300500Y-127825500D02*
X119253000Y-128778000D01*
D27*
X119253000Y-128778000D02*
X119253000Y-127279400D01*
X116757800Y-124784200D02*
X116757800Y-122859800D01*
X119253000Y-127279400D02*
X116757800Y-124784200D01*
X112649000Y-121079502D02*
X112649000Y-119507000D01*
X114429298Y-122859800D02*
X112649000Y-121079502D01*
X116757800Y-122859800D02*
X114429298Y-122859800D01*
X116353698Y-124784200D02*
X114429298Y-122859800D01*
X116757800Y-124784200D02*
X116353698Y-124784200D01*
D26*
%TO.N,/FET4*%
X108585000Y-128270000D02*
X109093000Y-128778000D01*
D27*
X109093000Y-128778000D02*
X107721400Y-127406400D01*
X107721400Y-127406400D02*
X107721400Y-125145800D01*
X106269600Y-123694000D02*
X106269600Y-123012200D01*
X107721400Y-125145800D02*
X106269600Y-123694000D01*
X106269600Y-123012200D02*
X103809800Y-123012200D01*
X101981000Y-121183400D02*
X101981000Y-119507000D01*
X103809800Y-123012200D02*
X101981000Y-121183400D01*
X105943400Y-125145800D02*
X103809800Y-123012200D01*
X107721400Y-125145800D02*
X105943400Y-125145800D01*
%TO.N,/FET5*%
X98806000Y-128143000D02*
X98806000Y-128778000D01*
D26*
X98044000Y-127889000D02*
X98933000Y-128778000D01*
D27*
X98933000Y-128778000D02*
X97205800Y-127050800D01*
X97205800Y-127050800D02*
X97205800Y-125552200D01*
X95855600Y-124202000D02*
X95855600Y-123113800D01*
X97205800Y-125552200D02*
X95855600Y-124202000D01*
X91313000Y-121079502D02*
X91313000Y-119507000D01*
X93347298Y-123113800D02*
X91313000Y-121079502D01*
X95855600Y-123113800D02*
X93347298Y-123113800D01*
X94435498Y-124202000D02*
X93347298Y-123113800D01*
X95855600Y-124202000D02*
X94435498Y-124202000D01*
%TO.N,/FET6*%
X85492400Y-125497400D02*
X85492400Y-123418600D01*
X88773000Y-128778000D02*
X85492400Y-125497400D01*
X80645000Y-121079502D02*
X80645000Y-119507000D01*
X82984098Y-123418600D02*
X80645000Y-121079502D01*
X85492400Y-123418600D02*
X82984098Y-123418600D01*
X83413600Y-123418600D02*
X82984098Y-123418600D01*
X88773000Y-128778000D02*
X83413600Y-123418600D01*
D26*
%TO.N,/PD4*%
X162611011Y-66242989D02*
X145340421Y-66242989D01*
X164211000Y-64643000D02*
X162611011Y-66242989D01*
X143245001Y-71064999D02*
X142070000Y-72240000D01*
X143245001Y-68338409D02*
X143245001Y-71064999D01*
X145340421Y-66242989D02*
X143245001Y-68338409D01*
%TO.N,/PD2*%
X142070000Y-74780000D02*
X144630000Y-74780000D01*
X144630000Y-74780000D02*
X147701000Y-77851000D01*
X147701000Y-77851000D02*
X147701000Y-79502000D01*
%TO.N,/PE0*%
X142070000Y-59540000D02*
X143764000Y-57846000D01*
X143764000Y-57846000D02*
X143764000Y-56896000D01*
X143764000Y-56896000D02*
X144653000Y-56007000D01*
X147447000Y-56007000D02*
X148851999Y-54602001D01*
X144653000Y-56007000D02*
X147447000Y-56007000D01*
X148851999Y-53489001D02*
X147845999Y-52483001D01*
X148851999Y-54602001D02*
X148851999Y-53489001D01*
X147845999Y-51402999D02*
X148881009Y-50367989D01*
X147845999Y-52483001D02*
X147845999Y-51402999D01*
X160071011Y-50367989D02*
X160655000Y-49784000D01*
X148881009Y-50367989D02*
X160071011Y-50367989D01*
X160655000Y-49784000D02*
X160545999Y-49893001D01*
X161671000Y-48768000D02*
X160655000Y-49784000D01*
%TO.N,/PC11*%
X143853001Y-81643001D02*
X142070000Y-79860000D01*
X163085999Y-81643001D02*
X143853001Y-81643001D01*
X164211000Y-80518000D02*
X163085999Y-81643001D01*
%TO.N,/PA15*%
X143245001Y-83575001D02*
X142070000Y-82400000D01*
X148662409Y-91853001D02*
X143245001Y-86435593D01*
X157131001Y-91853001D02*
X148662409Y-91853001D01*
X143245001Y-86435593D02*
X143245001Y-83575001D01*
X161671000Y-96393000D02*
X157131001Y-91853001D01*
%TO.N,/PC9*%
X147701000Y-95504000D02*
X147701000Y-93599000D01*
X144122000Y-90020000D02*
X142070000Y-90020000D01*
X147701000Y-93599000D02*
X144122000Y-90020000D01*
%TO.N,/PC7*%
X144145021Y-94635021D02*
X142070000Y-92560000D01*
X147675819Y-107663999D02*
X144145021Y-104133201D01*
X144145021Y-104133201D02*
X144145021Y-94635021D01*
X159606999Y-107663999D02*
X147675819Y-107663999D01*
X164211000Y-112268000D02*
X159606999Y-107663999D01*
%TO.N,/PB11*%
X73153410Y-113157000D02*
X72665030Y-112668620D01*
X79254428Y-113157000D02*
X75311000Y-113157000D01*
X80889855Y-114792427D02*
X79254428Y-113157000D01*
X75311000Y-113157000D02*
X73153410Y-113157000D01*
X75396376Y-113157000D02*
X75311000Y-113157000D01*
X72665030Y-112668620D02*
X72665030Y-107801970D01*
X72665030Y-107801970D02*
X74285001Y-106181999D01*
X74285001Y-103905001D02*
X73110000Y-102730000D01*
X74285001Y-104765001D02*
X74285001Y-103905001D01*
X74285001Y-106181999D02*
X74285001Y-104765001D01*
X74285001Y-104765001D02*
X74285001Y-104511001D01*
%TO.N,/PA3*%
X97376999Y-81312001D02*
X98552000Y-80137000D01*
X79632001Y-81312001D02*
X97376999Y-81312001D01*
X75650000Y-77330000D02*
X79632001Y-81312001D01*
%TO.N,/PA1*%
X80308020Y-79448020D02*
X75650000Y-74790000D01*
X92097827Y-79448020D02*
X80308020Y-79448020D01*
X94035010Y-77510837D02*
X92097827Y-79448020D01*
X94035010Y-76018988D02*
X94035010Y-77510837D01*
X96361997Y-73692001D02*
X94035010Y-76018988D01*
X97376999Y-73692001D02*
X96361997Y-73692001D01*
X98552000Y-72517000D02*
X97376999Y-73692001D01*
%TO.N,/PD13*%
X143245001Y-99615999D02*
X142444003Y-98815001D01*
X143245001Y-104506001D02*
X143245001Y-99615999D01*
X147955000Y-109216000D02*
X143245001Y-104506001D01*
X147955000Y-110998000D02*
X147955000Y-109216000D01*
X143245001Y-99615999D02*
X143245001Y-100446001D01*
X142070000Y-98440998D02*
X143245001Y-99615999D01*
X142070000Y-97640000D02*
X142070000Y-98440998D01*
%TO.N,/PD14*%
X138250999Y-96360999D02*
X139530000Y-97640000D01*
X116491001Y-96360999D02*
X138250999Y-96360999D01*
X115316000Y-97536000D02*
X116491001Y-96360999D01*
%TO.N,/PD15*%
X143695011Y-96725011D02*
X142070000Y-95100000D01*
X143695011Y-104319601D02*
X143695011Y-96725011D01*
X149389411Y-110014001D02*
X143695011Y-104319601D01*
X159417001Y-110014001D02*
X149389411Y-110014001D01*
X161671000Y-112268000D02*
X159417001Y-110014001D01*
%TO.N,/PC6*%
X138719011Y-95910989D02*
X139530000Y-95100000D01*
X111861011Y-95910989D02*
X138719011Y-95910989D01*
X110236000Y-97536000D02*
X111861011Y-95910989D01*
%TO.N,/PC8*%
X107950998Y-97536000D02*
X110026019Y-95460979D01*
X105156000Y-97536000D02*
X107950998Y-97536000D01*
X136629021Y-95460979D02*
X139530000Y-92560000D01*
X110026019Y-95460979D02*
X136629021Y-95460979D01*
%TO.N,/PA9*%
X160256001Y-96643003D02*
X160256001Y-95852999D01*
X160256001Y-95852999D02*
X158796003Y-94393001D01*
X161130999Y-97518001D02*
X160256001Y-96643003D01*
X163085999Y-97518001D02*
X161130999Y-97518001D01*
X164211000Y-96393000D02*
X163085999Y-97518001D01*
X150565999Y-94393001D02*
X146192998Y-90020000D01*
X158796003Y-94393001D02*
X150565999Y-94393001D01*
X146192998Y-90020000D02*
X146154000Y-90020000D01*
X143614000Y-87480000D02*
X142070000Y-87480000D01*
X146154000Y-90020000D02*
X143614000Y-87480000D01*
%TO.N,/PD0*%
X160545999Y-79392999D02*
X161671000Y-80518000D01*
X152367999Y-77907001D02*
X153853997Y-79392999D01*
X152367999Y-76968997D02*
X152367999Y-77907001D01*
X151567001Y-76167999D02*
X152367999Y-76968997D01*
X147391999Y-73604999D02*
X149954999Y-76167999D01*
X140894999Y-74215999D02*
X141505999Y-73604999D01*
X153853997Y-79392999D02*
X160545999Y-79392999D01*
X141505999Y-73604999D02*
X147391999Y-73604999D01*
X140894999Y-76144999D02*
X140894999Y-74215999D01*
X149954999Y-76167999D02*
X151567001Y-76167999D01*
X142070000Y-77320000D02*
X140894999Y-76144999D01*
%TO.N,/PD6*%
X142070000Y-68877000D02*
X142070000Y-69700000D01*
X145161000Y-65786000D02*
X142070000Y-68877000D01*
X145873000Y-65786000D02*
X145161000Y-65786000D01*
X145890999Y-65768001D02*
X145873000Y-65786000D01*
X160545999Y-65768001D02*
X145890999Y-65768001D01*
X161671000Y-64643000D02*
X160545999Y-65768001D01*
%TO.N,/PB6*%
X164733002Y-49911000D02*
X162814000Y-49911000D01*
X165336001Y-49308001D02*
X164733002Y-49911000D01*
X165336001Y-48227999D02*
X165336001Y-49308001D01*
X163971002Y-46863000D02*
X165336001Y-48227999D01*
X146050000Y-46863000D02*
X163971002Y-46863000D01*
X147828000Y-49911000D02*
X143510000Y-49911000D01*
X141505999Y-50744999D02*
X140894999Y-51355999D01*
X142676001Y-50744999D02*
X141505999Y-50744999D01*
X143510000Y-49911000D02*
X142676001Y-50744999D01*
X140894999Y-60104001D02*
X140894999Y-51355999D01*
X141505999Y-60715001D02*
X140894999Y-60104001D01*
X142444003Y-60715001D02*
X141505999Y-60715001D01*
X143245001Y-61515999D02*
X142444003Y-60715001D01*
X143245001Y-63444999D02*
X143245001Y-61515999D01*
X142070000Y-64620000D02*
X143245001Y-63444999D01*
%TO.N,/PB7*%
X140716000Y-66774998D02*
X140716000Y-68453000D01*
X141695997Y-65795001D02*
X140716000Y-66774998D01*
X142634001Y-65795001D02*
X141695997Y-65795001D01*
X145202001Y-63227001D02*
X142634001Y-65795001D01*
X147301001Y-63227001D02*
X145202001Y-63227001D01*
X147701000Y-63627000D02*
X147301001Y-63227001D01*
%TO.N,/PE11*%
X81026000Y-117348000D02*
X80391000Y-117983000D01*
X72644000Y-117983000D02*
X71765010Y-117104010D01*
X80391000Y-117983000D02*
X72644000Y-117983000D01*
X71765010Y-117104010D02*
X71765010Y-96454990D01*
X71765010Y-96454990D02*
X73110000Y-95110000D01*
%TO.N,/PD11*%
X163085999Y-47642999D02*
X164211000Y-48768000D01*
X145651001Y-47642999D02*
X155211999Y-47642999D01*
X145278999Y-48015001D02*
X145651001Y-47642999D01*
X141695997Y-48015001D02*
X145278999Y-48015001D01*
X140894999Y-48815999D02*
X141695997Y-48015001D01*
X156050999Y-47642999D02*
X163085999Y-47642999D01*
X140894999Y-49754003D02*
X140894999Y-48815999D01*
X155257500Y-47688500D02*
X156005498Y-47688500D01*
X140094001Y-50555001D02*
X140894999Y-49754003D01*
X156005498Y-47688500D02*
X156050999Y-47642999D01*
X139155997Y-50555001D02*
X140094001Y-50555001D01*
X155211999Y-47642999D02*
X155257500Y-47688500D01*
X138354999Y-51355999D02*
X139155997Y-50555001D01*
X138354999Y-60104001D02*
X138354999Y-51355999D01*
X138965999Y-60715001D02*
X138354999Y-60104001D01*
X140705001Y-61326001D02*
X140094001Y-60715001D01*
X140705001Y-65184001D02*
X140705001Y-61326001D01*
X140094001Y-60715001D02*
X138965999Y-60715001D01*
X140094001Y-65795001D02*
X140705001Y-65184001D01*
X139155997Y-65795001D02*
X140094001Y-65795001D01*
X138354999Y-66595999D02*
X139155997Y-65795001D01*
X138965999Y-70875001D02*
X138354999Y-70264001D01*
X140068591Y-70875001D02*
X138965999Y-70875001D01*
X140705001Y-71511411D02*
X140068591Y-70875001D01*
X140705001Y-72804001D02*
X140705001Y-71511411D01*
X140094001Y-73415001D02*
X140705001Y-72804001D01*
X139155997Y-73415001D02*
X140094001Y-73415001D01*
X138354999Y-74215999D02*
X139155997Y-73415001D01*
X138354999Y-75344001D02*
X138354999Y-74215999D01*
X138965999Y-75955001D02*
X138354999Y-75344001D01*
X140068591Y-75955001D02*
X138965999Y-75955001D01*
X138354999Y-70264001D02*
X138354999Y-66595999D01*
X140705001Y-76591411D02*
X140068591Y-75955001D01*
X140705001Y-98815001D02*
X140705001Y-76591411D01*
X142070000Y-100180000D02*
X140705001Y-98815001D01*
%TO.N,/PE12*%
X78997001Y-98457001D02*
X75650000Y-95110000D01*
X85184999Y-98457001D02*
X78997001Y-98457001D01*
X86360000Y-97282000D02*
X85184999Y-98457001D01*
%TO.N,/PE10*%
X76374991Y-93294991D02*
X75650000Y-92570000D01*
X79832991Y-93294991D02*
X76374991Y-93294991D01*
X83820000Y-97282000D02*
X79832991Y-93294991D01*
%TO.N,/PE9*%
X74285001Y-93745001D02*
X73110000Y-92570000D01*
X76643001Y-93745001D02*
X74285001Y-93745001D01*
X80180000Y-97282000D02*
X76643001Y-93745001D01*
X81280000Y-97282000D02*
X80180000Y-97282000D01*
D29*
%TO.N,Net-(D9-Pad2)*%
X141097000Y-125704600D02*
X140538200Y-125145800D01*
X142265400Y-125704600D02*
X141097000Y-125704600D01*
D26*
%TO.N,Net-(D11-Pad2)*%
X131449000Y-124777500D02*
X131195000Y-124523500D01*
D29*
X130886200Y-123825000D02*
X129819400Y-122758200D01*
X130886200Y-124841000D02*
X130886200Y-123825000D01*
D30*
%TO.N,Net-(D13-Pad2)*%
X119557800Y-123418600D02*
X120878600Y-124739400D01*
X119557800Y-122859800D02*
X119557800Y-123418600D01*
%TO.N,Net-(D15-Pad2)*%
X110631512Y-124449112D02*
X109194600Y-123012200D01*
X110631512Y-124804712D02*
X110631512Y-124449112D01*
%TO.N,Net-(D17-Pad2)*%
X100319112Y-124652312D02*
X98780600Y-123113800D01*
X100471512Y-124652312D02*
X100319112Y-124652312D01*
%TO.N,Net-(D19-Pad2)*%
X89128600Y-123418600D02*
X90413112Y-124703112D01*
X88417400Y-123418600D02*
X89128600Y-123418600D01*
%TD*%
D31*
%TO.N,Net-(F5-Pad2)*%
X167199974Y-116171509D02*
X167292517Y-116209411D01*
X167371962Y-116270151D01*
X167432805Y-116349517D01*
X167470828Y-116442015D01*
X167484460Y-116549623D01*
X167439898Y-123969146D01*
X167425246Y-124075604D01*
X167386820Y-124166921D01*
X167326089Y-124245198D01*
X167247179Y-124305114D01*
X167155465Y-124342588D01*
X167048866Y-124356130D01*
X162059063Y-124334149D01*
X162039081Y-124335642D01*
X161881153Y-124360082D01*
X161857042Y-124366283D01*
X161843123Y-124372327D01*
X161700603Y-124444622D01*
X161679611Y-124458007D01*
X161668260Y-124468074D01*
X161555251Y-124581067D01*
X161542242Y-124596309D01*
X157560591Y-130085804D01*
X157469484Y-130177032D01*
X157363646Y-130231013D01*
X157236300Y-130251200D01*
X153446376Y-130251200D01*
X153340164Y-130237276D01*
X153248851Y-130199627D01*
X153170329Y-130139714D01*
X153109908Y-130061590D01*
X153071664Y-129970528D01*
X153057044Y-129864397D01*
X153038394Y-127010854D01*
X153051852Y-126903672D01*
X153089507Y-126811490D01*
X153149828Y-126732254D01*
X153228668Y-126671416D01*
X153320610Y-126633156D01*
X153427686Y-126619000D01*
X157184363Y-126619000D01*
X157201048Y-126617899D01*
X157333375Y-126600362D01*
X157365594Y-126591669D01*
X157488784Y-126540268D01*
X157517626Y-126523484D01*
X157623175Y-126441768D01*
X157646650Y-126418048D01*
X157727268Y-126311659D01*
X157736468Y-126297696D01*
X160699105Y-121083455D01*
X160706267Y-121068708D01*
X160755724Y-120947537D01*
X160764083Y-120915905D01*
X160780942Y-120786120D01*
X160782000Y-120769760D01*
X160782000Y-116590594D01*
X160795912Y-116484421D01*
X160833523Y-116393149D01*
X160893380Y-116314650D01*
X160971445Y-116254218D01*
X161062440Y-116215942D01*
X161168503Y-116201256D01*
X167092342Y-116158016D01*
X167199974Y-116171509D01*
%TA.AperFunction,Conductor*%
D32*
G36*
X167199974Y-116171509D02*
G01*
X167292517Y-116209411D01*
X167371962Y-116270151D01*
X167432805Y-116349517D01*
X167470828Y-116442015D01*
X167484460Y-116549623D01*
X167439898Y-123969146D01*
X167425246Y-124075604D01*
X167386820Y-124166921D01*
X167326089Y-124245198D01*
X167247179Y-124305114D01*
X167155465Y-124342588D01*
X167048866Y-124356130D01*
X162059063Y-124334149D01*
X162039081Y-124335642D01*
X161881153Y-124360082D01*
X161857042Y-124366283D01*
X161843123Y-124372327D01*
X161700603Y-124444622D01*
X161679611Y-124458007D01*
X161668260Y-124468074D01*
X161555251Y-124581067D01*
X161542242Y-124596309D01*
X157560591Y-130085804D01*
X157469484Y-130177032D01*
X157363646Y-130231013D01*
X157236300Y-130251200D01*
X153446376Y-130251200D01*
X153340164Y-130237276D01*
X153248851Y-130199627D01*
X153170329Y-130139714D01*
X153109908Y-130061590D01*
X153071664Y-129970528D01*
X153057044Y-129864397D01*
X153038394Y-127010854D01*
X153051852Y-126903672D01*
X153089507Y-126811490D01*
X153149828Y-126732254D01*
X153228668Y-126671416D01*
X153320610Y-126633156D01*
X153427686Y-126619000D01*
X157184363Y-126619000D01*
X157201048Y-126617899D01*
X157333375Y-126600362D01*
X157365594Y-126591669D01*
X157488784Y-126540268D01*
X157517626Y-126523484D01*
X157623175Y-126441768D01*
X157646650Y-126418048D01*
X157727268Y-126311659D01*
X157736468Y-126297696D01*
X160699105Y-121083455D01*
X160706267Y-121068708D01*
X160755724Y-120947537D01*
X160764083Y-120915905D01*
X160780942Y-120786120D01*
X160782000Y-120769760D01*
X160782000Y-116590594D01*
X160795912Y-116484421D01*
X160833523Y-116393149D01*
X160893380Y-116314650D01*
X160971445Y-116254218D01*
X161062440Y-116215942D01*
X161168503Y-116201256D01*
X167092342Y-116158016D01*
X167199974Y-116171509D01*
G37*
%TD.AperFunction*%
%TD*%
D31*
%TO.N,Net-(F3-Pad1)*%
X157599924Y-115949328D02*
X157706322Y-115963658D01*
X157797665Y-116001754D01*
X157876072Y-116062154D01*
X157936217Y-116140757D01*
X157974016Y-116232223D01*
X157988000Y-116338660D01*
X157988000Y-122419679D01*
X157973960Y-122526325D01*
X157936007Y-122617951D01*
X157875632Y-122696632D01*
X157796951Y-122757007D01*
X157705325Y-122794960D01*
X157598679Y-122809000D01*
X155654704Y-122809000D01*
X155638390Y-122810052D01*
X155508959Y-122826817D01*
X155477408Y-122835130D01*
X155356520Y-122884319D01*
X155328128Y-122900397D01*
X155223763Y-122978763D01*
X155211349Y-122989400D01*
X151919603Y-126199725D01*
X151908266Y-126212367D01*
X151824721Y-126319104D01*
X151807581Y-126348337D01*
X151755236Y-126473366D01*
X151746437Y-126506089D01*
X151729017Y-126640509D01*
X151727966Y-126657458D01*
X151743422Y-129789852D01*
X151730027Y-129896117D01*
X151692850Y-129987592D01*
X151633355Y-130066395D01*
X151555559Y-130127209D01*
X151464722Y-130165918D01*
X151358703Y-130181095D01*
X148111406Y-130219639D01*
X148004130Y-130206746D01*
X147911727Y-130169564D01*
X147832161Y-130109638D01*
X147770906Y-130031090D01*
X147732175Y-129939320D01*
X147717483Y-129832283D01*
X147701899Y-126674104D01*
X147723067Y-126541750D01*
X147785631Y-126423210D01*
X150289640Y-123123535D01*
X150300716Y-123106179D01*
X150377519Y-122961092D01*
X150386954Y-122938053D01*
X150390606Y-122922196D01*
X150417131Y-122760192D01*
X150418800Y-122739671D01*
X150418800Y-116316593D01*
X150432899Y-116209727D01*
X150471003Y-116117946D01*
X150531606Y-116039187D01*
X150610562Y-115978839D01*
X150702470Y-115941032D01*
X150809378Y-115927281D01*
X157599924Y-115949328D01*
%TA.AperFunction,Conductor*%
D32*
G36*
X157599924Y-115949328D02*
G01*
X157706322Y-115963658D01*
X157797665Y-116001754D01*
X157876072Y-116062154D01*
X157936217Y-116140757D01*
X157974016Y-116232223D01*
X157988000Y-116338660D01*
X157988000Y-122419679D01*
X157973960Y-122526325D01*
X157936007Y-122617951D01*
X157875632Y-122696632D01*
X157796951Y-122757007D01*
X157705325Y-122794960D01*
X157598679Y-122809000D01*
X155654704Y-122809000D01*
X155638390Y-122810052D01*
X155508959Y-122826817D01*
X155477408Y-122835130D01*
X155356520Y-122884319D01*
X155328128Y-122900397D01*
X155223763Y-122978763D01*
X155211349Y-122989400D01*
X151919603Y-126199725D01*
X151908266Y-126212367D01*
X151824721Y-126319104D01*
X151807581Y-126348337D01*
X151755236Y-126473366D01*
X151746437Y-126506089D01*
X151729017Y-126640509D01*
X151727966Y-126657458D01*
X151743422Y-129789852D01*
X151730027Y-129896117D01*
X151692850Y-129987592D01*
X151633355Y-130066395D01*
X151555559Y-130127209D01*
X151464722Y-130165918D01*
X151358703Y-130181095D01*
X148111406Y-130219639D01*
X148004130Y-130206746D01*
X147911727Y-130169564D01*
X147832161Y-130109638D01*
X147770906Y-130031090D01*
X147732175Y-129939320D01*
X147717483Y-129832283D01*
X147701899Y-126674104D01*
X147723067Y-126541750D01*
X147785631Y-126423210D01*
X150289640Y-123123535D01*
X150300716Y-123106179D01*
X150377519Y-122961092D01*
X150386954Y-122938053D01*
X150390606Y-122922196D01*
X150417131Y-122760192D01*
X150418800Y-122739671D01*
X150418800Y-116316593D01*
X150432899Y-116209727D01*
X150471003Y-116117946D01*
X150531606Y-116039187D01*
X150610562Y-115978839D01*
X150702470Y-115941032D01*
X150809378Y-115927281D01*
X157599924Y-115949328D01*
G37*
%TD.AperFunction*%
%TD*%
D31*
%TO.N,VDD*%
X170605001Y-130444043D02*
X170558406Y-130919255D01*
X170430837Y-131341782D01*
X170223632Y-131731478D01*
X169944676Y-132073512D01*
X169604601Y-132354847D01*
X169216356Y-132564770D01*
X168794733Y-132695284D01*
X168321725Y-132744999D01*
X91313000Y-132744999D01*
X91313000Y-127008321D01*
X91327040Y-126901675D01*
X91364993Y-126810049D01*
X91425368Y-126731368D01*
X91504049Y-126670993D01*
X91595675Y-126633040D01*
X91702321Y-126619000D01*
X95570800Y-126619000D01*
X95570800Y-126970481D01*
X95562889Y-127050800D01*
X95570800Y-127131119D01*
X95570800Y-127131121D01*
X95594457Y-127371315D01*
X95687948Y-127679514D01*
X95839769Y-127963551D01*
X96044086Y-128212514D01*
X96106486Y-128263724D01*
X96139000Y-128296238D01*
X96139000Y-130810000D01*
X96140087Y-130826577D01*
X96157397Y-130958057D01*
X96165977Y-130990080D01*
X96216726Y-131112600D01*
X96233303Y-131141313D01*
X96314034Y-131246523D01*
X96337477Y-131269966D01*
X96442687Y-131350697D01*
X96471400Y-131367274D01*
X96593920Y-131418023D01*
X96625943Y-131426603D01*
X96757423Y-131443913D01*
X96774000Y-131445000D01*
X101346000Y-131445000D01*
X101362577Y-131443913D01*
X101494057Y-131426603D01*
X101526080Y-131418023D01*
X101648600Y-131367274D01*
X101677313Y-131350697D01*
X101782523Y-131269966D01*
X101805966Y-131246523D01*
X101886697Y-131141313D01*
X101903274Y-131112600D01*
X101954023Y-130990080D01*
X101962603Y-130958057D01*
X101979913Y-130826577D01*
X101981000Y-130810000D01*
X101981000Y-127008321D01*
X101995040Y-126901675D01*
X102032993Y-126810049D01*
X102093368Y-126731368D01*
X102172049Y-126670993D01*
X102263675Y-126633040D01*
X102370321Y-126619000D01*
X105231147Y-126619000D01*
X105314685Y-126663652D01*
X105622884Y-126757143D01*
X105863078Y-126780800D01*
X105863080Y-126780800D01*
X105943399Y-126788711D01*
X106023719Y-126780800D01*
X106086400Y-126780800D01*
X106086400Y-127326080D01*
X106078489Y-127406400D01*
X106086400Y-127486719D01*
X106086400Y-127486721D01*
X106110057Y-127726915D01*
X106203548Y-128035114D01*
X106299000Y-128213692D01*
X106299000Y-130810000D01*
X106300087Y-130826577D01*
X106317397Y-130958057D01*
X106325977Y-130990080D01*
X106376726Y-131112600D01*
X106393303Y-131141313D01*
X106474034Y-131246523D01*
X106497477Y-131269966D01*
X106602687Y-131350697D01*
X106631400Y-131367274D01*
X106753920Y-131418023D01*
X106785943Y-131426603D01*
X106917423Y-131443913D01*
X106934000Y-131445000D01*
X111506000Y-131445000D01*
X111522577Y-131443913D01*
X111654057Y-131426603D01*
X111686080Y-131418023D01*
X111808600Y-131367274D01*
X111837313Y-131350697D01*
X111942523Y-131269966D01*
X111965966Y-131246523D01*
X112046697Y-131141313D01*
X112063274Y-131112600D01*
X112114023Y-130990080D01*
X112122603Y-130958057D01*
X112139913Y-130826577D01*
X112141000Y-130810000D01*
X112141000Y-127008321D01*
X112155040Y-126901675D01*
X112192993Y-126810049D01*
X112253368Y-126731368D01*
X112332049Y-126670993D01*
X112423675Y-126633040D01*
X112530321Y-126619000D01*
X115307679Y-126619000D01*
X115414325Y-126633040D01*
X115505951Y-126670993D01*
X115584632Y-126731368D01*
X115645007Y-126810049D01*
X115682960Y-126901675D01*
X115697000Y-127008321D01*
X115697000Y-130810000D01*
X115698087Y-130826577D01*
X115715397Y-130958057D01*
X115723977Y-130990080D01*
X115774726Y-131112600D01*
X115791303Y-131141313D01*
X115872034Y-131246523D01*
X115895477Y-131269966D01*
X116000687Y-131350697D01*
X116029400Y-131367274D01*
X116151920Y-131418023D01*
X116183943Y-131426603D01*
X116315423Y-131443913D01*
X116332000Y-131445000D01*
X121920000Y-131445000D01*
X121936577Y-131443913D01*
X122068057Y-131426603D01*
X122100080Y-131418023D01*
X122222600Y-131367274D01*
X122251313Y-131350697D01*
X122356523Y-131269966D01*
X122379966Y-131246523D01*
X122460697Y-131141313D01*
X122477274Y-131112600D01*
X122528023Y-130990080D01*
X122536603Y-130958057D01*
X122553913Y-130826577D01*
X122555000Y-130810000D01*
X122555000Y-127008321D01*
X122569040Y-126901675D01*
X122606993Y-126810049D01*
X122667368Y-126731368D01*
X122746049Y-126670993D01*
X122837675Y-126633040D01*
X122944321Y-126619000D01*
X126483679Y-126619000D01*
X126550797Y-126627836D01*
X126660400Y-126737439D01*
X126660400Y-127580081D01*
X126652489Y-127660400D01*
X126660400Y-127740719D01*
X126660400Y-127740721D01*
X126684057Y-127980915D01*
X126777548Y-128289114D01*
X126873000Y-128467692D01*
X126873000Y-131064000D01*
X126874087Y-131080577D01*
X126891397Y-131212057D01*
X126899977Y-131244080D01*
X126950726Y-131366600D01*
X126967303Y-131395313D01*
X127048034Y-131500523D01*
X127071477Y-131523966D01*
X127176687Y-131604697D01*
X127205400Y-131621274D01*
X127327920Y-131672023D01*
X127359943Y-131680603D01*
X127491423Y-131697913D01*
X127508000Y-131699000D01*
X131826000Y-131699000D01*
X131842577Y-131697913D01*
X131974057Y-131680603D01*
X132006080Y-131672023D01*
X132128600Y-131621274D01*
X132157313Y-131604697D01*
X132262523Y-131523966D01*
X132285966Y-131500523D01*
X132366697Y-131395313D01*
X132383274Y-131366600D01*
X132434023Y-131244080D01*
X132442603Y-131212057D01*
X132459913Y-131080577D01*
X132461000Y-131064000D01*
X132461000Y-127008321D01*
X132475040Y-126901675D01*
X132512993Y-126810049D01*
X132573368Y-126731368D01*
X132652049Y-126670993D01*
X132743675Y-126633040D01*
X132850321Y-126619000D01*
X136103200Y-126619000D01*
X136103200Y-126862881D01*
X136095289Y-126943200D01*
X136103200Y-127023519D01*
X136103200Y-127023521D01*
X136126857Y-127263715D01*
X136220348Y-127571914D01*
X136372169Y-127855951D01*
X136576486Y-128104914D01*
X136638886Y-128156125D01*
X136779000Y-128296239D01*
X136779000Y-130810000D01*
X136780087Y-130826577D01*
X136797397Y-130958057D01*
X136805977Y-130990080D01*
X136856726Y-131112600D01*
X136873303Y-131141313D01*
X136954034Y-131246523D01*
X136977477Y-131269966D01*
X137082687Y-131350697D01*
X137111400Y-131367274D01*
X137233920Y-131418023D01*
X137265943Y-131426603D01*
X137397423Y-131443913D01*
X137414000Y-131445000D01*
X142392400Y-131445000D01*
X142408977Y-131443913D01*
X142540457Y-131426603D01*
X142572480Y-131418023D01*
X142695000Y-131367274D01*
X142723713Y-131350697D01*
X142828923Y-131269966D01*
X142852366Y-131246523D01*
X142933097Y-131141313D01*
X142949674Y-131112600D01*
X143000423Y-130990080D01*
X143009003Y-130958057D01*
X143026313Y-130826577D01*
X143027400Y-130810000D01*
X143027400Y-127541463D01*
X143071287Y-127518005D01*
X143205862Y-127407562D01*
X143316305Y-127272987D01*
X143398372Y-127119451D01*
X143448908Y-126952855D01*
X143465972Y-126779601D01*
X143465972Y-126617077D01*
X146116557Y-126608061D01*
X146223488Y-126621800D01*
X146315402Y-126659597D01*
X146394372Y-126719945D01*
X146454989Y-126798710D01*
X146493099Y-126890495D01*
X146507200Y-126997374D01*
X146507200Y-130797862D01*
X146508285Y-130814427D01*
X146525570Y-130945816D01*
X146534139Y-130977819D01*
X146584819Y-131100267D01*
X146601374Y-131128965D01*
X146682000Y-131234139D01*
X146705414Y-131257579D01*
X146810499Y-131338321D01*
X146839177Y-131354907D01*
X146961569Y-131405723D01*
X146993564Y-131414328D01*
X147124934Y-131431758D01*
X147141498Y-131432861D01*
X157855102Y-131444713D01*
X157875031Y-131443162D01*
X158032501Y-131418322D01*
X158056594Y-131412051D01*
X158070406Y-131406012D01*
X158212425Y-131333591D01*
X158233389Y-131320161D01*
X158244649Y-131310139D01*
X158357229Y-131197269D01*
X158370188Y-131182049D01*
X162454105Y-125540107D01*
X162545229Y-125448714D01*
X162651147Y-125394629D01*
X162778621Y-125374400D01*
X170605001Y-125374400D01*
X170605001Y-130444043D01*
%TA.AperFunction,Conductor*%
D32*
G36*
X170605001Y-130444043D02*
G01*
X170558406Y-130919255D01*
X170430837Y-131341782D01*
X170223632Y-131731478D01*
X169944676Y-132073512D01*
X169604601Y-132354847D01*
X169216356Y-132564770D01*
X168794733Y-132695284D01*
X168321725Y-132744999D01*
X91313000Y-132744999D01*
X91313000Y-127008321D01*
X91327040Y-126901675D01*
X91364993Y-126810049D01*
X91425368Y-126731368D01*
X91504049Y-126670993D01*
X91595675Y-126633040D01*
X91702321Y-126619000D01*
X95570800Y-126619000D01*
X95570800Y-126970481D01*
X95562889Y-127050800D01*
X95570800Y-127131119D01*
X95570800Y-127131121D01*
X95594457Y-127371315D01*
X95687948Y-127679514D01*
X95839769Y-127963551D01*
X96044086Y-128212514D01*
X96106486Y-128263724D01*
X96139000Y-128296238D01*
X96139000Y-130810000D01*
X96140087Y-130826577D01*
X96157397Y-130958057D01*
X96165977Y-130990080D01*
X96216726Y-131112600D01*
X96233303Y-131141313D01*
X96314034Y-131246523D01*
X96337477Y-131269966D01*
X96442687Y-131350697D01*
X96471400Y-131367274D01*
X96593920Y-131418023D01*
X96625943Y-131426603D01*
X96757423Y-131443913D01*
X96774000Y-131445000D01*
X101346000Y-131445000D01*
X101362577Y-131443913D01*
X101494057Y-131426603D01*
X101526080Y-131418023D01*
X101648600Y-131367274D01*
X101677313Y-131350697D01*
X101782523Y-131269966D01*
X101805966Y-131246523D01*
X101886697Y-131141313D01*
X101903274Y-131112600D01*
X101954023Y-130990080D01*
X101962603Y-130958057D01*
X101979913Y-130826577D01*
X101981000Y-130810000D01*
X101981000Y-127008321D01*
X101995040Y-126901675D01*
X102032993Y-126810049D01*
X102093368Y-126731368D01*
X102172049Y-126670993D01*
X102263675Y-126633040D01*
X102370321Y-126619000D01*
X105231147Y-126619000D01*
X105314685Y-126663652D01*
X105622884Y-126757143D01*
X105863078Y-126780800D01*
X105863080Y-126780800D01*
X105943399Y-126788711D01*
X106023719Y-126780800D01*
X106086400Y-126780800D01*
X106086400Y-127326080D01*
X106078489Y-127406400D01*
X106086400Y-127486719D01*
X106086400Y-127486721D01*
X106110057Y-127726915D01*
X106203548Y-128035114D01*
X106299000Y-128213692D01*
X106299000Y-130810000D01*
X106300087Y-130826577D01*
X106317397Y-130958057D01*
X106325977Y-130990080D01*
X106376726Y-131112600D01*
X106393303Y-131141313D01*
X106474034Y-131246523D01*
X106497477Y-131269966D01*
X106602687Y-131350697D01*
X106631400Y-131367274D01*
X106753920Y-131418023D01*
X106785943Y-131426603D01*
X106917423Y-131443913D01*
X106934000Y-131445000D01*
X111506000Y-131445000D01*
X111522577Y-131443913D01*
X111654057Y-131426603D01*
X111686080Y-131418023D01*
X111808600Y-131367274D01*
X111837313Y-131350697D01*
X111942523Y-131269966D01*
X111965966Y-131246523D01*
X112046697Y-131141313D01*
X112063274Y-131112600D01*
X112114023Y-130990080D01*
X112122603Y-130958057D01*
X112139913Y-130826577D01*
X112141000Y-130810000D01*
X112141000Y-127008321D01*
X112155040Y-126901675D01*
X112192993Y-126810049D01*
X112253368Y-126731368D01*
X112332049Y-126670993D01*
X112423675Y-126633040D01*
X112530321Y-126619000D01*
X115307679Y-126619000D01*
X115414325Y-126633040D01*
X115505951Y-126670993D01*
X115584632Y-126731368D01*
X115645007Y-126810049D01*
X115682960Y-126901675D01*
X115697000Y-127008321D01*
X115697000Y-130810000D01*
X115698087Y-130826577D01*
X115715397Y-130958057D01*
X115723977Y-130990080D01*
X115774726Y-131112600D01*
X115791303Y-131141313D01*
X115872034Y-131246523D01*
X115895477Y-131269966D01*
X116000687Y-131350697D01*
X116029400Y-131367274D01*
X116151920Y-131418023D01*
X116183943Y-131426603D01*
X116315423Y-131443913D01*
X116332000Y-131445000D01*
X121920000Y-131445000D01*
X121936577Y-131443913D01*
X122068057Y-131426603D01*
X122100080Y-131418023D01*
X122222600Y-131367274D01*
X122251313Y-131350697D01*
X122356523Y-131269966D01*
X122379966Y-131246523D01*
X122460697Y-131141313D01*
X122477274Y-131112600D01*
X122528023Y-130990080D01*
X122536603Y-130958057D01*
X122553913Y-130826577D01*
X122555000Y-130810000D01*
X122555000Y-127008321D01*
X122569040Y-126901675D01*
X122606993Y-126810049D01*
X122667368Y-126731368D01*
X122746049Y-126670993D01*
X122837675Y-126633040D01*
X122944321Y-126619000D01*
X126483679Y-126619000D01*
X126550797Y-126627836D01*
X126660400Y-126737439D01*
X126660400Y-127580081D01*
X126652489Y-127660400D01*
X126660400Y-127740719D01*
X126660400Y-127740721D01*
X126684057Y-127980915D01*
X126777548Y-128289114D01*
X126873000Y-128467692D01*
X126873000Y-131064000D01*
X126874087Y-131080577D01*
X126891397Y-131212057D01*
X126899977Y-131244080D01*
X126950726Y-131366600D01*
X126967303Y-131395313D01*
X127048034Y-131500523D01*
X127071477Y-131523966D01*
X127176687Y-131604697D01*
X127205400Y-131621274D01*
X127327920Y-131672023D01*
X127359943Y-131680603D01*
X127491423Y-131697913D01*
X127508000Y-131699000D01*
X131826000Y-131699000D01*
X131842577Y-131697913D01*
X131974057Y-131680603D01*
X132006080Y-131672023D01*
X132128600Y-131621274D01*
X132157313Y-131604697D01*
X132262523Y-131523966D01*
X132285966Y-131500523D01*
X132366697Y-131395313D01*
X132383274Y-131366600D01*
X132434023Y-131244080D01*
X132442603Y-131212057D01*
X132459913Y-131080577D01*
X132461000Y-131064000D01*
X132461000Y-127008321D01*
X132475040Y-126901675D01*
X132512993Y-126810049D01*
X132573368Y-126731368D01*
X132652049Y-126670993D01*
X132743675Y-126633040D01*
X132850321Y-126619000D01*
X136103200Y-126619000D01*
X136103200Y-126862881D01*
X136095289Y-126943200D01*
X136103200Y-127023519D01*
X136103200Y-127023521D01*
X136126857Y-127263715D01*
X136220348Y-127571914D01*
X136372169Y-127855951D01*
X136576486Y-128104914D01*
X136638886Y-128156125D01*
X136779000Y-128296239D01*
X136779000Y-130810000D01*
X136780087Y-130826577D01*
X136797397Y-130958057D01*
X136805977Y-130990080D01*
X136856726Y-131112600D01*
X136873303Y-131141313D01*
X136954034Y-131246523D01*
X136977477Y-131269966D01*
X137082687Y-131350697D01*
X137111400Y-131367274D01*
X137233920Y-131418023D01*
X137265943Y-131426603D01*
X137397423Y-131443913D01*
X137414000Y-131445000D01*
X142392400Y-131445000D01*
X142408977Y-131443913D01*
X142540457Y-131426603D01*
X142572480Y-131418023D01*
X142695000Y-131367274D01*
X142723713Y-131350697D01*
X142828923Y-131269966D01*
X142852366Y-131246523D01*
X142933097Y-131141313D01*
X142949674Y-131112600D01*
X143000423Y-130990080D01*
X143009003Y-130958057D01*
X143026313Y-130826577D01*
X143027400Y-130810000D01*
X143027400Y-127541463D01*
X143071287Y-127518005D01*
X143205862Y-127407562D01*
X143316305Y-127272987D01*
X143398372Y-127119451D01*
X143448908Y-126952855D01*
X143465972Y-126779601D01*
X143465972Y-126617077D01*
X146116557Y-126608061D01*
X146223488Y-126621800D01*
X146315402Y-126659597D01*
X146394372Y-126719945D01*
X146454989Y-126798710D01*
X146493099Y-126890495D01*
X146507200Y-126997374D01*
X146507200Y-130797862D01*
X146508285Y-130814427D01*
X146525570Y-130945816D01*
X146534139Y-130977819D01*
X146584819Y-131100267D01*
X146601374Y-131128965D01*
X146682000Y-131234139D01*
X146705414Y-131257579D01*
X146810499Y-131338321D01*
X146839177Y-131354907D01*
X146961569Y-131405723D01*
X146993564Y-131414328D01*
X147124934Y-131431758D01*
X147141498Y-131432861D01*
X157855102Y-131444713D01*
X157875031Y-131443162D01*
X158032501Y-131418322D01*
X158056594Y-131412051D01*
X158070406Y-131406012D01*
X158212425Y-131333591D01*
X158233389Y-131320161D01*
X158244649Y-131310139D01*
X158357229Y-131197269D01*
X158370188Y-131182049D01*
X162454105Y-125540107D01*
X162545229Y-125448714D01*
X162651147Y-125394629D01*
X162778621Y-125374400D01*
X170605001Y-125374400D01*
X170605001Y-130444043D01*
G37*
%TD.AperFunction*%
%TD*%
D31*
%TO.N,Net-(F4-Pad1)*%
X103384914Y-41373507D02*
X103369680Y-41479068D01*
X103331130Y-41569526D01*
X103270656Y-41647060D01*
X103192310Y-41706478D01*
X103101337Y-41743799D01*
X102995586Y-41757600D01*
X90711721Y-41757600D01*
X90605075Y-41743560D01*
X90513449Y-41705607D01*
X90434768Y-41645232D01*
X90374393Y-41566551D01*
X90336440Y-41474925D01*
X90322400Y-41368279D01*
X90322400Y-34214999D01*
X103481913Y-34214999D01*
X103384914Y-41373507D01*
%TA.AperFunction,Conductor*%
D32*
G36*
X103384914Y-41373507D02*
G01*
X103369680Y-41479068D01*
X103331130Y-41569526D01*
X103270656Y-41647060D01*
X103192310Y-41706478D01*
X103101337Y-41743799D01*
X102995586Y-41757600D01*
X90711721Y-41757600D01*
X90605075Y-41743560D01*
X90513449Y-41705607D01*
X90434768Y-41645232D01*
X90374393Y-41566551D01*
X90336440Y-41474925D01*
X90322400Y-41368279D01*
X90322400Y-34214999D01*
X103481913Y-34214999D01*
X103384914Y-41373507D01*
G37*
%TD.AperFunction*%
%TD*%
D31*
%TO.N,+5VD*%
X89506945Y-41937830D02*
X89508113Y-41954364D01*
X89526035Y-42085469D01*
X89534746Y-42117382D01*
X89585919Y-42239410D01*
X89602577Y-42267992D01*
X89683530Y-42372664D01*
X89707004Y-42395973D01*
X89812243Y-42476187D01*
X89840941Y-42492643D01*
X89963327Y-42542957D01*
X89995300Y-42551444D01*
X90126527Y-42568444D01*
X90143070Y-42569496D01*
X106893538Y-42539574D01*
X107000288Y-42553445D01*
X107092042Y-42591291D01*
X107170858Y-42651608D01*
X107231363Y-42730283D01*
X107269426Y-42821947D01*
X107283550Y-42928666D01*
X107295649Y-63799882D01*
X107281566Y-63906930D01*
X107243393Y-63998856D01*
X107182648Y-64077717D01*
X107103506Y-64138088D01*
X107011400Y-64175829D01*
X106904281Y-64189409D01*
X97451323Y-64139477D01*
X97344134Y-64008866D01*
X97118014Y-63823294D01*
X96860034Y-63685401D01*
X96580111Y-63600487D01*
X96361950Y-63579000D01*
X95916050Y-63579000D01*
X95697889Y-63600487D01*
X95417966Y-63685401D01*
X95159986Y-63823294D01*
X94933866Y-64008866D01*
X94838005Y-64125673D01*
X93769831Y-64120030D01*
X93027794Y-63377993D01*
X93003991Y-63348989D01*
X92888266Y-63254016D01*
X92756237Y-63183444D01*
X92612976Y-63139987D01*
X92501323Y-63128990D01*
X92501312Y-63128990D01*
X92463990Y-63125314D01*
X92426668Y-63128990D01*
X84709000Y-63128990D01*
X84709000Y-59221000D01*
X91856928Y-59221000D01*
X91856928Y-60921000D01*
X91869188Y-61045482D01*
X91905498Y-61165180D01*
X91964463Y-61275494D01*
X92043815Y-61372185D01*
X92140506Y-61451537D01*
X92250820Y-61510502D01*
X92370518Y-61546812D01*
X92495000Y-61559072D01*
X94195000Y-61559072D01*
X94319482Y-61546812D01*
X94439180Y-61510502D01*
X94549494Y-61451537D01*
X94646185Y-61372185D01*
X94725537Y-61275494D01*
X94784502Y-61165180D01*
X94820812Y-61045482D01*
X94833072Y-60921000D01*
X94833072Y-59221000D01*
X95412928Y-59221000D01*
X95412928Y-60921000D01*
X95425188Y-61045482D01*
X95461498Y-61165180D01*
X95520463Y-61275494D01*
X95599815Y-61372185D01*
X95696506Y-61451537D01*
X95806820Y-61510502D01*
X95926518Y-61546812D01*
X96051000Y-61559072D01*
X97751000Y-61559072D01*
X97875482Y-61546812D01*
X97995180Y-61510502D01*
X98105494Y-61451537D01*
X98202185Y-61372185D01*
X98281537Y-61275494D01*
X98340502Y-61165180D01*
X98376812Y-61045482D01*
X98389072Y-60921000D01*
X98389072Y-59221000D01*
X99095928Y-59221000D01*
X99095928Y-60921000D01*
X99108188Y-61045482D01*
X99144498Y-61165180D01*
X99203463Y-61275494D01*
X99282815Y-61372185D01*
X99379506Y-61451537D01*
X99489820Y-61510502D01*
X99609518Y-61546812D01*
X99734000Y-61559072D01*
X101434000Y-61559072D01*
X101558482Y-61546812D01*
X101678180Y-61510502D01*
X101788494Y-61451537D01*
X101885185Y-61372185D01*
X101964537Y-61275494D01*
X102023502Y-61165180D01*
X102059812Y-61045482D01*
X102072072Y-60921000D01*
X102072072Y-59221000D01*
X102059812Y-59096518D01*
X102023502Y-58976820D01*
X101964537Y-58866506D01*
X101885185Y-58769815D01*
X101788494Y-58690463D01*
X101678180Y-58631498D01*
X101558482Y-58595188D01*
X101434000Y-58582928D01*
X99734000Y-58582928D01*
X99609518Y-58595188D01*
X99489820Y-58631498D01*
X99379506Y-58690463D01*
X99282815Y-58769815D01*
X99203463Y-58866506D01*
X99144498Y-58976820D01*
X99108188Y-59096518D01*
X99095928Y-59221000D01*
X98389072Y-59221000D01*
X98376812Y-59096518D01*
X98340502Y-58976820D01*
X98281537Y-58866506D01*
X98202185Y-58769815D01*
X98105494Y-58690463D01*
X97995180Y-58631498D01*
X97875482Y-58595188D01*
X97751000Y-58582928D01*
X96051000Y-58582928D01*
X95926518Y-58595188D01*
X95806820Y-58631498D01*
X95696506Y-58690463D01*
X95599815Y-58769815D01*
X95520463Y-58866506D01*
X95461498Y-58976820D01*
X95425188Y-59096518D01*
X95412928Y-59221000D01*
X94833072Y-59221000D01*
X94820812Y-59096518D01*
X94784502Y-58976820D01*
X94725537Y-58866506D01*
X94646185Y-58769815D01*
X94549494Y-58690463D01*
X94439180Y-58631498D01*
X94319482Y-58595188D01*
X94195000Y-58582928D01*
X92495000Y-58582928D01*
X92370518Y-58595188D01*
X92250820Y-58631498D01*
X92140506Y-58690463D01*
X92043815Y-58769815D01*
X91964463Y-58866506D01*
X91905498Y-58976820D01*
X91869188Y-59096518D01*
X91856928Y-59221000D01*
X84709000Y-59221000D01*
X84709000Y-55941265D01*
X84750031Y-55937224D01*
X85033724Y-55851166D01*
X85295178Y-55711417D01*
X85524345Y-55523345D01*
X85578066Y-55457886D01*
X85636595Y-55567387D01*
X85747038Y-55701962D01*
X85881613Y-55812405D01*
X86035149Y-55894472D01*
X86201745Y-55945008D01*
X86374999Y-55962072D01*
X87615001Y-55962072D01*
X87788255Y-55945008D01*
X87954851Y-55894472D01*
X88108387Y-55812405D01*
X88242962Y-55701962D01*
X88353405Y-55567387D01*
X88435472Y-55413851D01*
X88486008Y-55247255D01*
X88503072Y-55074001D01*
X88503072Y-54844740D01*
X91860000Y-54844740D01*
X91860000Y-55137260D01*
X91917068Y-55424158D01*
X92029010Y-55694411D01*
X92191525Y-55937632D01*
X92398368Y-56144475D01*
X92641589Y-56306990D01*
X92911842Y-56418932D01*
X93198740Y-56476000D01*
X93491260Y-56476000D01*
X93778158Y-56418932D01*
X94048411Y-56306990D01*
X94291632Y-56144475D01*
X94498475Y-55937632D01*
X94660990Y-55694411D01*
X94772932Y-55424158D01*
X94830000Y-55137260D01*
X94830000Y-54844740D01*
X95416000Y-54844740D01*
X95416000Y-55137260D01*
X95473068Y-55424158D01*
X95585010Y-55694411D01*
X95747525Y-55937632D01*
X95954368Y-56144475D01*
X96197589Y-56306990D01*
X96467842Y-56418932D01*
X96754740Y-56476000D01*
X97047260Y-56476000D01*
X97334158Y-56418932D01*
X97604411Y-56306990D01*
X97847632Y-56144475D01*
X98054475Y-55937632D01*
X98216990Y-55694411D01*
X98328932Y-55424158D01*
X98386000Y-55137260D01*
X98386000Y-54844740D01*
X99099000Y-54844740D01*
X99099000Y-55137260D01*
X99156068Y-55424158D01*
X99268010Y-55694411D01*
X99430525Y-55937632D01*
X99637368Y-56144475D01*
X99880589Y-56306990D01*
X100150842Y-56418932D01*
X100437740Y-56476000D01*
X100730260Y-56476000D01*
X101017158Y-56418932D01*
X101287411Y-56306990D01*
X101530632Y-56144475D01*
X101737475Y-55937632D01*
X101899990Y-55694411D01*
X102011932Y-55424158D01*
X102069000Y-55137260D01*
X102069000Y-54844740D01*
X102011932Y-54557842D01*
X101899990Y-54287589D01*
X101737475Y-54044368D01*
X101530632Y-53837525D01*
X101287411Y-53675010D01*
X101017158Y-53563068D01*
X100730260Y-53506000D01*
X100437740Y-53506000D01*
X100150842Y-53563068D01*
X99880589Y-53675010D01*
X99637368Y-53837525D01*
X99430525Y-54044368D01*
X99268010Y-54287589D01*
X99156068Y-54557842D01*
X99099000Y-54844740D01*
X98386000Y-54844740D01*
X98328932Y-54557842D01*
X98216990Y-54287589D01*
X98054475Y-54044368D01*
X97847632Y-53837525D01*
X97604411Y-53675010D01*
X97334158Y-53563068D01*
X97047260Y-53506000D01*
X96754740Y-53506000D01*
X96467842Y-53563068D01*
X96197589Y-53675010D01*
X95954368Y-53837525D01*
X95747525Y-54044368D01*
X95585010Y-54287589D01*
X95473068Y-54557842D01*
X95416000Y-54844740D01*
X94830000Y-54844740D01*
X94772932Y-54557842D01*
X94660990Y-54287589D01*
X94498475Y-54044368D01*
X94291632Y-53837525D01*
X94048411Y-53675010D01*
X93778158Y-53563068D01*
X93491260Y-53506000D01*
X93198740Y-53506000D01*
X92911842Y-53563068D01*
X92641589Y-53675010D01*
X92398368Y-53837525D01*
X92191525Y-54044368D01*
X92029010Y-54287589D01*
X91917068Y-54557842D01*
X91860000Y-54844740D01*
X88503072Y-54844740D01*
X88503072Y-53383999D01*
X88486008Y-53210745D01*
X88435472Y-53044149D01*
X88353405Y-52890613D01*
X88242962Y-52756038D01*
X88108387Y-52645595D01*
X87954851Y-52563528D01*
X87788255Y-52512992D01*
X87615001Y-52495928D01*
X86374999Y-52495928D01*
X86201745Y-52512992D01*
X86035149Y-52563528D01*
X85881613Y-52645595D01*
X85747038Y-52756038D01*
X85636595Y-52890613D01*
X85578066Y-53000114D01*
X85524345Y-52934655D01*
X85295179Y-52746583D01*
X85033725Y-52606834D01*
X84750032Y-52520776D01*
X84709000Y-52516735D01*
X84709000Y-50653740D01*
X95035000Y-50653740D01*
X95035000Y-50946260D01*
X95092068Y-51233158D01*
X95204010Y-51503411D01*
X95366525Y-51746632D01*
X95573368Y-51953475D01*
X95816589Y-52115990D01*
X96086842Y-52227932D01*
X96373740Y-52285000D01*
X96666260Y-52285000D01*
X96953158Y-52227932D01*
X97223411Y-52115990D01*
X97466632Y-51953475D01*
X97598487Y-51821620D01*
X97620498Y-51894180D01*
X97679463Y-52004494D01*
X97758815Y-52101185D01*
X97855506Y-52180537D01*
X97965820Y-52239502D01*
X98085518Y-52275812D01*
X98210000Y-52288072D01*
X99910000Y-52288072D01*
X100034482Y-52275812D01*
X100154180Y-52239502D01*
X100264494Y-52180537D01*
X100361185Y-52101185D01*
X100440537Y-52004494D01*
X100499502Y-51894180D01*
X100535812Y-51774482D01*
X100548072Y-51650000D01*
X100548072Y-49950000D01*
X100535812Y-49825518D01*
X100499502Y-49705820D01*
X100440537Y-49595506D01*
X100361185Y-49498815D01*
X100264494Y-49419463D01*
X100154180Y-49360498D01*
X100034482Y-49324188D01*
X99910000Y-49311928D01*
X98210000Y-49311928D01*
X98085518Y-49324188D01*
X97965820Y-49360498D01*
X97855506Y-49419463D01*
X97758815Y-49498815D01*
X97679463Y-49595506D01*
X97620498Y-49705820D01*
X97598487Y-49778380D01*
X97466632Y-49646525D01*
X97223411Y-49484010D01*
X96953158Y-49372068D01*
X96666260Y-49315000D01*
X96373740Y-49315000D01*
X96086842Y-49372068D01*
X95816589Y-49484010D01*
X95573368Y-49646525D01*
X95366525Y-49853368D01*
X95204010Y-50096589D01*
X95092068Y-50366842D01*
X95035000Y-50653740D01*
X84709000Y-50653740D01*
X84709000Y-50175262D01*
X84707886Y-50158475D01*
X84690135Y-50025360D01*
X84681337Y-49992960D01*
X84658508Y-49938615D01*
X84773368Y-50053475D01*
X85016589Y-50215990D01*
X85286842Y-50327932D01*
X85573740Y-50385000D01*
X85866260Y-50385000D01*
X86153158Y-50327932D01*
X86423411Y-50215990D01*
X86666632Y-50053475D01*
X86873475Y-49846632D01*
X86990000Y-49672240D01*
X87106525Y-49846632D01*
X87313368Y-50053475D01*
X87556589Y-50215990D01*
X87826842Y-50327932D01*
X88113740Y-50385000D01*
X88406260Y-50385000D01*
X88693158Y-50327932D01*
X88963411Y-50215990D01*
X89206632Y-50053475D01*
X89413475Y-49846632D01*
X89575990Y-49603411D01*
X89687932Y-49333158D01*
X89745000Y-49046260D01*
X89745000Y-48753740D01*
X89687932Y-48466842D01*
X89575990Y-48196589D01*
X89413475Y-47953368D01*
X89206632Y-47746525D01*
X89032240Y-47630000D01*
X89206632Y-47513475D01*
X89413475Y-47306632D01*
X89575990Y-47063411D01*
X89687932Y-46793158D01*
X89745000Y-46506260D01*
X89745000Y-46213740D01*
X89687932Y-45926842D01*
X89575990Y-45656589D01*
X89432273Y-45441500D01*
X93825428Y-45441500D01*
X93825428Y-47141500D01*
X93837688Y-47265982D01*
X93873998Y-47385680D01*
X93932963Y-47495994D01*
X94012315Y-47592685D01*
X94109006Y-47672037D01*
X94219320Y-47731002D01*
X94339018Y-47767312D01*
X94463500Y-47779572D01*
X96163500Y-47779572D01*
X96287982Y-47767312D01*
X96407680Y-47731002D01*
X96517994Y-47672037D01*
X96614685Y-47592685D01*
X96694037Y-47495994D01*
X96753002Y-47385680D01*
X96789312Y-47265982D01*
X96801572Y-47141500D01*
X96801572Y-46145240D01*
X98908500Y-46145240D01*
X98908500Y-46437760D01*
X98965568Y-46724658D01*
X99077510Y-46994911D01*
X99240025Y-47238132D01*
X99446868Y-47444975D01*
X99690089Y-47607490D01*
X99960342Y-47719432D01*
X100247240Y-47776500D01*
X100539760Y-47776500D01*
X100826658Y-47719432D01*
X101096911Y-47607490D01*
X101340132Y-47444975D01*
X101546975Y-47238132D01*
X101663500Y-47063740D01*
X101780025Y-47238132D01*
X101986868Y-47444975D01*
X102230089Y-47607490D01*
X102500342Y-47719432D01*
X102787240Y-47776500D01*
X103079760Y-47776500D01*
X103366658Y-47719432D01*
X103636911Y-47607490D01*
X103880132Y-47444975D01*
X104086975Y-47238132D01*
X104203500Y-47063740D01*
X104320025Y-47238132D01*
X104526868Y-47444975D01*
X104770089Y-47607490D01*
X105040342Y-47719432D01*
X105327240Y-47776500D01*
X105619760Y-47776500D01*
X105906658Y-47719432D01*
X106176911Y-47607490D01*
X106420132Y-47444975D01*
X106626975Y-47238132D01*
X106789490Y-46994911D01*
X106901432Y-46724658D01*
X106958500Y-46437760D01*
X106958500Y-46145240D01*
X106901432Y-45858342D01*
X106789490Y-45588089D01*
X106626975Y-45344868D01*
X106420132Y-45138025D01*
X106176911Y-44975510D01*
X105906658Y-44863568D01*
X105619760Y-44806500D01*
X105327240Y-44806500D01*
X105040342Y-44863568D01*
X104770089Y-44975510D01*
X104526868Y-45138025D01*
X104320025Y-45344868D01*
X104203500Y-45519260D01*
X104086975Y-45344868D01*
X103880132Y-45138025D01*
X103636911Y-44975510D01*
X103366658Y-44863568D01*
X103079760Y-44806500D01*
X102787240Y-44806500D01*
X102500342Y-44863568D01*
X102230089Y-44975510D01*
X101986868Y-45138025D01*
X101780025Y-45344868D01*
X101663500Y-45519260D01*
X101546975Y-45344868D01*
X101340132Y-45138025D01*
X101096911Y-44975510D01*
X100826658Y-44863568D01*
X100539760Y-44806500D01*
X100247240Y-44806500D01*
X99960342Y-44863568D01*
X99690089Y-44975510D01*
X99446868Y-45138025D01*
X99240025Y-45344868D01*
X99077510Y-45588089D01*
X98965568Y-45858342D01*
X98908500Y-46145240D01*
X96801572Y-46145240D01*
X96801572Y-45441500D01*
X96789312Y-45317018D01*
X96753002Y-45197320D01*
X96694037Y-45087006D01*
X96614685Y-44990315D01*
X96517994Y-44910963D01*
X96407680Y-44851998D01*
X96287982Y-44815688D01*
X96163500Y-44803428D01*
X94463500Y-44803428D01*
X94339018Y-44815688D01*
X94219320Y-44851998D01*
X94109006Y-44910963D01*
X94012315Y-44990315D01*
X93932963Y-45087006D01*
X93873998Y-45197320D01*
X93837688Y-45317018D01*
X93825428Y-45441500D01*
X89432273Y-45441500D01*
X89413475Y-45413368D01*
X89206632Y-45206525D01*
X88963411Y-45044010D01*
X88693158Y-44932068D01*
X88406260Y-44875000D01*
X88113740Y-44875000D01*
X87826842Y-44932068D01*
X87556589Y-45044010D01*
X87313368Y-45206525D01*
X87106525Y-45413368D01*
X86990000Y-45587760D01*
X86873475Y-45413368D01*
X86666632Y-45206525D01*
X86423411Y-45044010D01*
X86153158Y-44932068D01*
X85866260Y-44875000D01*
X85573740Y-44875000D01*
X85286842Y-44932068D01*
X85016589Y-45044010D01*
X84773368Y-45206525D01*
X84566525Y-45413368D01*
X84450000Y-45587760D01*
X84333475Y-45413368D01*
X84126632Y-45206525D01*
X83883411Y-45044010D01*
X83613158Y-44932068D01*
X83326260Y-44875000D01*
X83033740Y-44875000D01*
X82746842Y-44932068D01*
X82476589Y-45044010D01*
X82233368Y-45206525D01*
X82026525Y-45413368D01*
X81910000Y-45587760D01*
X81793475Y-45413368D01*
X81586632Y-45206525D01*
X81343411Y-45044010D01*
X81073158Y-44932068D01*
X80786260Y-44875000D01*
X80493740Y-44875000D01*
X80206842Y-44932068D01*
X79936589Y-45044010D01*
X79693368Y-45206525D01*
X79486525Y-45413368D01*
X79324010Y-45656589D01*
X79212068Y-45926842D01*
X79155000Y-46213740D01*
X79155000Y-46506260D01*
X79212068Y-46793158D01*
X79324010Y-47063411D01*
X79486525Y-47306632D01*
X79618380Y-47438487D01*
X79545820Y-47460498D01*
X79435506Y-47519463D01*
X79338815Y-47598815D01*
X79259463Y-47695506D01*
X79200498Y-47805820D01*
X79164188Y-47925518D01*
X79151928Y-48050000D01*
X79151928Y-49638576D01*
X78756043Y-49646494D01*
X78647809Y-49634258D01*
X78554465Y-49597224D01*
X78474085Y-49537022D01*
X78412292Y-49457866D01*
X78373399Y-49365282D01*
X78359000Y-49257305D01*
X78359000Y-34214999D01*
X89466406Y-34214999D01*
X89506945Y-41937830D01*
%TA.AperFunction,Conductor*%
D32*
G36*
X89506945Y-41937830D02*
G01*
X89508113Y-41954364D01*
X89526035Y-42085469D01*
X89534746Y-42117382D01*
X89585919Y-42239410D01*
X89602577Y-42267992D01*
X89683530Y-42372664D01*
X89707004Y-42395973D01*
X89812243Y-42476187D01*
X89840941Y-42492643D01*
X89963327Y-42542957D01*
X89995300Y-42551444D01*
X90126527Y-42568444D01*
X90143070Y-42569496D01*
X106893538Y-42539574D01*
X107000288Y-42553445D01*
X107092042Y-42591291D01*
X107170858Y-42651608D01*
X107231363Y-42730283D01*
X107269426Y-42821947D01*
X107283550Y-42928666D01*
X107295649Y-63799882D01*
X107281566Y-63906930D01*
X107243393Y-63998856D01*
X107182648Y-64077717D01*
X107103506Y-64138088D01*
X107011400Y-64175829D01*
X106904281Y-64189409D01*
X97451323Y-64139477D01*
X97344134Y-64008866D01*
X97118014Y-63823294D01*
X96860034Y-63685401D01*
X96580111Y-63600487D01*
X96361950Y-63579000D01*
X95916050Y-63579000D01*
X95697889Y-63600487D01*
X95417966Y-63685401D01*
X95159986Y-63823294D01*
X94933866Y-64008866D01*
X94838005Y-64125673D01*
X93769831Y-64120030D01*
X93027794Y-63377993D01*
X93003991Y-63348989D01*
X92888266Y-63254016D01*
X92756237Y-63183444D01*
X92612976Y-63139987D01*
X92501323Y-63128990D01*
X92501312Y-63128990D01*
X92463990Y-63125314D01*
X92426668Y-63128990D01*
X84709000Y-63128990D01*
X84709000Y-59221000D01*
X91856928Y-59221000D01*
X91856928Y-60921000D01*
X91869188Y-61045482D01*
X91905498Y-61165180D01*
X91964463Y-61275494D01*
X92043815Y-61372185D01*
X92140506Y-61451537D01*
X92250820Y-61510502D01*
X92370518Y-61546812D01*
X92495000Y-61559072D01*
X94195000Y-61559072D01*
X94319482Y-61546812D01*
X94439180Y-61510502D01*
X94549494Y-61451537D01*
X94646185Y-61372185D01*
X94725537Y-61275494D01*
X94784502Y-61165180D01*
X94820812Y-61045482D01*
X94833072Y-60921000D01*
X94833072Y-59221000D01*
X95412928Y-59221000D01*
X95412928Y-60921000D01*
X95425188Y-61045482D01*
X95461498Y-61165180D01*
X95520463Y-61275494D01*
X95599815Y-61372185D01*
X95696506Y-61451537D01*
X95806820Y-61510502D01*
X95926518Y-61546812D01*
X96051000Y-61559072D01*
X97751000Y-61559072D01*
X97875482Y-61546812D01*
X97995180Y-61510502D01*
X98105494Y-61451537D01*
X98202185Y-61372185D01*
X98281537Y-61275494D01*
X98340502Y-61165180D01*
X98376812Y-61045482D01*
X98389072Y-60921000D01*
X98389072Y-59221000D01*
X99095928Y-59221000D01*
X99095928Y-60921000D01*
X99108188Y-61045482D01*
X99144498Y-61165180D01*
X99203463Y-61275494D01*
X99282815Y-61372185D01*
X99379506Y-61451537D01*
X99489820Y-61510502D01*
X99609518Y-61546812D01*
X99734000Y-61559072D01*
X101434000Y-61559072D01*
X101558482Y-61546812D01*
X101678180Y-61510502D01*
X101788494Y-61451537D01*
X101885185Y-61372185D01*
X101964537Y-61275494D01*
X102023502Y-61165180D01*
X102059812Y-61045482D01*
X102072072Y-60921000D01*
X102072072Y-59221000D01*
X102059812Y-59096518D01*
X102023502Y-58976820D01*
X101964537Y-58866506D01*
X101885185Y-58769815D01*
X101788494Y-58690463D01*
X101678180Y-58631498D01*
X101558482Y-58595188D01*
X101434000Y-58582928D01*
X99734000Y-58582928D01*
X99609518Y-58595188D01*
X99489820Y-58631498D01*
X99379506Y-58690463D01*
X99282815Y-58769815D01*
X99203463Y-58866506D01*
X99144498Y-58976820D01*
X99108188Y-59096518D01*
X99095928Y-59221000D01*
X98389072Y-59221000D01*
X98376812Y-59096518D01*
X98340502Y-58976820D01*
X98281537Y-58866506D01*
X98202185Y-58769815D01*
X98105494Y-58690463D01*
X97995180Y-58631498D01*
X97875482Y-58595188D01*
X97751000Y-58582928D01*
X96051000Y-58582928D01*
X95926518Y-58595188D01*
X95806820Y-58631498D01*
X95696506Y-58690463D01*
X95599815Y-58769815D01*
X95520463Y-58866506D01*
X95461498Y-58976820D01*
X95425188Y-59096518D01*
X95412928Y-59221000D01*
X94833072Y-59221000D01*
X94820812Y-59096518D01*
X94784502Y-58976820D01*
X94725537Y-58866506D01*
X94646185Y-58769815D01*
X94549494Y-58690463D01*
X94439180Y-58631498D01*
X94319482Y-58595188D01*
X94195000Y-58582928D01*
X92495000Y-58582928D01*
X92370518Y-58595188D01*
X92250820Y-58631498D01*
X92140506Y-58690463D01*
X92043815Y-58769815D01*
X91964463Y-58866506D01*
X91905498Y-58976820D01*
X91869188Y-59096518D01*
X91856928Y-59221000D01*
X84709000Y-59221000D01*
X84709000Y-55941265D01*
X84750031Y-55937224D01*
X85033724Y-55851166D01*
X85295178Y-55711417D01*
X85524345Y-55523345D01*
X85578066Y-55457886D01*
X85636595Y-55567387D01*
X85747038Y-55701962D01*
X85881613Y-55812405D01*
X86035149Y-55894472D01*
X86201745Y-55945008D01*
X86374999Y-55962072D01*
X87615001Y-55962072D01*
X87788255Y-55945008D01*
X87954851Y-55894472D01*
X88108387Y-55812405D01*
X88242962Y-55701962D01*
X88353405Y-55567387D01*
X88435472Y-55413851D01*
X88486008Y-55247255D01*
X88503072Y-55074001D01*
X88503072Y-54844740D01*
X91860000Y-54844740D01*
X91860000Y-55137260D01*
X91917068Y-55424158D01*
X92029010Y-55694411D01*
X92191525Y-55937632D01*
X92398368Y-56144475D01*
X92641589Y-56306990D01*
X92911842Y-56418932D01*
X93198740Y-56476000D01*
X93491260Y-56476000D01*
X93778158Y-56418932D01*
X94048411Y-56306990D01*
X94291632Y-56144475D01*
X94498475Y-55937632D01*
X94660990Y-55694411D01*
X94772932Y-55424158D01*
X94830000Y-55137260D01*
X94830000Y-54844740D01*
X95416000Y-54844740D01*
X95416000Y-55137260D01*
X95473068Y-55424158D01*
X95585010Y-55694411D01*
X95747525Y-55937632D01*
X95954368Y-56144475D01*
X96197589Y-56306990D01*
X96467842Y-56418932D01*
X96754740Y-56476000D01*
X97047260Y-56476000D01*
X97334158Y-56418932D01*
X97604411Y-56306990D01*
X97847632Y-56144475D01*
X98054475Y-55937632D01*
X98216990Y-55694411D01*
X98328932Y-55424158D01*
X98386000Y-55137260D01*
X98386000Y-54844740D01*
X99099000Y-54844740D01*
X99099000Y-55137260D01*
X99156068Y-55424158D01*
X99268010Y-55694411D01*
X99430525Y-55937632D01*
X99637368Y-56144475D01*
X99880589Y-56306990D01*
X100150842Y-56418932D01*
X100437740Y-56476000D01*
X100730260Y-56476000D01*
X101017158Y-56418932D01*
X101287411Y-56306990D01*
X101530632Y-56144475D01*
X101737475Y-55937632D01*
X101899990Y-55694411D01*
X102011932Y-55424158D01*
X102069000Y-55137260D01*
X102069000Y-54844740D01*
X102011932Y-54557842D01*
X101899990Y-54287589D01*
X101737475Y-54044368D01*
X101530632Y-53837525D01*
X101287411Y-53675010D01*
X101017158Y-53563068D01*
X100730260Y-53506000D01*
X100437740Y-53506000D01*
X100150842Y-53563068D01*
X99880589Y-53675010D01*
X99637368Y-53837525D01*
X99430525Y-54044368D01*
X99268010Y-54287589D01*
X99156068Y-54557842D01*
X99099000Y-54844740D01*
X98386000Y-54844740D01*
X98328932Y-54557842D01*
X98216990Y-54287589D01*
X98054475Y-54044368D01*
X97847632Y-53837525D01*
X97604411Y-53675010D01*
X97334158Y-53563068D01*
X97047260Y-53506000D01*
X96754740Y-53506000D01*
X96467842Y-53563068D01*
X96197589Y-53675010D01*
X95954368Y-53837525D01*
X95747525Y-54044368D01*
X95585010Y-54287589D01*
X95473068Y-54557842D01*
X95416000Y-54844740D01*
X94830000Y-54844740D01*
X94772932Y-54557842D01*
X94660990Y-54287589D01*
X94498475Y-54044368D01*
X94291632Y-53837525D01*
X94048411Y-53675010D01*
X93778158Y-53563068D01*
X93491260Y-53506000D01*
X93198740Y-53506000D01*
X92911842Y-53563068D01*
X92641589Y-53675010D01*
X92398368Y-53837525D01*
X92191525Y-54044368D01*
X92029010Y-54287589D01*
X91917068Y-54557842D01*
X91860000Y-54844740D01*
X88503072Y-54844740D01*
X88503072Y-53383999D01*
X88486008Y-53210745D01*
X88435472Y-53044149D01*
X88353405Y-52890613D01*
X88242962Y-52756038D01*
X88108387Y-52645595D01*
X87954851Y-52563528D01*
X87788255Y-52512992D01*
X87615001Y-52495928D01*
X86374999Y-52495928D01*
X86201745Y-52512992D01*
X86035149Y-52563528D01*
X85881613Y-52645595D01*
X85747038Y-52756038D01*
X85636595Y-52890613D01*
X85578066Y-53000114D01*
X85524345Y-52934655D01*
X85295179Y-52746583D01*
X85033725Y-52606834D01*
X84750032Y-52520776D01*
X84709000Y-52516735D01*
X84709000Y-50653740D01*
X95035000Y-50653740D01*
X95035000Y-50946260D01*
X95092068Y-51233158D01*
X95204010Y-51503411D01*
X95366525Y-51746632D01*
X95573368Y-51953475D01*
X95816589Y-52115990D01*
X96086842Y-52227932D01*
X96373740Y-52285000D01*
X96666260Y-52285000D01*
X96953158Y-52227932D01*
X97223411Y-52115990D01*
X97466632Y-51953475D01*
X97598487Y-51821620D01*
X97620498Y-51894180D01*
X97679463Y-52004494D01*
X97758815Y-52101185D01*
X97855506Y-52180537D01*
X97965820Y-52239502D01*
X98085518Y-52275812D01*
X98210000Y-52288072D01*
X99910000Y-52288072D01*
X100034482Y-52275812D01*
X100154180Y-52239502D01*
X100264494Y-52180537D01*
X100361185Y-52101185D01*
X100440537Y-52004494D01*
X100499502Y-51894180D01*
X100535812Y-51774482D01*
X100548072Y-51650000D01*
X100548072Y-49950000D01*
X100535812Y-49825518D01*
X100499502Y-49705820D01*
X100440537Y-49595506D01*
X100361185Y-49498815D01*
X100264494Y-49419463D01*
X100154180Y-49360498D01*
X100034482Y-49324188D01*
X99910000Y-49311928D01*
X98210000Y-49311928D01*
X98085518Y-49324188D01*
X97965820Y-49360498D01*
X97855506Y-49419463D01*
X97758815Y-49498815D01*
X97679463Y-49595506D01*
X97620498Y-49705820D01*
X97598487Y-49778380D01*
X97466632Y-49646525D01*
X97223411Y-49484010D01*
X96953158Y-49372068D01*
X96666260Y-49315000D01*
X96373740Y-49315000D01*
X96086842Y-49372068D01*
X95816589Y-49484010D01*
X95573368Y-49646525D01*
X95366525Y-49853368D01*
X95204010Y-50096589D01*
X95092068Y-50366842D01*
X95035000Y-50653740D01*
X84709000Y-50653740D01*
X84709000Y-50175262D01*
X84707886Y-50158475D01*
X84690135Y-50025360D01*
X84681337Y-49992960D01*
X84658508Y-49938615D01*
X84773368Y-50053475D01*
X85016589Y-50215990D01*
X85286842Y-50327932D01*
X85573740Y-50385000D01*
X85866260Y-50385000D01*
X86153158Y-50327932D01*
X86423411Y-50215990D01*
X86666632Y-50053475D01*
X86873475Y-49846632D01*
X86990000Y-49672240D01*
X87106525Y-49846632D01*
X87313368Y-50053475D01*
X87556589Y-50215990D01*
X87826842Y-50327932D01*
X88113740Y-50385000D01*
X88406260Y-50385000D01*
X88693158Y-50327932D01*
X88963411Y-50215990D01*
X89206632Y-50053475D01*
X89413475Y-49846632D01*
X89575990Y-49603411D01*
X89687932Y-49333158D01*
X89745000Y-49046260D01*
X89745000Y-48753740D01*
X89687932Y-48466842D01*
X89575990Y-48196589D01*
X89413475Y-47953368D01*
X89206632Y-47746525D01*
X89032240Y-47630000D01*
X89206632Y-47513475D01*
X89413475Y-47306632D01*
X89575990Y-47063411D01*
X89687932Y-46793158D01*
X89745000Y-46506260D01*
X89745000Y-46213740D01*
X89687932Y-45926842D01*
X89575990Y-45656589D01*
X89432273Y-45441500D01*
X93825428Y-45441500D01*
X93825428Y-47141500D01*
X93837688Y-47265982D01*
X93873998Y-47385680D01*
X93932963Y-47495994D01*
X94012315Y-47592685D01*
X94109006Y-47672037D01*
X94219320Y-47731002D01*
X94339018Y-47767312D01*
X94463500Y-47779572D01*
X96163500Y-47779572D01*
X96287982Y-47767312D01*
X96407680Y-47731002D01*
X96517994Y-47672037D01*
X96614685Y-47592685D01*
X96694037Y-47495994D01*
X96753002Y-47385680D01*
X96789312Y-47265982D01*
X96801572Y-47141500D01*
X96801572Y-46145240D01*
X98908500Y-46145240D01*
X98908500Y-46437760D01*
X98965568Y-46724658D01*
X99077510Y-46994911D01*
X99240025Y-47238132D01*
X99446868Y-47444975D01*
X99690089Y-47607490D01*
X99960342Y-47719432D01*
X100247240Y-47776500D01*
X100539760Y-47776500D01*
X100826658Y-47719432D01*
X101096911Y-47607490D01*
X101340132Y-47444975D01*
X101546975Y-47238132D01*
X101663500Y-47063740D01*
X101780025Y-47238132D01*
X101986868Y-47444975D01*
X102230089Y-47607490D01*
X102500342Y-47719432D01*
X102787240Y-47776500D01*
X103079760Y-47776500D01*
X103366658Y-47719432D01*
X103636911Y-47607490D01*
X103880132Y-47444975D01*
X104086975Y-47238132D01*
X104203500Y-47063740D01*
X104320025Y-47238132D01*
X104526868Y-47444975D01*
X104770089Y-47607490D01*
X105040342Y-47719432D01*
X105327240Y-47776500D01*
X105619760Y-47776500D01*
X105906658Y-47719432D01*
X106176911Y-47607490D01*
X106420132Y-47444975D01*
X106626975Y-47238132D01*
X106789490Y-46994911D01*
X106901432Y-46724658D01*
X106958500Y-46437760D01*
X106958500Y-46145240D01*
X106901432Y-45858342D01*
X106789490Y-45588089D01*
X106626975Y-45344868D01*
X106420132Y-45138025D01*
X106176911Y-44975510D01*
X105906658Y-44863568D01*
X105619760Y-44806500D01*
X105327240Y-44806500D01*
X105040342Y-44863568D01*
X104770089Y-44975510D01*
X104526868Y-45138025D01*
X104320025Y-45344868D01*
X104203500Y-45519260D01*
X104086975Y-45344868D01*
X103880132Y-45138025D01*
X103636911Y-44975510D01*
X103366658Y-44863568D01*
X103079760Y-44806500D01*
X102787240Y-44806500D01*
X102500342Y-44863568D01*
X102230089Y-44975510D01*
X101986868Y-45138025D01*
X101780025Y-45344868D01*
X101663500Y-45519260D01*
X101546975Y-45344868D01*
X101340132Y-45138025D01*
X101096911Y-44975510D01*
X100826658Y-44863568D01*
X100539760Y-44806500D01*
X100247240Y-44806500D01*
X99960342Y-44863568D01*
X99690089Y-44975510D01*
X99446868Y-45138025D01*
X99240025Y-45344868D01*
X99077510Y-45588089D01*
X98965568Y-45858342D01*
X98908500Y-46145240D01*
X96801572Y-46145240D01*
X96801572Y-45441500D01*
X96789312Y-45317018D01*
X96753002Y-45197320D01*
X96694037Y-45087006D01*
X96614685Y-44990315D01*
X96517994Y-44910963D01*
X96407680Y-44851998D01*
X96287982Y-44815688D01*
X96163500Y-44803428D01*
X94463500Y-44803428D01*
X94339018Y-44815688D01*
X94219320Y-44851998D01*
X94109006Y-44910963D01*
X94012315Y-44990315D01*
X93932963Y-45087006D01*
X93873998Y-45197320D01*
X93837688Y-45317018D01*
X93825428Y-45441500D01*
X89432273Y-45441500D01*
X89413475Y-45413368D01*
X89206632Y-45206525D01*
X88963411Y-45044010D01*
X88693158Y-44932068D01*
X88406260Y-44875000D01*
X88113740Y-44875000D01*
X87826842Y-44932068D01*
X87556589Y-45044010D01*
X87313368Y-45206525D01*
X87106525Y-45413368D01*
X86990000Y-45587760D01*
X86873475Y-45413368D01*
X86666632Y-45206525D01*
X86423411Y-45044010D01*
X86153158Y-44932068D01*
X85866260Y-44875000D01*
X85573740Y-44875000D01*
X85286842Y-44932068D01*
X85016589Y-45044010D01*
X84773368Y-45206525D01*
X84566525Y-45413368D01*
X84450000Y-45587760D01*
X84333475Y-45413368D01*
X84126632Y-45206525D01*
X83883411Y-45044010D01*
X83613158Y-44932068D01*
X83326260Y-44875000D01*
X83033740Y-44875000D01*
X82746842Y-44932068D01*
X82476589Y-45044010D01*
X82233368Y-45206525D01*
X82026525Y-45413368D01*
X81910000Y-45587760D01*
X81793475Y-45413368D01*
X81586632Y-45206525D01*
X81343411Y-45044010D01*
X81073158Y-44932068D01*
X80786260Y-44875000D01*
X80493740Y-44875000D01*
X80206842Y-44932068D01*
X79936589Y-45044010D01*
X79693368Y-45206525D01*
X79486525Y-45413368D01*
X79324010Y-45656589D01*
X79212068Y-45926842D01*
X79155000Y-46213740D01*
X79155000Y-46506260D01*
X79212068Y-46793158D01*
X79324010Y-47063411D01*
X79486525Y-47306632D01*
X79618380Y-47438487D01*
X79545820Y-47460498D01*
X79435506Y-47519463D01*
X79338815Y-47598815D01*
X79259463Y-47695506D01*
X79200498Y-47805820D01*
X79164188Y-47925518D01*
X79151928Y-48050000D01*
X79151928Y-49638576D01*
X78756043Y-49646494D01*
X78647809Y-49634258D01*
X78554465Y-49597224D01*
X78474085Y-49537022D01*
X78412292Y-49457866D01*
X78373399Y-49365282D01*
X78359000Y-49257305D01*
X78359000Y-34214999D01*
X89466406Y-34214999D01*
X89506945Y-41937830D01*
G37*
%TD.AperFunction*%
%TD*%
D31*
%TO.N,Net-(F2-Pad1)*%
X113157000Y-40899404D02*
X113158072Y-40915869D01*
X113175148Y-41046474D01*
X113183614Y-41078296D01*
X113233694Y-41200121D01*
X113250057Y-41228697D01*
X113329775Y-41333551D01*
X113352934Y-41356959D01*
X113456930Y-41437794D01*
X113485330Y-41454462D01*
X113606612Y-41505842D01*
X113638341Y-41514648D01*
X113768756Y-41533120D01*
X113785209Y-41534368D01*
X127021209Y-41675930D01*
X127126998Y-41690914D01*
X127217701Y-41729339D01*
X127295476Y-41789793D01*
X127355095Y-41868210D01*
X127392549Y-41959320D01*
X127406400Y-42065262D01*
X127406400Y-47891395D01*
X127392198Y-47998646D01*
X127353819Y-48090708D01*
X127292801Y-48169608D01*
X127213351Y-48229907D01*
X127120944Y-48267449D01*
X127013573Y-48280676D01*
X111256814Y-48137649D01*
X111150897Y-48122808D01*
X111060054Y-48084453D01*
X110982143Y-48024012D01*
X110922408Y-47945550D01*
X110884880Y-47854366D01*
X110871000Y-47748315D01*
X110871000Y-44196000D01*
X110869913Y-44179423D01*
X110852603Y-44047943D01*
X110844023Y-44015920D01*
X110793274Y-43893400D01*
X110776697Y-43864687D01*
X110695966Y-43759477D01*
X110672523Y-43736034D01*
X110567313Y-43655303D01*
X110538600Y-43638726D01*
X110416080Y-43587977D01*
X110384057Y-43579397D01*
X110252577Y-43562087D01*
X110236000Y-43561000D01*
X108974321Y-43561000D01*
X108867675Y-43546960D01*
X108776049Y-43509007D01*
X108697368Y-43448632D01*
X108636993Y-43369951D01*
X108599040Y-43278325D01*
X108585000Y-43171679D01*
X108585000Y-34214999D01*
X113157000Y-34214999D01*
X113157000Y-40899404D01*
%TA.AperFunction,Conductor*%
D32*
G36*
X113157000Y-40899404D02*
G01*
X113158072Y-40915869D01*
X113175148Y-41046474D01*
X113183614Y-41078296D01*
X113233694Y-41200121D01*
X113250057Y-41228697D01*
X113329775Y-41333551D01*
X113352934Y-41356959D01*
X113456930Y-41437794D01*
X113485330Y-41454462D01*
X113606612Y-41505842D01*
X113638341Y-41514648D01*
X113768756Y-41533120D01*
X113785209Y-41534368D01*
X127021209Y-41675930D01*
X127126998Y-41690914D01*
X127217701Y-41729339D01*
X127295476Y-41789793D01*
X127355095Y-41868210D01*
X127392549Y-41959320D01*
X127406400Y-42065262D01*
X127406400Y-47891395D01*
X127392198Y-47998646D01*
X127353819Y-48090708D01*
X127292801Y-48169608D01*
X127213351Y-48229907D01*
X127120944Y-48267449D01*
X127013573Y-48280676D01*
X111256814Y-48137649D01*
X111150897Y-48122808D01*
X111060054Y-48084453D01*
X110982143Y-48024012D01*
X110922408Y-47945550D01*
X110884880Y-47854366D01*
X110871000Y-47748315D01*
X110871000Y-44196000D01*
X110869913Y-44179423D01*
X110852603Y-44047943D01*
X110844023Y-44015920D01*
X110793274Y-43893400D01*
X110776697Y-43864687D01*
X110695966Y-43759477D01*
X110672523Y-43736034D01*
X110567313Y-43655303D01*
X110538600Y-43638726D01*
X110416080Y-43587977D01*
X110384057Y-43579397D01*
X110252577Y-43562087D01*
X110236000Y-43561000D01*
X108974321Y-43561000D01*
X108867675Y-43546960D01*
X108776049Y-43509007D01*
X108697368Y-43448632D01*
X108636993Y-43369951D01*
X108599040Y-43278325D01*
X108585000Y-43171679D01*
X108585000Y-34214999D01*
X113157000Y-34214999D01*
X113157000Y-40899404D01*
G37*
%TD.AperFunction*%
%TD*%
D31*
%TO.N,Net-(F1-Pad1)*%
X131368800Y-40099026D02*
X131354785Y-40205577D01*
X131316901Y-40297132D01*
X131256632Y-40375776D01*
X131178072Y-40436162D01*
X131086569Y-40474181D01*
X130980041Y-40488350D01*
X114562889Y-40512247D01*
X114456119Y-40498335D01*
X114364368Y-40460448D01*
X114285562Y-40400085D01*
X114225087Y-40321372D01*
X114187066Y-40229674D01*
X114173000Y-40122932D01*
X114173000Y-34214999D01*
X131368800Y-34214999D01*
X131368800Y-40099026D01*
%TA.AperFunction,Conductor*%
D32*
G36*
X131368800Y-40099026D02*
G01*
X131354785Y-40205577D01*
X131316901Y-40297132D01*
X131256632Y-40375776D01*
X131178072Y-40436162D01*
X131086569Y-40474181D01*
X130980041Y-40488350D01*
X114562889Y-40512247D01*
X114456119Y-40498335D01*
X114364368Y-40460448D01*
X114285562Y-40400085D01*
X114225087Y-40321372D01*
X114187066Y-40229674D01*
X114173000Y-40122932D01*
X114173000Y-34214999D01*
X131368800Y-34214999D01*
X131368800Y-40099026D01*
G37*
%TD.AperFunction*%
%TD*%
D31*
%TO.N,+48V*%
X147474201Y-34839609D02*
X147263315Y-35155223D01*
X147118053Y-35505915D01*
X147044000Y-35878207D01*
X147044000Y-36257793D01*
X147118053Y-36630085D01*
X147263315Y-36980777D01*
X147474201Y-37296391D01*
X147742609Y-37564799D01*
X148058223Y-37775685D01*
X148082000Y-37785534D01*
X148082000Y-39996679D01*
X148067960Y-40103325D01*
X148030007Y-40194951D01*
X147969632Y-40273632D01*
X147890951Y-40334007D01*
X147799325Y-40371960D01*
X147692679Y-40386000D01*
X133129721Y-40386000D01*
X133023075Y-40371960D01*
X132931449Y-40334007D01*
X132852768Y-40273632D01*
X132792393Y-40194951D01*
X132754440Y-40103325D01*
X132740400Y-39996679D01*
X132740400Y-34706999D01*
X147606811Y-34706999D01*
X147474201Y-34839609D01*
%TA.AperFunction,Conductor*%
D32*
G36*
X147474201Y-34839609D02*
G01*
X147263315Y-35155223D01*
X147118053Y-35505915D01*
X147044000Y-35878207D01*
X147044000Y-36257793D01*
X147118053Y-36630085D01*
X147263315Y-36980777D01*
X147474201Y-37296391D01*
X147742609Y-37564799D01*
X148058223Y-37775685D01*
X148082000Y-37785534D01*
X148082000Y-39996679D01*
X148067960Y-40103325D01*
X148030007Y-40194951D01*
X147969632Y-40273632D01*
X147890951Y-40334007D01*
X147799325Y-40371960D01*
X147692679Y-40386000D01*
X133129721Y-40386000D01*
X133023075Y-40371960D01*
X132931449Y-40334007D01*
X132852768Y-40273632D01*
X132792393Y-40194951D01*
X132754440Y-40103325D01*
X132740400Y-39996679D01*
X132740400Y-34706999D01*
X147606811Y-34706999D01*
X147474201Y-34839609D01*
G37*
%TD.AperFunction*%
%TD*%
D31*
%TO.N,+12V*%
X137004325Y-101614040D02*
X137095951Y-101651993D01*
X137162000Y-101702675D01*
X137162000Y-102813679D01*
X137158324Y-102851002D01*
X137162000Y-102888324D01*
X137162000Y-102888334D01*
X137172997Y-102999987D01*
X137206966Y-103111969D01*
X137216454Y-103143248D01*
X137287000Y-103275229D01*
X137287000Y-106680000D01*
X137288087Y-106696577D01*
X137305397Y-106828057D01*
X137313977Y-106860080D01*
X137364726Y-106982600D01*
X137381303Y-107011313D01*
X137462034Y-107116523D01*
X137485477Y-107139966D01*
X137590687Y-107220697D01*
X137619400Y-107237274D01*
X137741920Y-107288023D01*
X137773943Y-107296603D01*
X137905423Y-107313913D01*
X137922000Y-107315000D01*
X144390679Y-107315000D01*
X144497325Y-107329040D01*
X144588951Y-107366993D01*
X144667632Y-107427368D01*
X144728007Y-107506049D01*
X144765960Y-107597675D01*
X144780000Y-107704321D01*
X144780000Y-113665000D01*
X144781087Y-113681577D01*
X144798397Y-113813057D01*
X144806977Y-113845080D01*
X144857726Y-113967600D01*
X144874303Y-113996313D01*
X144955034Y-114101523D01*
X144978477Y-114124966D01*
X145083687Y-114205697D01*
X145112400Y-114222274D01*
X145234920Y-114273023D01*
X145266943Y-114281603D01*
X145398423Y-114298913D01*
X145415000Y-114300000D01*
X148607079Y-114300000D01*
X148713725Y-114314040D01*
X148805351Y-114351993D01*
X148884032Y-114412368D01*
X148944407Y-114491049D01*
X148982360Y-114582675D01*
X148996400Y-114689321D01*
X148996400Y-122419679D01*
X148982360Y-122526325D01*
X148944407Y-122617951D01*
X148884032Y-122696632D01*
X148805351Y-122757007D01*
X148713725Y-122794960D01*
X148607079Y-122809000D01*
X138819321Y-122809000D01*
X138712675Y-122794960D01*
X138621049Y-122757007D01*
X138542368Y-122696632D01*
X138481993Y-122617951D01*
X138444040Y-122526325D01*
X138430000Y-122419679D01*
X138430000Y-118491000D01*
X138428913Y-118474423D01*
X138411603Y-118342943D01*
X138403023Y-118310920D01*
X138352274Y-118188400D01*
X138335697Y-118159687D01*
X138254966Y-118054477D01*
X138231523Y-118031034D01*
X138126313Y-117950303D01*
X138097600Y-117933726D01*
X137975080Y-117882977D01*
X137943057Y-117874397D01*
X137811577Y-117857087D01*
X137795000Y-117856000D01*
X133206311Y-117856000D01*
X133248759Y-117827637D01*
X133448637Y-117627759D01*
X133605680Y-117392727D01*
X133713853Y-117131574D01*
X133769000Y-116854335D01*
X133769000Y-116571665D01*
X133713853Y-116294426D01*
X133605680Y-116033273D01*
X133448637Y-115798241D01*
X133248759Y-115598363D01*
X133013727Y-115441320D01*
X132752574Y-115333147D01*
X132475335Y-115278000D01*
X132192665Y-115278000D01*
X131915426Y-115333147D01*
X131654273Y-115441320D01*
X131419241Y-115598363D01*
X131219363Y-115798241D01*
X131064000Y-116030759D01*
X130908637Y-115798241D01*
X130708759Y-115598363D01*
X130473727Y-115441320D01*
X130212574Y-115333147D01*
X129935335Y-115278000D01*
X129652665Y-115278000D01*
X129375426Y-115333147D01*
X129114273Y-115441320D01*
X128879241Y-115598363D01*
X128679363Y-115798241D01*
X128522320Y-116033273D01*
X128414147Y-116294426D01*
X128359000Y-116571665D01*
X128359000Y-116854335D01*
X128414147Y-117131574D01*
X128522320Y-117392727D01*
X128679363Y-117627759D01*
X128879241Y-117827637D01*
X128921689Y-117856000D01*
X125586311Y-117856000D01*
X125628759Y-117827637D01*
X125828637Y-117627759D01*
X125985680Y-117392727D01*
X126093853Y-117131574D01*
X126149000Y-116854335D01*
X126149000Y-116571665D01*
X126093853Y-116294426D01*
X125985680Y-116033273D01*
X125828637Y-115798241D01*
X125628759Y-115598363D01*
X125393727Y-115441320D01*
X125132574Y-115333147D01*
X124855335Y-115278000D01*
X124572665Y-115278000D01*
X124295426Y-115333147D01*
X124034273Y-115441320D01*
X123799241Y-115598363D01*
X123599363Y-115798241D01*
X123442320Y-116033273D01*
X123334147Y-116294426D01*
X123279000Y-116571665D01*
X123279000Y-116854335D01*
X123334147Y-117131574D01*
X123442320Y-117392727D01*
X123599363Y-117627759D01*
X123799241Y-117827637D01*
X123841689Y-117856000D01*
X111997311Y-117856000D01*
X112039759Y-117827637D01*
X112239637Y-117627759D01*
X112396680Y-117392727D01*
X112504853Y-117131574D01*
X112560000Y-116854335D01*
X112560000Y-116571665D01*
X112504853Y-116294426D01*
X112396680Y-116033273D01*
X112239637Y-115798241D01*
X112039759Y-115598363D01*
X111804727Y-115441320D01*
X111543574Y-115333147D01*
X111266335Y-115278000D01*
X110983665Y-115278000D01*
X110706426Y-115333147D01*
X110445273Y-115441320D01*
X110210241Y-115598363D01*
X110010363Y-115798241D01*
X109855000Y-116030759D01*
X109699637Y-115798241D01*
X109499759Y-115598363D01*
X109264727Y-115441320D01*
X109003574Y-115333147D01*
X108726335Y-115278000D01*
X108443665Y-115278000D01*
X108166426Y-115333147D01*
X107905273Y-115441320D01*
X107670241Y-115598363D01*
X107470363Y-115798241D01*
X107313320Y-116033273D01*
X107205147Y-116294426D01*
X107150000Y-116571665D01*
X107150000Y-116854335D01*
X107205147Y-117131574D01*
X107313320Y-117392727D01*
X107470363Y-117627759D01*
X107670241Y-117827637D01*
X107712689Y-117856000D01*
X104377311Y-117856000D01*
X104419759Y-117827637D01*
X104619637Y-117627759D01*
X104776680Y-117392727D01*
X104884853Y-117131574D01*
X104940000Y-116854335D01*
X104940000Y-116571665D01*
X104884853Y-116294426D01*
X104776680Y-116033273D01*
X104619637Y-115798241D01*
X104419759Y-115598363D01*
X104184727Y-115441320D01*
X103923574Y-115333147D01*
X103646335Y-115278000D01*
X103363665Y-115278000D01*
X103086426Y-115333147D01*
X102825273Y-115441320D01*
X102590241Y-115598363D01*
X102390363Y-115798241D01*
X102233320Y-116033273D01*
X102125147Y-116294426D01*
X102070000Y-116571665D01*
X102070000Y-116854335D01*
X102125147Y-117131574D01*
X102233320Y-117392727D01*
X102390363Y-117627759D01*
X102590241Y-117827637D01*
X102632689Y-117856000D01*
X90788311Y-117856000D01*
X90830759Y-117827637D01*
X91030637Y-117627759D01*
X91187680Y-117392727D01*
X91295853Y-117131574D01*
X91351000Y-116854335D01*
X91351000Y-116571665D01*
X91295853Y-116294426D01*
X91187680Y-116033273D01*
X91030637Y-115798241D01*
X90830759Y-115598363D01*
X90595727Y-115441320D01*
X90334574Y-115333147D01*
X90057335Y-115278000D01*
X89774665Y-115278000D01*
X89497426Y-115333147D01*
X89236273Y-115441320D01*
X89001241Y-115598363D01*
X88801363Y-115798241D01*
X88646000Y-116030759D01*
X88490637Y-115798241D01*
X88290759Y-115598363D01*
X88055727Y-115441320D01*
X87794574Y-115333147D01*
X87517335Y-115278000D01*
X87234665Y-115278000D01*
X86957426Y-115333147D01*
X86696273Y-115441320D01*
X86461241Y-115598363D01*
X86261363Y-115798241D01*
X86104320Y-116033273D01*
X85996147Y-116294426D01*
X85941000Y-116571665D01*
X85941000Y-116854335D01*
X85996147Y-117131574D01*
X86104320Y-117392727D01*
X86261363Y-117627759D01*
X86461241Y-117827637D01*
X86503689Y-117856000D01*
X83168311Y-117856000D01*
X83210759Y-117827637D01*
X83410637Y-117627759D01*
X83567680Y-117392727D01*
X83675853Y-117131574D01*
X83731000Y-116854335D01*
X83731000Y-116571665D01*
X83675853Y-116294426D01*
X83567680Y-116033273D01*
X83410637Y-115798241D01*
X83210759Y-115598363D01*
X82975727Y-115441320D01*
X82714574Y-115333147D01*
X82437335Y-115278000D01*
X82154665Y-115278000D01*
X81877426Y-115333147D01*
X81733510Y-115392759D01*
X81807060Y-115282683D01*
X81885081Y-115094325D01*
X81909717Y-114970471D01*
X81971383Y-114958205D01*
X82159741Y-114880184D01*
X82329259Y-114766916D01*
X82473422Y-114622753D01*
X82586690Y-114453235D01*
X82664711Y-114264877D01*
X82704485Y-114064918D01*
X82704485Y-113861040D01*
X82664711Y-113661081D01*
X82586690Y-113472723D01*
X82473422Y-113303205D01*
X82329259Y-113159042D01*
X82159741Y-113045774D01*
X81971383Y-112967753D01*
X81771424Y-112927979D01*
X81709287Y-112927979D01*
X80919310Y-112138003D01*
X80895507Y-112108999D01*
X80779782Y-112014026D01*
X80647753Y-111943454D01*
X80504492Y-111899997D01*
X80392839Y-111889000D01*
X80392828Y-111889000D01*
X80355506Y-111885324D01*
X80318184Y-111889000D01*
X77851000Y-111889000D01*
X77851000Y-107963459D01*
X77865218Y-107856147D01*
X77903636Y-107764047D01*
X77964719Y-107685122D01*
X78044241Y-107624833D01*
X78136725Y-107587331D01*
X78244161Y-107574182D01*
X79705512Y-107588723D01*
X80895419Y-108778630D01*
X80861000Y-108951665D01*
X80861000Y-109234335D01*
X80916147Y-109511574D01*
X81024320Y-109772727D01*
X81181363Y-110007759D01*
X81381241Y-110207637D01*
X81616273Y-110364680D01*
X81877426Y-110472853D01*
X82154665Y-110528000D01*
X82437335Y-110528000D01*
X82714574Y-110472853D01*
X82975727Y-110364680D01*
X83210759Y-110207637D01*
X83410637Y-110007759D01*
X83566000Y-109775241D01*
X83721363Y-110007759D01*
X83921241Y-110207637D01*
X84156273Y-110364680D01*
X84417426Y-110472853D01*
X84694665Y-110528000D01*
X84977335Y-110528000D01*
X85254574Y-110472853D01*
X85515727Y-110364680D01*
X85750759Y-110207637D01*
X85950637Y-110007759D01*
X86106000Y-109775241D01*
X86261363Y-110007759D01*
X86461241Y-110207637D01*
X86696273Y-110364680D01*
X86957426Y-110472853D01*
X87234665Y-110528000D01*
X87517335Y-110528000D01*
X87794574Y-110472853D01*
X88055727Y-110364680D01*
X88290759Y-110207637D01*
X88489357Y-110009039D01*
X88490188Y-110017482D01*
X88526498Y-110137180D01*
X88585463Y-110247494D01*
X88664815Y-110344185D01*
X88761506Y-110423537D01*
X88871820Y-110482502D01*
X88991518Y-110518812D01*
X89116000Y-110531072D01*
X90716000Y-110531072D01*
X90840482Y-110518812D01*
X90960180Y-110482502D01*
X91070494Y-110423537D01*
X91167185Y-110344185D01*
X91246537Y-110247494D01*
X91305502Y-110137180D01*
X91341812Y-110017482D01*
X91354072Y-109893000D01*
X91354072Y-108293000D01*
X91341812Y-108168518D01*
X91305502Y-108048820D01*
X91246537Y-107938506D01*
X91167185Y-107841815D01*
X91070494Y-107762463D01*
X90960180Y-107703498D01*
X90950677Y-107700615D01*
X92431159Y-107715346D01*
X92443795Y-107738987D01*
X92554238Y-107873562D01*
X92688813Y-107984005D01*
X92842349Y-108066072D01*
X93008945Y-108116608D01*
X93182199Y-108133672D01*
X94422201Y-108133672D01*
X94595455Y-108116608D01*
X94762051Y-108066072D01*
X94915587Y-107984005D01*
X95050162Y-107873562D01*
X95157741Y-107742477D01*
X95332896Y-107744219D01*
X95502022Y-107883017D01*
X95763476Y-108022766D01*
X96047169Y-108108824D01*
X96342200Y-108137882D01*
X96637232Y-108108824D01*
X96920925Y-108022766D01*
X97182379Y-107883017D01*
X97327323Y-107764064D01*
X102736682Y-107817889D01*
X102753374Y-107816954D01*
X102870386Y-107802634D01*
X102825273Y-107821320D01*
X102590241Y-107978363D01*
X102390363Y-108178241D01*
X102233320Y-108413273D01*
X102125147Y-108674426D01*
X102070000Y-108951665D01*
X102070000Y-109234335D01*
X102125147Y-109511574D01*
X102233320Y-109772727D01*
X102390363Y-110007759D01*
X102590241Y-110207637D01*
X102825273Y-110364680D01*
X103086426Y-110472853D01*
X103363665Y-110528000D01*
X103646335Y-110528000D01*
X103923574Y-110472853D01*
X104184727Y-110364680D01*
X104419759Y-110207637D01*
X104619637Y-110007759D01*
X104775000Y-109775241D01*
X104930363Y-110007759D01*
X105130241Y-110207637D01*
X105365273Y-110364680D01*
X105626426Y-110472853D01*
X105903665Y-110528000D01*
X106186335Y-110528000D01*
X106463574Y-110472853D01*
X106724727Y-110364680D01*
X106959759Y-110207637D01*
X107159637Y-110007759D01*
X107315000Y-109775241D01*
X107470363Y-110007759D01*
X107670241Y-110207637D01*
X107905273Y-110364680D01*
X108166426Y-110472853D01*
X108443665Y-110528000D01*
X108726335Y-110528000D01*
X109003574Y-110472853D01*
X109264727Y-110364680D01*
X109499759Y-110207637D01*
X109698357Y-110009039D01*
X109699188Y-110017482D01*
X109735498Y-110137180D01*
X109794463Y-110247494D01*
X109873815Y-110344185D01*
X109970506Y-110423537D01*
X110080820Y-110482502D01*
X110200518Y-110518812D01*
X110325000Y-110531072D01*
X111925000Y-110531072D01*
X112049482Y-110518812D01*
X112169180Y-110482502D01*
X112279494Y-110423537D01*
X112376185Y-110344185D01*
X112455537Y-110247494D01*
X112514502Y-110137180D01*
X112550812Y-110017482D01*
X112563072Y-109893000D01*
X112563072Y-108951665D01*
X123279000Y-108951665D01*
X123279000Y-109234335D01*
X123334147Y-109511574D01*
X123442320Y-109772727D01*
X123599363Y-110007759D01*
X123799241Y-110207637D01*
X124034273Y-110364680D01*
X124295426Y-110472853D01*
X124572665Y-110528000D01*
X124855335Y-110528000D01*
X125132574Y-110472853D01*
X125393727Y-110364680D01*
X125628759Y-110207637D01*
X125828637Y-110007759D01*
X125984000Y-109775241D01*
X126139363Y-110007759D01*
X126339241Y-110207637D01*
X126574273Y-110364680D01*
X126835426Y-110472853D01*
X127112665Y-110528000D01*
X127395335Y-110528000D01*
X127672574Y-110472853D01*
X127933727Y-110364680D01*
X128168759Y-110207637D01*
X128368637Y-110007759D01*
X128524000Y-109775241D01*
X128679363Y-110007759D01*
X128879241Y-110207637D01*
X129114273Y-110364680D01*
X129375426Y-110472853D01*
X129652665Y-110528000D01*
X129935335Y-110528000D01*
X130212574Y-110472853D01*
X130473727Y-110364680D01*
X130708759Y-110207637D01*
X130907357Y-110009039D01*
X130908188Y-110017482D01*
X130944498Y-110137180D01*
X131003463Y-110247494D01*
X131082815Y-110344185D01*
X131179506Y-110423537D01*
X131289820Y-110482502D01*
X131409518Y-110518812D01*
X131534000Y-110531072D01*
X133134000Y-110531072D01*
X133258482Y-110518812D01*
X133378180Y-110482502D01*
X133488494Y-110423537D01*
X133585185Y-110344185D01*
X133664537Y-110247494D01*
X133723502Y-110137180D01*
X133759812Y-110017482D01*
X133772072Y-109893000D01*
X133772072Y-108293000D01*
X133759812Y-108168518D01*
X133723502Y-108048820D01*
X133664537Y-107938506D01*
X133585185Y-107841815D01*
X133488494Y-107762463D01*
X133378180Y-107703498D01*
X133258482Y-107667188D01*
X133134000Y-107654928D01*
X131534000Y-107654928D01*
X131409518Y-107667188D01*
X131289820Y-107703498D01*
X131179506Y-107762463D01*
X131082815Y-107841815D01*
X131003463Y-107938506D01*
X130944498Y-108048820D01*
X130908188Y-108168518D01*
X130907357Y-108176961D01*
X130708759Y-107978363D01*
X130473727Y-107821320D01*
X130212574Y-107713147D01*
X129935335Y-107658000D01*
X129652665Y-107658000D01*
X129375426Y-107713147D01*
X129114273Y-107821320D01*
X128879241Y-107978363D01*
X128679363Y-108178241D01*
X128524000Y-108410759D01*
X128368637Y-108178241D01*
X128168759Y-107978363D01*
X127933727Y-107821320D01*
X127672574Y-107713147D01*
X127395335Y-107658000D01*
X127112665Y-107658000D01*
X126835426Y-107713147D01*
X126574273Y-107821320D01*
X126339241Y-107978363D01*
X126139363Y-108178241D01*
X125984000Y-108410759D01*
X125828637Y-108178241D01*
X125628759Y-107978363D01*
X125393727Y-107821320D01*
X125132574Y-107713147D01*
X124855335Y-107658000D01*
X124572665Y-107658000D01*
X124295426Y-107713147D01*
X124034273Y-107821320D01*
X123799241Y-107978363D01*
X123599363Y-108178241D01*
X123442320Y-108413273D01*
X123334147Y-108674426D01*
X123279000Y-108951665D01*
X112563072Y-108951665D01*
X112563072Y-108293000D01*
X112550812Y-108168518D01*
X112514502Y-108048820D01*
X112455537Y-107938506D01*
X112376185Y-107841815D01*
X112279494Y-107762463D01*
X112169180Y-107703498D01*
X112049482Y-107667188D01*
X111925000Y-107654928D01*
X110325000Y-107654928D01*
X110200518Y-107667188D01*
X110080820Y-107703498D01*
X109970506Y-107762463D01*
X109873815Y-107841815D01*
X109794463Y-107938506D01*
X109735498Y-108048820D01*
X109699188Y-108168518D01*
X109698357Y-108176961D01*
X109499759Y-107978363D01*
X109264727Y-107821320D01*
X109003574Y-107713147D01*
X108726335Y-107658000D01*
X108443665Y-107658000D01*
X108166426Y-107713147D01*
X107905273Y-107821320D01*
X107670241Y-107978363D01*
X107470363Y-108178241D01*
X107315000Y-108410759D01*
X107159637Y-108178241D01*
X106959759Y-107978363D01*
X106724727Y-107821320D01*
X106463574Y-107713147D01*
X106186335Y-107658000D01*
X105903665Y-107658000D01*
X105626426Y-107713147D01*
X105365273Y-107821320D01*
X105130241Y-107978363D01*
X104930363Y-108178241D01*
X104775000Y-108410759D01*
X104619637Y-108178241D01*
X104419759Y-107978363D01*
X104184727Y-107821320D01*
X103923574Y-107713147D01*
X103646335Y-107658000D01*
X103363665Y-107658000D01*
X103087761Y-107712881D01*
X103177145Y-107645116D01*
X103200854Y-107621643D01*
X103282531Y-107516108D01*
X103299307Y-107487271D01*
X103350683Y-107364107D01*
X103359372Y-107331895D01*
X103376900Y-107199601D01*
X103378000Y-107182920D01*
X103378000Y-105009740D01*
X103671000Y-105009740D01*
X103671000Y-105302260D01*
X103728068Y-105589158D01*
X103840010Y-105859411D01*
X104002525Y-106102632D01*
X104209368Y-106309475D01*
X104452589Y-106471990D01*
X104722842Y-106583932D01*
X105009740Y-106641000D01*
X105302260Y-106641000D01*
X105589158Y-106583932D01*
X105859411Y-106471990D01*
X106102632Y-106309475D01*
X106309475Y-106102632D01*
X106471990Y-105859411D01*
X106583932Y-105589158D01*
X106641000Y-105302260D01*
X106641000Y-105009740D01*
X108751000Y-105009740D01*
X108751000Y-105302260D01*
X108808068Y-105589158D01*
X108920010Y-105859411D01*
X109082525Y-106102632D01*
X109289368Y-106309475D01*
X109532589Y-106471990D01*
X109802842Y-106583932D01*
X110089740Y-106641000D01*
X110382260Y-106641000D01*
X110669158Y-106583932D01*
X110939411Y-106471990D01*
X111182632Y-106309475D01*
X111389475Y-106102632D01*
X111551990Y-105859411D01*
X111663932Y-105589158D01*
X111721000Y-105302260D01*
X111721000Y-105009740D01*
X113831000Y-105009740D01*
X113831000Y-105302260D01*
X113888068Y-105589158D01*
X114000010Y-105859411D01*
X114162525Y-106102632D01*
X114369368Y-106309475D01*
X114612589Y-106471990D01*
X114882842Y-106583932D01*
X115169740Y-106641000D01*
X115462260Y-106641000D01*
X115749158Y-106583932D01*
X116019411Y-106471990D01*
X116262632Y-106309475D01*
X116469475Y-106102632D01*
X116631990Y-105859411D01*
X116743932Y-105589158D01*
X116801000Y-105302260D01*
X116801000Y-105009740D01*
X118911000Y-105009740D01*
X118911000Y-105302260D01*
X118968068Y-105589158D01*
X119080010Y-105859411D01*
X119242525Y-106102632D01*
X119449368Y-106309475D01*
X119692589Y-106471990D01*
X119962842Y-106583932D01*
X120249740Y-106641000D01*
X120542260Y-106641000D01*
X120829158Y-106583932D01*
X121099411Y-106471990D01*
X121342632Y-106309475D01*
X121549475Y-106102632D01*
X121711990Y-105859411D01*
X121823932Y-105589158D01*
X121881000Y-105302260D01*
X121881000Y-105009740D01*
X123991000Y-105009740D01*
X123991000Y-105302260D01*
X124048068Y-105589158D01*
X124160010Y-105859411D01*
X124322525Y-106102632D01*
X124529368Y-106309475D01*
X124772589Y-106471990D01*
X125042842Y-106583932D01*
X125329740Y-106641000D01*
X125622260Y-106641000D01*
X125909158Y-106583932D01*
X126179411Y-106471990D01*
X126422632Y-106309475D01*
X126629475Y-106102632D01*
X126791990Y-105859411D01*
X126903932Y-105589158D01*
X126961000Y-105302260D01*
X126961000Y-105009740D01*
X129071000Y-105009740D01*
X129071000Y-105302260D01*
X129128068Y-105589158D01*
X129240010Y-105859411D01*
X129402525Y-106102632D01*
X129609368Y-106309475D01*
X129852589Y-106471990D01*
X130122842Y-106583932D01*
X130409740Y-106641000D01*
X130702260Y-106641000D01*
X130989158Y-106583932D01*
X131259411Y-106471990D01*
X131502632Y-106309475D01*
X131709475Y-106102632D01*
X131871990Y-105859411D01*
X131983932Y-105589158D01*
X132041000Y-105302260D01*
X132041000Y-105009740D01*
X134151000Y-105009740D01*
X134151000Y-105302260D01*
X134208068Y-105589158D01*
X134320010Y-105859411D01*
X134482525Y-106102632D01*
X134689368Y-106309475D01*
X134932589Y-106471990D01*
X135202842Y-106583932D01*
X135489740Y-106641000D01*
X135782260Y-106641000D01*
X136069158Y-106583932D01*
X136339411Y-106471990D01*
X136582632Y-106309475D01*
X136789475Y-106102632D01*
X136951990Y-105859411D01*
X137063932Y-105589158D01*
X137121000Y-105302260D01*
X137121000Y-105009740D01*
X137063932Y-104722842D01*
X136951990Y-104452589D01*
X136789475Y-104209368D01*
X136582632Y-104002525D01*
X136339411Y-103840010D01*
X136069158Y-103728068D01*
X135782260Y-103671000D01*
X135489740Y-103671000D01*
X135202842Y-103728068D01*
X134932589Y-103840010D01*
X134689368Y-104002525D01*
X134482525Y-104209368D01*
X134320010Y-104452589D01*
X134208068Y-104722842D01*
X134151000Y-105009740D01*
X132041000Y-105009740D01*
X131983932Y-104722842D01*
X131871990Y-104452589D01*
X131709475Y-104209368D01*
X131502632Y-104002525D01*
X131259411Y-103840010D01*
X130989158Y-103728068D01*
X130702260Y-103671000D01*
X130409740Y-103671000D01*
X130122842Y-103728068D01*
X129852589Y-103840010D01*
X129609368Y-104002525D01*
X129402525Y-104209368D01*
X129240010Y-104452589D01*
X129128068Y-104722842D01*
X129071000Y-105009740D01*
X126961000Y-105009740D01*
X126903932Y-104722842D01*
X126791990Y-104452589D01*
X126629475Y-104209368D01*
X126422632Y-104002525D01*
X126179411Y-103840010D01*
X125909158Y-103728068D01*
X125622260Y-103671000D01*
X125329740Y-103671000D01*
X125042842Y-103728068D01*
X124772589Y-103840010D01*
X124529368Y-104002525D01*
X124322525Y-104209368D01*
X124160010Y-104452589D01*
X124048068Y-104722842D01*
X123991000Y-105009740D01*
X121881000Y-105009740D01*
X121823932Y-104722842D01*
X121711990Y-104452589D01*
X121549475Y-104209368D01*
X121342632Y-104002525D01*
X121099411Y-103840010D01*
X120829158Y-103728068D01*
X120542260Y-103671000D01*
X120249740Y-103671000D01*
X119962842Y-103728068D01*
X119692589Y-103840010D01*
X119449368Y-104002525D01*
X119242525Y-104209368D01*
X119080010Y-104452589D01*
X118968068Y-104722842D01*
X118911000Y-105009740D01*
X116801000Y-105009740D01*
X116743932Y-104722842D01*
X116631990Y-104452589D01*
X116469475Y-104209368D01*
X116262632Y-104002525D01*
X116019411Y-103840010D01*
X115749158Y-103728068D01*
X115462260Y-103671000D01*
X115169740Y-103671000D01*
X114882842Y-103728068D01*
X114612589Y-103840010D01*
X114369368Y-104002525D01*
X114162525Y-104209368D01*
X114000010Y-104452589D01*
X113888068Y-104722842D01*
X113831000Y-105009740D01*
X111721000Y-105009740D01*
X111663932Y-104722842D01*
X111551990Y-104452589D01*
X111389475Y-104209368D01*
X111182632Y-104002525D01*
X110939411Y-103840010D01*
X110669158Y-103728068D01*
X110382260Y-103671000D01*
X110089740Y-103671000D01*
X109802842Y-103728068D01*
X109532589Y-103840010D01*
X109289368Y-104002525D01*
X109082525Y-104209368D01*
X108920010Y-104452589D01*
X108808068Y-104722842D01*
X108751000Y-105009740D01*
X106641000Y-105009740D01*
X106583932Y-104722842D01*
X106471990Y-104452589D01*
X106309475Y-104209368D01*
X106102632Y-104002525D01*
X105859411Y-103840010D01*
X105589158Y-103728068D01*
X105302260Y-103671000D01*
X105009740Y-103671000D01*
X104722842Y-103728068D01*
X104452589Y-103840010D01*
X104209368Y-104002525D01*
X104002525Y-104209368D01*
X103840010Y-104452589D01*
X103728068Y-104722842D01*
X103671000Y-105009740D01*
X103378000Y-105009740D01*
X103378000Y-101989321D01*
X103392040Y-101882675D01*
X103429993Y-101791049D01*
X103490368Y-101712368D01*
X103569049Y-101651993D01*
X103660675Y-101614040D01*
X103767321Y-101600000D01*
X136897679Y-101600000D01*
X137004325Y-101614040D01*
%TA.AperFunction,Conductor*%
D32*
G36*
X137004325Y-101614040D02*
G01*
X137095951Y-101651993D01*
X137162000Y-101702675D01*
X137162000Y-102813679D01*
X137158324Y-102851002D01*
X137162000Y-102888324D01*
X137162000Y-102888334D01*
X137172997Y-102999987D01*
X137206966Y-103111969D01*
X137216454Y-103143248D01*
X137287000Y-103275229D01*
X137287000Y-106680000D01*
X137288087Y-106696577D01*
X137305397Y-106828057D01*
X137313977Y-106860080D01*
X137364726Y-106982600D01*
X137381303Y-107011313D01*
X137462034Y-107116523D01*
X137485477Y-107139966D01*
X137590687Y-107220697D01*
X137619400Y-107237274D01*
X137741920Y-107288023D01*
X137773943Y-107296603D01*
X137905423Y-107313913D01*
X137922000Y-107315000D01*
X144390679Y-107315000D01*
X144497325Y-107329040D01*
X144588951Y-107366993D01*
X144667632Y-107427368D01*
X144728007Y-107506049D01*
X144765960Y-107597675D01*
X144780000Y-107704321D01*
X144780000Y-113665000D01*
X144781087Y-113681577D01*
X144798397Y-113813057D01*
X144806977Y-113845080D01*
X144857726Y-113967600D01*
X144874303Y-113996313D01*
X144955034Y-114101523D01*
X144978477Y-114124966D01*
X145083687Y-114205697D01*
X145112400Y-114222274D01*
X145234920Y-114273023D01*
X145266943Y-114281603D01*
X145398423Y-114298913D01*
X145415000Y-114300000D01*
X148607079Y-114300000D01*
X148713725Y-114314040D01*
X148805351Y-114351993D01*
X148884032Y-114412368D01*
X148944407Y-114491049D01*
X148982360Y-114582675D01*
X148996400Y-114689321D01*
X148996400Y-122419679D01*
X148982360Y-122526325D01*
X148944407Y-122617951D01*
X148884032Y-122696632D01*
X148805351Y-122757007D01*
X148713725Y-122794960D01*
X148607079Y-122809000D01*
X138819321Y-122809000D01*
X138712675Y-122794960D01*
X138621049Y-122757007D01*
X138542368Y-122696632D01*
X138481993Y-122617951D01*
X138444040Y-122526325D01*
X138430000Y-122419679D01*
X138430000Y-118491000D01*
X138428913Y-118474423D01*
X138411603Y-118342943D01*
X138403023Y-118310920D01*
X138352274Y-118188400D01*
X138335697Y-118159687D01*
X138254966Y-118054477D01*
X138231523Y-118031034D01*
X138126313Y-117950303D01*
X138097600Y-117933726D01*
X137975080Y-117882977D01*
X137943057Y-117874397D01*
X137811577Y-117857087D01*
X137795000Y-117856000D01*
X133206311Y-117856000D01*
X133248759Y-117827637D01*
X133448637Y-117627759D01*
X133605680Y-117392727D01*
X133713853Y-117131574D01*
X133769000Y-116854335D01*
X133769000Y-116571665D01*
X133713853Y-116294426D01*
X133605680Y-116033273D01*
X133448637Y-115798241D01*
X133248759Y-115598363D01*
X133013727Y-115441320D01*
X132752574Y-115333147D01*
X132475335Y-115278000D01*
X132192665Y-115278000D01*
X131915426Y-115333147D01*
X131654273Y-115441320D01*
X131419241Y-115598363D01*
X131219363Y-115798241D01*
X131064000Y-116030759D01*
X130908637Y-115798241D01*
X130708759Y-115598363D01*
X130473727Y-115441320D01*
X130212574Y-115333147D01*
X129935335Y-115278000D01*
X129652665Y-115278000D01*
X129375426Y-115333147D01*
X129114273Y-115441320D01*
X128879241Y-115598363D01*
X128679363Y-115798241D01*
X128522320Y-116033273D01*
X128414147Y-116294426D01*
X128359000Y-116571665D01*
X128359000Y-116854335D01*
X128414147Y-117131574D01*
X128522320Y-117392727D01*
X128679363Y-117627759D01*
X128879241Y-117827637D01*
X128921689Y-117856000D01*
X125586311Y-117856000D01*
X125628759Y-117827637D01*
X125828637Y-117627759D01*
X125985680Y-117392727D01*
X126093853Y-117131574D01*
X126149000Y-116854335D01*
X126149000Y-116571665D01*
X126093853Y-116294426D01*
X125985680Y-116033273D01*
X125828637Y-115798241D01*
X125628759Y-115598363D01*
X125393727Y-115441320D01*
X125132574Y-115333147D01*
X124855335Y-115278000D01*
X124572665Y-115278000D01*
X124295426Y-115333147D01*
X124034273Y-115441320D01*
X123799241Y-115598363D01*
X123599363Y-115798241D01*
X123442320Y-116033273D01*
X123334147Y-116294426D01*
X123279000Y-116571665D01*
X123279000Y-116854335D01*
X123334147Y-117131574D01*
X123442320Y-117392727D01*
X123599363Y-117627759D01*
X123799241Y-117827637D01*
X123841689Y-117856000D01*
X111997311Y-117856000D01*
X112039759Y-117827637D01*
X112239637Y-117627759D01*
X112396680Y-117392727D01*
X112504853Y-117131574D01*
X112560000Y-116854335D01*
X112560000Y-116571665D01*
X112504853Y-116294426D01*
X112396680Y-116033273D01*
X112239637Y-115798241D01*
X112039759Y-115598363D01*
X111804727Y-115441320D01*
X111543574Y-115333147D01*
X111266335Y-115278000D01*
X110983665Y-115278000D01*
X110706426Y-115333147D01*
X110445273Y-115441320D01*
X110210241Y-115598363D01*
X110010363Y-115798241D01*
X109855000Y-116030759D01*
X109699637Y-115798241D01*
X109499759Y-115598363D01*
X109264727Y-115441320D01*
X109003574Y-115333147D01*
X108726335Y-115278000D01*
X108443665Y-115278000D01*
X108166426Y-115333147D01*
X107905273Y-115441320D01*
X107670241Y-115598363D01*
X107470363Y-115798241D01*
X107313320Y-116033273D01*
X107205147Y-116294426D01*
X107150000Y-116571665D01*
X107150000Y-116854335D01*
X107205147Y-117131574D01*
X107313320Y-117392727D01*
X107470363Y-117627759D01*
X107670241Y-117827637D01*
X107712689Y-117856000D01*
X104377311Y-117856000D01*
X104419759Y-117827637D01*
X104619637Y-117627759D01*
X104776680Y-117392727D01*
X104884853Y-117131574D01*
X104940000Y-116854335D01*
X104940000Y-116571665D01*
X104884853Y-116294426D01*
X104776680Y-116033273D01*
X104619637Y-115798241D01*
X104419759Y-115598363D01*
X104184727Y-115441320D01*
X103923574Y-115333147D01*
X103646335Y-115278000D01*
X103363665Y-115278000D01*
X103086426Y-115333147D01*
X102825273Y-115441320D01*
X102590241Y-115598363D01*
X102390363Y-115798241D01*
X102233320Y-116033273D01*
X102125147Y-116294426D01*
X102070000Y-116571665D01*
X102070000Y-116854335D01*
X102125147Y-117131574D01*
X102233320Y-117392727D01*
X102390363Y-117627759D01*
X102590241Y-117827637D01*
X102632689Y-117856000D01*
X90788311Y-117856000D01*
X90830759Y-117827637D01*
X91030637Y-117627759D01*
X91187680Y-117392727D01*
X91295853Y-117131574D01*
X91351000Y-116854335D01*
X91351000Y-116571665D01*
X91295853Y-116294426D01*
X91187680Y-116033273D01*
X91030637Y-115798241D01*
X90830759Y-115598363D01*
X90595727Y-115441320D01*
X90334574Y-115333147D01*
X90057335Y-115278000D01*
X89774665Y-115278000D01*
X89497426Y-115333147D01*
X89236273Y-115441320D01*
X89001241Y-115598363D01*
X88801363Y-115798241D01*
X88646000Y-116030759D01*
X88490637Y-115798241D01*
X88290759Y-115598363D01*
X88055727Y-115441320D01*
X87794574Y-115333147D01*
X87517335Y-115278000D01*
X87234665Y-115278000D01*
X86957426Y-115333147D01*
X86696273Y-115441320D01*
X86461241Y-115598363D01*
X86261363Y-115798241D01*
X86104320Y-116033273D01*
X85996147Y-116294426D01*
X85941000Y-116571665D01*
X85941000Y-116854335D01*
X85996147Y-117131574D01*
X86104320Y-117392727D01*
X86261363Y-117627759D01*
X86461241Y-117827637D01*
X86503689Y-117856000D01*
X83168311Y-117856000D01*
X83210759Y-117827637D01*
X83410637Y-117627759D01*
X83567680Y-117392727D01*
X83675853Y-117131574D01*
X83731000Y-116854335D01*
X83731000Y-116571665D01*
X83675853Y-116294426D01*
X83567680Y-116033273D01*
X83410637Y-115798241D01*
X83210759Y-115598363D01*
X82975727Y-115441320D01*
X82714574Y-115333147D01*
X82437335Y-115278000D01*
X82154665Y-115278000D01*
X81877426Y-115333147D01*
X81733510Y-115392759D01*
X81807060Y-115282683D01*
X81885081Y-115094325D01*
X81909717Y-114970471D01*
X81971383Y-114958205D01*
X82159741Y-114880184D01*
X82329259Y-114766916D01*
X82473422Y-114622753D01*
X82586690Y-114453235D01*
X82664711Y-114264877D01*
X82704485Y-114064918D01*
X82704485Y-113861040D01*
X82664711Y-113661081D01*
X82586690Y-113472723D01*
X82473422Y-113303205D01*
X82329259Y-113159042D01*
X82159741Y-113045774D01*
X81971383Y-112967753D01*
X81771424Y-112927979D01*
X81709287Y-112927979D01*
X80919310Y-112138003D01*
X80895507Y-112108999D01*
X80779782Y-112014026D01*
X80647753Y-111943454D01*
X80504492Y-111899997D01*
X80392839Y-111889000D01*
X80392828Y-111889000D01*
X80355506Y-111885324D01*
X80318184Y-111889000D01*
X77851000Y-111889000D01*
X77851000Y-107963459D01*
X77865218Y-107856147D01*
X77903636Y-107764047D01*
X77964719Y-107685122D01*
X78044241Y-107624833D01*
X78136725Y-107587331D01*
X78244161Y-107574182D01*
X79705512Y-107588723D01*
X80895419Y-108778630D01*
X80861000Y-108951665D01*
X80861000Y-109234335D01*
X80916147Y-109511574D01*
X81024320Y-109772727D01*
X81181363Y-110007759D01*
X81381241Y-110207637D01*
X81616273Y-110364680D01*
X81877426Y-110472853D01*
X82154665Y-110528000D01*
X82437335Y-110528000D01*
X82714574Y-110472853D01*
X82975727Y-110364680D01*
X83210759Y-110207637D01*
X83410637Y-110007759D01*
X83566000Y-109775241D01*
X83721363Y-110007759D01*
X83921241Y-110207637D01*
X84156273Y-110364680D01*
X84417426Y-110472853D01*
X84694665Y-110528000D01*
X84977335Y-110528000D01*
X85254574Y-110472853D01*
X85515727Y-110364680D01*
X85750759Y-110207637D01*
X85950637Y-110007759D01*
X86106000Y-109775241D01*
X86261363Y-110007759D01*
X86461241Y-110207637D01*
X86696273Y-110364680D01*
X86957426Y-110472853D01*
X87234665Y-110528000D01*
X87517335Y-110528000D01*
X87794574Y-110472853D01*
X88055727Y-110364680D01*
X88290759Y-110207637D01*
X88489357Y-110009039D01*
X88490188Y-110017482D01*
X88526498Y-110137180D01*
X88585463Y-110247494D01*
X88664815Y-110344185D01*
X88761506Y-110423537D01*
X88871820Y-110482502D01*
X88991518Y-110518812D01*
X89116000Y-110531072D01*
X90716000Y-110531072D01*
X90840482Y-110518812D01*
X90960180Y-110482502D01*
X91070494Y-110423537D01*
X91167185Y-110344185D01*
X91246537Y-110247494D01*
X91305502Y-110137180D01*
X91341812Y-110017482D01*
X91354072Y-109893000D01*
X91354072Y-108293000D01*
X91341812Y-108168518D01*
X91305502Y-108048820D01*
X91246537Y-107938506D01*
X91167185Y-107841815D01*
X91070494Y-107762463D01*
X90960180Y-107703498D01*
X90950677Y-107700615D01*
X92431159Y-107715346D01*
X92443795Y-107738987D01*
X92554238Y-107873562D01*
X92688813Y-107984005D01*
X92842349Y-108066072D01*
X93008945Y-108116608D01*
X93182199Y-108133672D01*
X94422201Y-108133672D01*
X94595455Y-108116608D01*
X94762051Y-108066072D01*
X94915587Y-107984005D01*
X95050162Y-107873562D01*
X95157741Y-107742477D01*
X95332896Y-107744219D01*
X95502022Y-107883017D01*
X95763476Y-108022766D01*
X96047169Y-108108824D01*
X96342200Y-108137882D01*
X96637232Y-108108824D01*
X96920925Y-108022766D01*
X97182379Y-107883017D01*
X97327323Y-107764064D01*
X102736682Y-107817889D01*
X102753374Y-107816954D01*
X102870386Y-107802634D01*
X102825273Y-107821320D01*
X102590241Y-107978363D01*
X102390363Y-108178241D01*
X102233320Y-108413273D01*
X102125147Y-108674426D01*
X102070000Y-108951665D01*
X102070000Y-109234335D01*
X102125147Y-109511574D01*
X102233320Y-109772727D01*
X102390363Y-110007759D01*
X102590241Y-110207637D01*
X102825273Y-110364680D01*
X103086426Y-110472853D01*
X103363665Y-110528000D01*
X103646335Y-110528000D01*
X103923574Y-110472853D01*
X104184727Y-110364680D01*
X104419759Y-110207637D01*
X104619637Y-110007759D01*
X104775000Y-109775241D01*
X104930363Y-110007759D01*
X105130241Y-110207637D01*
X105365273Y-110364680D01*
X105626426Y-110472853D01*
X105903665Y-110528000D01*
X106186335Y-110528000D01*
X106463574Y-110472853D01*
X106724727Y-110364680D01*
X106959759Y-110207637D01*
X107159637Y-110007759D01*
X107315000Y-109775241D01*
X107470363Y-110007759D01*
X107670241Y-110207637D01*
X107905273Y-110364680D01*
X108166426Y-110472853D01*
X108443665Y-110528000D01*
X108726335Y-110528000D01*
X109003574Y-110472853D01*
X109264727Y-110364680D01*
X109499759Y-110207637D01*
X109698357Y-110009039D01*
X109699188Y-110017482D01*
X109735498Y-110137180D01*
X109794463Y-110247494D01*
X109873815Y-110344185D01*
X109970506Y-110423537D01*
X110080820Y-110482502D01*
X110200518Y-110518812D01*
X110325000Y-110531072D01*
X111925000Y-110531072D01*
X112049482Y-110518812D01*
X112169180Y-110482502D01*
X112279494Y-110423537D01*
X112376185Y-110344185D01*
X112455537Y-110247494D01*
X112514502Y-110137180D01*
X112550812Y-110017482D01*
X112563072Y-109893000D01*
X112563072Y-108951665D01*
X123279000Y-108951665D01*
X123279000Y-109234335D01*
X123334147Y-109511574D01*
X123442320Y-109772727D01*
X123599363Y-110007759D01*
X123799241Y-110207637D01*
X124034273Y-110364680D01*
X124295426Y-110472853D01*
X124572665Y-110528000D01*
X124855335Y-110528000D01*
X125132574Y-110472853D01*
X125393727Y-110364680D01*
X125628759Y-110207637D01*
X125828637Y-110007759D01*
X125984000Y-109775241D01*
X126139363Y-110007759D01*
X126339241Y-110207637D01*
X126574273Y-110364680D01*
X126835426Y-110472853D01*
X127112665Y-110528000D01*
X127395335Y-110528000D01*
X127672574Y-110472853D01*
X127933727Y-110364680D01*
X128168759Y-110207637D01*
X128368637Y-110007759D01*
X128524000Y-109775241D01*
X128679363Y-110007759D01*
X128879241Y-110207637D01*
X129114273Y-110364680D01*
X129375426Y-110472853D01*
X129652665Y-110528000D01*
X129935335Y-110528000D01*
X130212574Y-110472853D01*
X130473727Y-110364680D01*
X130708759Y-110207637D01*
X130907357Y-110009039D01*
X130908188Y-110017482D01*
X130944498Y-110137180D01*
X131003463Y-110247494D01*
X131082815Y-110344185D01*
X131179506Y-110423537D01*
X131289820Y-110482502D01*
X131409518Y-110518812D01*
X131534000Y-110531072D01*
X133134000Y-110531072D01*
X133258482Y-110518812D01*
X133378180Y-110482502D01*
X133488494Y-110423537D01*
X133585185Y-110344185D01*
X133664537Y-110247494D01*
X133723502Y-110137180D01*
X133759812Y-110017482D01*
X133772072Y-109893000D01*
X133772072Y-108293000D01*
X133759812Y-108168518D01*
X133723502Y-108048820D01*
X133664537Y-107938506D01*
X133585185Y-107841815D01*
X133488494Y-107762463D01*
X133378180Y-107703498D01*
X133258482Y-107667188D01*
X133134000Y-107654928D01*
X131534000Y-107654928D01*
X131409518Y-107667188D01*
X131289820Y-107703498D01*
X131179506Y-107762463D01*
X131082815Y-107841815D01*
X131003463Y-107938506D01*
X130944498Y-108048820D01*
X130908188Y-108168518D01*
X130907357Y-108176961D01*
X130708759Y-107978363D01*
X130473727Y-107821320D01*
X130212574Y-107713147D01*
X129935335Y-107658000D01*
X129652665Y-107658000D01*
X129375426Y-107713147D01*
X129114273Y-107821320D01*
X128879241Y-107978363D01*
X128679363Y-108178241D01*
X128524000Y-108410759D01*
X128368637Y-108178241D01*
X128168759Y-107978363D01*
X127933727Y-107821320D01*
X127672574Y-107713147D01*
X127395335Y-107658000D01*
X127112665Y-107658000D01*
X126835426Y-107713147D01*
X126574273Y-107821320D01*
X126339241Y-107978363D01*
X126139363Y-108178241D01*
X125984000Y-108410759D01*
X125828637Y-108178241D01*
X125628759Y-107978363D01*
X125393727Y-107821320D01*
X125132574Y-107713147D01*
X124855335Y-107658000D01*
X124572665Y-107658000D01*
X124295426Y-107713147D01*
X124034273Y-107821320D01*
X123799241Y-107978363D01*
X123599363Y-108178241D01*
X123442320Y-108413273D01*
X123334147Y-108674426D01*
X123279000Y-108951665D01*
X112563072Y-108951665D01*
X112563072Y-108293000D01*
X112550812Y-108168518D01*
X112514502Y-108048820D01*
X112455537Y-107938506D01*
X112376185Y-107841815D01*
X112279494Y-107762463D01*
X112169180Y-107703498D01*
X112049482Y-107667188D01*
X111925000Y-107654928D01*
X110325000Y-107654928D01*
X110200518Y-107667188D01*
X110080820Y-107703498D01*
X109970506Y-107762463D01*
X109873815Y-107841815D01*
X109794463Y-107938506D01*
X109735498Y-108048820D01*
X109699188Y-108168518D01*
X109698357Y-108176961D01*
X109499759Y-107978363D01*
X109264727Y-107821320D01*
X109003574Y-107713147D01*
X108726335Y-107658000D01*
X108443665Y-107658000D01*
X108166426Y-107713147D01*
X107905273Y-107821320D01*
X107670241Y-107978363D01*
X107470363Y-108178241D01*
X107315000Y-108410759D01*
X107159637Y-108178241D01*
X106959759Y-107978363D01*
X106724727Y-107821320D01*
X106463574Y-107713147D01*
X106186335Y-107658000D01*
X105903665Y-107658000D01*
X105626426Y-107713147D01*
X105365273Y-107821320D01*
X105130241Y-107978363D01*
X104930363Y-108178241D01*
X104775000Y-108410759D01*
X104619637Y-108178241D01*
X104419759Y-107978363D01*
X104184727Y-107821320D01*
X103923574Y-107713147D01*
X103646335Y-107658000D01*
X103363665Y-107658000D01*
X103087761Y-107712881D01*
X103177145Y-107645116D01*
X103200854Y-107621643D01*
X103282531Y-107516108D01*
X103299307Y-107487271D01*
X103350683Y-107364107D01*
X103359372Y-107331895D01*
X103376900Y-107199601D01*
X103378000Y-107182920D01*
X103378000Y-105009740D01*
X103671000Y-105009740D01*
X103671000Y-105302260D01*
X103728068Y-105589158D01*
X103840010Y-105859411D01*
X104002525Y-106102632D01*
X104209368Y-106309475D01*
X104452589Y-106471990D01*
X104722842Y-106583932D01*
X105009740Y-106641000D01*
X105302260Y-106641000D01*
X105589158Y-106583932D01*
X105859411Y-106471990D01*
X106102632Y-106309475D01*
X106309475Y-106102632D01*
X106471990Y-105859411D01*
X106583932Y-105589158D01*
X106641000Y-105302260D01*
X106641000Y-105009740D01*
X108751000Y-105009740D01*
X108751000Y-105302260D01*
X108808068Y-105589158D01*
X108920010Y-105859411D01*
X109082525Y-106102632D01*
X109289368Y-106309475D01*
X109532589Y-106471990D01*
X109802842Y-106583932D01*
X110089740Y-106641000D01*
X110382260Y-106641000D01*
X110669158Y-106583932D01*
X110939411Y-106471990D01*
X111182632Y-106309475D01*
X111389475Y-106102632D01*
X111551990Y-105859411D01*
X111663932Y-105589158D01*
X111721000Y-105302260D01*
X111721000Y-105009740D01*
X113831000Y-105009740D01*
X113831000Y-105302260D01*
X113888068Y-105589158D01*
X114000010Y-105859411D01*
X114162525Y-106102632D01*
X114369368Y-106309475D01*
X114612589Y-106471990D01*
X114882842Y-106583932D01*
X115169740Y-106641000D01*
X115462260Y-106641000D01*
X115749158Y-106583932D01*
X116019411Y-106471990D01*
X116262632Y-106309475D01*
X116469475Y-106102632D01*
X116631990Y-105859411D01*
X116743932Y-105589158D01*
X116801000Y-105302260D01*
X116801000Y-105009740D01*
X118911000Y-105009740D01*
X118911000Y-105302260D01*
X118968068Y-105589158D01*
X119080010Y-105859411D01*
X119242525Y-106102632D01*
X119449368Y-106309475D01*
X119692589Y-106471990D01*
X119962842Y-106583932D01*
X120249740Y-106641000D01*
X120542260Y-106641000D01*
X120829158Y-106583932D01*
X121099411Y-106471990D01*
X121342632Y-106309475D01*
X121549475Y-106102632D01*
X121711990Y-105859411D01*
X121823932Y-105589158D01*
X121881000Y-105302260D01*
X121881000Y-105009740D01*
X123991000Y-105009740D01*
X123991000Y-105302260D01*
X124048068Y-105589158D01*
X124160010Y-105859411D01*
X124322525Y-106102632D01*
X124529368Y-106309475D01*
X124772589Y-106471990D01*
X125042842Y-106583932D01*
X125329740Y-106641000D01*
X125622260Y-106641000D01*
X125909158Y-106583932D01*
X126179411Y-106471990D01*
X126422632Y-106309475D01*
X126629475Y-106102632D01*
X126791990Y-105859411D01*
X126903932Y-105589158D01*
X126961000Y-105302260D01*
X126961000Y-105009740D01*
X129071000Y-105009740D01*
X129071000Y-105302260D01*
X129128068Y-105589158D01*
X129240010Y-105859411D01*
X129402525Y-106102632D01*
X129609368Y-106309475D01*
X129852589Y-106471990D01*
X130122842Y-106583932D01*
X130409740Y-106641000D01*
X130702260Y-106641000D01*
X130989158Y-106583932D01*
X131259411Y-106471990D01*
X131502632Y-106309475D01*
X131709475Y-106102632D01*
X131871990Y-105859411D01*
X131983932Y-105589158D01*
X132041000Y-105302260D01*
X132041000Y-105009740D01*
X134151000Y-105009740D01*
X134151000Y-105302260D01*
X134208068Y-105589158D01*
X134320010Y-105859411D01*
X134482525Y-106102632D01*
X134689368Y-106309475D01*
X134932589Y-106471990D01*
X135202842Y-106583932D01*
X135489740Y-106641000D01*
X135782260Y-106641000D01*
X136069158Y-106583932D01*
X136339411Y-106471990D01*
X136582632Y-106309475D01*
X136789475Y-106102632D01*
X136951990Y-105859411D01*
X137063932Y-105589158D01*
X137121000Y-105302260D01*
X137121000Y-105009740D01*
X137063932Y-104722842D01*
X136951990Y-104452589D01*
X136789475Y-104209368D01*
X136582632Y-104002525D01*
X136339411Y-103840010D01*
X136069158Y-103728068D01*
X135782260Y-103671000D01*
X135489740Y-103671000D01*
X135202842Y-103728068D01*
X134932589Y-103840010D01*
X134689368Y-104002525D01*
X134482525Y-104209368D01*
X134320010Y-104452589D01*
X134208068Y-104722842D01*
X134151000Y-105009740D01*
X132041000Y-105009740D01*
X131983932Y-104722842D01*
X131871990Y-104452589D01*
X131709475Y-104209368D01*
X131502632Y-104002525D01*
X131259411Y-103840010D01*
X130989158Y-103728068D01*
X130702260Y-103671000D01*
X130409740Y-103671000D01*
X130122842Y-103728068D01*
X129852589Y-103840010D01*
X129609368Y-104002525D01*
X129402525Y-104209368D01*
X129240010Y-104452589D01*
X129128068Y-104722842D01*
X129071000Y-105009740D01*
X126961000Y-105009740D01*
X126903932Y-104722842D01*
X126791990Y-104452589D01*
X126629475Y-104209368D01*
X126422632Y-104002525D01*
X126179411Y-103840010D01*
X125909158Y-103728068D01*
X125622260Y-103671000D01*
X125329740Y-103671000D01*
X125042842Y-103728068D01*
X124772589Y-103840010D01*
X124529368Y-104002525D01*
X124322525Y-104209368D01*
X124160010Y-104452589D01*
X124048068Y-104722842D01*
X123991000Y-105009740D01*
X121881000Y-105009740D01*
X121823932Y-104722842D01*
X121711990Y-104452589D01*
X121549475Y-104209368D01*
X121342632Y-104002525D01*
X121099411Y-103840010D01*
X120829158Y-103728068D01*
X120542260Y-103671000D01*
X120249740Y-103671000D01*
X119962842Y-103728068D01*
X119692589Y-103840010D01*
X119449368Y-104002525D01*
X119242525Y-104209368D01*
X119080010Y-104452589D01*
X118968068Y-104722842D01*
X118911000Y-105009740D01*
X116801000Y-105009740D01*
X116743932Y-104722842D01*
X116631990Y-104452589D01*
X116469475Y-104209368D01*
X116262632Y-104002525D01*
X116019411Y-103840010D01*
X115749158Y-103728068D01*
X115462260Y-103671000D01*
X115169740Y-103671000D01*
X114882842Y-103728068D01*
X114612589Y-103840010D01*
X114369368Y-104002525D01*
X114162525Y-104209368D01*
X114000010Y-104452589D01*
X113888068Y-104722842D01*
X113831000Y-105009740D01*
X111721000Y-105009740D01*
X111663932Y-104722842D01*
X111551990Y-104452589D01*
X111389475Y-104209368D01*
X111182632Y-104002525D01*
X110939411Y-103840010D01*
X110669158Y-103728068D01*
X110382260Y-103671000D01*
X110089740Y-103671000D01*
X109802842Y-103728068D01*
X109532589Y-103840010D01*
X109289368Y-104002525D01*
X109082525Y-104209368D01*
X108920010Y-104452589D01*
X108808068Y-104722842D01*
X108751000Y-105009740D01*
X106641000Y-105009740D01*
X106583932Y-104722842D01*
X106471990Y-104452589D01*
X106309475Y-104209368D01*
X106102632Y-104002525D01*
X105859411Y-103840010D01*
X105589158Y-103728068D01*
X105302260Y-103671000D01*
X105009740Y-103671000D01*
X104722842Y-103728068D01*
X104452589Y-103840010D01*
X104209368Y-104002525D01*
X104002525Y-104209368D01*
X103840010Y-104452589D01*
X103728068Y-104722842D01*
X103671000Y-105009740D01*
X103378000Y-105009740D01*
X103378000Y-101989321D01*
X103392040Y-101882675D01*
X103429993Y-101791049D01*
X103490368Y-101712368D01*
X103569049Y-101651993D01*
X103660675Y-101614040D01*
X103767321Y-101600000D01*
X136897679Y-101600000D01*
X137004325Y-101614040D01*
G37*
%TD.AperFunction*%
%TD*%
D31*
%TO.N,+24V*%
X135607325Y-41670040D02*
X135698951Y-41707993D01*
X135777632Y-41768368D01*
X135838007Y-41847049D01*
X135875960Y-41938675D01*
X135890000Y-42045321D01*
X135890000Y-86735278D01*
X135876049Y-86841589D01*
X135838335Y-86932969D01*
X135778318Y-87011529D01*
X135700068Y-87071940D01*
X135608880Y-87110119D01*
X135502634Y-87124610D01*
X133314072Y-87135719D01*
X133314072Y-85764000D01*
X133301812Y-85639518D01*
X133265502Y-85519820D01*
X133206537Y-85409506D01*
X133127185Y-85312815D01*
X133030494Y-85233463D01*
X132920180Y-85174498D01*
X132800482Y-85138188D01*
X132676000Y-85125928D01*
X130976000Y-85125928D01*
X130851518Y-85138188D01*
X130731820Y-85174498D01*
X130621506Y-85233463D01*
X130524815Y-85312815D01*
X130445463Y-85409506D01*
X130386498Y-85519820D01*
X130350188Y-85639518D01*
X130337928Y-85764000D01*
X130337928Y-87150827D01*
X124297072Y-87181491D01*
X124297072Y-85764000D01*
X124284812Y-85639518D01*
X124248502Y-85519820D01*
X124189537Y-85409506D01*
X124110185Y-85312815D01*
X124013494Y-85233463D01*
X123903180Y-85174498D01*
X123783482Y-85138188D01*
X123659000Y-85125928D01*
X121959000Y-85125928D01*
X121834518Y-85138188D01*
X121714820Y-85174498D01*
X121604506Y-85233463D01*
X121507815Y-85312815D01*
X121428463Y-85409506D01*
X121369498Y-85519820D01*
X121333188Y-85639518D01*
X121320928Y-85764000D01*
X121320928Y-87196598D01*
X115280072Y-87227263D01*
X115280072Y-85764000D01*
X115267812Y-85639518D01*
X115231502Y-85519820D01*
X115172537Y-85409506D01*
X115093185Y-85312815D01*
X114996494Y-85233463D01*
X114886180Y-85174498D01*
X114766482Y-85138188D01*
X114642000Y-85125928D01*
X112942000Y-85125928D01*
X112817518Y-85138188D01*
X112697820Y-85174498D01*
X112587506Y-85233463D01*
X112490815Y-85312815D01*
X112411463Y-85409506D01*
X112352498Y-85519820D01*
X112316188Y-85639518D01*
X112303928Y-85764000D01*
X112303928Y-87242370D01*
X111512776Y-87246386D01*
X111406172Y-87232917D01*
X111314437Y-87195510D01*
X111235496Y-87135662D01*
X111174710Y-87057436D01*
X111136216Y-86966155D01*
X111121479Y-86859719D01*
X111033379Y-73953000D01*
X112176928Y-73953000D01*
X112176928Y-75653000D01*
X112189188Y-75777482D01*
X112225498Y-75897180D01*
X112284463Y-76007494D01*
X112363815Y-76104185D01*
X112460506Y-76183537D01*
X112570820Y-76242502D01*
X112690518Y-76278812D01*
X112815000Y-76291072D01*
X114515000Y-76291072D01*
X114639482Y-76278812D01*
X114759180Y-76242502D01*
X114869494Y-76183537D01*
X114966185Y-76104185D01*
X115045537Y-76007494D01*
X115104502Y-75897180D01*
X115140812Y-75777482D01*
X115153072Y-75653000D01*
X115153072Y-73953000D01*
X121193928Y-73953000D01*
X121193928Y-75653000D01*
X121206188Y-75777482D01*
X121242498Y-75897180D01*
X121301463Y-76007494D01*
X121380815Y-76104185D01*
X121477506Y-76183537D01*
X121587820Y-76242502D01*
X121707518Y-76278812D01*
X121832000Y-76291072D01*
X123532000Y-76291072D01*
X123656482Y-76278812D01*
X123776180Y-76242502D01*
X123886494Y-76183537D01*
X123983185Y-76104185D01*
X124062537Y-76007494D01*
X124121502Y-75897180D01*
X124157812Y-75777482D01*
X124170072Y-75653000D01*
X124170072Y-73953000D01*
X130210928Y-73953000D01*
X130210928Y-75653000D01*
X130223188Y-75777482D01*
X130259498Y-75897180D01*
X130318463Y-76007494D01*
X130397815Y-76104185D01*
X130494506Y-76183537D01*
X130604820Y-76242502D01*
X130724518Y-76278812D01*
X130849000Y-76291072D01*
X132549000Y-76291072D01*
X132673482Y-76278812D01*
X132793180Y-76242502D01*
X132903494Y-76183537D01*
X133000185Y-76104185D01*
X133079537Y-76007494D01*
X133138502Y-75897180D01*
X133174812Y-75777482D01*
X133187072Y-75653000D01*
X133187072Y-73953000D01*
X133174812Y-73828518D01*
X133138502Y-73708820D01*
X133079537Y-73598506D01*
X133000185Y-73501815D01*
X132903494Y-73422463D01*
X132793180Y-73363498D01*
X132673482Y-73327188D01*
X132549000Y-73314928D01*
X130849000Y-73314928D01*
X130724518Y-73327188D01*
X130604820Y-73363498D01*
X130494506Y-73422463D01*
X130397815Y-73501815D01*
X130318463Y-73598506D01*
X130259498Y-73708820D01*
X130223188Y-73828518D01*
X130210928Y-73953000D01*
X124170072Y-73953000D01*
X124157812Y-73828518D01*
X124121502Y-73708820D01*
X124062537Y-73598506D01*
X123983185Y-73501815D01*
X123886494Y-73422463D01*
X123776180Y-73363498D01*
X123656482Y-73327188D01*
X123532000Y-73314928D01*
X121832000Y-73314928D01*
X121707518Y-73327188D01*
X121587820Y-73363498D01*
X121477506Y-73422463D01*
X121380815Y-73501815D01*
X121301463Y-73598506D01*
X121242498Y-73708820D01*
X121206188Y-73828518D01*
X121193928Y-73953000D01*
X115153072Y-73953000D01*
X115140812Y-73828518D01*
X115104502Y-73708820D01*
X115045537Y-73598506D01*
X114966185Y-73501815D01*
X114869494Y-73422463D01*
X114759180Y-73363498D01*
X114639482Y-73327188D01*
X114515000Y-73314928D01*
X112815000Y-73314928D01*
X112690518Y-73327188D01*
X112570820Y-73363498D01*
X112460506Y-73422463D01*
X112363815Y-73501815D01*
X112284463Y-73598506D01*
X112225498Y-73708820D01*
X112189188Y-73828518D01*
X112176928Y-73953000D01*
X111033379Y-73953000D01*
X110953625Y-62269000D01*
X112176928Y-62269000D01*
X112176928Y-63969000D01*
X112189188Y-64093482D01*
X112225498Y-64213180D01*
X112284463Y-64323494D01*
X112363815Y-64420185D01*
X112460506Y-64499537D01*
X112570820Y-64558502D01*
X112690518Y-64594812D01*
X112815000Y-64607072D01*
X114515000Y-64607072D01*
X114639482Y-64594812D01*
X114759180Y-64558502D01*
X114869494Y-64499537D01*
X114966185Y-64420185D01*
X115045537Y-64323494D01*
X115104502Y-64213180D01*
X115140812Y-64093482D01*
X115153072Y-63969000D01*
X115153072Y-62269000D01*
X121233928Y-62269000D01*
X121233928Y-63969000D01*
X121246188Y-64093482D01*
X121282498Y-64213180D01*
X121341463Y-64323494D01*
X121420815Y-64420185D01*
X121517506Y-64499537D01*
X121627820Y-64558502D01*
X121747518Y-64594812D01*
X121872000Y-64607072D01*
X123572000Y-64607072D01*
X123696482Y-64594812D01*
X123816180Y-64558502D01*
X123926494Y-64499537D01*
X124023185Y-64420185D01*
X124102537Y-64323494D01*
X124161502Y-64213180D01*
X124197812Y-64093482D01*
X124210072Y-63969000D01*
X124210072Y-62269000D01*
X130210928Y-62269000D01*
X130210928Y-63969000D01*
X130223188Y-64093482D01*
X130259498Y-64213180D01*
X130318463Y-64323494D01*
X130397815Y-64420185D01*
X130494506Y-64499537D01*
X130604820Y-64558502D01*
X130724518Y-64594812D01*
X130849000Y-64607072D01*
X132549000Y-64607072D01*
X132673482Y-64594812D01*
X132793180Y-64558502D01*
X132903494Y-64499537D01*
X133000185Y-64420185D01*
X133079537Y-64323494D01*
X133138502Y-64213180D01*
X133174812Y-64093482D01*
X133187072Y-63969000D01*
X133187072Y-62269000D01*
X133174812Y-62144518D01*
X133138502Y-62024820D01*
X133079537Y-61914506D01*
X133000185Y-61817815D01*
X132903494Y-61738463D01*
X132793180Y-61679498D01*
X132673482Y-61643188D01*
X132549000Y-61630928D01*
X130849000Y-61630928D01*
X130724518Y-61643188D01*
X130604820Y-61679498D01*
X130494506Y-61738463D01*
X130397815Y-61817815D01*
X130318463Y-61914506D01*
X130259498Y-62024820D01*
X130223188Y-62144518D01*
X130210928Y-62269000D01*
X124210072Y-62269000D01*
X124197812Y-62144518D01*
X124161502Y-62024820D01*
X124102537Y-61914506D01*
X124023185Y-61817815D01*
X123926494Y-61738463D01*
X123816180Y-61679498D01*
X123696482Y-61643188D01*
X123572000Y-61630928D01*
X121872000Y-61630928D01*
X121747518Y-61643188D01*
X121627820Y-61679498D01*
X121517506Y-61738463D01*
X121420815Y-61817815D01*
X121341463Y-61914506D01*
X121282498Y-62024820D01*
X121246188Y-62144518D01*
X121233928Y-62269000D01*
X115153072Y-62269000D01*
X115140812Y-62144518D01*
X115104502Y-62024820D01*
X115045537Y-61914506D01*
X114966185Y-61817815D01*
X114869494Y-61738463D01*
X114759180Y-61679498D01*
X114639482Y-61643188D01*
X114515000Y-61630928D01*
X112815000Y-61630928D01*
X112690518Y-61643188D01*
X112570820Y-61679498D01*
X112460506Y-61738463D01*
X112363815Y-61817815D01*
X112284463Y-61914506D01*
X112225498Y-62024820D01*
X112189188Y-62144518D01*
X112176928Y-62269000D01*
X110953625Y-62269000D01*
X110894329Y-53582200D01*
X130261728Y-53582200D01*
X130261728Y-55282200D01*
X130273988Y-55406682D01*
X130310298Y-55526380D01*
X130369263Y-55636694D01*
X130448615Y-55733385D01*
X130545306Y-55812737D01*
X130655620Y-55871702D01*
X130775318Y-55908012D01*
X130899800Y-55920272D01*
X132599800Y-55920272D01*
X132724282Y-55908012D01*
X132843980Y-55871702D01*
X132954294Y-55812737D01*
X133050985Y-55733385D01*
X133130337Y-55636694D01*
X133189302Y-55526380D01*
X133225612Y-55406682D01*
X133237872Y-55282200D01*
X133237872Y-53582200D01*
X133225612Y-53457718D01*
X133189302Y-53338020D01*
X133130337Y-53227706D01*
X133050985Y-53131015D01*
X132954294Y-53051663D01*
X132843980Y-52992698D01*
X132724282Y-52956388D01*
X132599800Y-52944128D01*
X130899800Y-52944128D01*
X130775318Y-52956388D01*
X130655620Y-52992698D01*
X130545306Y-53051663D01*
X130448615Y-53131015D01*
X130369263Y-53227706D01*
X130310298Y-53338020D01*
X130273988Y-53457718D01*
X130261728Y-53582200D01*
X110894329Y-53582200D01*
X110874545Y-50683963D01*
X110887976Y-50576765D01*
X110925620Y-50484552D01*
X110985939Y-50405291D01*
X111064781Y-50344436D01*
X111156739Y-50306162D01*
X111263840Y-50292000D01*
X128270000Y-50292000D01*
X128286577Y-50290913D01*
X128418057Y-50273603D01*
X128450080Y-50265023D01*
X128572600Y-50214274D01*
X128601313Y-50197697D01*
X128706523Y-50116966D01*
X128729966Y-50093523D01*
X128810697Y-49988313D01*
X128827274Y-49959600D01*
X128878023Y-49837080D01*
X128886603Y-49805057D01*
X128903913Y-49673577D01*
X128905000Y-49657000D01*
X128905000Y-42045321D01*
X128919040Y-41938675D01*
X128956993Y-41847049D01*
X129017368Y-41768368D01*
X129096049Y-41707993D01*
X129187675Y-41670040D01*
X129294321Y-41656000D01*
X135500679Y-41656000D01*
X135607325Y-41670040D01*
%TA.AperFunction,Conductor*%
D32*
G36*
X135607325Y-41670040D02*
G01*
X135698951Y-41707993D01*
X135777632Y-41768368D01*
X135838007Y-41847049D01*
X135875960Y-41938675D01*
X135890000Y-42045321D01*
X135890000Y-86735278D01*
X135876049Y-86841589D01*
X135838335Y-86932969D01*
X135778318Y-87011529D01*
X135700068Y-87071940D01*
X135608880Y-87110119D01*
X135502634Y-87124610D01*
X133314072Y-87135719D01*
X133314072Y-85764000D01*
X133301812Y-85639518D01*
X133265502Y-85519820D01*
X133206537Y-85409506D01*
X133127185Y-85312815D01*
X133030494Y-85233463D01*
X132920180Y-85174498D01*
X132800482Y-85138188D01*
X132676000Y-85125928D01*
X130976000Y-85125928D01*
X130851518Y-85138188D01*
X130731820Y-85174498D01*
X130621506Y-85233463D01*
X130524815Y-85312815D01*
X130445463Y-85409506D01*
X130386498Y-85519820D01*
X130350188Y-85639518D01*
X130337928Y-85764000D01*
X130337928Y-87150827D01*
X124297072Y-87181491D01*
X124297072Y-85764000D01*
X124284812Y-85639518D01*
X124248502Y-85519820D01*
X124189537Y-85409506D01*
X124110185Y-85312815D01*
X124013494Y-85233463D01*
X123903180Y-85174498D01*
X123783482Y-85138188D01*
X123659000Y-85125928D01*
X121959000Y-85125928D01*
X121834518Y-85138188D01*
X121714820Y-85174498D01*
X121604506Y-85233463D01*
X121507815Y-85312815D01*
X121428463Y-85409506D01*
X121369498Y-85519820D01*
X121333188Y-85639518D01*
X121320928Y-85764000D01*
X121320928Y-87196598D01*
X115280072Y-87227263D01*
X115280072Y-85764000D01*
X115267812Y-85639518D01*
X115231502Y-85519820D01*
X115172537Y-85409506D01*
X115093185Y-85312815D01*
X114996494Y-85233463D01*
X114886180Y-85174498D01*
X114766482Y-85138188D01*
X114642000Y-85125928D01*
X112942000Y-85125928D01*
X112817518Y-85138188D01*
X112697820Y-85174498D01*
X112587506Y-85233463D01*
X112490815Y-85312815D01*
X112411463Y-85409506D01*
X112352498Y-85519820D01*
X112316188Y-85639518D01*
X112303928Y-85764000D01*
X112303928Y-87242370D01*
X111512776Y-87246386D01*
X111406172Y-87232917D01*
X111314437Y-87195510D01*
X111235496Y-87135662D01*
X111174710Y-87057436D01*
X111136216Y-86966155D01*
X111121479Y-86859719D01*
X111033379Y-73953000D01*
X112176928Y-73953000D01*
X112176928Y-75653000D01*
X112189188Y-75777482D01*
X112225498Y-75897180D01*
X112284463Y-76007494D01*
X112363815Y-76104185D01*
X112460506Y-76183537D01*
X112570820Y-76242502D01*
X112690518Y-76278812D01*
X112815000Y-76291072D01*
X114515000Y-76291072D01*
X114639482Y-76278812D01*
X114759180Y-76242502D01*
X114869494Y-76183537D01*
X114966185Y-76104185D01*
X115045537Y-76007494D01*
X115104502Y-75897180D01*
X115140812Y-75777482D01*
X115153072Y-75653000D01*
X115153072Y-73953000D01*
X121193928Y-73953000D01*
X121193928Y-75653000D01*
X121206188Y-75777482D01*
X121242498Y-75897180D01*
X121301463Y-76007494D01*
X121380815Y-76104185D01*
X121477506Y-76183537D01*
X121587820Y-76242502D01*
X121707518Y-76278812D01*
X121832000Y-76291072D01*
X123532000Y-76291072D01*
X123656482Y-76278812D01*
X123776180Y-76242502D01*
X123886494Y-76183537D01*
X123983185Y-76104185D01*
X124062537Y-76007494D01*
X124121502Y-75897180D01*
X124157812Y-75777482D01*
X124170072Y-75653000D01*
X124170072Y-73953000D01*
X130210928Y-73953000D01*
X130210928Y-75653000D01*
X130223188Y-75777482D01*
X130259498Y-75897180D01*
X130318463Y-76007494D01*
X130397815Y-76104185D01*
X130494506Y-76183537D01*
X130604820Y-76242502D01*
X130724518Y-76278812D01*
X130849000Y-76291072D01*
X132549000Y-76291072D01*
X132673482Y-76278812D01*
X132793180Y-76242502D01*
X132903494Y-76183537D01*
X133000185Y-76104185D01*
X133079537Y-76007494D01*
X133138502Y-75897180D01*
X133174812Y-75777482D01*
X133187072Y-75653000D01*
X133187072Y-73953000D01*
X133174812Y-73828518D01*
X133138502Y-73708820D01*
X133079537Y-73598506D01*
X133000185Y-73501815D01*
X132903494Y-73422463D01*
X132793180Y-73363498D01*
X132673482Y-73327188D01*
X132549000Y-73314928D01*
X130849000Y-73314928D01*
X130724518Y-73327188D01*
X130604820Y-73363498D01*
X130494506Y-73422463D01*
X130397815Y-73501815D01*
X130318463Y-73598506D01*
X130259498Y-73708820D01*
X130223188Y-73828518D01*
X130210928Y-73953000D01*
X124170072Y-73953000D01*
X124157812Y-73828518D01*
X124121502Y-73708820D01*
X124062537Y-73598506D01*
X123983185Y-73501815D01*
X123886494Y-73422463D01*
X123776180Y-73363498D01*
X123656482Y-73327188D01*
X123532000Y-73314928D01*
X121832000Y-73314928D01*
X121707518Y-73327188D01*
X121587820Y-73363498D01*
X121477506Y-73422463D01*
X121380815Y-73501815D01*
X121301463Y-73598506D01*
X121242498Y-73708820D01*
X121206188Y-73828518D01*
X121193928Y-73953000D01*
X115153072Y-73953000D01*
X115140812Y-73828518D01*
X115104502Y-73708820D01*
X115045537Y-73598506D01*
X114966185Y-73501815D01*
X114869494Y-73422463D01*
X114759180Y-73363498D01*
X114639482Y-73327188D01*
X114515000Y-73314928D01*
X112815000Y-73314928D01*
X112690518Y-73327188D01*
X112570820Y-73363498D01*
X112460506Y-73422463D01*
X112363815Y-73501815D01*
X112284463Y-73598506D01*
X112225498Y-73708820D01*
X112189188Y-73828518D01*
X112176928Y-73953000D01*
X111033379Y-73953000D01*
X110953625Y-62269000D01*
X112176928Y-62269000D01*
X112176928Y-63969000D01*
X112189188Y-64093482D01*
X112225498Y-64213180D01*
X112284463Y-64323494D01*
X112363815Y-64420185D01*
X112460506Y-64499537D01*
X112570820Y-64558502D01*
X112690518Y-64594812D01*
X112815000Y-64607072D01*
X114515000Y-64607072D01*
X114639482Y-64594812D01*
X114759180Y-64558502D01*
X114869494Y-64499537D01*
X114966185Y-64420185D01*
X115045537Y-64323494D01*
X115104502Y-64213180D01*
X115140812Y-64093482D01*
X115153072Y-63969000D01*
X115153072Y-62269000D01*
X121233928Y-62269000D01*
X121233928Y-63969000D01*
X121246188Y-64093482D01*
X121282498Y-64213180D01*
X121341463Y-64323494D01*
X121420815Y-64420185D01*
X121517506Y-64499537D01*
X121627820Y-64558502D01*
X121747518Y-64594812D01*
X121872000Y-64607072D01*
X123572000Y-64607072D01*
X123696482Y-64594812D01*
X123816180Y-64558502D01*
X123926494Y-64499537D01*
X124023185Y-64420185D01*
X124102537Y-64323494D01*
X124161502Y-64213180D01*
X124197812Y-64093482D01*
X124210072Y-63969000D01*
X124210072Y-62269000D01*
X130210928Y-62269000D01*
X130210928Y-63969000D01*
X130223188Y-64093482D01*
X130259498Y-64213180D01*
X130318463Y-64323494D01*
X130397815Y-64420185D01*
X130494506Y-64499537D01*
X130604820Y-64558502D01*
X130724518Y-64594812D01*
X130849000Y-64607072D01*
X132549000Y-64607072D01*
X132673482Y-64594812D01*
X132793180Y-64558502D01*
X132903494Y-64499537D01*
X133000185Y-64420185D01*
X133079537Y-64323494D01*
X133138502Y-64213180D01*
X133174812Y-64093482D01*
X133187072Y-63969000D01*
X133187072Y-62269000D01*
X133174812Y-62144518D01*
X133138502Y-62024820D01*
X133079537Y-61914506D01*
X133000185Y-61817815D01*
X132903494Y-61738463D01*
X132793180Y-61679498D01*
X132673482Y-61643188D01*
X132549000Y-61630928D01*
X130849000Y-61630928D01*
X130724518Y-61643188D01*
X130604820Y-61679498D01*
X130494506Y-61738463D01*
X130397815Y-61817815D01*
X130318463Y-61914506D01*
X130259498Y-62024820D01*
X130223188Y-62144518D01*
X130210928Y-62269000D01*
X124210072Y-62269000D01*
X124197812Y-62144518D01*
X124161502Y-62024820D01*
X124102537Y-61914506D01*
X124023185Y-61817815D01*
X123926494Y-61738463D01*
X123816180Y-61679498D01*
X123696482Y-61643188D01*
X123572000Y-61630928D01*
X121872000Y-61630928D01*
X121747518Y-61643188D01*
X121627820Y-61679498D01*
X121517506Y-61738463D01*
X121420815Y-61817815D01*
X121341463Y-61914506D01*
X121282498Y-62024820D01*
X121246188Y-62144518D01*
X121233928Y-62269000D01*
X115153072Y-62269000D01*
X115140812Y-62144518D01*
X115104502Y-62024820D01*
X115045537Y-61914506D01*
X114966185Y-61817815D01*
X114869494Y-61738463D01*
X114759180Y-61679498D01*
X114639482Y-61643188D01*
X114515000Y-61630928D01*
X112815000Y-61630928D01*
X112690518Y-61643188D01*
X112570820Y-61679498D01*
X112460506Y-61738463D01*
X112363815Y-61817815D01*
X112284463Y-61914506D01*
X112225498Y-62024820D01*
X112189188Y-62144518D01*
X112176928Y-62269000D01*
X110953625Y-62269000D01*
X110894329Y-53582200D01*
X130261728Y-53582200D01*
X130261728Y-55282200D01*
X130273988Y-55406682D01*
X130310298Y-55526380D01*
X130369263Y-55636694D01*
X130448615Y-55733385D01*
X130545306Y-55812737D01*
X130655620Y-55871702D01*
X130775318Y-55908012D01*
X130899800Y-55920272D01*
X132599800Y-55920272D01*
X132724282Y-55908012D01*
X132843980Y-55871702D01*
X132954294Y-55812737D01*
X133050985Y-55733385D01*
X133130337Y-55636694D01*
X133189302Y-55526380D01*
X133225612Y-55406682D01*
X133237872Y-55282200D01*
X133237872Y-53582200D01*
X133225612Y-53457718D01*
X133189302Y-53338020D01*
X133130337Y-53227706D01*
X133050985Y-53131015D01*
X132954294Y-53051663D01*
X132843980Y-52992698D01*
X132724282Y-52956388D01*
X132599800Y-52944128D01*
X130899800Y-52944128D01*
X130775318Y-52956388D01*
X130655620Y-52992698D01*
X130545306Y-53051663D01*
X130448615Y-53131015D01*
X130369263Y-53227706D01*
X130310298Y-53338020D01*
X130273988Y-53457718D01*
X130261728Y-53582200D01*
X110894329Y-53582200D01*
X110874545Y-50683963D01*
X110887976Y-50576765D01*
X110925620Y-50484552D01*
X110985939Y-50405291D01*
X111064781Y-50344436D01*
X111156739Y-50306162D01*
X111263840Y-50292000D01*
X128270000Y-50292000D01*
X128286577Y-50290913D01*
X128418057Y-50273603D01*
X128450080Y-50265023D01*
X128572600Y-50214274D01*
X128601313Y-50197697D01*
X128706523Y-50116966D01*
X128729966Y-50093523D01*
X128810697Y-49988313D01*
X128827274Y-49959600D01*
X128878023Y-49837080D01*
X128886603Y-49805057D01*
X128903913Y-49673577D01*
X128905000Y-49657000D01*
X128905000Y-42045321D01*
X128919040Y-41938675D01*
X128956993Y-41847049D01*
X129017368Y-41768368D01*
X129096049Y-41707993D01*
X129187675Y-41670040D01*
X129294321Y-41656000D01*
X135500679Y-41656000D01*
X135607325Y-41670040D01*
G37*
%TD.AperFunction*%
%TD*%
M02*
