%TF.GenerationSoftware,KiCad,Pcbnew,(5.1.10)-1*%
%TF.CreationDate,2021-08-20T00:09:58-04:00*%
%TF.ProjectId,Back_F407_expansion_board,4261636b-5f46-4343-9037-5f657870616e,rev?*%
%TF.SameCoordinates,Original*%
%TF.FileFunction,Paste,Top*%
%TF.FilePolarity,Positive*%
%FSLAX46Y46*%
G04 Gerber Fmt 4.6, Leading zero omitted, Abs format (unit mm)*
G04 Created by KiCad (PCBNEW (5.1.10)-1) date 2021-08-20 00:09:58*
%MOMM*%
%LPD*%
G01*
G04 APERTURE LIST*
%ADD10C,0.100000*%
%ADD11R,0.900000X1.300000*%
%ADD12R,1.500000X2.000000*%
%ADD13R,3.800000X2.000000*%
%ADD14R,0.900000X0.800000*%
%ADD15R,0.800000X0.900000*%
G04 APERTURE END LIST*
%TO.C,U15*%
G36*
G01*
X97017500Y-100710800D02*
X97292500Y-100710800D01*
G75*
G02*
X97430000Y-100848300I0J-137500D01*
G01*
X97430000Y-102023300D01*
G75*
G02*
X97292500Y-102160800I-137500J0D01*
G01*
X97017500Y-102160800D01*
G75*
G02*
X96880000Y-102023300I0J137500D01*
G01*
X96880000Y-100848300D01*
G75*
G02*
X97017500Y-100710800I137500J0D01*
G01*
G37*
G36*
G01*
X94477500Y-100710800D02*
X94752500Y-100710800D01*
G75*
G02*
X94890000Y-100848300I0J-137500D01*
G01*
X94890000Y-102023300D01*
G75*
G02*
X94752500Y-102160800I-137500J0D01*
G01*
X94477500Y-102160800D01*
G75*
G02*
X94340000Y-102023300I0J137500D01*
G01*
X94340000Y-100848300D01*
G75*
G02*
X94477500Y-100710800I137500J0D01*
G01*
G37*
G36*
G01*
X94477500Y-95210800D02*
X94752500Y-95210800D01*
G75*
G02*
X94890000Y-95348300I0J-137500D01*
G01*
X94890000Y-96523300D01*
G75*
G02*
X94752500Y-96660800I-137500J0D01*
G01*
X94477500Y-96660800D01*
G75*
G02*
X94340000Y-96523300I0J137500D01*
G01*
X94340000Y-95348300D01*
G75*
G02*
X94477500Y-95210800I137500J0D01*
G01*
G37*
G36*
G01*
X97017500Y-95210800D02*
X97292500Y-95210800D01*
G75*
G02*
X97430000Y-95348300I0J-137500D01*
G01*
X97430000Y-96523300D01*
G75*
G02*
X97292500Y-96660800I-137500J0D01*
G01*
X97017500Y-96660800D01*
G75*
G02*
X96880000Y-96523300I0J137500D01*
G01*
X96880000Y-95348300D01*
G75*
G02*
X97017500Y-95210800I137500J0D01*
G01*
G37*
%TD*%
%TO.C,R58*%
G36*
G01*
X141850800Y-39304200D02*
X144000800Y-39304200D01*
G75*
G02*
X144250800Y-39554200I0J-250000D01*
G01*
X144250800Y-40354200D01*
G75*
G02*
X144000800Y-40604200I-250000J0D01*
G01*
X141850800Y-40604200D01*
G75*
G02*
X141600800Y-40354200I0J250000D01*
G01*
X141600800Y-39554200D01*
G75*
G02*
X141850800Y-39304200I250000J0D01*
G01*
G37*
G36*
G01*
X141850800Y-36204200D02*
X144000800Y-36204200D01*
G75*
G02*
X144250800Y-36454200I0J-250000D01*
G01*
X144250800Y-37254200D01*
G75*
G02*
X144000800Y-37504200I-250000J0D01*
G01*
X141850800Y-37504200D01*
G75*
G02*
X141600800Y-37254200I0J250000D01*
G01*
X141600800Y-36454200D01*
G75*
G02*
X141850800Y-36204200I250000J0D01*
G01*
G37*
%TD*%
%TO.C,R56*%
G36*
G01*
X120124800Y-52795000D02*
X117974800Y-52795000D01*
G75*
G02*
X117724800Y-52545000I0J250000D01*
G01*
X117724800Y-51745000D01*
G75*
G02*
X117974800Y-51495000I250000J0D01*
G01*
X120124800Y-51495000D01*
G75*
G02*
X120374800Y-51745000I0J-250000D01*
G01*
X120374800Y-52545000D01*
G75*
G02*
X120124800Y-52795000I-250000J0D01*
G01*
G37*
G36*
G01*
X120124800Y-55895000D02*
X117974800Y-55895000D01*
G75*
G02*
X117724800Y-55645000I0J250000D01*
G01*
X117724800Y-54845000D01*
G75*
G02*
X117974800Y-54595000I250000J0D01*
G01*
X120124800Y-54595000D01*
G75*
G02*
X120374800Y-54845000I0J-250000D01*
G01*
X120374800Y-55645000D01*
G75*
G02*
X120124800Y-55895000I-250000J0D01*
G01*
G37*
%TD*%
%TO.C,R50*%
G36*
G01*
X150779800Y-115108400D02*
X150779800Y-114558400D01*
G75*
G02*
X150979800Y-114358400I200000J0D01*
G01*
X151379800Y-114358400D01*
G75*
G02*
X151579800Y-114558400I0J-200000D01*
G01*
X151579800Y-115108400D01*
G75*
G02*
X151379800Y-115308400I-200000J0D01*
G01*
X150979800Y-115308400D01*
G75*
G02*
X150779800Y-115108400I0J200000D01*
G01*
G37*
G36*
G01*
X149129800Y-115108400D02*
X149129800Y-114558400D01*
G75*
G02*
X149329800Y-114358400I200000J0D01*
G01*
X149729800Y-114358400D01*
G75*
G02*
X149929800Y-114558400I0J-200000D01*
G01*
X149929800Y-115108400D01*
G75*
G02*
X149729800Y-115308400I-200000J0D01*
G01*
X149329800Y-115308400D01*
G75*
G02*
X149129800Y-115108400I0J200000D01*
G01*
G37*
%TD*%
%TO.C,R48*%
G36*
G01*
X170518400Y-117921800D02*
X168368400Y-117921800D01*
G75*
G02*
X168118400Y-117671800I0J250000D01*
G01*
X168118400Y-116871800D01*
G75*
G02*
X168368400Y-116621800I250000J0D01*
G01*
X170518400Y-116621800D01*
G75*
G02*
X170768400Y-116871800I0J-250000D01*
G01*
X170768400Y-117671800D01*
G75*
G02*
X170518400Y-117921800I-250000J0D01*
G01*
G37*
G36*
G01*
X170518400Y-121021800D02*
X168368400Y-121021800D01*
G75*
G02*
X168118400Y-120771800I0J250000D01*
G01*
X168118400Y-119971800D01*
G75*
G02*
X168368400Y-119721800I250000J0D01*
G01*
X170518400Y-119721800D01*
G75*
G02*
X170768400Y-119971800I0J-250000D01*
G01*
X170768400Y-120771800D01*
G75*
G02*
X170518400Y-121021800I-250000J0D01*
G01*
G37*
%TD*%
%TO.C,D20*%
G36*
G01*
X142398100Y-34567150D02*
X142398100Y-35079650D01*
G75*
G02*
X142179350Y-35298400I-218750J0D01*
G01*
X141741850Y-35298400D01*
G75*
G02*
X141523100Y-35079650I0J218750D01*
G01*
X141523100Y-34567150D01*
G75*
G02*
X141741850Y-34348400I218750J0D01*
G01*
X142179350Y-34348400D01*
G75*
G02*
X142398100Y-34567150I0J-218750D01*
G01*
G37*
G36*
G01*
X143973100Y-34567150D02*
X143973100Y-35079650D01*
G75*
G02*
X143754350Y-35298400I-218750J0D01*
G01*
X143316850Y-35298400D01*
G75*
G02*
X143098100Y-35079650I0J218750D01*
G01*
X143098100Y-34567150D01*
G75*
G02*
X143316850Y-34348400I218750J0D01*
G01*
X143754350Y-34348400D01*
G75*
G02*
X143973100Y-34567150I0J-218750D01*
G01*
G37*
%TD*%
%TO.C,D18*%
G36*
G01*
X121282750Y-55216300D02*
X121795250Y-55216300D01*
G75*
G02*
X122014000Y-55435050I0J-218750D01*
G01*
X122014000Y-55872550D01*
G75*
G02*
X121795250Y-56091300I-218750J0D01*
G01*
X121282750Y-56091300D01*
G75*
G02*
X121064000Y-55872550I0J218750D01*
G01*
X121064000Y-55435050D01*
G75*
G02*
X121282750Y-55216300I218750J0D01*
G01*
G37*
G36*
G01*
X121282750Y-53641300D02*
X121795250Y-53641300D01*
G75*
G02*
X122014000Y-53860050I0J-218750D01*
G01*
X122014000Y-54297550D01*
G75*
G02*
X121795250Y-54516300I-218750J0D01*
G01*
X121282750Y-54516300D01*
G75*
G02*
X121064000Y-54297550I0J218750D01*
G01*
X121064000Y-53860050D01*
G75*
G02*
X121282750Y-53641300I218750J0D01*
G01*
G37*
%TD*%
%TO.C,D16*%
G36*
G01*
X111783150Y-55211700D02*
X112295650Y-55211700D01*
G75*
G02*
X112514400Y-55430450I0J-218750D01*
G01*
X112514400Y-55867950D01*
G75*
G02*
X112295650Y-56086700I-218750J0D01*
G01*
X111783150Y-56086700D01*
G75*
G02*
X111564400Y-55867950I0J218750D01*
G01*
X111564400Y-55430450D01*
G75*
G02*
X111783150Y-55211700I218750J0D01*
G01*
G37*
G36*
G01*
X111783150Y-53636700D02*
X112295650Y-53636700D01*
G75*
G02*
X112514400Y-53855450I0J-218750D01*
G01*
X112514400Y-54292950D01*
G75*
G02*
X112295650Y-54511700I-218750J0D01*
G01*
X111783150Y-54511700D01*
G75*
G02*
X111564400Y-54292950I0J218750D01*
G01*
X111564400Y-53855450D01*
G75*
G02*
X111783150Y-53636700I218750J0D01*
G01*
G37*
%TD*%
%TO.C,D14*%
G36*
G01*
X79544900Y-42953650D02*
X79544900Y-42441150D01*
G75*
G02*
X79763650Y-42222400I218750J0D01*
G01*
X80201150Y-42222400D01*
G75*
G02*
X80419900Y-42441150I0J-218750D01*
G01*
X80419900Y-42953650D01*
G75*
G02*
X80201150Y-43172400I-218750J0D01*
G01*
X79763650Y-43172400D01*
G75*
G02*
X79544900Y-42953650I0J218750D01*
G01*
G37*
G36*
G01*
X77969900Y-42953650D02*
X77969900Y-42441150D01*
G75*
G02*
X78188650Y-42222400I218750J0D01*
G01*
X78626150Y-42222400D01*
G75*
G02*
X78844900Y-42441150I0J-218750D01*
G01*
X78844900Y-42953650D01*
G75*
G02*
X78626150Y-43172400I-218750J0D01*
G01*
X78188650Y-43172400D01*
G75*
G02*
X77969900Y-42953650I0J218750D01*
G01*
G37*
%TD*%
%TO.C,D12*%
G36*
G01*
X146868300Y-114551750D02*
X146868300Y-115064250D01*
G75*
G02*
X146649550Y-115283000I-218750J0D01*
G01*
X146212050Y-115283000D01*
G75*
G02*
X145993300Y-115064250I0J218750D01*
G01*
X145993300Y-114551750D01*
G75*
G02*
X146212050Y-114333000I218750J0D01*
G01*
X146649550Y-114333000D01*
G75*
G02*
X146868300Y-114551750I0J-218750D01*
G01*
G37*
G36*
G01*
X148443300Y-114551750D02*
X148443300Y-115064250D01*
G75*
G02*
X148224550Y-115283000I-218750J0D01*
G01*
X147787050Y-115283000D01*
G75*
G02*
X147568300Y-115064250I0J218750D01*
G01*
X147568300Y-114551750D01*
G75*
G02*
X147787050Y-114333000I218750J0D01*
G01*
X148224550Y-114333000D01*
G75*
G02*
X148443300Y-114551750I0J-218750D01*
G01*
G37*
%TD*%
%TO.C,D10*%
G36*
G01*
X168983950Y-123336900D02*
X169496450Y-123336900D01*
G75*
G02*
X169715200Y-123555650I0J-218750D01*
G01*
X169715200Y-123993150D01*
G75*
G02*
X169496450Y-124211900I-218750J0D01*
G01*
X168983950Y-124211900D01*
G75*
G02*
X168765200Y-123993150I0J218750D01*
G01*
X168765200Y-123555650D01*
G75*
G02*
X168983950Y-123336900I218750J0D01*
G01*
G37*
G36*
G01*
X168983950Y-121761900D02*
X169496450Y-121761900D01*
G75*
G02*
X169715200Y-121980650I0J-218750D01*
G01*
X169715200Y-122418150D01*
G75*
G02*
X169496450Y-122636900I-218750J0D01*
G01*
X168983950Y-122636900D01*
G75*
G02*
X168765200Y-122418150I0J218750D01*
G01*
X168765200Y-121980650D01*
G75*
G02*
X168983950Y-121761900I218750J0D01*
G01*
G37*
%TD*%
%TO.C,C12*%
G36*
G01*
X105503800Y-60633000D02*
X105163800Y-60633000D01*
G75*
G02*
X105023800Y-60493000I0J140000D01*
G01*
X105023800Y-60213000D01*
G75*
G02*
X105163800Y-60073000I140000J0D01*
G01*
X105503800Y-60073000D01*
G75*
G02*
X105643800Y-60213000I0J-140000D01*
G01*
X105643800Y-60493000D01*
G75*
G02*
X105503800Y-60633000I-140000J0D01*
G01*
G37*
G36*
G01*
X105503800Y-61593000D02*
X105163800Y-61593000D01*
G75*
G02*
X105023800Y-61453000I0J140000D01*
G01*
X105023800Y-61173000D01*
G75*
G02*
X105163800Y-61033000I140000J0D01*
G01*
X105503800Y-61033000D01*
G75*
G02*
X105643800Y-61173000I0J-140000D01*
G01*
X105643800Y-61453000D01*
G75*
G02*
X105503800Y-61593000I-140000J0D01*
G01*
G37*
%TD*%
%TO.C,C11*%
G36*
G01*
X100947400Y-63093000D02*
X101287400Y-63093000D01*
G75*
G02*
X101427400Y-63233000I0J-140000D01*
G01*
X101427400Y-63513000D01*
G75*
G02*
X101287400Y-63653000I-140000J0D01*
G01*
X100947400Y-63653000D01*
G75*
G02*
X100807400Y-63513000I0J140000D01*
G01*
X100807400Y-63233000D01*
G75*
G02*
X100947400Y-63093000I140000J0D01*
G01*
G37*
G36*
G01*
X100947400Y-62133000D02*
X101287400Y-62133000D01*
G75*
G02*
X101427400Y-62273000I0J-140000D01*
G01*
X101427400Y-62553000D01*
G75*
G02*
X101287400Y-62693000I-140000J0D01*
G01*
X100947400Y-62693000D01*
G75*
G02*
X100807400Y-62553000I0J140000D01*
G01*
X100807400Y-62273000D01*
G75*
G02*
X100947400Y-62133000I140000J0D01*
G01*
G37*
%TD*%
%TO.C,C10*%
G36*
G01*
X92565400Y-67868200D02*
X92905400Y-67868200D01*
G75*
G02*
X93045400Y-68008200I0J-140000D01*
G01*
X93045400Y-68288200D01*
G75*
G02*
X92905400Y-68428200I-140000J0D01*
G01*
X92565400Y-68428200D01*
G75*
G02*
X92425400Y-68288200I0J140000D01*
G01*
X92425400Y-68008200D01*
G75*
G02*
X92565400Y-67868200I140000J0D01*
G01*
G37*
G36*
G01*
X92565400Y-66908200D02*
X92905400Y-66908200D01*
G75*
G02*
X93045400Y-67048200I0J-140000D01*
G01*
X93045400Y-67328200D01*
G75*
G02*
X92905400Y-67468200I-140000J0D01*
G01*
X92565400Y-67468200D01*
G75*
G02*
X92425400Y-67328200I0J140000D01*
G01*
X92425400Y-67048200D01*
G75*
G02*
X92565400Y-66908200I140000J0D01*
G01*
G37*
%TD*%
%TO.C,C9*%
G36*
G01*
X84640600Y-64871000D02*
X84980600Y-64871000D01*
G75*
G02*
X85120600Y-65011000I0J-140000D01*
G01*
X85120600Y-65291000D01*
G75*
G02*
X84980600Y-65431000I-140000J0D01*
G01*
X84640600Y-65431000D01*
G75*
G02*
X84500600Y-65291000I0J140000D01*
G01*
X84500600Y-65011000D01*
G75*
G02*
X84640600Y-64871000I140000J0D01*
G01*
G37*
G36*
G01*
X84640600Y-63911000D02*
X84980600Y-63911000D01*
G75*
G02*
X85120600Y-64051000I0J-140000D01*
G01*
X85120600Y-64331000D01*
G75*
G02*
X84980600Y-64471000I-140000J0D01*
G01*
X84640600Y-64471000D01*
G75*
G02*
X84500600Y-64331000I0J140000D01*
G01*
X84500600Y-64051000D01*
G75*
G02*
X84640600Y-63911000I140000J0D01*
G01*
G37*
%TD*%
%TO.C,C8*%
G36*
G01*
X85090600Y-79408200D02*
X85090600Y-79748200D01*
G75*
G02*
X84950600Y-79888200I-140000J0D01*
G01*
X84670600Y-79888200D01*
G75*
G02*
X84530600Y-79748200I0J140000D01*
G01*
X84530600Y-79408200D01*
G75*
G02*
X84670600Y-79268200I140000J0D01*
G01*
X84950600Y-79268200D01*
G75*
G02*
X85090600Y-79408200I0J-140000D01*
G01*
G37*
G36*
G01*
X86050600Y-79408200D02*
X86050600Y-79748200D01*
G75*
G02*
X85910600Y-79888200I-140000J0D01*
G01*
X85630600Y-79888200D01*
G75*
G02*
X85490600Y-79748200I0J140000D01*
G01*
X85490600Y-79408200D01*
G75*
G02*
X85630600Y-79268200I140000J0D01*
G01*
X85910600Y-79268200D01*
G75*
G02*
X86050600Y-79408200I0J-140000D01*
G01*
G37*
%TD*%
%TO.C,C7*%
G36*
G01*
X84640600Y-73705000D02*
X84980600Y-73705000D01*
G75*
G02*
X85120600Y-73845000I0J-140000D01*
G01*
X85120600Y-74125000D01*
G75*
G02*
X84980600Y-74265000I-140000J0D01*
G01*
X84640600Y-74265000D01*
G75*
G02*
X84500600Y-74125000I0J140000D01*
G01*
X84500600Y-73845000D01*
G75*
G02*
X84640600Y-73705000I140000J0D01*
G01*
G37*
G36*
G01*
X84640600Y-72745000D02*
X84980600Y-72745000D01*
G75*
G02*
X85120600Y-72885000I0J-140000D01*
G01*
X85120600Y-73165000D01*
G75*
G02*
X84980600Y-73305000I-140000J0D01*
G01*
X84640600Y-73305000D01*
G75*
G02*
X84500600Y-73165000I0J140000D01*
G01*
X84500600Y-72885000D01*
G75*
G02*
X84640600Y-72745000I140000J0D01*
G01*
G37*
%TD*%
%TO.C,C6*%
G36*
G01*
X84980600Y-71374600D02*
X84640600Y-71374600D01*
G75*
G02*
X84500600Y-71234600I0J140000D01*
G01*
X84500600Y-70954600D01*
G75*
G02*
X84640600Y-70814600I140000J0D01*
G01*
X84980600Y-70814600D01*
G75*
G02*
X85120600Y-70954600I0J-140000D01*
G01*
X85120600Y-71234600D01*
G75*
G02*
X84980600Y-71374600I-140000J0D01*
G01*
G37*
G36*
G01*
X84980600Y-72334600D02*
X84640600Y-72334600D01*
G75*
G02*
X84500600Y-72194600I0J140000D01*
G01*
X84500600Y-71914600D01*
G75*
G02*
X84640600Y-71774600I140000J0D01*
G01*
X84980600Y-71774600D01*
G75*
G02*
X85120600Y-71914600I0J-140000D01*
G01*
X85120600Y-72194600D01*
G75*
G02*
X84980600Y-72334600I-140000J0D01*
G01*
G37*
%TD*%
%TO.C,R23*%
G36*
G01*
X94749200Y-92802200D02*
X94379200Y-92802200D01*
G75*
G02*
X94244200Y-92667200I0J135000D01*
G01*
X94244200Y-92397200D01*
G75*
G02*
X94379200Y-92262200I135000J0D01*
G01*
X94749200Y-92262200D01*
G75*
G02*
X94884200Y-92397200I0J-135000D01*
G01*
X94884200Y-92667200D01*
G75*
G02*
X94749200Y-92802200I-135000J0D01*
G01*
G37*
G36*
G01*
X94749200Y-93822200D02*
X94379200Y-93822200D01*
G75*
G02*
X94244200Y-93687200I0J135000D01*
G01*
X94244200Y-93417200D01*
G75*
G02*
X94379200Y-93282200I135000J0D01*
G01*
X94749200Y-93282200D01*
G75*
G02*
X94884200Y-93417200I0J-135000D01*
G01*
X94884200Y-93687200D01*
G75*
G02*
X94749200Y-93822200I-135000J0D01*
G01*
G37*
%TD*%
D10*
%TO.C,U14*%
G36*
X114633100Y-87895400D02*
G01*
X114633100Y-91020400D01*
X114216600Y-91020400D01*
X114216600Y-92495400D01*
X113316600Y-92495400D01*
X113316600Y-91020400D01*
X112900100Y-91020400D01*
X112900100Y-87895400D01*
X114633100Y-87895400D01*
G37*
D11*
X115266600Y-91845400D03*
X112266600Y-91845400D03*
%TD*%
D10*
%TO.C,U13*%
G36*
X123675500Y-87895400D02*
G01*
X123675500Y-91020400D01*
X123259000Y-91020400D01*
X123259000Y-92495400D01*
X122359000Y-92495400D01*
X122359000Y-91020400D01*
X121942500Y-91020400D01*
X121942500Y-87895400D01*
X123675500Y-87895400D01*
G37*
D11*
X124309000Y-91845400D03*
X121309000Y-91845400D03*
%TD*%
D10*
%TO.C,U12*%
G36*
X132717900Y-87895400D02*
G01*
X132717900Y-91020400D01*
X132301400Y-91020400D01*
X132301400Y-92495400D01*
X131401400Y-92495400D01*
X131401400Y-91020400D01*
X130984900Y-91020400D01*
X130984900Y-87895400D01*
X132717900Y-87895400D01*
G37*
D11*
X133351400Y-91845400D03*
X130351400Y-91845400D03*
%TD*%
D10*
%TO.C,U11*%
G36*
X114582300Y-76109800D02*
G01*
X114582300Y-79234800D01*
X114165800Y-79234800D01*
X114165800Y-80709800D01*
X113265800Y-80709800D01*
X113265800Y-79234800D01*
X112849300Y-79234800D01*
X112849300Y-76109800D01*
X114582300Y-76109800D01*
G37*
D11*
X115215800Y-80059800D03*
X112215800Y-80059800D03*
%TD*%
D10*
%TO.C,U10*%
G36*
X132667100Y-76160600D02*
G01*
X132667100Y-79285600D01*
X132250600Y-79285600D01*
X132250600Y-80760600D01*
X131350600Y-80760600D01*
X131350600Y-79285600D01*
X130934100Y-79285600D01*
X130934100Y-76160600D01*
X132667100Y-76160600D01*
G37*
D11*
X133300600Y-80110600D03*
X130300600Y-80110600D03*
%TD*%
D10*
%TO.C,U9*%
G36*
X114531500Y-64425800D02*
G01*
X114531500Y-67550800D01*
X114115000Y-67550800D01*
X114115000Y-69025800D01*
X113215000Y-69025800D01*
X113215000Y-67550800D01*
X112798500Y-67550800D01*
X112798500Y-64425800D01*
X114531500Y-64425800D01*
G37*
D11*
X115165000Y-68375800D03*
X112165000Y-68375800D03*
%TD*%
D10*
%TO.C,U8*%
G36*
X123573900Y-76109800D02*
G01*
X123573900Y-79234800D01*
X123157400Y-79234800D01*
X123157400Y-80709800D01*
X122257400Y-80709800D01*
X122257400Y-79234800D01*
X121840900Y-79234800D01*
X121840900Y-76109800D01*
X123573900Y-76109800D01*
G37*
D11*
X124207400Y-80059800D03*
X121207400Y-80059800D03*
%TD*%
D10*
%TO.C,U7*%
G36*
X132628600Y-64438100D02*
G01*
X132628600Y-67563100D01*
X132212100Y-67563100D01*
X132212100Y-69038100D01*
X131312100Y-69038100D01*
X131312100Y-67563100D01*
X130895600Y-67563100D01*
X130895600Y-64438100D01*
X132628600Y-64438100D01*
G37*
D11*
X133262100Y-68388100D03*
X130262100Y-68388100D03*
%TD*%
D10*
%TO.C,U6*%
G36*
X132643100Y-55765400D02*
G01*
X132643100Y-58890400D01*
X132226600Y-58890400D01*
X132226600Y-60365400D01*
X131326600Y-60365400D01*
X131326600Y-58890400D01*
X130910100Y-58890400D01*
X130910100Y-55765400D01*
X132643100Y-55765400D01*
G37*
D11*
X133276600Y-59715400D03*
X130276600Y-59715400D03*
%TD*%
D12*
%TO.C,U5*%
X107583000Y-63169400D03*
X102983000Y-63169400D03*
X105283000Y-63169400D03*
D13*
X105283000Y-69469400D03*
%TD*%
D10*
%TO.C,U4*%
G36*
X123548500Y-64438500D02*
G01*
X123548500Y-67563500D01*
X123132000Y-67563500D01*
X123132000Y-69038500D01*
X122232000Y-69038500D01*
X122232000Y-67563500D01*
X121815500Y-67563500D01*
X121815500Y-64438500D01*
X123548500Y-64438500D01*
G37*
D11*
X124182000Y-68388500D03*
X121182000Y-68388500D03*
%TD*%
%TO.C,R54*%
G36*
G01*
X112173600Y-51853400D02*
X111803600Y-51853400D01*
G75*
G02*
X111668600Y-51718400I0J135000D01*
G01*
X111668600Y-51448400D01*
G75*
G02*
X111803600Y-51313400I135000J0D01*
G01*
X112173600Y-51313400D01*
G75*
G02*
X112308600Y-51448400I0J-135000D01*
G01*
X112308600Y-51718400D01*
G75*
G02*
X112173600Y-51853400I-135000J0D01*
G01*
G37*
G36*
G01*
X112173600Y-52873400D02*
X111803600Y-52873400D01*
G75*
G02*
X111668600Y-52738400I0J135000D01*
G01*
X111668600Y-52468400D01*
G75*
G02*
X111803600Y-52333400I135000J0D01*
G01*
X112173600Y-52333400D01*
G75*
G02*
X112308600Y-52468400I0J-135000D01*
G01*
X112308600Y-52738400D01*
G75*
G02*
X112173600Y-52873400I-135000J0D01*
G01*
G37*
%TD*%
%TO.C,R52*%
G36*
G01*
X79551500Y-40634500D02*
X79551500Y-40264500D01*
G75*
G02*
X79686500Y-40129500I135000J0D01*
G01*
X79956500Y-40129500D01*
G75*
G02*
X80091500Y-40264500I0J-135000D01*
G01*
X80091500Y-40634500D01*
G75*
G02*
X79956500Y-40769500I-135000J0D01*
G01*
X79686500Y-40769500D01*
G75*
G02*
X79551500Y-40634500I0J135000D01*
G01*
G37*
G36*
G01*
X78531500Y-40634500D02*
X78531500Y-40264500D01*
G75*
G02*
X78666500Y-40129500I135000J0D01*
G01*
X78936500Y-40129500D01*
G75*
G02*
X79071500Y-40264500I0J-135000D01*
G01*
X79071500Y-40634500D01*
G75*
G02*
X78936500Y-40769500I-135000J0D01*
G01*
X78666500Y-40769500D01*
G75*
G02*
X78531500Y-40634500I0J135000D01*
G01*
G37*
%TD*%
D14*
%TO.C,Q7*%
X146336000Y-61468000D03*
X148336000Y-60518000D03*
X148336000Y-62418000D03*
%TD*%
%TO.C,R21*%
G36*
G01*
X84651000Y-78347000D02*
X85021000Y-78347000D01*
G75*
G02*
X85156000Y-78482000I0J-135000D01*
G01*
X85156000Y-78752000D01*
G75*
G02*
X85021000Y-78887000I-135000J0D01*
G01*
X84651000Y-78887000D01*
G75*
G02*
X84516000Y-78752000I0J135000D01*
G01*
X84516000Y-78482000D01*
G75*
G02*
X84651000Y-78347000I135000J0D01*
G01*
G37*
G36*
G01*
X84651000Y-77327000D02*
X85021000Y-77327000D01*
G75*
G02*
X85156000Y-77462000I0J-135000D01*
G01*
X85156000Y-77732000D01*
G75*
G02*
X85021000Y-77867000I-135000J0D01*
G01*
X84651000Y-77867000D01*
G75*
G02*
X84516000Y-77732000I0J135000D01*
G01*
X84516000Y-77462000D01*
G75*
G02*
X84651000Y-77327000I135000J0D01*
G01*
G37*
%TD*%
%TO.C,R18*%
G36*
G01*
X92895000Y-69358000D02*
X92525000Y-69358000D01*
G75*
G02*
X92390000Y-69223000I0J135000D01*
G01*
X92390000Y-68953000D01*
G75*
G02*
X92525000Y-68818000I135000J0D01*
G01*
X92895000Y-68818000D01*
G75*
G02*
X93030000Y-68953000I0J-135000D01*
G01*
X93030000Y-69223000D01*
G75*
G02*
X92895000Y-69358000I-135000J0D01*
G01*
G37*
G36*
G01*
X92895000Y-70378000D02*
X92525000Y-70378000D01*
G75*
G02*
X92390000Y-70243000I0J135000D01*
G01*
X92390000Y-69973000D01*
G75*
G02*
X92525000Y-69838000I135000J0D01*
G01*
X92895000Y-69838000D01*
G75*
G02*
X93030000Y-69973000I0J-135000D01*
G01*
X93030000Y-70243000D01*
G75*
G02*
X92895000Y-70378000I-135000J0D01*
G01*
G37*
%TD*%
%TO.C,R16*%
G36*
G01*
X85021000Y-66386200D02*
X84651000Y-66386200D01*
G75*
G02*
X84516000Y-66251200I0J135000D01*
G01*
X84516000Y-65981200D01*
G75*
G02*
X84651000Y-65846200I135000J0D01*
G01*
X85021000Y-65846200D01*
G75*
G02*
X85156000Y-65981200I0J-135000D01*
G01*
X85156000Y-66251200D01*
G75*
G02*
X85021000Y-66386200I-135000J0D01*
G01*
G37*
G36*
G01*
X85021000Y-67406200D02*
X84651000Y-67406200D01*
G75*
G02*
X84516000Y-67271200I0J135000D01*
G01*
X84516000Y-67001200D01*
G75*
G02*
X84651000Y-66866200I135000J0D01*
G01*
X85021000Y-66866200D01*
G75*
G02*
X85156000Y-67001200I0J-135000D01*
G01*
X85156000Y-67271200D01*
G75*
G02*
X85021000Y-67406200I-135000J0D01*
G01*
G37*
%TD*%
%TO.C,R15*%
G36*
G01*
X127143000Y-112591000D02*
X127143000Y-112961000D01*
G75*
G02*
X127008000Y-113096000I-135000J0D01*
G01*
X126738000Y-113096000D01*
G75*
G02*
X126603000Y-112961000I0J135000D01*
G01*
X126603000Y-112591000D01*
G75*
G02*
X126738000Y-112456000I135000J0D01*
G01*
X127008000Y-112456000D01*
G75*
G02*
X127143000Y-112591000I0J-135000D01*
G01*
G37*
G36*
G01*
X128163000Y-112591000D02*
X128163000Y-112961000D01*
G75*
G02*
X128028000Y-113096000I-135000J0D01*
G01*
X127758000Y-113096000D01*
G75*
G02*
X127623000Y-112961000I0J135000D01*
G01*
X127623000Y-112591000D01*
G75*
G02*
X127758000Y-112456000I135000J0D01*
G01*
X128028000Y-112456000D01*
G75*
G02*
X128163000Y-112591000I0J-135000D01*
G01*
G37*
%TD*%
%TO.C,R14*%
G36*
G01*
X129171000Y-112591000D02*
X129171000Y-112961000D01*
G75*
G02*
X129036000Y-113096000I-135000J0D01*
G01*
X128766000Y-113096000D01*
G75*
G02*
X128631000Y-112961000I0J135000D01*
G01*
X128631000Y-112591000D01*
G75*
G02*
X128766000Y-112456000I135000J0D01*
G01*
X129036000Y-112456000D01*
G75*
G02*
X129171000Y-112591000I0J-135000D01*
G01*
G37*
G36*
G01*
X130191000Y-112591000D02*
X130191000Y-112961000D01*
G75*
G02*
X130056000Y-113096000I-135000J0D01*
G01*
X129786000Y-113096000D01*
G75*
G02*
X129651000Y-112961000I0J135000D01*
G01*
X129651000Y-112591000D01*
G75*
G02*
X129786000Y-112456000I135000J0D01*
G01*
X130056000Y-112456000D01*
G75*
G02*
X130191000Y-112591000I0J-135000D01*
G01*
G37*
%TD*%
%TO.C,R13*%
G36*
G01*
X105930000Y-112337000D02*
X105930000Y-112707000D01*
G75*
G02*
X105795000Y-112842000I-135000J0D01*
G01*
X105525000Y-112842000D01*
G75*
G02*
X105390000Y-112707000I0J135000D01*
G01*
X105390000Y-112337000D01*
G75*
G02*
X105525000Y-112202000I135000J0D01*
G01*
X105795000Y-112202000D01*
G75*
G02*
X105930000Y-112337000I0J-135000D01*
G01*
G37*
G36*
G01*
X106950000Y-112337000D02*
X106950000Y-112707000D01*
G75*
G02*
X106815000Y-112842000I-135000J0D01*
G01*
X106545000Y-112842000D01*
G75*
G02*
X106410000Y-112707000I0J135000D01*
G01*
X106410000Y-112337000D01*
G75*
G02*
X106545000Y-112202000I135000J0D01*
G01*
X106815000Y-112202000D01*
G75*
G02*
X106950000Y-112337000I0J-135000D01*
G01*
G37*
%TD*%
%TO.C,R12*%
G36*
G01*
X107962000Y-112337000D02*
X107962000Y-112707000D01*
G75*
G02*
X107827000Y-112842000I-135000J0D01*
G01*
X107557000Y-112842000D01*
G75*
G02*
X107422000Y-112707000I0J135000D01*
G01*
X107422000Y-112337000D01*
G75*
G02*
X107557000Y-112202000I135000J0D01*
G01*
X107827000Y-112202000D01*
G75*
G02*
X107962000Y-112337000I0J-135000D01*
G01*
G37*
G36*
G01*
X108982000Y-112337000D02*
X108982000Y-112707000D01*
G75*
G02*
X108847000Y-112842000I-135000J0D01*
G01*
X108577000Y-112842000D01*
G75*
G02*
X108442000Y-112707000I0J135000D01*
G01*
X108442000Y-112337000D01*
G75*
G02*
X108577000Y-112202000I135000J0D01*
G01*
X108847000Y-112202000D01*
G75*
G02*
X108982000Y-112337000I0J-135000D01*
G01*
G37*
%TD*%
%TO.C,R11*%
G36*
G01*
X93414000Y-79871000D02*
X93784000Y-79871000D01*
G75*
G02*
X93919000Y-80006000I0J-135000D01*
G01*
X93919000Y-80276000D01*
G75*
G02*
X93784000Y-80411000I-135000J0D01*
G01*
X93414000Y-80411000D01*
G75*
G02*
X93279000Y-80276000I0J135000D01*
G01*
X93279000Y-80006000D01*
G75*
G02*
X93414000Y-79871000I135000J0D01*
G01*
G37*
G36*
G01*
X93414000Y-78851000D02*
X93784000Y-78851000D01*
G75*
G02*
X93919000Y-78986000I0J-135000D01*
G01*
X93919000Y-79256000D01*
G75*
G02*
X93784000Y-79391000I-135000J0D01*
G01*
X93414000Y-79391000D01*
G75*
G02*
X93279000Y-79256000I0J135000D01*
G01*
X93279000Y-78986000D01*
G75*
G02*
X93414000Y-78851000I135000J0D01*
G01*
G37*
%TD*%
%TO.C,R10*%
G36*
G01*
X102346000Y-81211000D02*
X102346000Y-80841000D01*
G75*
G02*
X102481000Y-80706000I135000J0D01*
G01*
X102751000Y-80706000D01*
G75*
G02*
X102886000Y-80841000I0J-135000D01*
G01*
X102886000Y-81211000D01*
G75*
G02*
X102751000Y-81346000I-135000J0D01*
G01*
X102481000Y-81346000D01*
G75*
G02*
X102346000Y-81211000I0J135000D01*
G01*
G37*
G36*
G01*
X101326000Y-81211000D02*
X101326000Y-80841000D01*
G75*
G02*
X101461000Y-80706000I135000J0D01*
G01*
X101731000Y-80706000D01*
G75*
G02*
X101866000Y-80841000I0J-135000D01*
G01*
X101866000Y-81211000D01*
G75*
G02*
X101731000Y-81346000I-135000J0D01*
G01*
X101461000Y-81346000D01*
G75*
G02*
X101326000Y-81211000I0J135000D01*
G01*
G37*
%TD*%
%TO.C,R9*%
G36*
G01*
X93414000Y-76061000D02*
X93784000Y-76061000D01*
G75*
G02*
X93919000Y-76196000I0J-135000D01*
G01*
X93919000Y-76466000D01*
G75*
G02*
X93784000Y-76601000I-135000J0D01*
G01*
X93414000Y-76601000D01*
G75*
G02*
X93279000Y-76466000I0J135000D01*
G01*
X93279000Y-76196000D01*
G75*
G02*
X93414000Y-76061000I135000J0D01*
G01*
G37*
G36*
G01*
X93414000Y-75041000D02*
X93784000Y-75041000D01*
G75*
G02*
X93919000Y-75176000I0J-135000D01*
G01*
X93919000Y-75446000D01*
G75*
G02*
X93784000Y-75581000I-135000J0D01*
G01*
X93414000Y-75581000D01*
G75*
G02*
X93279000Y-75446000I0J135000D01*
G01*
X93279000Y-75176000D01*
G75*
G02*
X93414000Y-75041000I135000J0D01*
G01*
G37*
%TD*%
%TO.C,R8*%
G36*
G01*
X102350000Y-77401000D02*
X102350000Y-77031000D01*
G75*
G02*
X102485000Y-76896000I135000J0D01*
G01*
X102755000Y-76896000D01*
G75*
G02*
X102890000Y-77031000I0J-135000D01*
G01*
X102890000Y-77401000D01*
G75*
G02*
X102755000Y-77536000I-135000J0D01*
G01*
X102485000Y-77536000D01*
G75*
G02*
X102350000Y-77401000I0J135000D01*
G01*
G37*
G36*
G01*
X101330000Y-77401000D02*
X101330000Y-77031000D01*
G75*
G02*
X101465000Y-76896000I135000J0D01*
G01*
X101735000Y-76896000D01*
G75*
G02*
X101870000Y-77031000I0J-135000D01*
G01*
X101870000Y-77401000D01*
G75*
G02*
X101735000Y-77536000I-135000J0D01*
G01*
X101465000Y-77536000D01*
G75*
G02*
X101330000Y-77401000I0J135000D01*
G01*
G37*
%TD*%
%TO.C,R7*%
G36*
G01*
X93414000Y-72251000D02*
X93784000Y-72251000D01*
G75*
G02*
X93919000Y-72386000I0J-135000D01*
G01*
X93919000Y-72656000D01*
G75*
G02*
X93784000Y-72791000I-135000J0D01*
G01*
X93414000Y-72791000D01*
G75*
G02*
X93279000Y-72656000I0J135000D01*
G01*
X93279000Y-72386000D01*
G75*
G02*
X93414000Y-72251000I135000J0D01*
G01*
G37*
G36*
G01*
X93414000Y-71231000D02*
X93784000Y-71231000D01*
G75*
G02*
X93919000Y-71366000I0J-135000D01*
G01*
X93919000Y-71636000D01*
G75*
G02*
X93784000Y-71771000I-135000J0D01*
G01*
X93414000Y-71771000D01*
G75*
G02*
X93279000Y-71636000I0J135000D01*
G01*
X93279000Y-71366000D01*
G75*
G02*
X93414000Y-71231000I135000J0D01*
G01*
G37*
%TD*%
%TO.C,R6*%
G36*
G01*
X102346000Y-73591000D02*
X102346000Y-73221000D01*
G75*
G02*
X102481000Y-73086000I135000J0D01*
G01*
X102751000Y-73086000D01*
G75*
G02*
X102886000Y-73221000I0J-135000D01*
G01*
X102886000Y-73591000D01*
G75*
G02*
X102751000Y-73726000I-135000J0D01*
G01*
X102481000Y-73726000D01*
G75*
G02*
X102346000Y-73591000I0J135000D01*
G01*
G37*
G36*
G01*
X101326000Y-73591000D02*
X101326000Y-73221000D01*
G75*
G02*
X101461000Y-73086000I135000J0D01*
G01*
X101731000Y-73086000D01*
G75*
G02*
X101866000Y-73221000I0J-135000D01*
G01*
X101866000Y-73591000D01*
G75*
G02*
X101731000Y-73726000I-135000J0D01*
G01*
X101461000Y-73726000D01*
G75*
G02*
X101326000Y-73591000I0J135000D01*
G01*
G37*
%TD*%
%TO.C,R5*%
G36*
G01*
X85021000Y-75196000D02*
X84651000Y-75196000D01*
G75*
G02*
X84516000Y-75061000I0J135000D01*
G01*
X84516000Y-74791000D01*
G75*
G02*
X84651000Y-74656000I135000J0D01*
G01*
X85021000Y-74656000D01*
G75*
G02*
X85156000Y-74791000I0J-135000D01*
G01*
X85156000Y-75061000D01*
G75*
G02*
X85021000Y-75196000I-135000J0D01*
G01*
G37*
G36*
G01*
X85021000Y-76216000D02*
X84651000Y-76216000D01*
G75*
G02*
X84516000Y-76081000I0J135000D01*
G01*
X84516000Y-75811000D01*
G75*
G02*
X84651000Y-75676000I135000J0D01*
G01*
X85021000Y-75676000D01*
G75*
G02*
X85156000Y-75811000I0J-135000D01*
G01*
X85156000Y-76081000D01*
G75*
G02*
X85021000Y-76216000I-135000J0D01*
G01*
G37*
%TD*%
%TO.C,R4*%
G36*
G01*
X84975000Y-112591000D02*
X84975000Y-112961000D01*
G75*
G02*
X84840000Y-113096000I-135000J0D01*
G01*
X84570000Y-113096000D01*
G75*
G02*
X84435000Y-112961000I0J135000D01*
G01*
X84435000Y-112591000D01*
G75*
G02*
X84570000Y-112456000I135000J0D01*
G01*
X84840000Y-112456000D01*
G75*
G02*
X84975000Y-112591000I0J-135000D01*
G01*
G37*
G36*
G01*
X85995000Y-112591000D02*
X85995000Y-112961000D01*
G75*
G02*
X85860000Y-113096000I-135000J0D01*
G01*
X85590000Y-113096000D01*
G75*
G02*
X85455000Y-112961000I0J135000D01*
G01*
X85455000Y-112591000D01*
G75*
G02*
X85590000Y-112456000I135000J0D01*
G01*
X85860000Y-112456000D01*
G75*
G02*
X85995000Y-112591000I0J-135000D01*
G01*
G37*
%TD*%
%TO.C,R3*%
G36*
G01*
X87009000Y-112591000D02*
X87009000Y-112961000D01*
G75*
G02*
X86874000Y-113096000I-135000J0D01*
G01*
X86604000Y-113096000D01*
G75*
G02*
X86469000Y-112961000I0J135000D01*
G01*
X86469000Y-112591000D01*
G75*
G02*
X86604000Y-112456000I135000J0D01*
G01*
X86874000Y-112456000D01*
G75*
G02*
X87009000Y-112591000I0J-135000D01*
G01*
G37*
G36*
G01*
X88029000Y-112591000D02*
X88029000Y-112961000D01*
G75*
G02*
X87894000Y-113096000I-135000J0D01*
G01*
X87624000Y-113096000D01*
G75*
G02*
X87489000Y-112961000I0J135000D01*
G01*
X87489000Y-112591000D01*
G75*
G02*
X87624000Y-112456000I135000J0D01*
G01*
X87894000Y-112456000D01*
G75*
G02*
X88029000Y-112591000I0J-135000D01*
G01*
G37*
%TD*%
%TO.C,R1*%
G36*
G01*
X84651000Y-69834000D02*
X85021000Y-69834000D01*
G75*
G02*
X85156000Y-69969000I0J-135000D01*
G01*
X85156000Y-70239000D01*
G75*
G02*
X85021000Y-70374000I-135000J0D01*
G01*
X84651000Y-70374000D01*
G75*
G02*
X84516000Y-70239000I0J135000D01*
G01*
X84516000Y-69969000D01*
G75*
G02*
X84651000Y-69834000I135000J0D01*
G01*
G37*
G36*
G01*
X84651000Y-68814000D02*
X85021000Y-68814000D01*
G75*
G02*
X85156000Y-68949000I0J-135000D01*
G01*
X85156000Y-69219000D01*
G75*
G02*
X85021000Y-69354000I-135000J0D01*
G01*
X84651000Y-69354000D01*
G75*
G02*
X84516000Y-69219000I0J135000D01*
G01*
X84516000Y-68949000D01*
G75*
G02*
X84651000Y-68814000I135000J0D01*
G01*
G37*
%TD*%
%TO.C,R46*%
G36*
G01*
X116731200Y-92059000D02*
X117101200Y-92059000D01*
G75*
G02*
X117236200Y-92194000I0J-135000D01*
G01*
X117236200Y-92464000D01*
G75*
G02*
X117101200Y-92599000I-135000J0D01*
G01*
X116731200Y-92599000D01*
G75*
G02*
X116596200Y-92464000I0J135000D01*
G01*
X116596200Y-92194000D01*
G75*
G02*
X116731200Y-92059000I135000J0D01*
G01*
G37*
G36*
G01*
X116731200Y-91039000D02*
X117101200Y-91039000D01*
G75*
G02*
X117236200Y-91174000I0J-135000D01*
G01*
X117236200Y-91444000D01*
G75*
G02*
X117101200Y-91579000I-135000J0D01*
G01*
X116731200Y-91579000D01*
G75*
G02*
X116596200Y-91444000I0J135000D01*
G01*
X116596200Y-91174000D01*
G75*
G02*
X116731200Y-91039000I135000J0D01*
G01*
G37*
%TD*%
%TO.C,R45*%
G36*
G01*
X125773600Y-92063000D02*
X126143600Y-92063000D01*
G75*
G02*
X126278600Y-92198000I0J-135000D01*
G01*
X126278600Y-92468000D01*
G75*
G02*
X126143600Y-92603000I-135000J0D01*
G01*
X125773600Y-92603000D01*
G75*
G02*
X125638600Y-92468000I0J135000D01*
G01*
X125638600Y-92198000D01*
G75*
G02*
X125773600Y-92063000I135000J0D01*
G01*
G37*
G36*
G01*
X125773600Y-91043000D02*
X126143600Y-91043000D01*
G75*
G02*
X126278600Y-91178000I0J-135000D01*
G01*
X126278600Y-91448000D01*
G75*
G02*
X126143600Y-91583000I-135000J0D01*
G01*
X125773600Y-91583000D01*
G75*
G02*
X125638600Y-91448000I0J135000D01*
G01*
X125638600Y-91178000D01*
G75*
G02*
X125773600Y-91043000I135000J0D01*
G01*
G37*
%TD*%
%TO.C,R44*%
G36*
G01*
X134816000Y-92063000D02*
X135186000Y-92063000D01*
G75*
G02*
X135321000Y-92198000I0J-135000D01*
G01*
X135321000Y-92468000D01*
G75*
G02*
X135186000Y-92603000I-135000J0D01*
G01*
X134816000Y-92603000D01*
G75*
G02*
X134681000Y-92468000I0J135000D01*
G01*
X134681000Y-92198000D01*
G75*
G02*
X134816000Y-92063000I135000J0D01*
G01*
G37*
G36*
G01*
X134816000Y-91043000D02*
X135186000Y-91043000D01*
G75*
G02*
X135321000Y-91178000I0J-135000D01*
G01*
X135321000Y-91448000D01*
G75*
G02*
X135186000Y-91583000I-135000J0D01*
G01*
X134816000Y-91583000D01*
G75*
G02*
X134681000Y-91448000I0J135000D01*
G01*
X134681000Y-91178000D01*
G75*
G02*
X134816000Y-91043000I135000J0D01*
G01*
G37*
%TD*%
%TO.C,R43*%
G36*
G01*
X116731200Y-80273400D02*
X117101200Y-80273400D01*
G75*
G02*
X117236200Y-80408400I0J-135000D01*
G01*
X117236200Y-80678400D01*
G75*
G02*
X117101200Y-80813400I-135000J0D01*
G01*
X116731200Y-80813400D01*
G75*
G02*
X116596200Y-80678400I0J135000D01*
G01*
X116596200Y-80408400D01*
G75*
G02*
X116731200Y-80273400I135000J0D01*
G01*
G37*
G36*
G01*
X116731200Y-79253400D02*
X117101200Y-79253400D01*
G75*
G02*
X117236200Y-79388400I0J-135000D01*
G01*
X117236200Y-79658400D01*
G75*
G02*
X117101200Y-79793400I-135000J0D01*
G01*
X116731200Y-79793400D01*
G75*
G02*
X116596200Y-79658400I0J135000D01*
G01*
X116596200Y-79388400D01*
G75*
G02*
X116731200Y-79253400I135000J0D01*
G01*
G37*
%TD*%
%TO.C,R42*%
G36*
G01*
X117101200Y-89551000D02*
X116731200Y-89551000D01*
G75*
G02*
X116596200Y-89416000I0J135000D01*
G01*
X116596200Y-89146000D01*
G75*
G02*
X116731200Y-89011000I135000J0D01*
G01*
X117101200Y-89011000D01*
G75*
G02*
X117236200Y-89146000I0J-135000D01*
G01*
X117236200Y-89416000D01*
G75*
G02*
X117101200Y-89551000I-135000J0D01*
G01*
G37*
G36*
G01*
X117101200Y-90571000D02*
X116731200Y-90571000D01*
G75*
G02*
X116596200Y-90436000I0J135000D01*
G01*
X116596200Y-90166000D01*
G75*
G02*
X116731200Y-90031000I135000J0D01*
G01*
X117101200Y-90031000D01*
G75*
G02*
X117236200Y-90166000I0J-135000D01*
G01*
X117236200Y-90436000D01*
G75*
G02*
X117101200Y-90571000I-135000J0D01*
G01*
G37*
%TD*%
%TO.C,R41*%
G36*
G01*
X126143600Y-89551000D02*
X125773600Y-89551000D01*
G75*
G02*
X125638600Y-89416000I0J135000D01*
G01*
X125638600Y-89146000D01*
G75*
G02*
X125773600Y-89011000I135000J0D01*
G01*
X126143600Y-89011000D01*
G75*
G02*
X126278600Y-89146000I0J-135000D01*
G01*
X126278600Y-89416000D01*
G75*
G02*
X126143600Y-89551000I-135000J0D01*
G01*
G37*
G36*
G01*
X126143600Y-90571000D02*
X125773600Y-90571000D01*
G75*
G02*
X125638600Y-90436000I0J135000D01*
G01*
X125638600Y-90166000D01*
G75*
G02*
X125773600Y-90031000I135000J0D01*
G01*
X126143600Y-90031000D01*
G75*
G02*
X126278600Y-90166000I0J-135000D01*
G01*
X126278600Y-90436000D01*
G75*
G02*
X126143600Y-90571000I-135000J0D01*
G01*
G37*
%TD*%
%TO.C,R40*%
G36*
G01*
X135186000Y-89551000D02*
X134816000Y-89551000D01*
G75*
G02*
X134681000Y-89416000I0J135000D01*
G01*
X134681000Y-89146000D01*
G75*
G02*
X134816000Y-89011000I135000J0D01*
G01*
X135186000Y-89011000D01*
G75*
G02*
X135321000Y-89146000I0J-135000D01*
G01*
X135321000Y-89416000D01*
G75*
G02*
X135186000Y-89551000I-135000J0D01*
G01*
G37*
G36*
G01*
X135186000Y-90571000D02*
X134816000Y-90571000D01*
G75*
G02*
X134681000Y-90436000I0J135000D01*
G01*
X134681000Y-90166000D01*
G75*
G02*
X134816000Y-90031000I135000J0D01*
G01*
X135186000Y-90031000D01*
G75*
G02*
X135321000Y-90166000I0J-135000D01*
G01*
X135321000Y-90436000D01*
G75*
G02*
X135186000Y-90571000I-135000J0D01*
G01*
G37*
%TD*%
%TO.C,R39*%
G36*
G01*
X117101200Y-77714600D02*
X116731200Y-77714600D01*
G75*
G02*
X116596200Y-77579600I0J135000D01*
G01*
X116596200Y-77309600D01*
G75*
G02*
X116731200Y-77174600I135000J0D01*
G01*
X117101200Y-77174600D01*
G75*
G02*
X117236200Y-77309600I0J-135000D01*
G01*
X117236200Y-77579600D01*
G75*
G02*
X117101200Y-77714600I-135000J0D01*
G01*
G37*
G36*
G01*
X117101200Y-78734600D02*
X116731200Y-78734600D01*
G75*
G02*
X116596200Y-78599600I0J135000D01*
G01*
X116596200Y-78329600D01*
G75*
G02*
X116731200Y-78194600I135000J0D01*
G01*
X117101200Y-78194600D01*
G75*
G02*
X117236200Y-78329600I0J-135000D01*
G01*
X117236200Y-78599600D01*
G75*
G02*
X117101200Y-78734600I-135000J0D01*
G01*
G37*
%TD*%
%TO.C,R38*%
G36*
G01*
X125672000Y-80277400D02*
X126042000Y-80277400D01*
G75*
G02*
X126177000Y-80412400I0J-135000D01*
G01*
X126177000Y-80682400D01*
G75*
G02*
X126042000Y-80817400I-135000J0D01*
G01*
X125672000Y-80817400D01*
G75*
G02*
X125537000Y-80682400I0J135000D01*
G01*
X125537000Y-80412400D01*
G75*
G02*
X125672000Y-80277400I135000J0D01*
G01*
G37*
G36*
G01*
X125672000Y-79257400D02*
X126042000Y-79257400D01*
G75*
G02*
X126177000Y-79392400I0J-135000D01*
G01*
X126177000Y-79662400D01*
G75*
G02*
X126042000Y-79797400I-135000J0D01*
G01*
X125672000Y-79797400D01*
G75*
G02*
X125537000Y-79662400I0J135000D01*
G01*
X125537000Y-79392400D01*
G75*
G02*
X125672000Y-79257400I135000J0D01*
G01*
G37*
%TD*%
%TO.C,R37*%
G36*
G01*
X134816000Y-80328200D02*
X135186000Y-80328200D01*
G75*
G02*
X135321000Y-80463200I0J-135000D01*
G01*
X135321000Y-80733200D01*
G75*
G02*
X135186000Y-80868200I-135000J0D01*
G01*
X134816000Y-80868200D01*
G75*
G02*
X134681000Y-80733200I0J135000D01*
G01*
X134681000Y-80463200D01*
G75*
G02*
X134816000Y-80328200I135000J0D01*
G01*
G37*
G36*
G01*
X134816000Y-79308200D02*
X135186000Y-79308200D01*
G75*
G02*
X135321000Y-79443200I0J-135000D01*
G01*
X135321000Y-79713200D01*
G75*
G02*
X135186000Y-79848200I-135000J0D01*
G01*
X134816000Y-79848200D01*
G75*
G02*
X134681000Y-79713200I0J135000D01*
G01*
X134681000Y-79443200D01*
G75*
G02*
X134816000Y-79308200I135000J0D01*
G01*
G37*
%TD*%
%TO.C,R36*%
G36*
G01*
X116629600Y-68589400D02*
X116999600Y-68589400D01*
G75*
G02*
X117134600Y-68724400I0J-135000D01*
G01*
X117134600Y-68994400D01*
G75*
G02*
X116999600Y-69129400I-135000J0D01*
G01*
X116629600Y-69129400D01*
G75*
G02*
X116494600Y-68994400I0J135000D01*
G01*
X116494600Y-68724400D01*
G75*
G02*
X116629600Y-68589400I135000J0D01*
G01*
G37*
G36*
G01*
X116629600Y-67569400D02*
X116999600Y-67569400D01*
G75*
G02*
X117134600Y-67704400I0J-135000D01*
G01*
X117134600Y-67974400D01*
G75*
G02*
X116999600Y-68109400I-135000J0D01*
G01*
X116629600Y-68109400D01*
G75*
G02*
X116494600Y-67974400I0J135000D01*
G01*
X116494600Y-67704400D01*
G75*
G02*
X116629600Y-67569400I135000J0D01*
G01*
G37*
%TD*%
%TO.C,R35*%
G36*
G01*
X125672000Y-68593400D02*
X126042000Y-68593400D01*
G75*
G02*
X126177000Y-68728400I0J-135000D01*
G01*
X126177000Y-68998400D01*
G75*
G02*
X126042000Y-69133400I-135000J0D01*
G01*
X125672000Y-69133400D01*
G75*
G02*
X125537000Y-68998400I0J135000D01*
G01*
X125537000Y-68728400D01*
G75*
G02*
X125672000Y-68593400I135000J0D01*
G01*
G37*
G36*
G01*
X125672000Y-67573400D02*
X126042000Y-67573400D01*
G75*
G02*
X126177000Y-67708400I0J-135000D01*
G01*
X126177000Y-67978400D01*
G75*
G02*
X126042000Y-68113400I-135000J0D01*
G01*
X125672000Y-68113400D01*
G75*
G02*
X125537000Y-67978400I0J135000D01*
G01*
X125537000Y-67708400D01*
G75*
G02*
X125672000Y-67573400I135000J0D01*
G01*
G37*
%TD*%
%TO.C,R34*%
G36*
G01*
X126042000Y-77663800D02*
X125672000Y-77663800D01*
G75*
G02*
X125537000Y-77528800I0J135000D01*
G01*
X125537000Y-77258800D01*
G75*
G02*
X125672000Y-77123800I135000J0D01*
G01*
X126042000Y-77123800D01*
G75*
G02*
X126177000Y-77258800I0J-135000D01*
G01*
X126177000Y-77528800D01*
G75*
G02*
X126042000Y-77663800I-135000J0D01*
G01*
G37*
G36*
G01*
X126042000Y-78683800D02*
X125672000Y-78683800D01*
G75*
G02*
X125537000Y-78548800I0J135000D01*
G01*
X125537000Y-78278800D01*
G75*
G02*
X125672000Y-78143800I135000J0D01*
G01*
X126042000Y-78143800D01*
G75*
G02*
X126177000Y-78278800I0J-135000D01*
G01*
X126177000Y-78548800D01*
G75*
G02*
X126042000Y-78683800I-135000J0D01*
G01*
G37*
%TD*%
%TO.C,R33*%
G36*
G01*
X135186000Y-77761400D02*
X134816000Y-77761400D01*
G75*
G02*
X134681000Y-77626400I0J135000D01*
G01*
X134681000Y-77356400D01*
G75*
G02*
X134816000Y-77221400I135000J0D01*
G01*
X135186000Y-77221400D01*
G75*
G02*
X135321000Y-77356400I0J-135000D01*
G01*
X135321000Y-77626400D01*
G75*
G02*
X135186000Y-77761400I-135000J0D01*
G01*
G37*
G36*
G01*
X135186000Y-78781400D02*
X134816000Y-78781400D01*
G75*
G02*
X134681000Y-78646400I0J135000D01*
G01*
X134681000Y-78376400D01*
G75*
G02*
X134816000Y-78241400I135000J0D01*
G01*
X135186000Y-78241400D01*
G75*
G02*
X135321000Y-78376400I0J-135000D01*
G01*
X135321000Y-78646400D01*
G75*
G02*
X135186000Y-78781400I-135000J0D01*
G01*
G37*
%TD*%
%TO.C,R32*%
G36*
G01*
X116999600Y-66081400D02*
X116629600Y-66081400D01*
G75*
G02*
X116494600Y-65946400I0J135000D01*
G01*
X116494600Y-65676400D01*
G75*
G02*
X116629600Y-65541400I135000J0D01*
G01*
X116999600Y-65541400D01*
G75*
G02*
X117134600Y-65676400I0J-135000D01*
G01*
X117134600Y-65946400D01*
G75*
G02*
X116999600Y-66081400I-135000J0D01*
G01*
G37*
G36*
G01*
X116999600Y-67101400D02*
X116629600Y-67101400D01*
G75*
G02*
X116494600Y-66966400I0J135000D01*
G01*
X116494600Y-66696400D01*
G75*
G02*
X116629600Y-66561400I135000J0D01*
G01*
X116999600Y-66561400D01*
G75*
G02*
X117134600Y-66696400I0J-135000D01*
G01*
X117134600Y-66966400D01*
G75*
G02*
X116999600Y-67101400I-135000J0D01*
G01*
G37*
%TD*%
%TO.C,R31*%
G36*
G01*
X126042000Y-66077400D02*
X125672000Y-66077400D01*
G75*
G02*
X125537000Y-65942400I0J135000D01*
G01*
X125537000Y-65672400D01*
G75*
G02*
X125672000Y-65537400I135000J0D01*
G01*
X126042000Y-65537400D01*
G75*
G02*
X126177000Y-65672400I0J-135000D01*
G01*
X126177000Y-65942400D01*
G75*
G02*
X126042000Y-66077400I-135000J0D01*
G01*
G37*
G36*
G01*
X126042000Y-67097400D02*
X125672000Y-67097400D01*
G75*
G02*
X125537000Y-66962400I0J135000D01*
G01*
X125537000Y-66692400D01*
G75*
G02*
X125672000Y-66557400I135000J0D01*
G01*
X126042000Y-66557400D01*
G75*
G02*
X126177000Y-66692400I0J-135000D01*
G01*
X126177000Y-66962400D01*
G75*
G02*
X126042000Y-67097400I-135000J0D01*
G01*
G37*
%TD*%
%TO.C,R30*%
G36*
G01*
X134714400Y-68589400D02*
X135084400Y-68589400D01*
G75*
G02*
X135219400Y-68724400I0J-135000D01*
G01*
X135219400Y-68994400D01*
G75*
G02*
X135084400Y-69129400I-135000J0D01*
G01*
X134714400Y-69129400D01*
G75*
G02*
X134579400Y-68994400I0J135000D01*
G01*
X134579400Y-68724400D01*
G75*
G02*
X134714400Y-68589400I135000J0D01*
G01*
G37*
G36*
G01*
X134714400Y-67569400D02*
X135084400Y-67569400D01*
G75*
G02*
X135219400Y-67704400I0J-135000D01*
G01*
X135219400Y-67974400D01*
G75*
G02*
X135084400Y-68109400I-135000J0D01*
G01*
X134714400Y-68109400D01*
G75*
G02*
X134579400Y-67974400I0J135000D01*
G01*
X134579400Y-67704400D01*
G75*
G02*
X134714400Y-67569400I135000J0D01*
G01*
G37*
%TD*%
%TO.C,R29*%
G36*
G01*
X134765200Y-59906600D02*
X135135200Y-59906600D01*
G75*
G02*
X135270200Y-60041600I0J-135000D01*
G01*
X135270200Y-60311600D01*
G75*
G02*
X135135200Y-60446600I-135000J0D01*
G01*
X134765200Y-60446600D01*
G75*
G02*
X134630200Y-60311600I0J135000D01*
G01*
X134630200Y-60041600D01*
G75*
G02*
X134765200Y-59906600I135000J0D01*
G01*
G37*
G36*
G01*
X134765200Y-58886600D02*
X135135200Y-58886600D01*
G75*
G02*
X135270200Y-59021600I0J-135000D01*
G01*
X135270200Y-59291600D01*
G75*
G02*
X135135200Y-59426600I-135000J0D01*
G01*
X134765200Y-59426600D01*
G75*
G02*
X134630200Y-59291600I0J135000D01*
G01*
X134630200Y-59021600D01*
G75*
G02*
X134765200Y-58886600I135000J0D01*
G01*
G37*
%TD*%
%TO.C,R26*%
G36*
G01*
X135084400Y-66081400D02*
X134714400Y-66081400D01*
G75*
G02*
X134579400Y-65946400I0J135000D01*
G01*
X134579400Y-65676400D01*
G75*
G02*
X134714400Y-65541400I135000J0D01*
G01*
X135084400Y-65541400D01*
G75*
G02*
X135219400Y-65676400I0J-135000D01*
G01*
X135219400Y-65946400D01*
G75*
G02*
X135084400Y-66081400I-135000J0D01*
G01*
G37*
G36*
G01*
X135084400Y-67101400D02*
X134714400Y-67101400D01*
G75*
G02*
X134579400Y-66966400I0J135000D01*
G01*
X134579400Y-66696400D01*
G75*
G02*
X134714400Y-66561400I135000J0D01*
G01*
X135084400Y-66561400D01*
G75*
G02*
X135219400Y-66696400I0J-135000D01*
G01*
X135219400Y-66966400D01*
G75*
G02*
X135084400Y-67101400I-135000J0D01*
G01*
G37*
%TD*%
%TO.C,R25*%
G36*
G01*
X135135200Y-57343800D02*
X134765200Y-57343800D01*
G75*
G02*
X134630200Y-57208800I0J135000D01*
G01*
X134630200Y-56938800D01*
G75*
G02*
X134765200Y-56803800I135000J0D01*
G01*
X135135200Y-56803800D01*
G75*
G02*
X135270200Y-56938800I0J-135000D01*
G01*
X135270200Y-57208800D01*
G75*
G02*
X135135200Y-57343800I-135000J0D01*
G01*
G37*
G36*
G01*
X135135200Y-58363800D02*
X134765200Y-58363800D01*
G75*
G02*
X134630200Y-58228800I0J135000D01*
G01*
X134630200Y-57958800D01*
G75*
G02*
X134765200Y-57823800I135000J0D01*
G01*
X135135200Y-57823800D01*
G75*
G02*
X135270200Y-57958800I0J-135000D01*
G01*
X135270200Y-58228800D01*
G75*
G02*
X135135200Y-58363800I-135000J0D01*
G01*
G37*
%TD*%
%TO.C,Q23*%
X145923000Y-108839000D03*
X147923000Y-107889000D03*
X147923000Y-109789000D03*
%TD*%
%TO.C,Q18*%
X146590000Y-93157000D03*
X148590000Y-92207000D03*
X148590000Y-94107000D03*
%TD*%
D15*
%TO.C,Q17*%
X147132000Y-44482000D03*
X148082000Y-46482000D03*
X146182000Y-46482000D03*
%TD*%
D14*
%TO.C,Q8*%
X146463000Y-77404000D03*
X148463000Y-76454000D03*
X148463000Y-78354000D03*
%TD*%
%TO.C,D3*%
G36*
G01*
X101736500Y-79045750D02*
X101736500Y-79958250D01*
G75*
G02*
X101492750Y-80202000I-243750J0D01*
G01*
X101005250Y-80202000D01*
G75*
G02*
X100761500Y-79958250I0J243750D01*
G01*
X100761500Y-79045750D01*
G75*
G02*
X101005250Y-78802000I243750J0D01*
G01*
X101492750Y-78802000D01*
G75*
G02*
X101736500Y-79045750I0J-243750D01*
G01*
G37*
G36*
G01*
X103611500Y-79045750D02*
X103611500Y-79958250D01*
G75*
G02*
X103367750Y-80202000I-243750J0D01*
G01*
X102880250Y-80202000D01*
G75*
G02*
X102636500Y-79958250I0J243750D01*
G01*
X102636500Y-79045750D01*
G75*
G02*
X102880250Y-78802000I243750J0D01*
G01*
X103367750Y-78802000D01*
G75*
G02*
X103611500Y-79045750I0J-243750D01*
G01*
G37*
%TD*%
%TO.C,D2*%
G36*
G01*
X101609500Y-75235750D02*
X101609500Y-76148250D01*
G75*
G02*
X101365750Y-76392000I-243750J0D01*
G01*
X100878250Y-76392000D01*
G75*
G02*
X100634500Y-76148250I0J243750D01*
G01*
X100634500Y-75235750D01*
G75*
G02*
X100878250Y-74992000I243750J0D01*
G01*
X101365750Y-74992000D01*
G75*
G02*
X101609500Y-75235750I0J-243750D01*
G01*
G37*
G36*
G01*
X103484500Y-75235750D02*
X103484500Y-76148250D01*
G75*
G02*
X103240750Y-76392000I-243750J0D01*
G01*
X102753250Y-76392000D01*
G75*
G02*
X102509500Y-76148250I0J243750D01*
G01*
X102509500Y-75235750D01*
G75*
G02*
X102753250Y-74992000I243750J0D01*
G01*
X103240750Y-74992000D01*
G75*
G02*
X103484500Y-75235750I0J-243750D01*
G01*
G37*
%TD*%
%TO.C,D1*%
G36*
G01*
X101609500Y-71425750D02*
X101609500Y-72338250D01*
G75*
G02*
X101365750Y-72582000I-243750J0D01*
G01*
X100878250Y-72582000D01*
G75*
G02*
X100634500Y-72338250I0J243750D01*
G01*
X100634500Y-71425750D01*
G75*
G02*
X100878250Y-71182000I243750J0D01*
G01*
X101365750Y-71182000D01*
G75*
G02*
X101609500Y-71425750I0J-243750D01*
G01*
G37*
G36*
G01*
X103484500Y-71425750D02*
X103484500Y-72338250D01*
G75*
G02*
X103240750Y-72582000I-243750J0D01*
G01*
X102753250Y-72582000D01*
G75*
G02*
X102509500Y-72338250I0J243750D01*
G01*
X102509500Y-71425750D01*
G75*
G02*
X102753250Y-71182000I243750J0D01*
G01*
X103240750Y-71182000D01*
G75*
G02*
X103484500Y-71425750I0J-243750D01*
G01*
G37*
%TD*%
M02*
