%TF.GenerationSoftware,KiCad,Pcbnew,(5.1.10)-1*%
%TF.CreationDate,2021-08-20T00:09:58-04:00*%
%TF.ProjectId,Back_F407_expansion_board,4261636b-5f46-4343-9037-5f657870616e,rev?*%
%TF.SameCoordinates,Original*%
%TF.FileFunction,Soldermask,Top*%
%TF.FilePolarity,Negative*%
%FSLAX46Y46*%
G04 Gerber Fmt 4.6, Leading zero omitted, Abs format (unit mm)*
G04 Created by KiCad (PCBNEW (5.1.10)-1) date 2021-08-20 00:09:58*
%MOMM*%
%LPD*%
G01*
G04 APERTURE LIST*
%ADD10C,2.780000*%
%ADD11O,1.740000X2.190000*%
%ADD12C,0.100000*%
%ADD13R,0.900000X1.300000*%
%ADD14R,1.500000X2.000000*%
%ADD15R,3.800000X2.000000*%
%ADD16O,1.700000X1.700000*%
%ADD17R,1.700000X1.700000*%
%ADD18O,1.600000X1.600000*%
%ADD19R,1.600000X1.600000*%
%ADD20R,0.900000X0.800000*%
%ADD21C,1.600000*%
%ADD22C,2.600000*%
%ADD23R,2.600000X2.600000*%
%ADD24O,2.000000X1.700000*%
%ADD25R,0.800000X0.900000*%
%ADD26O,1.905000X2.000000*%
%ADD27R,1.905000X2.000000*%
G04 APERTURE END LIST*
%TO.C,U15*%
G36*
G01*
X97017500Y-100710800D02*
X97292500Y-100710800D01*
G75*
G02*
X97430000Y-100848300I0J-137500D01*
G01*
X97430000Y-102023300D01*
G75*
G02*
X97292500Y-102160800I-137500J0D01*
G01*
X97017500Y-102160800D01*
G75*
G02*
X96880000Y-102023300I0J137500D01*
G01*
X96880000Y-100848300D01*
G75*
G02*
X97017500Y-100710800I137500J0D01*
G01*
G37*
G36*
G01*
X94477500Y-100710800D02*
X94752500Y-100710800D01*
G75*
G02*
X94890000Y-100848300I0J-137500D01*
G01*
X94890000Y-102023300D01*
G75*
G02*
X94752500Y-102160800I-137500J0D01*
G01*
X94477500Y-102160800D01*
G75*
G02*
X94340000Y-102023300I0J137500D01*
G01*
X94340000Y-100848300D01*
G75*
G02*
X94477500Y-100710800I137500J0D01*
G01*
G37*
G36*
G01*
X94477500Y-95210800D02*
X94752500Y-95210800D01*
G75*
G02*
X94890000Y-95348300I0J-137500D01*
G01*
X94890000Y-96523300D01*
G75*
G02*
X94752500Y-96660800I-137500J0D01*
G01*
X94477500Y-96660800D01*
G75*
G02*
X94340000Y-96523300I0J137500D01*
G01*
X94340000Y-95348300D01*
G75*
G02*
X94477500Y-95210800I137500J0D01*
G01*
G37*
G36*
G01*
X97017500Y-95210800D02*
X97292500Y-95210800D01*
G75*
G02*
X97430000Y-95348300I0J-137500D01*
G01*
X97430000Y-96523300D01*
G75*
G02*
X97292500Y-96660800I-137500J0D01*
G01*
X97017500Y-96660800D01*
G75*
G02*
X96880000Y-96523300I0J137500D01*
G01*
X96880000Y-95348300D01*
G75*
G02*
X97017500Y-95210800I137500J0D01*
G01*
G37*
%TD*%
D10*
%TO.C,F5*%
X163550600Y-118956600D03*
X163550600Y-122656600D03*
X163550600Y-126956600D03*
X163550600Y-130656600D03*
%TD*%
%TO.C,F4*%
X84176600Y-40411400D03*
X87876600Y-40411400D03*
X92176600Y-40411400D03*
X95876600Y-40411400D03*
%TD*%
%TO.C,F3*%
X143824200Y-120421400D03*
X147524200Y-120421400D03*
X151824200Y-120421400D03*
X155524200Y-120421400D03*
%TD*%
%TO.C,F2*%
X133958600Y-44526200D03*
X130258600Y-44526200D03*
X125958600Y-44526200D03*
X122258600Y-44526200D03*
%TD*%
%TO.C,F1*%
X137912600Y-36906200D03*
X134212600Y-36906200D03*
X129912600Y-36906200D03*
X126212600Y-36906200D03*
%TD*%
%TO.C,R58*%
G36*
G01*
X141850800Y-39304200D02*
X144000800Y-39304200D01*
G75*
G02*
X144250800Y-39554200I0J-250000D01*
G01*
X144250800Y-40354200D01*
G75*
G02*
X144000800Y-40604200I-250000J0D01*
G01*
X141850800Y-40604200D01*
G75*
G02*
X141600800Y-40354200I0J250000D01*
G01*
X141600800Y-39554200D01*
G75*
G02*
X141850800Y-39304200I250000J0D01*
G01*
G37*
G36*
G01*
X141850800Y-36204200D02*
X144000800Y-36204200D01*
G75*
G02*
X144250800Y-36454200I0J-250000D01*
G01*
X144250800Y-37254200D01*
G75*
G02*
X144000800Y-37504200I-250000J0D01*
G01*
X141850800Y-37504200D01*
G75*
G02*
X141600800Y-37254200I0J250000D01*
G01*
X141600800Y-36454200D01*
G75*
G02*
X141850800Y-36204200I250000J0D01*
G01*
G37*
%TD*%
%TO.C,R56*%
G36*
G01*
X120124800Y-52795000D02*
X117974800Y-52795000D01*
G75*
G02*
X117724800Y-52545000I0J250000D01*
G01*
X117724800Y-51745000D01*
G75*
G02*
X117974800Y-51495000I250000J0D01*
G01*
X120124800Y-51495000D01*
G75*
G02*
X120374800Y-51745000I0J-250000D01*
G01*
X120374800Y-52545000D01*
G75*
G02*
X120124800Y-52795000I-250000J0D01*
G01*
G37*
G36*
G01*
X120124800Y-55895000D02*
X117974800Y-55895000D01*
G75*
G02*
X117724800Y-55645000I0J250000D01*
G01*
X117724800Y-54845000D01*
G75*
G02*
X117974800Y-54595000I250000J0D01*
G01*
X120124800Y-54595000D01*
G75*
G02*
X120374800Y-54845000I0J-250000D01*
G01*
X120374800Y-55645000D01*
G75*
G02*
X120124800Y-55895000I-250000J0D01*
G01*
G37*
%TD*%
%TO.C,R50*%
G36*
G01*
X150779800Y-115108400D02*
X150779800Y-114558400D01*
G75*
G02*
X150979800Y-114358400I200000J0D01*
G01*
X151379800Y-114358400D01*
G75*
G02*
X151579800Y-114558400I0J-200000D01*
G01*
X151579800Y-115108400D01*
G75*
G02*
X151379800Y-115308400I-200000J0D01*
G01*
X150979800Y-115308400D01*
G75*
G02*
X150779800Y-115108400I0J200000D01*
G01*
G37*
G36*
G01*
X149129800Y-115108400D02*
X149129800Y-114558400D01*
G75*
G02*
X149329800Y-114358400I200000J0D01*
G01*
X149729800Y-114358400D01*
G75*
G02*
X149929800Y-114558400I0J-200000D01*
G01*
X149929800Y-115108400D01*
G75*
G02*
X149729800Y-115308400I-200000J0D01*
G01*
X149329800Y-115308400D01*
G75*
G02*
X149129800Y-115108400I0J200000D01*
G01*
G37*
%TD*%
%TO.C,R48*%
G36*
G01*
X170518400Y-117921800D02*
X168368400Y-117921800D01*
G75*
G02*
X168118400Y-117671800I0J250000D01*
G01*
X168118400Y-116871800D01*
G75*
G02*
X168368400Y-116621800I250000J0D01*
G01*
X170518400Y-116621800D01*
G75*
G02*
X170768400Y-116871800I0J-250000D01*
G01*
X170768400Y-117671800D01*
G75*
G02*
X170518400Y-117921800I-250000J0D01*
G01*
G37*
G36*
G01*
X170518400Y-121021800D02*
X168368400Y-121021800D01*
G75*
G02*
X168118400Y-120771800I0J250000D01*
G01*
X168118400Y-119971800D01*
G75*
G02*
X168368400Y-119721800I250000J0D01*
G01*
X170518400Y-119721800D01*
G75*
G02*
X170768400Y-119971800I0J-250000D01*
G01*
X170768400Y-120771800D01*
G75*
G02*
X170518400Y-121021800I-250000J0D01*
G01*
G37*
%TD*%
%TO.C,D20*%
G36*
G01*
X142398100Y-34567150D02*
X142398100Y-35079650D01*
G75*
G02*
X142179350Y-35298400I-218750J0D01*
G01*
X141741850Y-35298400D01*
G75*
G02*
X141523100Y-35079650I0J218750D01*
G01*
X141523100Y-34567150D01*
G75*
G02*
X141741850Y-34348400I218750J0D01*
G01*
X142179350Y-34348400D01*
G75*
G02*
X142398100Y-34567150I0J-218750D01*
G01*
G37*
G36*
G01*
X143973100Y-34567150D02*
X143973100Y-35079650D01*
G75*
G02*
X143754350Y-35298400I-218750J0D01*
G01*
X143316850Y-35298400D01*
G75*
G02*
X143098100Y-35079650I0J218750D01*
G01*
X143098100Y-34567150D01*
G75*
G02*
X143316850Y-34348400I218750J0D01*
G01*
X143754350Y-34348400D01*
G75*
G02*
X143973100Y-34567150I0J-218750D01*
G01*
G37*
%TD*%
%TO.C,D18*%
G36*
G01*
X121282750Y-55216300D02*
X121795250Y-55216300D01*
G75*
G02*
X122014000Y-55435050I0J-218750D01*
G01*
X122014000Y-55872550D01*
G75*
G02*
X121795250Y-56091300I-218750J0D01*
G01*
X121282750Y-56091300D01*
G75*
G02*
X121064000Y-55872550I0J218750D01*
G01*
X121064000Y-55435050D01*
G75*
G02*
X121282750Y-55216300I218750J0D01*
G01*
G37*
G36*
G01*
X121282750Y-53641300D02*
X121795250Y-53641300D01*
G75*
G02*
X122014000Y-53860050I0J-218750D01*
G01*
X122014000Y-54297550D01*
G75*
G02*
X121795250Y-54516300I-218750J0D01*
G01*
X121282750Y-54516300D01*
G75*
G02*
X121064000Y-54297550I0J218750D01*
G01*
X121064000Y-53860050D01*
G75*
G02*
X121282750Y-53641300I218750J0D01*
G01*
G37*
%TD*%
%TO.C,D16*%
G36*
G01*
X111783150Y-55211700D02*
X112295650Y-55211700D01*
G75*
G02*
X112514400Y-55430450I0J-218750D01*
G01*
X112514400Y-55867950D01*
G75*
G02*
X112295650Y-56086700I-218750J0D01*
G01*
X111783150Y-56086700D01*
G75*
G02*
X111564400Y-55867950I0J218750D01*
G01*
X111564400Y-55430450D01*
G75*
G02*
X111783150Y-55211700I218750J0D01*
G01*
G37*
G36*
G01*
X111783150Y-53636700D02*
X112295650Y-53636700D01*
G75*
G02*
X112514400Y-53855450I0J-218750D01*
G01*
X112514400Y-54292950D01*
G75*
G02*
X112295650Y-54511700I-218750J0D01*
G01*
X111783150Y-54511700D01*
G75*
G02*
X111564400Y-54292950I0J218750D01*
G01*
X111564400Y-53855450D01*
G75*
G02*
X111783150Y-53636700I218750J0D01*
G01*
G37*
%TD*%
%TO.C,D14*%
G36*
G01*
X79544900Y-42953650D02*
X79544900Y-42441150D01*
G75*
G02*
X79763650Y-42222400I218750J0D01*
G01*
X80201150Y-42222400D01*
G75*
G02*
X80419900Y-42441150I0J-218750D01*
G01*
X80419900Y-42953650D01*
G75*
G02*
X80201150Y-43172400I-218750J0D01*
G01*
X79763650Y-43172400D01*
G75*
G02*
X79544900Y-42953650I0J218750D01*
G01*
G37*
G36*
G01*
X77969900Y-42953650D02*
X77969900Y-42441150D01*
G75*
G02*
X78188650Y-42222400I218750J0D01*
G01*
X78626150Y-42222400D01*
G75*
G02*
X78844900Y-42441150I0J-218750D01*
G01*
X78844900Y-42953650D01*
G75*
G02*
X78626150Y-43172400I-218750J0D01*
G01*
X78188650Y-43172400D01*
G75*
G02*
X77969900Y-42953650I0J218750D01*
G01*
G37*
%TD*%
%TO.C,D12*%
G36*
G01*
X146868300Y-114551750D02*
X146868300Y-115064250D01*
G75*
G02*
X146649550Y-115283000I-218750J0D01*
G01*
X146212050Y-115283000D01*
G75*
G02*
X145993300Y-115064250I0J218750D01*
G01*
X145993300Y-114551750D01*
G75*
G02*
X146212050Y-114333000I218750J0D01*
G01*
X146649550Y-114333000D01*
G75*
G02*
X146868300Y-114551750I0J-218750D01*
G01*
G37*
G36*
G01*
X148443300Y-114551750D02*
X148443300Y-115064250D01*
G75*
G02*
X148224550Y-115283000I-218750J0D01*
G01*
X147787050Y-115283000D01*
G75*
G02*
X147568300Y-115064250I0J218750D01*
G01*
X147568300Y-114551750D01*
G75*
G02*
X147787050Y-114333000I218750J0D01*
G01*
X148224550Y-114333000D01*
G75*
G02*
X148443300Y-114551750I0J-218750D01*
G01*
G37*
%TD*%
%TO.C,D10*%
G36*
G01*
X168983950Y-123336900D02*
X169496450Y-123336900D01*
G75*
G02*
X169715200Y-123555650I0J-218750D01*
G01*
X169715200Y-123993150D01*
G75*
G02*
X169496450Y-124211900I-218750J0D01*
G01*
X168983950Y-124211900D01*
G75*
G02*
X168765200Y-123993150I0J218750D01*
G01*
X168765200Y-123555650D01*
G75*
G02*
X168983950Y-123336900I218750J0D01*
G01*
G37*
G36*
G01*
X168983950Y-121761900D02*
X169496450Y-121761900D01*
G75*
G02*
X169715200Y-121980650I0J-218750D01*
G01*
X169715200Y-122418150D01*
G75*
G02*
X169496450Y-122636900I-218750J0D01*
G01*
X168983950Y-122636900D01*
G75*
G02*
X168765200Y-122418150I0J218750D01*
G01*
X168765200Y-121980650D01*
G75*
G02*
X168983950Y-121761900I218750J0D01*
G01*
G37*
%TD*%
%TO.C,C12*%
G36*
G01*
X105503800Y-60633000D02*
X105163800Y-60633000D01*
G75*
G02*
X105023800Y-60493000I0J140000D01*
G01*
X105023800Y-60213000D01*
G75*
G02*
X105163800Y-60073000I140000J0D01*
G01*
X105503800Y-60073000D01*
G75*
G02*
X105643800Y-60213000I0J-140000D01*
G01*
X105643800Y-60493000D01*
G75*
G02*
X105503800Y-60633000I-140000J0D01*
G01*
G37*
G36*
G01*
X105503800Y-61593000D02*
X105163800Y-61593000D01*
G75*
G02*
X105023800Y-61453000I0J140000D01*
G01*
X105023800Y-61173000D01*
G75*
G02*
X105163800Y-61033000I140000J0D01*
G01*
X105503800Y-61033000D01*
G75*
G02*
X105643800Y-61173000I0J-140000D01*
G01*
X105643800Y-61453000D01*
G75*
G02*
X105503800Y-61593000I-140000J0D01*
G01*
G37*
%TD*%
%TO.C,C11*%
G36*
G01*
X100947400Y-63093000D02*
X101287400Y-63093000D01*
G75*
G02*
X101427400Y-63233000I0J-140000D01*
G01*
X101427400Y-63513000D01*
G75*
G02*
X101287400Y-63653000I-140000J0D01*
G01*
X100947400Y-63653000D01*
G75*
G02*
X100807400Y-63513000I0J140000D01*
G01*
X100807400Y-63233000D01*
G75*
G02*
X100947400Y-63093000I140000J0D01*
G01*
G37*
G36*
G01*
X100947400Y-62133000D02*
X101287400Y-62133000D01*
G75*
G02*
X101427400Y-62273000I0J-140000D01*
G01*
X101427400Y-62553000D01*
G75*
G02*
X101287400Y-62693000I-140000J0D01*
G01*
X100947400Y-62693000D01*
G75*
G02*
X100807400Y-62553000I0J140000D01*
G01*
X100807400Y-62273000D01*
G75*
G02*
X100947400Y-62133000I140000J0D01*
G01*
G37*
%TD*%
%TO.C,C10*%
G36*
G01*
X92565400Y-67868200D02*
X92905400Y-67868200D01*
G75*
G02*
X93045400Y-68008200I0J-140000D01*
G01*
X93045400Y-68288200D01*
G75*
G02*
X92905400Y-68428200I-140000J0D01*
G01*
X92565400Y-68428200D01*
G75*
G02*
X92425400Y-68288200I0J140000D01*
G01*
X92425400Y-68008200D01*
G75*
G02*
X92565400Y-67868200I140000J0D01*
G01*
G37*
G36*
G01*
X92565400Y-66908200D02*
X92905400Y-66908200D01*
G75*
G02*
X93045400Y-67048200I0J-140000D01*
G01*
X93045400Y-67328200D01*
G75*
G02*
X92905400Y-67468200I-140000J0D01*
G01*
X92565400Y-67468200D01*
G75*
G02*
X92425400Y-67328200I0J140000D01*
G01*
X92425400Y-67048200D01*
G75*
G02*
X92565400Y-66908200I140000J0D01*
G01*
G37*
%TD*%
%TO.C,C9*%
G36*
G01*
X84640600Y-64871000D02*
X84980600Y-64871000D01*
G75*
G02*
X85120600Y-65011000I0J-140000D01*
G01*
X85120600Y-65291000D01*
G75*
G02*
X84980600Y-65431000I-140000J0D01*
G01*
X84640600Y-65431000D01*
G75*
G02*
X84500600Y-65291000I0J140000D01*
G01*
X84500600Y-65011000D01*
G75*
G02*
X84640600Y-64871000I140000J0D01*
G01*
G37*
G36*
G01*
X84640600Y-63911000D02*
X84980600Y-63911000D01*
G75*
G02*
X85120600Y-64051000I0J-140000D01*
G01*
X85120600Y-64331000D01*
G75*
G02*
X84980600Y-64471000I-140000J0D01*
G01*
X84640600Y-64471000D01*
G75*
G02*
X84500600Y-64331000I0J140000D01*
G01*
X84500600Y-64051000D01*
G75*
G02*
X84640600Y-63911000I140000J0D01*
G01*
G37*
%TD*%
%TO.C,C8*%
G36*
G01*
X85090600Y-79408200D02*
X85090600Y-79748200D01*
G75*
G02*
X84950600Y-79888200I-140000J0D01*
G01*
X84670600Y-79888200D01*
G75*
G02*
X84530600Y-79748200I0J140000D01*
G01*
X84530600Y-79408200D01*
G75*
G02*
X84670600Y-79268200I140000J0D01*
G01*
X84950600Y-79268200D01*
G75*
G02*
X85090600Y-79408200I0J-140000D01*
G01*
G37*
G36*
G01*
X86050600Y-79408200D02*
X86050600Y-79748200D01*
G75*
G02*
X85910600Y-79888200I-140000J0D01*
G01*
X85630600Y-79888200D01*
G75*
G02*
X85490600Y-79748200I0J140000D01*
G01*
X85490600Y-79408200D01*
G75*
G02*
X85630600Y-79268200I140000J0D01*
G01*
X85910600Y-79268200D01*
G75*
G02*
X86050600Y-79408200I0J-140000D01*
G01*
G37*
%TD*%
%TO.C,C7*%
G36*
G01*
X84640600Y-73705000D02*
X84980600Y-73705000D01*
G75*
G02*
X85120600Y-73845000I0J-140000D01*
G01*
X85120600Y-74125000D01*
G75*
G02*
X84980600Y-74265000I-140000J0D01*
G01*
X84640600Y-74265000D01*
G75*
G02*
X84500600Y-74125000I0J140000D01*
G01*
X84500600Y-73845000D01*
G75*
G02*
X84640600Y-73705000I140000J0D01*
G01*
G37*
G36*
G01*
X84640600Y-72745000D02*
X84980600Y-72745000D01*
G75*
G02*
X85120600Y-72885000I0J-140000D01*
G01*
X85120600Y-73165000D01*
G75*
G02*
X84980600Y-73305000I-140000J0D01*
G01*
X84640600Y-73305000D01*
G75*
G02*
X84500600Y-73165000I0J140000D01*
G01*
X84500600Y-72885000D01*
G75*
G02*
X84640600Y-72745000I140000J0D01*
G01*
G37*
%TD*%
%TO.C,C6*%
G36*
G01*
X84980600Y-71374600D02*
X84640600Y-71374600D01*
G75*
G02*
X84500600Y-71234600I0J140000D01*
G01*
X84500600Y-70954600D01*
G75*
G02*
X84640600Y-70814600I140000J0D01*
G01*
X84980600Y-70814600D01*
G75*
G02*
X85120600Y-70954600I0J-140000D01*
G01*
X85120600Y-71234600D01*
G75*
G02*
X84980600Y-71374600I-140000J0D01*
G01*
G37*
G36*
G01*
X84980600Y-72334600D02*
X84640600Y-72334600D01*
G75*
G02*
X84500600Y-72194600I0J140000D01*
G01*
X84500600Y-71914600D01*
G75*
G02*
X84640600Y-71774600I140000J0D01*
G01*
X84980600Y-71774600D01*
G75*
G02*
X85120600Y-71914600I0J-140000D01*
G01*
X85120600Y-72194600D01*
G75*
G02*
X84980600Y-72334600I-140000J0D01*
G01*
G37*
%TD*%
%TO.C,R23*%
G36*
G01*
X94749200Y-92802200D02*
X94379200Y-92802200D01*
G75*
G02*
X94244200Y-92667200I0J135000D01*
G01*
X94244200Y-92397200D01*
G75*
G02*
X94379200Y-92262200I135000J0D01*
G01*
X94749200Y-92262200D01*
G75*
G02*
X94884200Y-92397200I0J-135000D01*
G01*
X94884200Y-92667200D01*
G75*
G02*
X94749200Y-92802200I-135000J0D01*
G01*
G37*
G36*
G01*
X94749200Y-93822200D02*
X94379200Y-93822200D01*
G75*
G02*
X94244200Y-93687200I0J135000D01*
G01*
X94244200Y-93417200D01*
G75*
G02*
X94379200Y-93282200I135000J0D01*
G01*
X94749200Y-93282200D01*
G75*
G02*
X94884200Y-93417200I0J-135000D01*
G01*
X94884200Y-93687200D01*
G75*
G02*
X94749200Y-93822200I-135000J0D01*
G01*
G37*
%TD*%
D11*
%TO.C,J8*%
X96342200Y-106400600D03*
G36*
G01*
X92932200Y-107245601D02*
X92932200Y-105555599D01*
G75*
G02*
X93182199Y-105305600I249999J0D01*
G01*
X94422201Y-105305600D01*
G75*
G02*
X94672200Y-105555599I0J-249999D01*
G01*
X94672200Y-107245601D01*
G75*
G02*
X94422201Y-107495600I-249999J0D01*
G01*
X93182199Y-107495600D01*
G75*
G02*
X92932200Y-107245601I0J249999D01*
G01*
G37*
%TD*%
D12*
%TO.C,U14*%
G36*
X114633100Y-87895400D02*
G01*
X114633100Y-91020400D01*
X114216600Y-91020400D01*
X114216600Y-92495400D01*
X113316600Y-92495400D01*
X113316600Y-91020400D01*
X112900100Y-91020400D01*
X112900100Y-87895400D01*
X114633100Y-87895400D01*
G37*
D13*
X115266600Y-91845400D03*
X112266600Y-91845400D03*
%TD*%
D12*
%TO.C,U13*%
G36*
X123675500Y-87895400D02*
G01*
X123675500Y-91020400D01*
X123259000Y-91020400D01*
X123259000Y-92495400D01*
X122359000Y-92495400D01*
X122359000Y-91020400D01*
X121942500Y-91020400D01*
X121942500Y-87895400D01*
X123675500Y-87895400D01*
G37*
D13*
X124309000Y-91845400D03*
X121309000Y-91845400D03*
%TD*%
D12*
%TO.C,U12*%
G36*
X132717900Y-87895400D02*
G01*
X132717900Y-91020400D01*
X132301400Y-91020400D01*
X132301400Y-92495400D01*
X131401400Y-92495400D01*
X131401400Y-91020400D01*
X130984900Y-91020400D01*
X130984900Y-87895400D01*
X132717900Y-87895400D01*
G37*
D13*
X133351400Y-91845400D03*
X130351400Y-91845400D03*
%TD*%
D12*
%TO.C,U11*%
G36*
X114582300Y-76109800D02*
G01*
X114582300Y-79234800D01*
X114165800Y-79234800D01*
X114165800Y-80709800D01*
X113265800Y-80709800D01*
X113265800Y-79234800D01*
X112849300Y-79234800D01*
X112849300Y-76109800D01*
X114582300Y-76109800D01*
G37*
D13*
X115215800Y-80059800D03*
X112215800Y-80059800D03*
%TD*%
D12*
%TO.C,U10*%
G36*
X132667100Y-76160600D02*
G01*
X132667100Y-79285600D01*
X132250600Y-79285600D01*
X132250600Y-80760600D01*
X131350600Y-80760600D01*
X131350600Y-79285600D01*
X130934100Y-79285600D01*
X130934100Y-76160600D01*
X132667100Y-76160600D01*
G37*
D13*
X133300600Y-80110600D03*
X130300600Y-80110600D03*
%TD*%
D12*
%TO.C,U9*%
G36*
X114531500Y-64425800D02*
G01*
X114531500Y-67550800D01*
X114115000Y-67550800D01*
X114115000Y-69025800D01*
X113215000Y-69025800D01*
X113215000Y-67550800D01*
X112798500Y-67550800D01*
X112798500Y-64425800D01*
X114531500Y-64425800D01*
G37*
D13*
X115165000Y-68375800D03*
X112165000Y-68375800D03*
%TD*%
D12*
%TO.C,U8*%
G36*
X123573900Y-76109800D02*
G01*
X123573900Y-79234800D01*
X123157400Y-79234800D01*
X123157400Y-80709800D01*
X122257400Y-80709800D01*
X122257400Y-79234800D01*
X121840900Y-79234800D01*
X121840900Y-76109800D01*
X123573900Y-76109800D01*
G37*
D13*
X124207400Y-80059800D03*
X121207400Y-80059800D03*
%TD*%
D12*
%TO.C,U7*%
G36*
X132628600Y-64438100D02*
G01*
X132628600Y-67563100D01*
X132212100Y-67563100D01*
X132212100Y-69038100D01*
X131312100Y-69038100D01*
X131312100Y-67563100D01*
X130895600Y-67563100D01*
X130895600Y-64438100D01*
X132628600Y-64438100D01*
G37*
D13*
X133262100Y-68388100D03*
X130262100Y-68388100D03*
%TD*%
D12*
%TO.C,U6*%
G36*
X132643100Y-55765400D02*
G01*
X132643100Y-58890400D01*
X132226600Y-58890400D01*
X132226600Y-60365400D01*
X131326600Y-60365400D01*
X131326600Y-58890400D01*
X130910100Y-58890400D01*
X130910100Y-55765400D01*
X132643100Y-55765400D01*
G37*
D13*
X133276600Y-59715400D03*
X130276600Y-59715400D03*
%TD*%
D14*
%TO.C,U5*%
X107583000Y-63169400D03*
X102983000Y-63169400D03*
X105283000Y-63169400D03*
D15*
X105283000Y-69469400D03*
%TD*%
D16*
%TO.C,J29*%
X116332000Y-86614000D03*
D17*
X113792000Y-86614000D03*
%TD*%
D16*
%TO.C,J28*%
X125349000Y-86614000D03*
D17*
X122809000Y-86614000D03*
%TD*%
D16*
%TO.C,J27*%
X134366000Y-86614000D03*
D17*
X131826000Y-86614000D03*
%TD*%
D16*
%TO.C,J26*%
X116205000Y-74803000D03*
D17*
X113665000Y-74803000D03*
%TD*%
D16*
%TO.C,J20*%
X125222000Y-74803000D03*
D17*
X122682000Y-74803000D03*
%TD*%
D16*
%TO.C,J19*%
X134239000Y-74803000D03*
D17*
X131699000Y-74803000D03*
%TD*%
D16*
%TO.C,J18*%
X116205000Y-63119000D03*
D17*
X113665000Y-63119000D03*
%TD*%
D16*
%TO.C,J17*%
X125262000Y-63119000D03*
D17*
X122722000Y-63119000D03*
%TD*%
D16*
%TO.C,J13*%
X134239000Y-63119000D03*
D17*
X131699000Y-63119000D03*
%TD*%
D16*
%TO.C,J10*%
X134289800Y-54432200D03*
D17*
X131749800Y-54432200D03*
%TD*%
D12*
%TO.C,U4*%
G36*
X123548500Y-64438500D02*
G01*
X123548500Y-67563500D01*
X123132000Y-67563500D01*
X123132000Y-69038500D01*
X122232000Y-69038500D01*
X122232000Y-67563500D01*
X121815500Y-67563500D01*
X121815500Y-64438500D01*
X123548500Y-64438500D01*
G37*
D13*
X124182000Y-68388500D03*
X121182000Y-68388500D03*
%TD*%
%TO.C,R54*%
G36*
G01*
X112173600Y-51853400D02*
X111803600Y-51853400D01*
G75*
G02*
X111668600Y-51718400I0J135000D01*
G01*
X111668600Y-51448400D01*
G75*
G02*
X111803600Y-51313400I135000J0D01*
G01*
X112173600Y-51313400D01*
G75*
G02*
X112308600Y-51448400I0J-135000D01*
G01*
X112308600Y-51718400D01*
G75*
G02*
X112173600Y-51853400I-135000J0D01*
G01*
G37*
G36*
G01*
X112173600Y-52873400D02*
X111803600Y-52873400D01*
G75*
G02*
X111668600Y-52738400I0J135000D01*
G01*
X111668600Y-52468400D01*
G75*
G02*
X111803600Y-52333400I135000J0D01*
G01*
X112173600Y-52333400D01*
G75*
G02*
X112308600Y-52468400I0J-135000D01*
G01*
X112308600Y-52738400D01*
G75*
G02*
X112173600Y-52873400I-135000J0D01*
G01*
G37*
%TD*%
%TO.C,R52*%
G36*
G01*
X79551500Y-40634500D02*
X79551500Y-40264500D01*
G75*
G02*
X79686500Y-40129500I135000J0D01*
G01*
X79956500Y-40129500D01*
G75*
G02*
X80091500Y-40264500I0J-135000D01*
G01*
X80091500Y-40634500D01*
G75*
G02*
X79956500Y-40769500I-135000J0D01*
G01*
X79686500Y-40769500D01*
G75*
G02*
X79551500Y-40634500I0J135000D01*
G01*
G37*
G36*
G01*
X78531500Y-40634500D02*
X78531500Y-40264500D01*
G75*
G02*
X78666500Y-40129500I135000J0D01*
G01*
X78936500Y-40129500D01*
G75*
G02*
X79071500Y-40264500I0J-135000D01*
G01*
X79071500Y-40634500D01*
G75*
G02*
X78936500Y-40769500I-135000J0D01*
G01*
X78666500Y-40769500D01*
G75*
G02*
X78531500Y-40634500I0J135000D01*
G01*
G37*
%TD*%
D16*
%TO.C,J2*%
X142070000Y-105260000D03*
X139530000Y-105260000D03*
X142070000Y-102720000D03*
X139530000Y-102720000D03*
X142070000Y-100180000D03*
X139530000Y-100180000D03*
X142070000Y-97640000D03*
X139530000Y-97640000D03*
X142070000Y-95100000D03*
X139530000Y-95100000D03*
X142070000Y-92560000D03*
X139530000Y-92560000D03*
X142070000Y-90020000D03*
X139530000Y-90020000D03*
X142070000Y-87480000D03*
X139530000Y-87480000D03*
X142070000Y-84940000D03*
X139530000Y-84940000D03*
X142070000Y-82400000D03*
X139530000Y-82400000D03*
X142070000Y-79860000D03*
X139530000Y-79860000D03*
X142070000Y-77320000D03*
X139530000Y-77320000D03*
X142070000Y-74780000D03*
X139530000Y-74780000D03*
X142070000Y-72240000D03*
X139530000Y-72240000D03*
X142070000Y-69700000D03*
X139530000Y-69700000D03*
X142070000Y-67160000D03*
X139530000Y-67160000D03*
X142070000Y-64620000D03*
X139530000Y-64620000D03*
X142070000Y-62080000D03*
X139530000Y-62080000D03*
X142070000Y-59540000D03*
X139530000Y-59540000D03*
X142070000Y-57000000D03*
X139530000Y-57000000D03*
X142070000Y-54460000D03*
X139530000Y-54460000D03*
X142070000Y-51920000D03*
X139530000Y-51920000D03*
X142070000Y-49380000D03*
X139530000Y-49380000D03*
X142070000Y-46840000D03*
D17*
X139530000Y-46840000D03*
%TD*%
D16*
%TO.C,J48*%
X100584000Y-54991000D03*
X100584000Y-57531000D03*
D17*
X100584000Y-60071000D03*
%TD*%
D16*
%TO.C,J47*%
X96901000Y-54991000D03*
X96901000Y-57531000D03*
D17*
X96901000Y-60071000D03*
%TD*%
D16*
%TO.C,J46*%
X93345000Y-54991000D03*
X93345000Y-57531000D03*
D17*
X93345000Y-60071000D03*
%TD*%
D16*
%TO.C,J45*%
X86360000Y-97282000D03*
X83820000Y-97282000D03*
D17*
X81280000Y-97282000D03*
%TD*%
D16*
%TO.C,J1*%
X75650000Y-105270000D03*
X73110000Y-105270000D03*
X75650000Y-102730000D03*
X73110000Y-102730000D03*
X75650000Y-100190000D03*
X73110000Y-100190000D03*
X75650000Y-97650000D03*
X73110000Y-97650000D03*
X75650000Y-95110000D03*
X73110000Y-95110000D03*
X75650000Y-92570000D03*
X73110000Y-92570000D03*
X75650000Y-90030000D03*
X73110000Y-90030000D03*
X75650000Y-87490000D03*
X73110000Y-87490000D03*
X75650000Y-84950000D03*
X73110000Y-84950000D03*
X75650000Y-82410000D03*
X73110000Y-82410000D03*
X75650000Y-79870000D03*
X73110000Y-79870000D03*
X75650000Y-77330000D03*
X73110000Y-77330000D03*
X75650000Y-74790000D03*
X73110000Y-74790000D03*
X75650000Y-72250000D03*
X73110000Y-72250000D03*
X75650000Y-69710000D03*
X73110000Y-69710000D03*
X75650000Y-67170000D03*
X73110000Y-67170000D03*
X75650000Y-64630000D03*
X73110000Y-64630000D03*
X75650000Y-62090000D03*
X73110000Y-62090000D03*
X75650000Y-59550000D03*
X73110000Y-59550000D03*
X75650000Y-57010000D03*
X73110000Y-57010000D03*
X75650000Y-54470000D03*
X73110000Y-54470000D03*
X75650000Y-51930000D03*
X73110000Y-51930000D03*
X75650000Y-49390000D03*
X73110000Y-49390000D03*
X75650000Y-46850000D03*
D17*
X73110000Y-46850000D03*
%TD*%
D18*
%TO.C,U1*%
X111125000Y-116713000D03*
X103505000Y-109093000D03*
X108585000Y-116713000D03*
X106045000Y-109093000D03*
X106045000Y-116713000D03*
X108585000Y-109093000D03*
X103505000Y-116713000D03*
D19*
X111125000Y-109093000D03*
%TD*%
D18*
%TO.C,A3*%
X164211000Y-48768000D03*
X146431000Y-36068000D03*
X161671000Y-48768000D03*
X148971000Y-36068000D03*
X159131000Y-48768000D03*
X151511000Y-36068000D03*
X156591000Y-48768000D03*
X154051000Y-36068000D03*
X154051000Y-48768000D03*
X156591000Y-36068000D03*
X151511000Y-48768000D03*
X159131000Y-36068000D03*
X148971000Y-48768000D03*
X161671000Y-36068000D03*
X146431000Y-48768000D03*
D19*
X164211000Y-36068000D03*
%TD*%
D18*
%TO.C,A1*%
X164211000Y-80518000D03*
X146431000Y-67818000D03*
X161671000Y-80518000D03*
X148971000Y-67818000D03*
X159131000Y-80518000D03*
X151511000Y-67818000D03*
X156591000Y-80518000D03*
X154051000Y-67818000D03*
X154051000Y-80518000D03*
X156591000Y-67818000D03*
X151511000Y-80518000D03*
X159131000Y-67818000D03*
X148971000Y-80518000D03*
X161671000Y-67818000D03*
X146431000Y-80518000D03*
D19*
X164211000Y-67818000D03*
%TD*%
D16*
%TO.C,J15*%
X167640000Y-62484000D03*
X167640000Y-59944000D03*
X167640000Y-57404000D03*
D17*
X167640000Y-54864000D03*
%TD*%
D20*
%TO.C,Q7*%
X146336000Y-61468000D03*
X148336000Y-60518000D03*
X148336000Y-62418000D03*
%TD*%
D21*
%TO.C,C4*%
X149977000Y-54483000D03*
D19*
X146177000Y-54483000D03*
%TD*%
D18*
%TO.C,A2*%
X164211000Y-64643000D03*
X146431000Y-51943000D03*
X161671000Y-64643000D03*
X148971000Y-51943000D03*
X159131000Y-64643000D03*
X151511000Y-51943000D03*
X156591000Y-64643000D03*
X154051000Y-51943000D03*
X154051000Y-64643000D03*
X156591000Y-51943000D03*
X151511000Y-64643000D03*
X159131000Y-51943000D03*
X148971000Y-64643000D03*
X161671000Y-51943000D03*
X146431000Y-64643000D03*
D19*
X164211000Y-51943000D03*
%TD*%
D16*
%TO.C,J40*%
X156083000Y-61341000D03*
X156083000Y-58801000D03*
X153543000Y-61341000D03*
X153543000Y-58801000D03*
X151003000Y-61341000D03*
D17*
X151003000Y-58801000D03*
%TD*%
D11*
%TO.C,J4*%
X79502000Y-84201000D03*
X82042000Y-84201000D03*
X84582000Y-84201000D03*
G36*
G01*
X87992000Y-83355999D02*
X87992000Y-85046001D01*
G75*
G02*
X87742001Y-85296000I-249999J0D01*
G01*
X86501999Y-85296000D01*
G75*
G02*
X86252000Y-85046001I0J249999D01*
G01*
X86252000Y-83355999D01*
G75*
G02*
X86501999Y-83106000I249999J0D01*
G01*
X87742001Y-83106000D01*
G75*
G02*
X87992000Y-83355999I0J-249999D01*
G01*
G37*
%TD*%
%TO.C,J5*%
X79375000Y-54229000D03*
X81915000Y-54229000D03*
X84455000Y-54229000D03*
G36*
G01*
X87865000Y-53383999D02*
X87865000Y-55074001D01*
G75*
G02*
X87615001Y-55324000I-249999J0D01*
G01*
X86374999Y-55324000D01*
G75*
G02*
X86125000Y-55074001I0J249999D01*
G01*
X86125000Y-53383999D01*
G75*
G02*
X86374999Y-53134000I249999J0D01*
G01*
X87615001Y-53134000D01*
G75*
G02*
X87865000Y-53383999I0J-249999D01*
G01*
G37*
%TD*%
D18*
%TO.C,A4*%
X164211000Y-96393000D03*
X146431000Y-83693000D03*
X161671000Y-96393000D03*
X148971000Y-83693000D03*
X159131000Y-96393000D03*
X151511000Y-83693000D03*
X156591000Y-96393000D03*
X154051000Y-83693000D03*
X154051000Y-96393000D03*
X156591000Y-83693000D03*
X151511000Y-96393000D03*
X159131000Y-83693000D03*
X148971000Y-96393000D03*
X161671000Y-83693000D03*
X146431000Y-96393000D03*
D19*
X164211000Y-83693000D03*
%TD*%
D16*
%TO.C,J44*%
X156464000Y-108839000D03*
X156464000Y-106299000D03*
X153924000Y-108839000D03*
X153924000Y-106299000D03*
X151384000Y-108839000D03*
D17*
X151384000Y-106299000D03*
%TD*%
D16*
%TO.C,J43*%
X156210000Y-93218000D03*
X156210000Y-90678000D03*
X153670000Y-93218000D03*
X153670000Y-90678000D03*
X151130000Y-93218000D03*
D17*
X151130000Y-90678000D03*
%TD*%
D16*
%TO.C,J42*%
X157607000Y-44958000D03*
X157607000Y-42418000D03*
X155067000Y-44958000D03*
X155067000Y-42418000D03*
X152527000Y-44958000D03*
D17*
X152527000Y-42418000D03*
%TD*%
D16*
%TO.C,J41*%
X156083000Y-77343000D03*
X156083000Y-74803000D03*
X153543000Y-77343000D03*
X153543000Y-74803000D03*
X151003000Y-77343000D03*
D17*
X151003000Y-74803000D03*
%TD*%
%TO.C,R21*%
G36*
G01*
X84651000Y-78347000D02*
X85021000Y-78347000D01*
G75*
G02*
X85156000Y-78482000I0J-135000D01*
G01*
X85156000Y-78752000D01*
G75*
G02*
X85021000Y-78887000I-135000J0D01*
G01*
X84651000Y-78887000D01*
G75*
G02*
X84516000Y-78752000I0J135000D01*
G01*
X84516000Y-78482000D01*
G75*
G02*
X84651000Y-78347000I135000J0D01*
G01*
G37*
G36*
G01*
X84651000Y-77327000D02*
X85021000Y-77327000D01*
G75*
G02*
X85156000Y-77462000I0J-135000D01*
G01*
X85156000Y-77732000D01*
G75*
G02*
X85021000Y-77867000I-135000J0D01*
G01*
X84651000Y-77867000D01*
G75*
G02*
X84516000Y-77732000I0J135000D01*
G01*
X84516000Y-77462000D01*
G75*
G02*
X84651000Y-77327000I135000J0D01*
G01*
G37*
%TD*%
%TO.C,R18*%
G36*
G01*
X92895000Y-69358000D02*
X92525000Y-69358000D01*
G75*
G02*
X92390000Y-69223000I0J135000D01*
G01*
X92390000Y-68953000D01*
G75*
G02*
X92525000Y-68818000I135000J0D01*
G01*
X92895000Y-68818000D01*
G75*
G02*
X93030000Y-68953000I0J-135000D01*
G01*
X93030000Y-69223000D01*
G75*
G02*
X92895000Y-69358000I-135000J0D01*
G01*
G37*
G36*
G01*
X92895000Y-70378000D02*
X92525000Y-70378000D01*
G75*
G02*
X92390000Y-70243000I0J135000D01*
G01*
X92390000Y-69973000D01*
G75*
G02*
X92525000Y-69838000I135000J0D01*
G01*
X92895000Y-69838000D01*
G75*
G02*
X93030000Y-69973000I0J-135000D01*
G01*
X93030000Y-70243000D01*
G75*
G02*
X92895000Y-70378000I-135000J0D01*
G01*
G37*
%TD*%
%TO.C,R16*%
G36*
G01*
X85021000Y-66386200D02*
X84651000Y-66386200D01*
G75*
G02*
X84516000Y-66251200I0J135000D01*
G01*
X84516000Y-65981200D01*
G75*
G02*
X84651000Y-65846200I135000J0D01*
G01*
X85021000Y-65846200D01*
G75*
G02*
X85156000Y-65981200I0J-135000D01*
G01*
X85156000Y-66251200D01*
G75*
G02*
X85021000Y-66386200I-135000J0D01*
G01*
G37*
G36*
G01*
X85021000Y-67406200D02*
X84651000Y-67406200D01*
G75*
G02*
X84516000Y-67271200I0J135000D01*
G01*
X84516000Y-67001200D01*
G75*
G02*
X84651000Y-66866200I135000J0D01*
G01*
X85021000Y-66866200D01*
G75*
G02*
X85156000Y-67001200I0J-135000D01*
G01*
X85156000Y-67271200D01*
G75*
G02*
X85021000Y-67406200I-135000J0D01*
G01*
G37*
%TD*%
%TO.C,R15*%
G36*
G01*
X127143000Y-112591000D02*
X127143000Y-112961000D01*
G75*
G02*
X127008000Y-113096000I-135000J0D01*
G01*
X126738000Y-113096000D01*
G75*
G02*
X126603000Y-112961000I0J135000D01*
G01*
X126603000Y-112591000D01*
G75*
G02*
X126738000Y-112456000I135000J0D01*
G01*
X127008000Y-112456000D01*
G75*
G02*
X127143000Y-112591000I0J-135000D01*
G01*
G37*
G36*
G01*
X128163000Y-112591000D02*
X128163000Y-112961000D01*
G75*
G02*
X128028000Y-113096000I-135000J0D01*
G01*
X127758000Y-113096000D01*
G75*
G02*
X127623000Y-112961000I0J135000D01*
G01*
X127623000Y-112591000D01*
G75*
G02*
X127758000Y-112456000I135000J0D01*
G01*
X128028000Y-112456000D01*
G75*
G02*
X128163000Y-112591000I0J-135000D01*
G01*
G37*
%TD*%
%TO.C,R14*%
G36*
G01*
X129171000Y-112591000D02*
X129171000Y-112961000D01*
G75*
G02*
X129036000Y-113096000I-135000J0D01*
G01*
X128766000Y-113096000D01*
G75*
G02*
X128631000Y-112961000I0J135000D01*
G01*
X128631000Y-112591000D01*
G75*
G02*
X128766000Y-112456000I135000J0D01*
G01*
X129036000Y-112456000D01*
G75*
G02*
X129171000Y-112591000I0J-135000D01*
G01*
G37*
G36*
G01*
X130191000Y-112591000D02*
X130191000Y-112961000D01*
G75*
G02*
X130056000Y-113096000I-135000J0D01*
G01*
X129786000Y-113096000D01*
G75*
G02*
X129651000Y-112961000I0J135000D01*
G01*
X129651000Y-112591000D01*
G75*
G02*
X129786000Y-112456000I135000J0D01*
G01*
X130056000Y-112456000D01*
G75*
G02*
X130191000Y-112591000I0J-135000D01*
G01*
G37*
%TD*%
%TO.C,R13*%
G36*
G01*
X105930000Y-112337000D02*
X105930000Y-112707000D01*
G75*
G02*
X105795000Y-112842000I-135000J0D01*
G01*
X105525000Y-112842000D01*
G75*
G02*
X105390000Y-112707000I0J135000D01*
G01*
X105390000Y-112337000D01*
G75*
G02*
X105525000Y-112202000I135000J0D01*
G01*
X105795000Y-112202000D01*
G75*
G02*
X105930000Y-112337000I0J-135000D01*
G01*
G37*
G36*
G01*
X106950000Y-112337000D02*
X106950000Y-112707000D01*
G75*
G02*
X106815000Y-112842000I-135000J0D01*
G01*
X106545000Y-112842000D01*
G75*
G02*
X106410000Y-112707000I0J135000D01*
G01*
X106410000Y-112337000D01*
G75*
G02*
X106545000Y-112202000I135000J0D01*
G01*
X106815000Y-112202000D01*
G75*
G02*
X106950000Y-112337000I0J-135000D01*
G01*
G37*
%TD*%
%TO.C,R12*%
G36*
G01*
X107962000Y-112337000D02*
X107962000Y-112707000D01*
G75*
G02*
X107827000Y-112842000I-135000J0D01*
G01*
X107557000Y-112842000D01*
G75*
G02*
X107422000Y-112707000I0J135000D01*
G01*
X107422000Y-112337000D01*
G75*
G02*
X107557000Y-112202000I135000J0D01*
G01*
X107827000Y-112202000D01*
G75*
G02*
X107962000Y-112337000I0J-135000D01*
G01*
G37*
G36*
G01*
X108982000Y-112337000D02*
X108982000Y-112707000D01*
G75*
G02*
X108847000Y-112842000I-135000J0D01*
G01*
X108577000Y-112842000D01*
G75*
G02*
X108442000Y-112707000I0J135000D01*
G01*
X108442000Y-112337000D01*
G75*
G02*
X108577000Y-112202000I135000J0D01*
G01*
X108847000Y-112202000D01*
G75*
G02*
X108982000Y-112337000I0J-135000D01*
G01*
G37*
%TD*%
%TO.C,R11*%
G36*
G01*
X93414000Y-79871000D02*
X93784000Y-79871000D01*
G75*
G02*
X93919000Y-80006000I0J-135000D01*
G01*
X93919000Y-80276000D01*
G75*
G02*
X93784000Y-80411000I-135000J0D01*
G01*
X93414000Y-80411000D01*
G75*
G02*
X93279000Y-80276000I0J135000D01*
G01*
X93279000Y-80006000D01*
G75*
G02*
X93414000Y-79871000I135000J0D01*
G01*
G37*
G36*
G01*
X93414000Y-78851000D02*
X93784000Y-78851000D01*
G75*
G02*
X93919000Y-78986000I0J-135000D01*
G01*
X93919000Y-79256000D01*
G75*
G02*
X93784000Y-79391000I-135000J0D01*
G01*
X93414000Y-79391000D01*
G75*
G02*
X93279000Y-79256000I0J135000D01*
G01*
X93279000Y-78986000D01*
G75*
G02*
X93414000Y-78851000I135000J0D01*
G01*
G37*
%TD*%
%TO.C,R10*%
G36*
G01*
X102346000Y-81211000D02*
X102346000Y-80841000D01*
G75*
G02*
X102481000Y-80706000I135000J0D01*
G01*
X102751000Y-80706000D01*
G75*
G02*
X102886000Y-80841000I0J-135000D01*
G01*
X102886000Y-81211000D01*
G75*
G02*
X102751000Y-81346000I-135000J0D01*
G01*
X102481000Y-81346000D01*
G75*
G02*
X102346000Y-81211000I0J135000D01*
G01*
G37*
G36*
G01*
X101326000Y-81211000D02*
X101326000Y-80841000D01*
G75*
G02*
X101461000Y-80706000I135000J0D01*
G01*
X101731000Y-80706000D01*
G75*
G02*
X101866000Y-80841000I0J-135000D01*
G01*
X101866000Y-81211000D01*
G75*
G02*
X101731000Y-81346000I-135000J0D01*
G01*
X101461000Y-81346000D01*
G75*
G02*
X101326000Y-81211000I0J135000D01*
G01*
G37*
%TD*%
%TO.C,R9*%
G36*
G01*
X93414000Y-76061000D02*
X93784000Y-76061000D01*
G75*
G02*
X93919000Y-76196000I0J-135000D01*
G01*
X93919000Y-76466000D01*
G75*
G02*
X93784000Y-76601000I-135000J0D01*
G01*
X93414000Y-76601000D01*
G75*
G02*
X93279000Y-76466000I0J135000D01*
G01*
X93279000Y-76196000D01*
G75*
G02*
X93414000Y-76061000I135000J0D01*
G01*
G37*
G36*
G01*
X93414000Y-75041000D02*
X93784000Y-75041000D01*
G75*
G02*
X93919000Y-75176000I0J-135000D01*
G01*
X93919000Y-75446000D01*
G75*
G02*
X93784000Y-75581000I-135000J0D01*
G01*
X93414000Y-75581000D01*
G75*
G02*
X93279000Y-75446000I0J135000D01*
G01*
X93279000Y-75176000D01*
G75*
G02*
X93414000Y-75041000I135000J0D01*
G01*
G37*
%TD*%
%TO.C,R8*%
G36*
G01*
X102350000Y-77401000D02*
X102350000Y-77031000D01*
G75*
G02*
X102485000Y-76896000I135000J0D01*
G01*
X102755000Y-76896000D01*
G75*
G02*
X102890000Y-77031000I0J-135000D01*
G01*
X102890000Y-77401000D01*
G75*
G02*
X102755000Y-77536000I-135000J0D01*
G01*
X102485000Y-77536000D01*
G75*
G02*
X102350000Y-77401000I0J135000D01*
G01*
G37*
G36*
G01*
X101330000Y-77401000D02*
X101330000Y-77031000D01*
G75*
G02*
X101465000Y-76896000I135000J0D01*
G01*
X101735000Y-76896000D01*
G75*
G02*
X101870000Y-77031000I0J-135000D01*
G01*
X101870000Y-77401000D01*
G75*
G02*
X101735000Y-77536000I-135000J0D01*
G01*
X101465000Y-77536000D01*
G75*
G02*
X101330000Y-77401000I0J135000D01*
G01*
G37*
%TD*%
%TO.C,R7*%
G36*
G01*
X93414000Y-72251000D02*
X93784000Y-72251000D01*
G75*
G02*
X93919000Y-72386000I0J-135000D01*
G01*
X93919000Y-72656000D01*
G75*
G02*
X93784000Y-72791000I-135000J0D01*
G01*
X93414000Y-72791000D01*
G75*
G02*
X93279000Y-72656000I0J135000D01*
G01*
X93279000Y-72386000D01*
G75*
G02*
X93414000Y-72251000I135000J0D01*
G01*
G37*
G36*
G01*
X93414000Y-71231000D02*
X93784000Y-71231000D01*
G75*
G02*
X93919000Y-71366000I0J-135000D01*
G01*
X93919000Y-71636000D01*
G75*
G02*
X93784000Y-71771000I-135000J0D01*
G01*
X93414000Y-71771000D01*
G75*
G02*
X93279000Y-71636000I0J135000D01*
G01*
X93279000Y-71366000D01*
G75*
G02*
X93414000Y-71231000I135000J0D01*
G01*
G37*
%TD*%
%TO.C,R6*%
G36*
G01*
X102346000Y-73591000D02*
X102346000Y-73221000D01*
G75*
G02*
X102481000Y-73086000I135000J0D01*
G01*
X102751000Y-73086000D01*
G75*
G02*
X102886000Y-73221000I0J-135000D01*
G01*
X102886000Y-73591000D01*
G75*
G02*
X102751000Y-73726000I-135000J0D01*
G01*
X102481000Y-73726000D01*
G75*
G02*
X102346000Y-73591000I0J135000D01*
G01*
G37*
G36*
G01*
X101326000Y-73591000D02*
X101326000Y-73221000D01*
G75*
G02*
X101461000Y-73086000I135000J0D01*
G01*
X101731000Y-73086000D01*
G75*
G02*
X101866000Y-73221000I0J-135000D01*
G01*
X101866000Y-73591000D01*
G75*
G02*
X101731000Y-73726000I-135000J0D01*
G01*
X101461000Y-73726000D01*
G75*
G02*
X101326000Y-73591000I0J135000D01*
G01*
G37*
%TD*%
%TO.C,R5*%
G36*
G01*
X85021000Y-75196000D02*
X84651000Y-75196000D01*
G75*
G02*
X84516000Y-75061000I0J135000D01*
G01*
X84516000Y-74791000D01*
G75*
G02*
X84651000Y-74656000I135000J0D01*
G01*
X85021000Y-74656000D01*
G75*
G02*
X85156000Y-74791000I0J-135000D01*
G01*
X85156000Y-75061000D01*
G75*
G02*
X85021000Y-75196000I-135000J0D01*
G01*
G37*
G36*
G01*
X85021000Y-76216000D02*
X84651000Y-76216000D01*
G75*
G02*
X84516000Y-76081000I0J135000D01*
G01*
X84516000Y-75811000D01*
G75*
G02*
X84651000Y-75676000I135000J0D01*
G01*
X85021000Y-75676000D01*
G75*
G02*
X85156000Y-75811000I0J-135000D01*
G01*
X85156000Y-76081000D01*
G75*
G02*
X85021000Y-76216000I-135000J0D01*
G01*
G37*
%TD*%
%TO.C,R4*%
G36*
G01*
X84975000Y-112591000D02*
X84975000Y-112961000D01*
G75*
G02*
X84840000Y-113096000I-135000J0D01*
G01*
X84570000Y-113096000D01*
G75*
G02*
X84435000Y-112961000I0J135000D01*
G01*
X84435000Y-112591000D01*
G75*
G02*
X84570000Y-112456000I135000J0D01*
G01*
X84840000Y-112456000D01*
G75*
G02*
X84975000Y-112591000I0J-135000D01*
G01*
G37*
G36*
G01*
X85995000Y-112591000D02*
X85995000Y-112961000D01*
G75*
G02*
X85860000Y-113096000I-135000J0D01*
G01*
X85590000Y-113096000D01*
G75*
G02*
X85455000Y-112961000I0J135000D01*
G01*
X85455000Y-112591000D01*
G75*
G02*
X85590000Y-112456000I135000J0D01*
G01*
X85860000Y-112456000D01*
G75*
G02*
X85995000Y-112591000I0J-135000D01*
G01*
G37*
%TD*%
%TO.C,R3*%
G36*
G01*
X87009000Y-112591000D02*
X87009000Y-112961000D01*
G75*
G02*
X86874000Y-113096000I-135000J0D01*
G01*
X86604000Y-113096000D01*
G75*
G02*
X86469000Y-112961000I0J135000D01*
G01*
X86469000Y-112591000D01*
G75*
G02*
X86604000Y-112456000I135000J0D01*
G01*
X86874000Y-112456000D01*
G75*
G02*
X87009000Y-112591000I0J-135000D01*
G01*
G37*
G36*
G01*
X88029000Y-112591000D02*
X88029000Y-112961000D01*
G75*
G02*
X87894000Y-113096000I-135000J0D01*
G01*
X87624000Y-113096000D01*
G75*
G02*
X87489000Y-112961000I0J135000D01*
G01*
X87489000Y-112591000D01*
G75*
G02*
X87624000Y-112456000I135000J0D01*
G01*
X87894000Y-112456000D01*
G75*
G02*
X88029000Y-112591000I0J-135000D01*
G01*
G37*
%TD*%
%TO.C,R1*%
G36*
G01*
X84651000Y-69834000D02*
X85021000Y-69834000D01*
G75*
G02*
X85156000Y-69969000I0J-135000D01*
G01*
X85156000Y-70239000D01*
G75*
G02*
X85021000Y-70374000I-135000J0D01*
G01*
X84651000Y-70374000D01*
G75*
G02*
X84516000Y-70239000I0J135000D01*
G01*
X84516000Y-69969000D01*
G75*
G02*
X84651000Y-69834000I135000J0D01*
G01*
G37*
G36*
G01*
X84651000Y-68814000D02*
X85021000Y-68814000D01*
G75*
G02*
X85156000Y-68949000I0J-135000D01*
G01*
X85156000Y-69219000D01*
G75*
G02*
X85021000Y-69354000I-135000J0D01*
G01*
X84651000Y-69354000D01*
G75*
G02*
X84516000Y-69219000I0J135000D01*
G01*
X84516000Y-68949000D01*
G75*
G02*
X84651000Y-68814000I135000J0D01*
G01*
G37*
%TD*%
%TO.C,R46*%
G36*
G01*
X116731200Y-92059000D02*
X117101200Y-92059000D01*
G75*
G02*
X117236200Y-92194000I0J-135000D01*
G01*
X117236200Y-92464000D01*
G75*
G02*
X117101200Y-92599000I-135000J0D01*
G01*
X116731200Y-92599000D01*
G75*
G02*
X116596200Y-92464000I0J135000D01*
G01*
X116596200Y-92194000D01*
G75*
G02*
X116731200Y-92059000I135000J0D01*
G01*
G37*
G36*
G01*
X116731200Y-91039000D02*
X117101200Y-91039000D01*
G75*
G02*
X117236200Y-91174000I0J-135000D01*
G01*
X117236200Y-91444000D01*
G75*
G02*
X117101200Y-91579000I-135000J0D01*
G01*
X116731200Y-91579000D01*
G75*
G02*
X116596200Y-91444000I0J135000D01*
G01*
X116596200Y-91174000D01*
G75*
G02*
X116731200Y-91039000I135000J0D01*
G01*
G37*
%TD*%
%TO.C,R45*%
G36*
G01*
X125773600Y-92063000D02*
X126143600Y-92063000D01*
G75*
G02*
X126278600Y-92198000I0J-135000D01*
G01*
X126278600Y-92468000D01*
G75*
G02*
X126143600Y-92603000I-135000J0D01*
G01*
X125773600Y-92603000D01*
G75*
G02*
X125638600Y-92468000I0J135000D01*
G01*
X125638600Y-92198000D01*
G75*
G02*
X125773600Y-92063000I135000J0D01*
G01*
G37*
G36*
G01*
X125773600Y-91043000D02*
X126143600Y-91043000D01*
G75*
G02*
X126278600Y-91178000I0J-135000D01*
G01*
X126278600Y-91448000D01*
G75*
G02*
X126143600Y-91583000I-135000J0D01*
G01*
X125773600Y-91583000D01*
G75*
G02*
X125638600Y-91448000I0J135000D01*
G01*
X125638600Y-91178000D01*
G75*
G02*
X125773600Y-91043000I135000J0D01*
G01*
G37*
%TD*%
%TO.C,R44*%
G36*
G01*
X134816000Y-92063000D02*
X135186000Y-92063000D01*
G75*
G02*
X135321000Y-92198000I0J-135000D01*
G01*
X135321000Y-92468000D01*
G75*
G02*
X135186000Y-92603000I-135000J0D01*
G01*
X134816000Y-92603000D01*
G75*
G02*
X134681000Y-92468000I0J135000D01*
G01*
X134681000Y-92198000D01*
G75*
G02*
X134816000Y-92063000I135000J0D01*
G01*
G37*
G36*
G01*
X134816000Y-91043000D02*
X135186000Y-91043000D01*
G75*
G02*
X135321000Y-91178000I0J-135000D01*
G01*
X135321000Y-91448000D01*
G75*
G02*
X135186000Y-91583000I-135000J0D01*
G01*
X134816000Y-91583000D01*
G75*
G02*
X134681000Y-91448000I0J135000D01*
G01*
X134681000Y-91178000D01*
G75*
G02*
X134816000Y-91043000I135000J0D01*
G01*
G37*
%TD*%
%TO.C,R43*%
G36*
G01*
X116731200Y-80273400D02*
X117101200Y-80273400D01*
G75*
G02*
X117236200Y-80408400I0J-135000D01*
G01*
X117236200Y-80678400D01*
G75*
G02*
X117101200Y-80813400I-135000J0D01*
G01*
X116731200Y-80813400D01*
G75*
G02*
X116596200Y-80678400I0J135000D01*
G01*
X116596200Y-80408400D01*
G75*
G02*
X116731200Y-80273400I135000J0D01*
G01*
G37*
G36*
G01*
X116731200Y-79253400D02*
X117101200Y-79253400D01*
G75*
G02*
X117236200Y-79388400I0J-135000D01*
G01*
X117236200Y-79658400D01*
G75*
G02*
X117101200Y-79793400I-135000J0D01*
G01*
X116731200Y-79793400D01*
G75*
G02*
X116596200Y-79658400I0J135000D01*
G01*
X116596200Y-79388400D01*
G75*
G02*
X116731200Y-79253400I135000J0D01*
G01*
G37*
%TD*%
%TO.C,R42*%
G36*
G01*
X117101200Y-89551000D02*
X116731200Y-89551000D01*
G75*
G02*
X116596200Y-89416000I0J135000D01*
G01*
X116596200Y-89146000D01*
G75*
G02*
X116731200Y-89011000I135000J0D01*
G01*
X117101200Y-89011000D01*
G75*
G02*
X117236200Y-89146000I0J-135000D01*
G01*
X117236200Y-89416000D01*
G75*
G02*
X117101200Y-89551000I-135000J0D01*
G01*
G37*
G36*
G01*
X117101200Y-90571000D02*
X116731200Y-90571000D01*
G75*
G02*
X116596200Y-90436000I0J135000D01*
G01*
X116596200Y-90166000D01*
G75*
G02*
X116731200Y-90031000I135000J0D01*
G01*
X117101200Y-90031000D01*
G75*
G02*
X117236200Y-90166000I0J-135000D01*
G01*
X117236200Y-90436000D01*
G75*
G02*
X117101200Y-90571000I-135000J0D01*
G01*
G37*
%TD*%
%TO.C,R41*%
G36*
G01*
X126143600Y-89551000D02*
X125773600Y-89551000D01*
G75*
G02*
X125638600Y-89416000I0J135000D01*
G01*
X125638600Y-89146000D01*
G75*
G02*
X125773600Y-89011000I135000J0D01*
G01*
X126143600Y-89011000D01*
G75*
G02*
X126278600Y-89146000I0J-135000D01*
G01*
X126278600Y-89416000D01*
G75*
G02*
X126143600Y-89551000I-135000J0D01*
G01*
G37*
G36*
G01*
X126143600Y-90571000D02*
X125773600Y-90571000D01*
G75*
G02*
X125638600Y-90436000I0J135000D01*
G01*
X125638600Y-90166000D01*
G75*
G02*
X125773600Y-90031000I135000J0D01*
G01*
X126143600Y-90031000D01*
G75*
G02*
X126278600Y-90166000I0J-135000D01*
G01*
X126278600Y-90436000D01*
G75*
G02*
X126143600Y-90571000I-135000J0D01*
G01*
G37*
%TD*%
%TO.C,R40*%
G36*
G01*
X135186000Y-89551000D02*
X134816000Y-89551000D01*
G75*
G02*
X134681000Y-89416000I0J135000D01*
G01*
X134681000Y-89146000D01*
G75*
G02*
X134816000Y-89011000I135000J0D01*
G01*
X135186000Y-89011000D01*
G75*
G02*
X135321000Y-89146000I0J-135000D01*
G01*
X135321000Y-89416000D01*
G75*
G02*
X135186000Y-89551000I-135000J0D01*
G01*
G37*
G36*
G01*
X135186000Y-90571000D02*
X134816000Y-90571000D01*
G75*
G02*
X134681000Y-90436000I0J135000D01*
G01*
X134681000Y-90166000D01*
G75*
G02*
X134816000Y-90031000I135000J0D01*
G01*
X135186000Y-90031000D01*
G75*
G02*
X135321000Y-90166000I0J-135000D01*
G01*
X135321000Y-90436000D01*
G75*
G02*
X135186000Y-90571000I-135000J0D01*
G01*
G37*
%TD*%
%TO.C,R39*%
G36*
G01*
X117101200Y-77714600D02*
X116731200Y-77714600D01*
G75*
G02*
X116596200Y-77579600I0J135000D01*
G01*
X116596200Y-77309600D01*
G75*
G02*
X116731200Y-77174600I135000J0D01*
G01*
X117101200Y-77174600D01*
G75*
G02*
X117236200Y-77309600I0J-135000D01*
G01*
X117236200Y-77579600D01*
G75*
G02*
X117101200Y-77714600I-135000J0D01*
G01*
G37*
G36*
G01*
X117101200Y-78734600D02*
X116731200Y-78734600D01*
G75*
G02*
X116596200Y-78599600I0J135000D01*
G01*
X116596200Y-78329600D01*
G75*
G02*
X116731200Y-78194600I135000J0D01*
G01*
X117101200Y-78194600D01*
G75*
G02*
X117236200Y-78329600I0J-135000D01*
G01*
X117236200Y-78599600D01*
G75*
G02*
X117101200Y-78734600I-135000J0D01*
G01*
G37*
%TD*%
%TO.C,R38*%
G36*
G01*
X125672000Y-80277400D02*
X126042000Y-80277400D01*
G75*
G02*
X126177000Y-80412400I0J-135000D01*
G01*
X126177000Y-80682400D01*
G75*
G02*
X126042000Y-80817400I-135000J0D01*
G01*
X125672000Y-80817400D01*
G75*
G02*
X125537000Y-80682400I0J135000D01*
G01*
X125537000Y-80412400D01*
G75*
G02*
X125672000Y-80277400I135000J0D01*
G01*
G37*
G36*
G01*
X125672000Y-79257400D02*
X126042000Y-79257400D01*
G75*
G02*
X126177000Y-79392400I0J-135000D01*
G01*
X126177000Y-79662400D01*
G75*
G02*
X126042000Y-79797400I-135000J0D01*
G01*
X125672000Y-79797400D01*
G75*
G02*
X125537000Y-79662400I0J135000D01*
G01*
X125537000Y-79392400D01*
G75*
G02*
X125672000Y-79257400I135000J0D01*
G01*
G37*
%TD*%
%TO.C,R37*%
G36*
G01*
X134816000Y-80328200D02*
X135186000Y-80328200D01*
G75*
G02*
X135321000Y-80463200I0J-135000D01*
G01*
X135321000Y-80733200D01*
G75*
G02*
X135186000Y-80868200I-135000J0D01*
G01*
X134816000Y-80868200D01*
G75*
G02*
X134681000Y-80733200I0J135000D01*
G01*
X134681000Y-80463200D01*
G75*
G02*
X134816000Y-80328200I135000J0D01*
G01*
G37*
G36*
G01*
X134816000Y-79308200D02*
X135186000Y-79308200D01*
G75*
G02*
X135321000Y-79443200I0J-135000D01*
G01*
X135321000Y-79713200D01*
G75*
G02*
X135186000Y-79848200I-135000J0D01*
G01*
X134816000Y-79848200D01*
G75*
G02*
X134681000Y-79713200I0J135000D01*
G01*
X134681000Y-79443200D01*
G75*
G02*
X134816000Y-79308200I135000J0D01*
G01*
G37*
%TD*%
%TO.C,R36*%
G36*
G01*
X116629600Y-68589400D02*
X116999600Y-68589400D01*
G75*
G02*
X117134600Y-68724400I0J-135000D01*
G01*
X117134600Y-68994400D01*
G75*
G02*
X116999600Y-69129400I-135000J0D01*
G01*
X116629600Y-69129400D01*
G75*
G02*
X116494600Y-68994400I0J135000D01*
G01*
X116494600Y-68724400D01*
G75*
G02*
X116629600Y-68589400I135000J0D01*
G01*
G37*
G36*
G01*
X116629600Y-67569400D02*
X116999600Y-67569400D01*
G75*
G02*
X117134600Y-67704400I0J-135000D01*
G01*
X117134600Y-67974400D01*
G75*
G02*
X116999600Y-68109400I-135000J0D01*
G01*
X116629600Y-68109400D01*
G75*
G02*
X116494600Y-67974400I0J135000D01*
G01*
X116494600Y-67704400D01*
G75*
G02*
X116629600Y-67569400I135000J0D01*
G01*
G37*
%TD*%
%TO.C,R35*%
G36*
G01*
X125672000Y-68593400D02*
X126042000Y-68593400D01*
G75*
G02*
X126177000Y-68728400I0J-135000D01*
G01*
X126177000Y-68998400D01*
G75*
G02*
X126042000Y-69133400I-135000J0D01*
G01*
X125672000Y-69133400D01*
G75*
G02*
X125537000Y-68998400I0J135000D01*
G01*
X125537000Y-68728400D01*
G75*
G02*
X125672000Y-68593400I135000J0D01*
G01*
G37*
G36*
G01*
X125672000Y-67573400D02*
X126042000Y-67573400D01*
G75*
G02*
X126177000Y-67708400I0J-135000D01*
G01*
X126177000Y-67978400D01*
G75*
G02*
X126042000Y-68113400I-135000J0D01*
G01*
X125672000Y-68113400D01*
G75*
G02*
X125537000Y-67978400I0J135000D01*
G01*
X125537000Y-67708400D01*
G75*
G02*
X125672000Y-67573400I135000J0D01*
G01*
G37*
%TD*%
%TO.C,R34*%
G36*
G01*
X126042000Y-77663800D02*
X125672000Y-77663800D01*
G75*
G02*
X125537000Y-77528800I0J135000D01*
G01*
X125537000Y-77258800D01*
G75*
G02*
X125672000Y-77123800I135000J0D01*
G01*
X126042000Y-77123800D01*
G75*
G02*
X126177000Y-77258800I0J-135000D01*
G01*
X126177000Y-77528800D01*
G75*
G02*
X126042000Y-77663800I-135000J0D01*
G01*
G37*
G36*
G01*
X126042000Y-78683800D02*
X125672000Y-78683800D01*
G75*
G02*
X125537000Y-78548800I0J135000D01*
G01*
X125537000Y-78278800D01*
G75*
G02*
X125672000Y-78143800I135000J0D01*
G01*
X126042000Y-78143800D01*
G75*
G02*
X126177000Y-78278800I0J-135000D01*
G01*
X126177000Y-78548800D01*
G75*
G02*
X126042000Y-78683800I-135000J0D01*
G01*
G37*
%TD*%
%TO.C,R33*%
G36*
G01*
X135186000Y-77761400D02*
X134816000Y-77761400D01*
G75*
G02*
X134681000Y-77626400I0J135000D01*
G01*
X134681000Y-77356400D01*
G75*
G02*
X134816000Y-77221400I135000J0D01*
G01*
X135186000Y-77221400D01*
G75*
G02*
X135321000Y-77356400I0J-135000D01*
G01*
X135321000Y-77626400D01*
G75*
G02*
X135186000Y-77761400I-135000J0D01*
G01*
G37*
G36*
G01*
X135186000Y-78781400D02*
X134816000Y-78781400D01*
G75*
G02*
X134681000Y-78646400I0J135000D01*
G01*
X134681000Y-78376400D01*
G75*
G02*
X134816000Y-78241400I135000J0D01*
G01*
X135186000Y-78241400D01*
G75*
G02*
X135321000Y-78376400I0J-135000D01*
G01*
X135321000Y-78646400D01*
G75*
G02*
X135186000Y-78781400I-135000J0D01*
G01*
G37*
%TD*%
%TO.C,R32*%
G36*
G01*
X116999600Y-66081400D02*
X116629600Y-66081400D01*
G75*
G02*
X116494600Y-65946400I0J135000D01*
G01*
X116494600Y-65676400D01*
G75*
G02*
X116629600Y-65541400I135000J0D01*
G01*
X116999600Y-65541400D01*
G75*
G02*
X117134600Y-65676400I0J-135000D01*
G01*
X117134600Y-65946400D01*
G75*
G02*
X116999600Y-66081400I-135000J0D01*
G01*
G37*
G36*
G01*
X116999600Y-67101400D02*
X116629600Y-67101400D01*
G75*
G02*
X116494600Y-66966400I0J135000D01*
G01*
X116494600Y-66696400D01*
G75*
G02*
X116629600Y-66561400I135000J0D01*
G01*
X116999600Y-66561400D01*
G75*
G02*
X117134600Y-66696400I0J-135000D01*
G01*
X117134600Y-66966400D01*
G75*
G02*
X116999600Y-67101400I-135000J0D01*
G01*
G37*
%TD*%
%TO.C,R31*%
G36*
G01*
X126042000Y-66077400D02*
X125672000Y-66077400D01*
G75*
G02*
X125537000Y-65942400I0J135000D01*
G01*
X125537000Y-65672400D01*
G75*
G02*
X125672000Y-65537400I135000J0D01*
G01*
X126042000Y-65537400D01*
G75*
G02*
X126177000Y-65672400I0J-135000D01*
G01*
X126177000Y-65942400D01*
G75*
G02*
X126042000Y-66077400I-135000J0D01*
G01*
G37*
G36*
G01*
X126042000Y-67097400D02*
X125672000Y-67097400D01*
G75*
G02*
X125537000Y-66962400I0J135000D01*
G01*
X125537000Y-66692400D01*
G75*
G02*
X125672000Y-66557400I135000J0D01*
G01*
X126042000Y-66557400D01*
G75*
G02*
X126177000Y-66692400I0J-135000D01*
G01*
X126177000Y-66962400D01*
G75*
G02*
X126042000Y-67097400I-135000J0D01*
G01*
G37*
%TD*%
%TO.C,R30*%
G36*
G01*
X134714400Y-68589400D02*
X135084400Y-68589400D01*
G75*
G02*
X135219400Y-68724400I0J-135000D01*
G01*
X135219400Y-68994400D01*
G75*
G02*
X135084400Y-69129400I-135000J0D01*
G01*
X134714400Y-69129400D01*
G75*
G02*
X134579400Y-68994400I0J135000D01*
G01*
X134579400Y-68724400D01*
G75*
G02*
X134714400Y-68589400I135000J0D01*
G01*
G37*
G36*
G01*
X134714400Y-67569400D02*
X135084400Y-67569400D01*
G75*
G02*
X135219400Y-67704400I0J-135000D01*
G01*
X135219400Y-67974400D01*
G75*
G02*
X135084400Y-68109400I-135000J0D01*
G01*
X134714400Y-68109400D01*
G75*
G02*
X134579400Y-67974400I0J135000D01*
G01*
X134579400Y-67704400D01*
G75*
G02*
X134714400Y-67569400I135000J0D01*
G01*
G37*
%TD*%
%TO.C,R29*%
G36*
G01*
X134765200Y-59906600D02*
X135135200Y-59906600D01*
G75*
G02*
X135270200Y-60041600I0J-135000D01*
G01*
X135270200Y-60311600D01*
G75*
G02*
X135135200Y-60446600I-135000J0D01*
G01*
X134765200Y-60446600D01*
G75*
G02*
X134630200Y-60311600I0J135000D01*
G01*
X134630200Y-60041600D01*
G75*
G02*
X134765200Y-59906600I135000J0D01*
G01*
G37*
G36*
G01*
X134765200Y-58886600D02*
X135135200Y-58886600D01*
G75*
G02*
X135270200Y-59021600I0J-135000D01*
G01*
X135270200Y-59291600D01*
G75*
G02*
X135135200Y-59426600I-135000J0D01*
G01*
X134765200Y-59426600D01*
G75*
G02*
X134630200Y-59291600I0J135000D01*
G01*
X134630200Y-59021600D01*
G75*
G02*
X134765200Y-58886600I135000J0D01*
G01*
G37*
%TD*%
%TO.C,R26*%
G36*
G01*
X135084400Y-66081400D02*
X134714400Y-66081400D01*
G75*
G02*
X134579400Y-65946400I0J135000D01*
G01*
X134579400Y-65676400D01*
G75*
G02*
X134714400Y-65541400I135000J0D01*
G01*
X135084400Y-65541400D01*
G75*
G02*
X135219400Y-65676400I0J-135000D01*
G01*
X135219400Y-65946400D01*
G75*
G02*
X135084400Y-66081400I-135000J0D01*
G01*
G37*
G36*
G01*
X135084400Y-67101400D02*
X134714400Y-67101400D01*
G75*
G02*
X134579400Y-66966400I0J135000D01*
G01*
X134579400Y-66696400D01*
G75*
G02*
X134714400Y-66561400I135000J0D01*
G01*
X135084400Y-66561400D01*
G75*
G02*
X135219400Y-66696400I0J-135000D01*
G01*
X135219400Y-66966400D01*
G75*
G02*
X135084400Y-67101400I-135000J0D01*
G01*
G37*
%TD*%
%TO.C,R25*%
G36*
G01*
X135135200Y-57343800D02*
X134765200Y-57343800D01*
G75*
G02*
X134630200Y-57208800I0J135000D01*
G01*
X134630200Y-56938800D01*
G75*
G02*
X134765200Y-56803800I135000J0D01*
G01*
X135135200Y-56803800D01*
G75*
G02*
X135270200Y-56938800I0J-135000D01*
G01*
X135270200Y-57208800D01*
G75*
G02*
X135135200Y-57343800I-135000J0D01*
G01*
G37*
G36*
G01*
X135135200Y-58363800D02*
X134765200Y-58363800D01*
G75*
G02*
X134630200Y-58228800I0J135000D01*
G01*
X134630200Y-57958800D01*
G75*
G02*
X134765200Y-57823800I135000J0D01*
G01*
X135135200Y-57823800D01*
G75*
G02*
X135270200Y-57958800I0J-135000D01*
G01*
X135270200Y-58228800D01*
G75*
G02*
X135135200Y-58363800I-135000J0D01*
G01*
G37*
%TD*%
D16*
%TO.C,J12*%
X105156000Y-105156000D03*
X105156000Y-102616000D03*
X105156000Y-100076000D03*
D17*
X105156000Y-97536000D03*
%TD*%
D16*
%TO.C,J39*%
X135636000Y-105156000D03*
X135636000Y-102616000D03*
X135636000Y-100076000D03*
D17*
X135636000Y-97536000D03*
%TD*%
%TO.C,J38*%
X130556000Y-97536000D03*
D16*
X130556000Y-100076000D03*
X130556000Y-102616000D03*
X130556000Y-105156000D03*
%TD*%
%TO.C,J37*%
X125476000Y-105156000D03*
X125476000Y-102616000D03*
X125476000Y-100076000D03*
D17*
X125476000Y-97536000D03*
%TD*%
D16*
%TO.C,J36*%
X120396000Y-105156000D03*
X120396000Y-102616000D03*
X120396000Y-100076000D03*
D17*
X120396000Y-97536000D03*
%TD*%
D16*
%TO.C,J35*%
X115316000Y-105156000D03*
X115316000Y-102616000D03*
X115316000Y-100076000D03*
D17*
X115316000Y-97536000D03*
%TD*%
D16*
%TO.C,J34*%
X110236000Y-105156000D03*
X110236000Y-102616000D03*
X110236000Y-100076000D03*
D17*
X110236000Y-97536000D03*
%TD*%
D22*
%TO.C,J33*%
X114173000Y-128778000D03*
X109093000Y-128778000D03*
X104013000Y-128778000D03*
X98933000Y-128778000D03*
X93853000Y-128778000D03*
X88773000Y-128778000D03*
X83693000Y-128778000D03*
D23*
X78613000Y-128778000D03*
%TD*%
D22*
%TO.C,J32*%
X154813000Y-128778000D03*
X149733000Y-128778000D03*
X144653000Y-128778000D03*
X139573000Y-128778000D03*
X134493000Y-128778000D03*
X129413000Y-128778000D03*
X124333000Y-128778000D03*
D23*
X119253000Y-128778000D03*
%TD*%
D22*
%TO.C,J31*%
X100838000Y-38608000D03*
X105918000Y-38608000D03*
X110998000Y-38608000D03*
D23*
X116078000Y-38608000D03*
%TD*%
D24*
%TO.C,R2*%
X80391000Y-65064000D03*
G36*
G01*
X81141000Y-68414000D02*
X79641000Y-68414000D01*
G75*
G02*
X79391000Y-68164000I0J250000D01*
G01*
X79391000Y-66964000D01*
G75*
G02*
X79641000Y-66714000I250000J0D01*
G01*
X81141000Y-66714000D01*
G75*
G02*
X81391000Y-66964000I0J-250000D01*
G01*
X81391000Y-68164000D01*
G75*
G02*
X81141000Y-68414000I-250000J0D01*
G01*
G37*
%TD*%
%TO.C,R22*%
X88265000Y-73573000D03*
G36*
G01*
X89015000Y-76923000D02*
X87515000Y-76923000D01*
G75*
G02*
X87265000Y-76673000I0J250000D01*
G01*
X87265000Y-75473000D01*
G75*
G02*
X87515000Y-75223000I250000J0D01*
G01*
X89015000Y-75223000D01*
G75*
G02*
X89265000Y-75473000I0J-250000D01*
G01*
X89265000Y-76673000D01*
G75*
G02*
X89015000Y-76923000I-250000J0D01*
G01*
G37*
%TD*%
%TO.C,R20*%
X80391000Y-73573000D03*
G36*
G01*
X81141000Y-76923000D02*
X79641000Y-76923000D01*
G75*
G02*
X79391000Y-76673000I0J250000D01*
G01*
X79391000Y-75473000D01*
G75*
G02*
X79641000Y-75223000I250000J0D01*
G01*
X81141000Y-75223000D01*
G75*
G02*
X81391000Y-75473000I0J-250000D01*
G01*
X81391000Y-76673000D01*
G75*
G02*
X81141000Y-76923000I-250000J0D01*
G01*
G37*
%TD*%
%TO.C,R19*%
X96139000Y-65064000D03*
G36*
G01*
X96889000Y-68414000D02*
X95389000Y-68414000D01*
G75*
G02*
X95139000Y-68164000I0J250000D01*
G01*
X95139000Y-66964000D01*
G75*
G02*
X95389000Y-66714000I250000J0D01*
G01*
X96889000Y-66714000D01*
G75*
G02*
X97139000Y-66964000I0J-250000D01*
G01*
X97139000Y-68164000D01*
G75*
G02*
X96889000Y-68414000I-250000J0D01*
G01*
G37*
%TD*%
%TO.C,R17*%
X88265000Y-65064000D03*
G36*
G01*
X89015000Y-68414000D02*
X87515000Y-68414000D01*
G75*
G02*
X87265000Y-68164000I0J250000D01*
G01*
X87265000Y-66964000D01*
G75*
G02*
X87515000Y-66714000I250000J0D01*
G01*
X89015000Y-66714000D01*
G75*
G02*
X89265000Y-66964000I0J-250000D01*
G01*
X89265000Y-68164000D01*
G75*
G02*
X89015000Y-68414000I-250000J0D01*
G01*
G37*
%TD*%
D18*
%TO.C,U3*%
X89916000Y-116713000D03*
X82296000Y-109093000D03*
X87376000Y-116713000D03*
X84836000Y-109093000D03*
X84836000Y-116713000D03*
X87376000Y-109093000D03*
X82296000Y-116713000D03*
D19*
X89916000Y-109093000D03*
%TD*%
D18*
%TO.C,U2*%
X132334000Y-116713000D03*
X124714000Y-109093000D03*
X129794000Y-116713000D03*
X127254000Y-109093000D03*
X127254000Y-116713000D03*
X129794000Y-109093000D03*
X124714000Y-116713000D03*
D19*
X132334000Y-109093000D03*
%TD*%
D20*
%TO.C,Q23*%
X145923000Y-108839000D03*
X147923000Y-107889000D03*
X147923000Y-109789000D03*
%TD*%
%TO.C,Q18*%
X146590000Y-93157000D03*
X148590000Y-92207000D03*
X148590000Y-94107000D03*
%TD*%
D25*
%TO.C,Q17*%
X147132000Y-44482000D03*
X148082000Y-46482000D03*
X146182000Y-46482000D03*
%TD*%
D20*
%TO.C,Q8*%
X146463000Y-77404000D03*
X148463000Y-76454000D03*
X148463000Y-78354000D03*
%TD*%
D26*
%TO.C,Q6*%
X88773000Y-119507000D03*
X91313000Y-119507000D03*
D27*
X93853000Y-119507000D03*
%TD*%
D26*
%TO.C,Q5*%
X78105000Y-119507000D03*
X80645000Y-119507000D03*
D27*
X83185000Y-119507000D03*
%TD*%
D26*
%TO.C,Q4*%
X131445000Y-119507000D03*
X133985000Y-119507000D03*
D27*
X136525000Y-119507000D03*
%TD*%
D26*
%TO.C,Q3*%
X120777000Y-119507000D03*
X123317000Y-119507000D03*
D27*
X125857000Y-119507000D03*
%TD*%
D26*
%TO.C,Q2*%
X110109000Y-119507000D03*
X112649000Y-119507000D03*
D27*
X115189000Y-119507000D03*
%TD*%
D26*
%TO.C,Q1*%
X99441000Y-119507000D03*
X101981000Y-119507000D03*
D27*
X104521000Y-119507000D03*
%TD*%
D16*
%TO.C,J30*%
X167894000Y-109982000D03*
X167894000Y-107442000D03*
X167894000Y-104902000D03*
D17*
X167894000Y-102362000D03*
%TD*%
D16*
%TO.C,J25*%
X98552000Y-80137000D03*
D17*
X96012000Y-80137000D03*
%TD*%
D16*
%TO.C,J24*%
X98552000Y-76327000D03*
D17*
X96012000Y-76327000D03*
%TD*%
D16*
%TO.C,J23*%
X98552000Y-72517000D03*
D17*
X96012000Y-72517000D03*
%TD*%
D16*
%TO.C,J22*%
X168275000Y-94488000D03*
X168275000Y-91948000D03*
X168275000Y-89408000D03*
D17*
X168275000Y-86868000D03*
%TD*%
D16*
%TO.C,J21*%
X167640000Y-46609000D03*
X167640000Y-44069000D03*
X167640000Y-41529000D03*
D17*
X167640000Y-38989000D03*
%TD*%
D16*
%TO.C,J16*%
X167894000Y-78359000D03*
X167894000Y-75819000D03*
X167894000Y-73279000D03*
D17*
X167894000Y-70739000D03*
%TD*%
D16*
%TO.C,J14*%
X105473500Y-46291500D03*
X102933500Y-46291500D03*
X100393500Y-46291500D03*
X97853500Y-46291500D03*
D17*
X95313500Y-46291500D03*
%TD*%
D16*
%TO.C,J11*%
X93980000Y-50800000D03*
X96520000Y-50800000D03*
D17*
X99060000Y-50800000D03*
%TD*%
D16*
%TO.C,J7*%
X88260000Y-46360000D03*
X88260000Y-48900000D03*
X85720000Y-46360000D03*
X85720000Y-48900000D03*
X83180000Y-46360000D03*
X83180000Y-48900000D03*
X80640000Y-46360000D03*
D17*
X80640000Y-48900000D03*
%TD*%
D11*
%TO.C,J6*%
X79375000Y-103632000D03*
X81915000Y-103632000D03*
X84455000Y-103632000D03*
G36*
G01*
X87865000Y-102786999D02*
X87865000Y-104477001D01*
G75*
G02*
X87615001Y-104727000I-249999J0D01*
G01*
X86374999Y-104727000D01*
G75*
G02*
X86125000Y-104477001I0J249999D01*
G01*
X86125000Y-102786999D01*
G75*
G02*
X86374999Y-102537000I249999J0D01*
G01*
X87615001Y-102537000D01*
G75*
G02*
X87865000Y-102786999I0J-249999D01*
G01*
G37*
%TD*%
%TO.C,J3*%
X92202000Y-91440000D03*
X89662000Y-91440000D03*
X87122000Y-91440000D03*
X84582000Y-91440000D03*
X82042000Y-91440000D03*
G36*
G01*
X78632000Y-92285001D02*
X78632000Y-90594999D01*
G75*
G02*
X78881999Y-90345000I249999J0D01*
G01*
X80122001Y-90345000D01*
G75*
G02*
X80372000Y-90594999I0J-249999D01*
G01*
X80372000Y-92285001D01*
G75*
G02*
X80122001Y-92535000I-249999J0D01*
G01*
X78881999Y-92535000D01*
G75*
G02*
X78632000Y-92285001I0J249999D01*
G01*
G37*
%TD*%
%TO.C,D3*%
G36*
G01*
X101736500Y-79045750D02*
X101736500Y-79958250D01*
G75*
G02*
X101492750Y-80202000I-243750J0D01*
G01*
X101005250Y-80202000D01*
G75*
G02*
X100761500Y-79958250I0J243750D01*
G01*
X100761500Y-79045750D01*
G75*
G02*
X101005250Y-78802000I243750J0D01*
G01*
X101492750Y-78802000D01*
G75*
G02*
X101736500Y-79045750I0J-243750D01*
G01*
G37*
G36*
G01*
X103611500Y-79045750D02*
X103611500Y-79958250D01*
G75*
G02*
X103367750Y-80202000I-243750J0D01*
G01*
X102880250Y-80202000D01*
G75*
G02*
X102636500Y-79958250I0J243750D01*
G01*
X102636500Y-79045750D01*
G75*
G02*
X102880250Y-78802000I243750J0D01*
G01*
X103367750Y-78802000D01*
G75*
G02*
X103611500Y-79045750I0J-243750D01*
G01*
G37*
%TD*%
%TO.C,D2*%
G36*
G01*
X101609500Y-75235750D02*
X101609500Y-76148250D01*
G75*
G02*
X101365750Y-76392000I-243750J0D01*
G01*
X100878250Y-76392000D01*
G75*
G02*
X100634500Y-76148250I0J243750D01*
G01*
X100634500Y-75235750D01*
G75*
G02*
X100878250Y-74992000I243750J0D01*
G01*
X101365750Y-74992000D01*
G75*
G02*
X101609500Y-75235750I0J-243750D01*
G01*
G37*
G36*
G01*
X103484500Y-75235750D02*
X103484500Y-76148250D01*
G75*
G02*
X103240750Y-76392000I-243750J0D01*
G01*
X102753250Y-76392000D01*
G75*
G02*
X102509500Y-76148250I0J243750D01*
G01*
X102509500Y-75235750D01*
G75*
G02*
X102753250Y-74992000I243750J0D01*
G01*
X103240750Y-74992000D01*
G75*
G02*
X103484500Y-75235750I0J-243750D01*
G01*
G37*
%TD*%
%TO.C,D1*%
G36*
G01*
X101609500Y-71425750D02*
X101609500Y-72338250D01*
G75*
G02*
X101365750Y-72582000I-243750J0D01*
G01*
X100878250Y-72582000D01*
G75*
G02*
X100634500Y-72338250I0J243750D01*
G01*
X100634500Y-71425750D01*
G75*
G02*
X100878250Y-71182000I243750J0D01*
G01*
X101365750Y-71182000D01*
G75*
G02*
X101609500Y-71425750I0J-243750D01*
G01*
G37*
G36*
G01*
X103484500Y-71425750D02*
X103484500Y-72338250D01*
G75*
G02*
X103240750Y-72582000I-243750J0D01*
G01*
X102753250Y-72582000D01*
G75*
G02*
X102509500Y-72338250I0J243750D01*
G01*
X102509500Y-71425750D01*
G75*
G02*
X102753250Y-71182000I243750J0D01*
G01*
X103240750Y-71182000D01*
G75*
G02*
X103484500Y-71425750I0J-243750D01*
G01*
G37*
%TD*%
D21*
%TO.C,C5*%
X150104000Y-70358000D03*
D19*
X146304000Y-70358000D03*
%TD*%
D21*
%TO.C,C3*%
X150114000Y-102108000D03*
D19*
X146314000Y-102108000D03*
%TD*%
D21*
%TO.C,C2*%
X150114000Y-86233000D03*
D19*
X146314000Y-86233000D03*
%TD*%
D21*
%TO.C,C1*%
X150104000Y-38481000D03*
D19*
X146304000Y-38481000D03*
%TD*%
D18*
%TO.C,A5*%
X164211000Y-112268000D03*
X146431000Y-99568000D03*
X161671000Y-112268000D03*
X148971000Y-99568000D03*
X159131000Y-112268000D03*
X151511000Y-99568000D03*
X156591000Y-112268000D03*
X154051000Y-99568000D03*
X154051000Y-112268000D03*
X156591000Y-99568000D03*
X151511000Y-112268000D03*
X159131000Y-99568000D03*
X148971000Y-112268000D03*
X161671000Y-99568000D03*
X146431000Y-112268000D03*
D19*
X164211000Y-99568000D03*
%TD*%
M02*
