%TF.GenerationSoftware,KiCad,Pcbnew,(5.1.10)-1*%
%TF.CreationDate,2021-08-20T00:09:58-04:00*%
%TF.ProjectId,Back_F407_expansion_board,4261636b-5f46-4343-9037-5f657870616e,rev?*%
%TF.SameCoordinates,Original*%
%TF.FileFunction,Paste,Bot*%
%TF.FilePolarity,Positive*%
%FSLAX46Y46*%
G04 Gerber Fmt 4.6, Leading zero omitted, Abs format (unit mm)*
G04 Created by KiCad (PCBNEW (5.1.10)-1) date 2021-08-20 00:09:58*
%MOMM*%
%LPD*%
G01*
G04 APERTURE LIST*
%ADD10R,0.900000X1.200000*%
G04 APERTURE END LIST*
%TO.C,D19*%
G36*
G01*
X87729900Y-124043600D02*
X87729900Y-122793600D01*
G75*
G02*
X87979900Y-122543600I250000J0D01*
G01*
X88729900Y-122543600D01*
G75*
G02*
X88979900Y-122793600I0J-250000D01*
G01*
X88979900Y-124043600D01*
G75*
G02*
X88729900Y-124293600I-250000J0D01*
G01*
X87979900Y-124293600D01*
G75*
G02*
X87729900Y-124043600I0J250000D01*
G01*
G37*
G36*
G01*
X84929900Y-124043600D02*
X84929900Y-122793600D01*
G75*
G02*
X85179900Y-122543600I250000J0D01*
G01*
X85929900Y-122543600D01*
G75*
G02*
X86179900Y-122793600I0J-250000D01*
G01*
X86179900Y-124043600D01*
G75*
G02*
X85929900Y-124293600I-250000J0D01*
G01*
X85179900Y-124293600D01*
G75*
G02*
X84929900Y-124043600I0J250000D01*
G01*
G37*
%TD*%
%TO.C,D17*%
G36*
G01*
X98093100Y-123738800D02*
X98093100Y-122488800D01*
G75*
G02*
X98343100Y-122238800I250000J0D01*
G01*
X99093100Y-122238800D01*
G75*
G02*
X99343100Y-122488800I0J-250000D01*
G01*
X99343100Y-123738800D01*
G75*
G02*
X99093100Y-123988800I-250000J0D01*
G01*
X98343100Y-123988800D01*
G75*
G02*
X98093100Y-123738800I0J250000D01*
G01*
G37*
G36*
G01*
X95293100Y-123738800D02*
X95293100Y-122488800D01*
G75*
G02*
X95543100Y-122238800I250000J0D01*
G01*
X96293100Y-122238800D01*
G75*
G02*
X96543100Y-122488800I0J-250000D01*
G01*
X96543100Y-123738800D01*
G75*
G02*
X96293100Y-123988800I-250000J0D01*
G01*
X95543100Y-123988800D01*
G75*
G02*
X95293100Y-123738800I0J250000D01*
G01*
G37*
%TD*%
%TO.C,D15*%
G36*
G01*
X108507100Y-123637200D02*
X108507100Y-122387200D01*
G75*
G02*
X108757100Y-122137200I250000J0D01*
G01*
X109507100Y-122137200D01*
G75*
G02*
X109757100Y-122387200I0J-250000D01*
G01*
X109757100Y-123637200D01*
G75*
G02*
X109507100Y-123887200I-250000J0D01*
G01*
X108757100Y-123887200D01*
G75*
G02*
X108507100Y-123637200I0J250000D01*
G01*
G37*
G36*
G01*
X105707100Y-123637200D02*
X105707100Y-122387200D01*
G75*
G02*
X105957100Y-122137200I250000J0D01*
G01*
X106707100Y-122137200D01*
G75*
G02*
X106957100Y-122387200I0J-250000D01*
G01*
X106957100Y-123637200D01*
G75*
G02*
X106707100Y-123887200I-250000J0D01*
G01*
X105957100Y-123887200D01*
G75*
G02*
X105707100Y-123637200I0J250000D01*
G01*
G37*
%TD*%
%TO.C,D13*%
G36*
G01*
X118932800Y-123484800D02*
X118932800Y-122234800D01*
G75*
G02*
X119182800Y-121984800I250000J0D01*
G01*
X119932800Y-121984800D01*
G75*
G02*
X120182800Y-122234800I0J-250000D01*
G01*
X120182800Y-123484800D01*
G75*
G02*
X119932800Y-123734800I-250000J0D01*
G01*
X119182800Y-123734800D01*
G75*
G02*
X118932800Y-123484800I0J250000D01*
G01*
G37*
G36*
G01*
X116132800Y-123484800D02*
X116132800Y-122234800D01*
G75*
G02*
X116382800Y-121984800I250000J0D01*
G01*
X117132800Y-121984800D01*
G75*
G02*
X117382800Y-122234800I0J-250000D01*
G01*
X117382800Y-123484800D01*
G75*
G02*
X117132800Y-123734800I-250000J0D01*
G01*
X116382800Y-123734800D01*
G75*
G02*
X116132800Y-123484800I0J250000D01*
G01*
G37*
%TD*%
%TO.C,D11*%
G36*
G01*
X129092800Y-123383200D02*
X129092800Y-122133200D01*
G75*
G02*
X129342800Y-121883200I250000J0D01*
G01*
X130092800Y-121883200D01*
G75*
G02*
X130342800Y-122133200I0J-250000D01*
G01*
X130342800Y-123383200D01*
G75*
G02*
X130092800Y-123633200I-250000J0D01*
G01*
X129342800Y-123633200D01*
G75*
G02*
X129092800Y-123383200I0J250000D01*
G01*
G37*
G36*
G01*
X126292800Y-123383200D02*
X126292800Y-122133200D01*
G75*
G02*
X126542800Y-121883200I250000J0D01*
G01*
X127292800Y-121883200D01*
G75*
G02*
X127542800Y-122133200I0J-250000D01*
G01*
X127542800Y-123383200D01*
G75*
G02*
X127292800Y-123633200I-250000J0D01*
G01*
X126542800Y-123633200D01*
G75*
G02*
X126292800Y-123383200I0J250000D01*
G01*
G37*
%TD*%
%TO.C,D9*%
G36*
G01*
X139913200Y-125770800D02*
X139913200Y-124520800D01*
G75*
G02*
X140163200Y-124270800I250000J0D01*
G01*
X140913200Y-124270800D01*
G75*
G02*
X141163200Y-124520800I0J-250000D01*
G01*
X141163200Y-125770800D01*
G75*
G02*
X140913200Y-126020800I-250000J0D01*
G01*
X140163200Y-126020800D01*
G75*
G02*
X139913200Y-125770800I0J250000D01*
G01*
G37*
G36*
G01*
X137113200Y-125770800D02*
X137113200Y-124520800D01*
G75*
G02*
X137363200Y-124270800I250000J0D01*
G01*
X138113200Y-124270800D01*
G75*
G02*
X138363200Y-124520800I0J-250000D01*
G01*
X138363200Y-125770800D01*
G75*
G02*
X138113200Y-126020800I-250000J0D01*
G01*
X137363200Y-126020800D01*
G75*
G02*
X137113200Y-125770800I0J250000D01*
G01*
G37*
%TD*%
%TO.C,R57*%
G36*
G01*
X91571000Y-124340719D02*
X90050719Y-125861000D01*
G75*
G02*
X89697167Y-125861000I-176776J176776D01*
G01*
X89255224Y-125419057D01*
G75*
G02*
X89255224Y-125065505I176776J176776D01*
G01*
X90775505Y-123545224D01*
G75*
G02*
X91129057Y-123545224I176776J-176776D01*
G01*
X91571000Y-123987167D01*
G75*
G02*
X91571000Y-124340719I-176776J-176776D01*
G01*
G37*
G36*
G01*
X93639288Y-126409007D02*
X92119007Y-127929288D01*
G75*
G02*
X91765455Y-127929288I-176776J176776D01*
G01*
X91323512Y-127487345D01*
G75*
G02*
X91323512Y-127133793I176776J176776D01*
G01*
X92843793Y-125613512D01*
G75*
G02*
X93197345Y-125613512I176776J-176776D01*
G01*
X93639288Y-126055455D01*
G75*
G02*
X93639288Y-126409007I-176776J-176776D01*
G01*
G37*
%TD*%
%TO.C,R55*%
G36*
G01*
X101629400Y-124289919D02*
X100109119Y-125810200D01*
G75*
G02*
X99755567Y-125810200I-176776J176776D01*
G01*
X99313624Y-125368257D01*
G75*
G02*
X99313624Y-125014705I176776J176776D01*
G01*
X100833905Y-123494424D01*
G75*
G02*
X101187457Y-123494424I176776J-176776D01*
G01*
X101629400Y-123936367D01*
G75*
G02*
X101629400Y-124289919I-176776J-176776D01*
G01*
G37*
G36*
G01*
X103697688Y-126358207D02*
X102177407Y-127878488D01*
G75*
G02*
X101823855Y-127878488I-176776J176776D01*
G01*
X101381912Y-127436545D01*
G75*
G02*
X101381912Y-127082993I176776J176776D01*
G01*
X102902193Y-125562712D01*
G75*
G02*
X103255745Y-125562712I176776J-176776D01*
G01*
X103697688Y-126004655D01*
G75*
G02*
X103697688Y-126358207I-176776J-176776D01*
G01*
G37*
%TD*%
%TO.C,R53*%
G36*
G01*
X111789400Y-124442319D02*
X110269119Y-125962600D01*
G75*
G02*
X109915567Y-125962600I-176776J176776D01*
G01*
X109473624Y-125520657D01*
G75*
G02*
X109473624Y-125167105I176776J176776D01*
G01*
X110993905Y-123646824D01*
G75*
G02*
X111347457Y-123646824I176776J-176776D01*
G01*
X111789400Y-124088767D01*
G75*
G02*
X111789400Y-124442319I-176776J-176776D01*
G01*
G37*
G36*
G01*
X113857688Y-126510607D02*
X112337407Y-128030888D01*
G75*
G02*
X111983855Y-128030888I-176776J176776D01*
G01*
X111541912Y-127588945D01*
G75*
G02*
X111541912Y-127235393I176776J176776D01*
G01*
X113062193Y-125715112D01*
G75*
G02*
X113415745Y-125715112I176776J-176776D01*
G01*
X113857688Y-126157055D01*
G75*
G02*
X113857688Y-126510607I-176776J-176776D01*
G01*
G37*
%TD*%
%TO.C,R51*%
G36*
G01*
X122036488Y-124377007D02*
X120516207Y-125897288D01*
G75*
G02*
X120162655Y-125897288I-176776J176776D01*
G01*
X119720712Y-125455345D01*
G75*
G02*
X119720712Y-125101793I176776J176776D01*
G01*
X121240993Y-123581512D01*
G75*
G02*
X121594545Y-123581512I176776J-176776D01*
G01*
X122036488Y-124023455D01*
G75*
G02*
X122036488Y-124377007I-176776J-176776D01*
G01*
G37*
G36*
G01*
X124104776Y-126445295D02*
X122584495Y-127965576D01*
G75*
G02*
X122230943Y-127965576I-176776J176776D01*
G01*
X121789000Y-127523633D01*
G75*
G02*
X121789000Y-127170081I176776J176776D01*
G01*
X123309281Y-125649800D01*
G75*
G02*
X123662833Y-125649800I176776J-176776D01*
G01*
X124104776Y-126091743D01*
G75*
G02*
X124104776Y-126445295I-176776J-176776D01*
G01*
G37*
%TD*%
%TO.C,R49*%
G36*
G01*
X132044088Y-124478607D02*
X130523807Y-125998888D01*
G75*
G02*
X130170255Y-125998888I-176776J176776D01*
G01*
X129728312Y-125556945D01*
G75*
G02*
X129728312Y-125203393I176776J176776D01*
G01*
X131248593Y-123683112D01*
G75*
G02*
X131602145Y-123683112I176776J-176776D01*
G01*
X132044088Y-124125055D01*
G75*
G02*
X132044088Y-124478607I-176776J-176776D01*
G01*
G37*
G36*
G01*
X134112376Y-126546895D02*
X132592095Y-128067176D01*
G75*
G02*
X132238543Y-128067176I-176776J176776D01*
G01*
X131796600Y-127625233D01*
G75*
G02*
X131796600Y-127271681I176776J176776D01*
G01*
X133316881Y-125751400D01*
G75*
G02*
X133670433Y-125751400I176776J-176776D01*
G01*
X134112376Y-126193343D01*
G75*
G02*
X134112376Y-126546895I-176776J-176776D01*
G01*
G37*
%TD*%
%TO.C,R47*%
G36*
G01*
X142827900Y-124629599D02*
X142827900Y-126779601D01*
G75*
G02*
X142577901Y-127029600I-249999J0D01*
G01*
X141952899Y-127029600D01*
G75*
G02*
X141702900Y-126779601I0J249999D01*
G01*
X141702900Y-124629599D01*
G75*
G02*
X141952899Y-124379600I249999J0D01*
G01*
X142577901Y-124379600D01*
G75*
G02*
X142827900Y-124629599I0J-249999D01*
G01*
G37*
G36*
G01*
X145752900Y-124629599D02*
X145752900Y-126779601D01*
G75*
G02*
X145502901Y-127029600I-249999J0D01*
G01*
X144877899Y-127029600D01*
G75*
G02*
X144627900Y-126779601I0J249999D01*
G01*
X144627900Y-124629599D01*
G75*
G02*
X144877899Y-124379600I249999J0D01*
G01*
X145502901Y-124379600D01*
G75*
G02*
X145752900Y-124629599I0J-249999D01*
G01*
G37*
%TD*%
D10*
%TO.C,D4*%
X169797000Y-51816000D03*
X166497000Y-51816000D03*
%TD*%
%TO.C,D8*%
X169924000Y-99187000D03*
X166624000Y-99187000D03*
%TD*%
%TO.C,D7*%
X169797000Y-83693000D03*
X166497000Y-83693000D03*
%TD*%
%TO.C,D6*%
X169924000Y-35941000D03*
X166624000Y-35941000D03*
%TD*%
%TO.C,D5*%
X169925000Y-67564000D03*
X166625000Y-67564000D03*
%TD*%
M02*
