%TF.GenerationSoftware,KiCad,Pcbnew,(5.1.10)-1*%
%TF.CreationDate,2021-08-20T00:09:58-04:00*%
%TF.ProjectId,Back_F407_expansion_board,4261636b-5f46-4343-9037-5f657870616e,rev?*%
%TF.SameCoordinates,Original*%
%TF.FileFunction,Soldermask,Bot*%
%TF.FilePolarity,Negative*%
%FSLAX46Y46*%
G04 Gerber Fmt 4.6, Leading zero omitted, Abs format (unit mm)*
G04 Created by KiCad (PCBNEW (5.1.10)-1) date 2021-08-20 00:09:58*
%MOMM*%
%LPD*%
G01*
G04 APERTURE LIST*
%ADD10C,2.780000*%
%ADD11O,1.740000X2.190000*%
%ADD12O,1.700000X1.700000*%
%ADD13R,1.700000X1.700000*%
%ADD14O,1.600000X1.600000*%
%ADD15R,1.600000X1.600000*%
%ADD16R,0.900000X1.200000*%
%ADD17C,1.600000*%
%ADD18C,2.600000*%
%ADD19R,2.600000X2.600000*%
%ADD20O,2.000000X1.700000*%
%ADD21O,1.905000X2.000000*%
%ADD22R,1.905000X2.000000*%
G04 APERTURE END LIST*
D10*
%TO.C,F5*%
X163550600Y-118956600D03*
X163550600Y-122656600D03*
X163550600Y-126956600D03*
X163550600Y-130656600D03*
%TD*%
%TO.C,F4*%
X84176600Y-40411400D03*
X87876600Y-40411400D03*
X92176600Y-40411400D03*
X95876600Y-40411400D03*
%TD*%
%TO.C,F3*%
X143824200Y-120421400D03*
X147524200Y-120421400D03*
X151824200Y-120421400D03*
X155524200Y-120421400D03*
%TD*%
%TO.C,F2*%
X133958600Y-44526200D03*
X130258600Y-44526200D03*
X125958600Y-44526200D03*
X122258600Y-44526200D03*
%TD*%
%TO.C,F1*%
X137912600Y-36906200D03*
X134212600Y-36906200D03*
X129912600Y-36906200D03*
X126212600Y-36906200D03*
%TD*%
%TO.C,D19*%
G36*
G01*
X87729900Y-124043600D02*
X87729900Y-122793600D01*
G75*
G02*
X87979900Y-122543600I250000J0D01*
G01*
X88729900Y-122543600D01*
G75*
G02*
X88979900Y-122793600I0J-250000D01*
G01*
X88979900Y-124043600D01*
G75*
G02*
X88729900Y-124293600I-250000J0D01*
G01*
X87979900Y-124293600D01*
G75*
G02*
X87729900Y-124043600I0J250000D01*
G01*
G37*
G36*
G01*
X84929900Y-124043600D02*
X84929900Y-122793600D01*
G75*
G02*
X85179900Y-122543600I250000J0D01*
G01*
X85929900Y-122543600D01*
G75*
G02*
X86179900Y-122793600I0J-250000D01*
G01*
X86179900Y-124043600D01*
G75*
G02*
X85929900Y-124293600I-250000J0D01*
G01*
X85179900Y-124293600D01*
G75*
G02*
X84929900Y-124043600I0J250000D01*
G01*
G37*
%TD*%
%TO.C,D17*%
G36*
G01*
X98093100Y-123738800D02*
X98093100Y-122488800D01*
G75*
G02*
X98343100Y-122238800I250000J0D01*
G01*
X99093100Y-122238800D01*
G75*
G02*
X99343100Y-122488800I0J-250000D01*
G01*
X99343100Y-123738800D01*
G75*
G02*
X99093100Y-123988800I-250000J0D01*
G01*
X98343100Y-123988800D01*
G75*
G02*
X98093100Y-123738800I0J250000D01*
G01*
G37*
G36*
G01*
X95293100Y-123738800D02*
X95293100Y-122488800D01*
G75*
G02*
X95543100Y-122238800I250000J0D01*
G01*
X96293100Y-122238800D01*
G75*
G02*
X96543100Y-122488800I0J-250000D01*
G01*
X96543100Y-123738800D01*
G75*
G02*
X96293100Y-123988800I-250000J0D01*
G01*
X95543100Y-123988800D01*
G75*
G02*
X95293100Y-123738800I0J250000D01*
G01*
G37*
%TD*%
%TO.C,D15*%
G36*
G01*
X108507100Y-123637200D02*
X108507100Y-122387200D01*
G75*
G02*
X108757100Y-122137200I250000J0D01*
G01*
X109507100Y-122137200D01*
G75*
G02*
X109757100Y-122387200I0J-250000D01*
G01*
X109757100Y-123637200D01*
G75*
G02*
X109507100Y-123887200I-250000J0D01*
G01*
X108757100Y-123887200D01*
G75*
G02*
X108507100Y-123637200I0J250000D01*
G01*
G37*
G36*
G01*
X105707100Y-123637200D02*
X105707100Y-122387200D01*
G75*
G02*
X105957100Y-122137200I250000J0D01*
G01*
X106707100Y-122137200D01*
G75*
G02*
X106957100Y-122387200I0J-250000D01*
G01*
X106957100Y-123637200D01*
G75*
G02*
X106707100Y-123887200I-250000J0D01*
G01*
X105957100Y-123887200D01*
G75*
G02*
X105707100Y-123637200I0J250000D01*
G01*
G37*
%TD*%
%TO.C,D13*%
G36*
G01*
X118932800Y-123484800D02*
X118932800Y-122234800D01*
G75*
G02*
X119182800Y-121984800I250000J0D01*
G01*
X119932800Y-121984800D01*
G75*
G02*
X120182800Y-122234800I0J-250000D01*
G01*
X120182800Y-123484800D01*
G75*
G02*
X119932800Y-123734800I-250000J0D01*
G01*
X119182800Y-123734800D01*
G75*
G02*
X118932800Y-123484800I0J250000D01*
G01*
G37*
G36*
G01*
X116132800Y-123484800D02*
X116132800Y-122234800D01*
G75*
G02*
X116382800Y-121984800I250000J0D01*
G01*
X117132800Y-121984800D01*
G75*
G02*
X117382800Y-122234800I0J-250000D01*
G01*
X117382800Y-123484800D01*
G75*
G02*
X117132800Y-123734800I-250000J0D01*
G01*
X116382800Y-123734800D01*
G75*
G02*
X116132800Y-123484800I0J250000D01*
G01*
G37*
%TD*%
%TO.C,D11*%
G36*
G01*
X129092800Y-123383200D02*
X129092800Y-122133200D01*
G75*
G02*
X129342800Y-121883200I250000J0D01*
G01*
X130092800Y-121883200D01*
G75*
G02*
X130342800Y-122133200I0J-250000D01*
G01*
X130342800Y-123383200D01*
G75*
G02*
X130092800Y-123633200I-250000J0D01*
G01*
X129342800Y-123633200D01*
G75*
G02*
X129092800Y-123383200I0J250000D01*
G01*
G37*
G36*
G01*
X126292800Y-123383200D02*
X126292800Y-122133200D01*
G75*
G02*
X126542800Y-121883200I250000J0D01*
G01*
X127292800Y-121883200D01*
G75*
G02*
X127542800Y-122133200I0J-250000D01*
G01*
X127542800Y-123383200D01*
G75*
G02*
X127292800Y-123633200I-250000J0D01*
G01*
X126542800Y-123633200D01*
G75*
G02*
X126292800Y-123383200I0J250000D01*
G01*
G37*
%TD*%
%TO.C,D9*%
G36*
G01*
X139913200Y-125770800D02*
X139913200Y-124520800D01*
G75*
G02*
X140163200Y-124270800I250000J0D01*
G01*
X140913200Y-124270800D01*
G75*
G02*
X141163200Y-124520800I0J-250000D01*
G01*
X141163200Y-125770800D01*
G75*
G02*
X140913200Y-126020800I-250000J0D01*
G01*
X140163200Y-126020800D01*
G75*
G02*
X139913200Y-125770800I0J250000D01*
G01*
G37*
G36*
G01*
X137113200Y-125770800D02*
X137113200Y-124520800D01*
G75*
G02*
X137363200Y-124270800I250000J0D01*
G01*
X138113200Y-124270800D01*
G75*
G02*
X138363200Y-124520800I0J-250000D01*
G01*
X138363200Y-125770800D01*
G75*
G02*
X138113200Y-126020800I-250000J0D01*
G01*
X137363200Y-126020800D01*
G75*
G02*
X137113200Y-125770800I0J250000D01*
G01*
G37*
%TD*%
%TO.C,R57*%
G36*
G01*
X91571000Y-124340719D02*
X90050719Y-125861000D01*
G75*
G02*
X89697167Y-125861000I-176776J176776D01*
G01*
X89255224Y-125419057D01*
G75*
G02*
X89255224Y-125065505I176776J176776D01*
G01*
X90775505Y-123545224D01*
G75*
G02*
X91129057Y-123545224I176776J-176776D01*
G01*
X91571000Y-123987167D01*
G75*
G02*
X91571000Y-124340719I-176776J-176776D01*
G01*
G37*
G36*
G01*
X93639288Y-126409007D02*
X92119007Y-127929288D01*
G75*
G02*
X91765455Y-127929288I-176776J176776D01*
G01*
X91323512Y-127487345D01*
G75*
G02*
X91323512Y-127133793I176776J176776D01*
G01*
X92843793Y-125613512D01*
G75*
G02*
X93197345Y-125613512I176776J-176776D01*
G01*
X93639288Y-126055455D01*
G75*
G02*
X93639288Y-126409007I-176776J-176776D01*
G01*
G37*
%TD*%
%TO.C,R55*%
G36*
G01*
X101629400Y-124289919D02*
X100109119Y-125810200D01*
G75*
G02*
X99755567Y-125810200I-176776J176776D01*
G01*
X99313624Y-125368257D01*
G75*
G02*
X99313624Y-125014705I176776J176776D01*
G01*
X100833905Y-123494424D01*
G75*
G02*
X101187457Y-123494424I176776J-176776D01*
G01*
X101629400Y-123936367D01*
G75*
G02*
X101629400Y-124289919I-176776J-176776D01*
G01*
G37*
G36*
G01*
X103697688Y-126358207D02*
X102177407Y-127878488D01*
G75*
G02*
X101823855Y-127878488I-176776J176776D01*
G01*
X101381912Y-127436545D01*
G75*
G02*
X101381912Y-127082993I176776J176776D01*
G01*
X102902193Y-125562712D01*
G75*
G02*
X103255745Y-125562712I176776J-176776D01*
G01*
X103697688Y-126004655D01*
G75*
G02*
X103697688Y-126358207I-176776J-176776D01*
G01*
G37*
%TD*%
%TO.C,R53*%
G36*
G01*
X111789400Y-124442319D02*
X110269119Y-125962600D01*
G75*
G02*
X109915567Y-125962600I-176776J176776D01*
G01*
X109473624Y-125520657D01*
G75*
G02*
X109473624Y-125167105I176776J176776D01*
G01*
X110993905Y-123646824D01*
G75*
G02*
X111347457Y-123646824I176776J-176776D01*
G01*
X111789400Y-124088767D01*
G75*
G02*
X111789400Y-124442319I-176776J-176776D01*
G01*
G37*
G36*
G01*
X113857688Y-126510607D02*
X112337407Y-128030888D01*
G75*
G02*
X111983855Y-128030888I-176776J176776D01*
G01*
X111541912Y-127588945D01*
G75*
G02*
X111541912Y-127235393I176776J176776D01*
G01*
X113062193Y-125715112D01*
G75*
G02*
X113415745Y-125715112I176776J-176776D01*
G01*
X113857688Y-126157055D01*
G75*
G02*
X113857688Y-126510607I-176776J-176776D01*
G01*
G37*
%TD*%
%TO.C,R51*%
G36*
G01*
X122036488Y-124377007D02*
X120516207Y-125897288D01*
G75*
G02*
X120162655Y-125897288I-176776J176776D01*
G01*
X119720712Y-125455345D01*
G75*
G02*
X119720712Y-125101793I176776J176776D01*
G01*
X121240993Y-123581512D01*
G75*
G02*
X121594545Y-123581512I176776J-176776D01*
G01*
X122036488Y-124023455D01*
G75*
G02*
X122036488Y-124377007I-176776J-176776D01*
G01*
G37*
G36*
G01*
X124104776Y-126445295D02*
X122584495Y-127965576D01*
G75*
G02*
X122230943Y-127965576I-176776J176776D01*
G01*
X121789000Y-127523633D01*
G75*
G02*
X121789000Y-127170081I176776J176776D01*
G01*
X123309281Y-125649800D01*
G75*
G02*
X123662833Y-125649800I176776J-176776D01*
G01*
X124104776Y-126091743D01*
G75*
G02*
X124104776Y-126445295I-176776J-176776D01*
G01*
G37*
%TD*%
%TO.C,R49*%
G36*
G01*
X132044088Y-124478607D02*
X130523807Y-125998888D01*
G75*
G02*
X130170255Y-125998888I-176776J176776D01*
G01*
X129728312Y-125556945D01*
G75*
G02*
X129728312Y-125203393I176776J176776D01*
G01*
X131248593Y-123683112D01*
G75*
G02*
X131602145Y-123683112I176776J-176776D01*
G01*
X132044088Y-124125055D01*
G75*
G02*
X132044088Y-124478607I-176776J-176776D01*
G01*
G37*
G36*
G01*
X134112376Y-126546895D02*
X132592095Y-128067176D01*
G75*
G02*
X132238543Y-128067176I-176776J176776D01*
G01*
X131796600Y-127625233D01*
G75*
G02*
X131796600Y-127271681I176776J176776D01*
G01*
X133316881Y-125751400D01*
G75*
G02*
X133670433Y-125751400I176776J-176776D01*
G01*
X134112376Y-126193343D01*
G75*
G02*
X134112376Y-126546895I-176776J-176776D01*
G01*
G37*
%TD*%
%TO.C,R47*%
G36*
G01*
X142827900Y-124629599D02*
X142827900Y-126779601D01*
G75*
G02*
X142577901Y-127029600I-249999J0D01*
G01*
X141952899Y-127029600D01*
G75*
G02*
X141702900Y-126779601I0J249999D01*
G01*
X141702900Y-124629599D01*
G75*
G02*
X141952899Y-124379600I249999J0D01*
G01*
X142577901Y-124379600D01*
G75*
G02*
X142827900Y-124629599I0J-249999D01*
G01*
G37*
G36*
G01*
X145752900Y-124629599D02*
X145752900Y-126779601D01*
G75*
G02*
X145502901Y-127029600I-249999J0D01*
G01*
X144877899Y-127029600D01*
G75*
G02*
X144627900Y-126779601I0J249999D01*
G01*
X144627900Y-124629599D01*
G75*
G02*
X144877899Y-124379600I249999J0D01*
G01*
X145502901Y-124379600D01*
G75*
G02*
X145752900Y-124629599I0J-249999D01*
G01*
G37*
%TD*%
D11*
%TO.C,J8*%
X96342200Y-106400600D03*
G36*
G01*
X92932200Y-107245601D02*
X92932200Y-105555599D01*
G75*
G02*
X93182199Y-105305600I249999J0D01*
G01*
X94422201Y-105305600D01*
G75*
G02*
X94672200Y-105555599I0J-249999D01*
G01*
X94672200Y-107245601D01*
G75*
G02*
X94422201Y-107495600I-249999J0D01*
G01*
X93182199Y-107495600D01*
G75*
G02*
X92932200Y-107245601I0J249999D01*
G01*
G37*
%TD*%
D12*
%TO.C,J29*%
X116332000Y-86614000D03*
D13*
X113792000Y-86614000D03*
%TD*%
D12*
%TO.C,J28*%
X125349000Y-86614000D03*
D13*
X122809000Y-86614000D03*
%TD*%
D12*
%TO.C,J27*%
X134366000Y-86614000D03*
D13*
X131826000Y-86614000D03*
%TD*%
D12*
%TO.C,J26*%
X116205000Y-74803000D03*
D13*
X113665000Y-74803000D03*
%TD*%
D12*
%TO.C,J20*%
X125222000Y-74803000D03*
D13*
X122682000Y-74803000D03*
%TD*%
D12*
%TO.C,J19*%
X134239000Y-74803000D03*
D13*
X131699000Y-74803000D03*
%TD*%
D12*
%TO.C,J18*%
X116205000Y-63119000D03*
D13*
X113665000Y-63119000D03*
%TD*%
D12*
%TO.C,J17*%
X125262000Y-63119000D03*
D13*
X122722000Y-63119000D03*
%TD*%
D12*
%TO.C,J13*%
X134239000Y-63119000D03*
D13*
X131699000Y-63119000D03*
%TD*%
D12*
%TO.C,J10*%
X134289800Y-54432200D03*
D13*
X131749800Y-54432200D03*
%TD*%
D12*
%TO.C,J2*%
X142070000Y-105260000D03*
X139530000Y-105260000D03*
X142070000Y-102720000D03*
X139530000Y-102720000D03*
X142070000Y-100180000D03*
X139530000Y-100180000D03*
X142070000Y-97640000D03*
X139530000Y-97640000D03*
X142070000Y-95100000D03*
X139530000Y-95100000D03*
X142070000Y-92560000D03*
X139530000Y-92560000D03*
X142070000Y-90020000D03*
X139530000Y-90020000D03*
X142070000Y-87480000D03*
X139530000Y-87480000D03*
X142070000Y-84940000D03*
X139530000Y-84940000D03*
X142070000Y-82400000D03*
X139530000Y-82400000D03*
X142070000Y-79860000D03*
X139530000Y-79860000D03*
X142070000Y-77320000D03*
X139530000Y-77320000D03*
X142070000Y-74780000D03*
X139530000Y-74780000D03*
X142070000Y-72240000D03*
X139530000Y-72240000D03*
X142070000Y-69700000D03*
X139530000Y-69700000D03*
X142070000Y-67160000D03*
X139530000Y-67160000D03*
X142070000Y-64620000D03*
X139530000Y-64620000D03*
X142070000Y-62080000D03*
X139530000Y-62080000D03*
X142070000Y-59540000D03*
X139530000Y-59540000D03*
X142070000Y-57000000D03*
X139530000Y-57000000D03*
X142070000Y-54460000D03*
X139530000Y-54460000D03*
X142070000Y-51920000D03*
X139530000Y-51920000D03*
X142070000Y-49380000D03*
X139530000Y-49380000D03*
X142070000Y-46840000D03*
D13*
X139530000Y-46840000D03*
%TD*%
D12*
%TO.C,J48*%
X100584000Y-54991000D03*
X100584000Y-57531000D03*
D13*
X100584000Y-60071000D03*
%TD*%
D12*
%TO.C,J47*%
X96901000Y-54991000D03*
X96901000Y-57531000D03*
D13*
X96901000Y-60071000D03*
%TD*%
D12*
%TO.C,J46*%
X93345000Y-54991000D03*
X93345000Y-57531000D03*
D13*
X93345000Y-60071000D03*
%TD*%
D12*
%TO.C,J45*%
X86360000Y-97282000D03*
X83820000Y-97282000D03*
D13*
X81280000Y-97282000D03*
%TD*%
D12*
%TO.C,J1*%
X75650000Y-105270000D03*
X73110000Y-105270000D03*
X75650000Y-102730000D03*
X73110000Y-102730000D03*
X75650000Y-100190000D03*
X73110000Y-100190000D03*
X75650000Y-97650000D03*
X73110000Y-97650000D03*
X75650000Y-95110000D03*
X73110000Y-95110000D03*
X75650000Y-92570000D03*
X73110000Y-92570000D03*
X75650000Y-90030000D03*
X73110000Y-90030000D03*
X75650000Y-87490000D03*
X73110000Y-87490000D03*
X75650000Y-84950000D03*
X73110000Y-84950000D03*
X75650000Y-82410000D03*
X73110000Y-82410000D03*
X75650000Y-79870000D03*
X73110000Y-79870000D03*
X75650000Y-77330000D03*
X73110000Y-77330000D03*
X75650000Y-74790000D03*
X73110000Y-74790000D03*
X75650000Y-72250000D03*
X73110000Y-72250000D03*
X75650000Y-69710000D03*
X73110000Y-69710000D03*
X75650000Y-67170000D03*
X73110000Y-67170000D03*
X75650000Y-64630000D03*
X73110000Y-64630000D03*
X75650000Y-62090000D03*
X73110000Y-62090000D03*
X75650000Y-59550000D03*
X73110000Y-59550000D03*
X75650000Y-57010000D03*
X73110000Y-57010000D03*
X75650000Y-54470000D03*
X73110000Y-54470000D03*
X75650000Y-51930000D03*
X73110000Y-51930000D03*
X75650000Y-49390000D03*
X73110000Y-49390000D03*
X75650000Y-46850000D03*
D13*
X73110000Y-46850000D03*
%TD*%
D14*
%TO.C,U1*%
X111125000Y-116713000D03*
X103505000Y-109093000D03*
X108585000Y-116713000D03*
X106045000Y-109093000D03*
X106045000Y-116713000D03*
X108585000Y-109093000D03*
X103505000Y-116713000D03*
D15*
X111125000Y-109093000D03*
%TD*%
D14*
%TO.C,A3*%
X164211000Y-48768000D03*
X146431000Y-36068000D03*
X161671000Y-48768000D03*
X148971000Y-36068000D03*
X159131000Y-48768000D03*
X151511000Y-36068000D03*
X156591000Y-48768000D03*
X154051000Y-36068000D03*
X154051000Y-48768000D03*
X156591000Y-36068000D03*
X151511000Y-48768000D03*
X159131000Y-36068000D03*
X148971000Y-48768000D03*
X161671000Y-36068000D03*
X146431000Y-48768000D03*
D15*
X164211000Y-36068000D03*
%TD*%
D14*
%TO.C,A1*%
X164211000Y-80518000D03*
X146431000Y-67818000D03*
X161671000Y-80518000D03*
X148971000Y-67818000D03*
X159131000Y-80518000D03*
X151511000Y-67818000D03*
X156591000Y-80518000D03*
X154051000Y-67818000D03*
X154051000Y-80518000D03*
X156591000Y-67818000D03*
X151511000Y-80518000D03*
X159131000Y-67818000D03*
X148971000Y-80518000D03*
X161671000Y-67818000D03*
X146431000Y-80518000D03*
D15*
X164211000Y-67818000D03*
%TD*%
D12*
%TO.C,J15*%
X167640000Y-62484000D03*
X167640000Y-59944000D03*
X167640000Y-57404000D03*
D13*
X167640000Y-54864000D03*
%TD*%
D16*
%TO.C,D4*%
X169797000Y-51816000D03*
X166497000Y-51816000D03*
%TD*%
D17*
%TO.C,C4*%
X149977000Y-54483000D03*
D15*
X146177000Y-54483000D03*
%TD*%
D14*
%TO.C,A2*%
X164211000Y-64643000D03*
X146431000Y-51943000D03*
X161671000Y-64643000D03*
X148971000Y-51943000D03*
X159131000Y-64643000D03*
X151511000Y-51943000D03*
X156591000Y-64643000D03*
X154051000Y-51943000D03*
X154051000Y-64643000D03*
X156591000Y-51943000D03*
X151511000Y-64643000D03*
X159131000Y-51943000D03*
X148971000Y-64643000D03*
X161671000Y-51943000D03*
X146431000Y-64643000D03*
D15*
X164211000Y-51943000D03*
%TD*%
D12*
%TO.C,J40*%
X156083000Y-61341000D03*
X156083000Y-58801000D03*
X153543000Y-61341000D03*
X153543000Y-58801000D03*
X151003000Y-61341000D03*
D13*
X151003000Y-58801000D03*
%TD*%
D11*
%TO.C,J4*%
X79502000Y-84201000D03*
X82042000Y-84201000D03*
X84582000Y-84201000D03*
G36*
G01*
X87992000Y-83355999D02*
X87992000Y-85046001D01*
G75*
G02*
X87742001Y-85296000I-249999J0D01*
G01*
X86501999Y-85296000D01*
G75*
G02*
X86252000Y-85046001I0J249999D01*
G01*
X86252000Y-83355999D01*
G75*
G02*
X86501999Y-83106000I249999J0D01*
G01*
X87742001Y-83106000D01*
G75*
G02*
X87992000Y-83355999I0J-249999D01*
G01*
G37*
%TD*%
%TO.C,J5*%
X79375000Y-54229000D03*
X81915000Y-54229000D03*
X84455000Y-54229000D03*
G36*
G01*
X87865000Y-53383999D02*
X87865000Y-55074001D01*
G75*
G02*
X87615001Y-55324000I-249999J0D01*
G01*
X86374999Y-55324000D01*
G75*
G02*
X86125000Y-55074001I0J249999D01*
G01*
X86125000Y-53383999D01*
G75*
G02*
X86374999Y-53134000I249999J0D01*
G01*
X87615001Y-53134000D01*
G75*
G02*
X87865000Y-53383999I0J-249999D01*
G01*
G37*
%TD*%
D14*
%TO.C,A4*%
X164211000Y-96393000D03*
X146431000Y-83693000D03*
X161671000Y-96393000D03*
X148971000Y-83693000D03*
X159131000Y-96393000D03*
X151511000Y-83693000D03*
X156591000Y-96393000D03*
X154051000Y-83693000D03*
X154051000Y-96393000D03*
X156591000Y-83693000D03*
X151511000Y-96393000D03*
X159131000Y-83693000D03*
X148971000Y-96393000D03*
X161671000Y-83693000D03*
X146431000Y-96393000D03*
D15*
X164211000Y-83693000D03*
%TD*%
D12*
%TO.C,J44*%
X156464000Y-108839000D03*
X156464000Y-106299000D03*
X153924000Y-108839000D03*
X153924000Y-106299000D03*
X151384000Y-108839000D03*
D13*
X151384000Y-106299000D03*
%TD*%
D12*
%TO.C,J43*%
X156210000Y-93218000D03*
X156210000Y-90678000D03*
X153670000Y-93218000D03*
X153670000Y-90678000D03*
X151130000Y-93218000D03*
D13*
X151130000Y-90678000D03*
%TD*%
D12*
%TO.C,J42*%
X157607000Y-44958000D03*
X157607000Y-42418000D03*
X155067000Y-44958000D03*
X155067000Y-42418000D03*
X152527000Y-44958000D03*
D13*
X152527000Y-42418000D03*
%TD*%
D12*
%TO.C,J41*%
X156083000Y-77343000D03*
X156083000Y-74803000D03*
X153543000Y-77343000D03*
X153543000Y-74803000D03*
X151003000Y-77343000D03*
D13*
X151003000Y-74803000D03*
%TD*%
D12*
%TO.C,J12*%
X105156000Y-105156000D03*
X105156000Y-102616000D03*
X105156000Y-100076000D03*
D13*
X105156000Y-97536000D03*
%TD*%
D12*
%TO.C,J39*%
X135636000Y-105156000D03*
X135636000Y-102616000D03*
X135636000Y-100076000D03*
D13*
X135636000Y-97536000D03*
%TD*%
%TO.C,J38*%
X130556000Y-97536000D03*
D12*
X130556000Y-100076000D03*
X130556000Y-102616000D03*
X130556000Y-105156000D03*
%TD*%
%TO.C,J37*%
X125476000Y-105156000D03*
X125476000Y-102616000D03*
X125476000Y-100076000D03*
D13*
X125476000Y-97536000D03*
%TD*%
D12*
%TO.C,J36*%
X120396000Y-105156000D03*
X120396000Y-102616000D03*
X120396000Y-100076000D03*
D13*
X120396000Y-97536000D03*
%TD*%
D12*
%TO.C,J35*%
X115316000Y-105156000D03*
X115316000Y-102616000D03*
X115316000Y-100076000D03*
D13*
X115316000Y-97536000D03*
%TD*%
D12*
%TO.C,J34*%
X110236000Y-105156000D03*
X110236000Y-102616000D03*
X110236000Y-100076000D03*
D13*
X110236000Y-97536000D03*
%TD*%
D18*
%TO.C,J33*%
X114173000Y-128778000D03*
X109093000Y-128778000D03*
X104013000Y-128778000D03*
X98933000Y-128778000D03*
X93853000Y-128778000D03*
X88773000Y-128778000D03*
X83693000Y-128778000D03*
D19*
X78613000Y-128778000D03*
%TD*%
D18*
%TO.C,J32*%
X154813000Y-128778000D03*
X149733000Y-128778000D03*
X144653000Y-128778000D03*
X139573000Y-128778000D03*
X134493000Y-128778000D03*
X129413000Y-128778000D03*
X124333000Y-128778000D03*
D19*
X119253000Y-128778000D03*
%TD*%
D18*
%TO.C,J31*%
X100838000Y-38608000D03*
X105918000Y-38608000D03*
X110998000Y-38608000D03*
D19*
X116078000Y-38608000D03*
%TD*%
D20*
%TO.C,R2*%
X80391000Y-65064000D03*
G36*
G01*
X81141000Y-68414000D02*
X79641000Y-68414000D01*
G75*
G02*
X79391000Y-68164000I0J250000D01*
G01*
X79391000Y-66964000D01*
G75*
G02*
X79641000Y-66714000I250000J0D01*
G01*
X81141000Y-66714000D01*
G75*
G02*
X81391000Y-66964000I0J-250000D01*
G01*
X81391000Y-68164000D01*
G75*
G02*
X81141000Y-68414000I-250000J0D01*
G01*
G37*
%TD*%
%TO.C,R22*%
X88265000Y-73573000D03*
G36*
G01*
X89015000Y-76923000D02*
X87515000Y-76923000D01*
G75*
G02*
X87265000Y-76673000I0J250000D01*
G01*
X87265000Y-75473000D01*
G75*
G02*
X87515000Y-75223000I250000J0D01*
G01*
X89015000Y-75223000D01*
G75*
G02*
X89265000Y-75473000I0J-250000D01*
G01*
X89265000Y-76673000D01*
G75*
G02*
X89015000Y-76923000I-250000J0D01*
G01*
G37*
%TD*%
%TO.C,R20*%
X80391000Y-73573000D03*
G36*
G01*
X81141000Y-76923000D02*
X79641000Y-76923000D01*
G75*
G02*
X79391000Y-76673000I0J250000D01*
G01*
X79391000Y-75473000D01*
G75*
G02*
X79641000Y-75223000I250000J0D01*
G01*
X81141000Y-75223000D01*
G75*
G02*
X81391000Y-75473000I0J-250000D01*
G01*
X81391000Y-76673000D01*
G75*
G02*
X81141000Y-76923000I-250000J0D01*
G01*
G37*
%TD*%
%TO.C,R19*%
X96139000Y-65064000D03*
G36*
G01*
X96889000Y-68414000D02*
X95389000Y-68414000D01*
G75*
G02*
X95139000Y-68164000I0J250000D01*
G01*
X95139000Y-66964000D01*
G75*
G02*
X95389000Y-66714000I250000J0D01*
G01*
X96889000Y-66714000D01*
G75*
G02*
X97139000Y-66964000I0J-250000D01*
G01*
X97139000Y-68164000D01*
G75*
G02*
X96889000Y-68414000I-250000J0D01*
G01*
G37*
%TD*%
%TO.C,R17*%
X88265000Y-65064000D03*
G36*
G01*
X89015000Y-68414000D02*
X87515000Y-68414000D01*
G75*
G02*
X87265000Y-68164000I0J250000D01*
G01*
X87265000Y-66964000D01*
G75*
G02*
X87515000Y-66714000I250000J0D01*
G01*
X89015000Y-66714000D01*
G75*
G02*
X89265000Y-66964000I0J-250000D01*
G01*
X89265000Y-68164000D01*
G75*
G02*
X89015000Y-68414000I-250000J0D01*
G01*
G37*
%TD*%
D14*
%TO.C,U3*%
X89916000Y-116713000D03*
X82296000Y-109093000D03*
X87376000Y-116713000D03*
X84836000Y-109093000D03*
X84836000Y-116713000D03*
X87376000Y-109093000D03*
X82296000Y-116713000D03*
D15*
X89916000Y-109093000D03*
%TD*%
D14*
%TO.C,U2*%
X132334000Y-116713000D03*
X124714000Y-109093000D03*
X129794000Y-116713000D03*
X127254000Y-109093000D03*
X127254000Y-116713000D03*
X129794000Y-109093000D03*
X124714000Y-116713000D03*
D15*
X132334000Y-109093000D03*
%TD*%
D21*
%TO.C,Q6*%
X88773000Y-119507000D03*
X91313000Y-119507000D03*
D22*
X93853000Y-119507000D03*
%TD*%
D21*
%TO.C,Q5*%
X78105000Y-119507000D03*
X80645000Y-119507000D03*
D22*
X83185000Y-119507000D03*
%TD*%
D21*
%TO.C,Q4*%
X131445000Y-119507000D03*
X133985000Y-119507000D03*
D22*
X136525000Y-119507000D03*
%TD*%
D21*
%TO.C,Q3*%
X120777000Y-119507000D03*
X123317000Y-119507000D03*
D22*
X125857000Y-119507000D03*
%TD*%
D21*
%TO.C,Q2*%
X110109000Y-119507000D03*
X112649000Y-119507000D03*
D22*
X115189000Y-119507000D03*
%TD*%
D21*
%TO.C,Q1*%
X99441000Y-119507000D03*
X101981000Y-119507000D03*
D22*
X104521000Y-119507000D03*
%TD*%
D12*
%TO.C,J30*%
X167894000Y-109982000D03*
X167894000Y-107442000D03*
X167894000Y-104902000D03*
D13*
X167894000Y-102362000D03*
%TD*%
D12*
%TO.C,J25*%
X98552000Y-80137000D03*
D13*
X96012000Y-80137000D03*
%TD*%
D12*
%TO.C,J24*%
X98552000Y-76327000D03*
D13*
X96012000Y-76327000D03*
%TD*%
D12*
%TO.C,J23*%
X98552000Y-72517000D03*
D13*
X96012000Y-72517000D03*
%TD*%
D12*
%TO.C,J22*%
X168275000Y-94488000D03*
X168275000Y-91948000D03*
X168275000Y-89408000D03*
D13*
X168275000Y-86868000D03*
%TD*%
D12*
%TO.C,J21*%
X167640000Y-46609000D03*
X167640000Y-44069000D03*
X167640000Y-41529000D03*
D13*
X167640000Y-38989000D03*
%TD*%
D12*
%TO.C,J16*%
X167894000Y-78359000D03*
X167894000Y-75819000D03*
X167894000Y-73279000D03*
D13*
X167894000Y-70739000D03*
%TD*%
D12*
%TO.C,J14*%
X105473500Y-46291500D03*
X102933500Y-46291500D03*
X100393500Y-46291500D03*
X97853500Y-46291500D03*
D13*
X95313500Y-46291500D03*
%TD*%
D12*
%TO.C,J11*%
X93980000Y-50800000D03*
X96520000Y-50800000D03*
D13*
X99060000Y-50800000D03*
%TD*%
D12*
%TO.C,J7*%
X88260000Y-46360000D03*
X88260000Y-48900000D03*
X85720000Y-46360000D03*
X85720000Y-48900000D03*
X83180000Y-46360000D03*
X83180000Y-48900000D03*
X80640000Y-46360000D03*
D13*
X80640000Y-48900000D03*
%TD*%
D11*
%TO.C,J6*%
X79375000Y-103632000D03*
X81915000Y-103632000D03*
X84455000Y-103632000D03*
G36*
G01*
X87865000Y-102786999D02*
X87865000Y-104477001D01*
G75*
G02*
X87615001Y-104727000I-249999J0D01*
G01*
X86374999Y-104727000D01*
G75*
G02*
X86125000Y-104477001I0J249999D01*
G01*
X86125000Y-102786999D01*
G75*
G02*
X86374999Y-102537000I249999J0D01*
G01*
X87615001Y-102537000D01*
G75*
G02*
X87865000Y-102786999I0J-249999D01*
G01*
G37*
%TD*%
%TO.C,J3*%
X92202000Y-91440000D03*
X89662000Y-91440000D03*
X87122000Y-91440000D03*
X84582000Y-91440000D03*
X82042000Y-91440000D03*
G36*
G01*
X78632000Y-92285001D02*
X78632000Y-90594999D01*
G75*
G02*
X78881999Y-90345000I249999J0D01*
G01*
X80122001Y-90345000D01*
G75*
G02*
X80372000Y-90594999I0J-249999D01*
G01*
X80372000Y-92285001D01*
G75*
G02*
X80122001Y-92535000I-249999J0D01*
G01*
X78881999Y-92535000D01*
G75*
G02*
X78632000Y-92285001I0J249999D01*
G01*
G37*
%TD*%
D16*
%TO.C,D8*%
X169924000Y-99187000D03*
X166624000Y-99187000D03*
%TD*%
%TO.C,D7*%
X169797000Y-83693000D03*
X166497000Y-83693000D03*
%TD*%
%TO.C,D6*%
X169924000Y-35941000D03*
X166624000Y-35941000D03*
%TD*%
%TO.C,D5*%
X169925000Y-67564000D03*
X166625000Y-67564000D03*
%TD*%
D17*
%TO.C,C5*%
X150104000Y-70358000D03*
D15*
X146304000Y-70358000D03*
%TD*%
D17*
%TO.C,C3*%
X150114000Y-102108000D03*
D15*
X146314000Y-102108000D03*
%TD*%
D17*
%TO.C,C2*%
X150114000Y-86233000D03*
D15*
X146314000Y-86233000D03*
%TD*%
D17*
%TO.C,C1*%
X150104000Y-38481000D03*
D15*
X146304000Y-38481000D03*
%TD*%
D14*
%TO.C,A5*%
X164211000Y-112268000D03*
X146431000Y-99568000D03*
X161671000Y-112268000D03*
X148971000Y-99568000D03*
X159131000Y-112268000D03*
X151511000Y-99568000D03*
X156591000Y-112268000D03*
X154051000Y-99568000D03*
X154051000Y-112268000D03*
X156591000Y-99568000D03*
X151511000Y-112268000D03*
X159131000Y-99568000D03*
X148971000Y-112268000D03*
X161671000Y-99568000D03*
X146431000Y-112268000D03*
D15*
X164211000Y-99568000D03*
%TD*%
M02*
