M48
; DRILL file {KiCad (5.1.10)-1} date 08/20/21 00:09:56
; FORMAT={-:-/ absolute / inch / decimal}
; #@! TF.CreationDate,2021-08-20T00:09:56-04:00
; #@! TF.GenerationSoftware,Kicad,Pcbnew,(5.1.10)-1
; #@! TF.FileFunction,Plated,1,2,PTH
FMAT,2
INCH
T1C0.0157
T2C0.0315
T3C0.0394
T4C0.0433
T5C0.0469
T6C0.0512
T7C0.0701
%
G90
G05
T1
X2.8539Y-4.205
X3.1615Y-4.5893
X3.1846Y-4.5194
X3.19Y-4.62
X3.2153Y-4.4867
X3.293Y-3.089
X3.35Y-2.69
X3.3806Y-3.0344
X3.6043Y-3.0757
X3.65Y-2.81
X3.65Y-2.93
X4.035Y-2.455
X4.035Y-2.51
X4.07Y-2.51
X4.0725Y-2.455
X4.787Y-2.201
X5.54Y-2.695
X5.64Y-1.725
X5.64Y-1.755
X5.685Y-1.725
X5.685Y-1.76
X5.75Y-1.845
X5.815Y-2.505
X5.815Y-3.13
X5.815Y-3.76
X5.82Y-1.965
X5.825Y-4.37
X6.41Y-1.965
T2
X3.24Y-4.295
X3.24Y-4.595
X3.34Y-4.295
X3.34Y-4.595
X3.44Y-4.295
X3.44Y-4.595
X3.54Y-4.295
X3.54Y-4.595
X4.075Y-4.295
X4.075Y-4.595
X4.175Y-4.295
X4.175Y-4.595
X4.275Y-4.295
X4.275Y-4.595
X4.375Y-4.295
X4.375Y-4.595
X4.91Y-4.295
X4.91Y-4.595
X5.01Y-4.295
X5.01Y-4.595
X5.11Y-4.295
X5.11Y-4.595
X5.21Y-4.295
X5.21Y-4.595
X5.755Y-2.145
X5.76Y-1.515
X5.76Y-2.77
X5.7604Y-3.395
X5.7604Y-4.02
X5.765Y-1.42
X5.765Y-1.92
X5.765Y-2.045
X5.765Y-2.545
X5.765Y-2.67
X5.765Y-3.17
X5.765Y-3.295
X5.765Y-3.795
X5.765Y-3.92
X5.765Y-4.42
X5.865Y-1.42
X5.865Y-1.92
X5.865Y-2.045
X5.865Y-2.545
X5.865Y-2.67
X5.865Y-3.17
X5.865Y-3.295
X5.865Y-3.795
X5.865Y-3.92
X5.865Y-4.42
X5.9046Y-2.145
X5.9096Y-1.515
X5.9096Y-2.77
X5.91Y-3.395
X5.91Y-4.02
X5.965Y-1.42
X5.965Y-1.92
X5.965Y-2.045
X5.965Y-2.545
X5.965Y-2.67
X5.965Y-3.17
X5.965Y-3.295
X5.965Y-3.795
X5.965Y-3.92
X5.965Y-4.42
X6.065Y-1.42
X6.065Y-1.92
X6.065Y-2.045
X6.065Y-2.545
X6.065Y-2.67
X6.065Y-3.17
X6.065Y-3.295
X6.065Y-3.795
X6.065Y-3.92
X6.065Y-4.42
X6.165Y-1.42
X6.165Y-1.92
X6.165Y-2.045
X6.165Y-2.545
X6.165Y-2.67
X6.165Y-3.17
X6.165Y-3.295
X6.165Y-3.795
X6.165Y-3.92
X6.165Y-4.42
X6.265Y-1.42
X6.265Y-1.92
X6.265Y-2.045
X6.265Y-2.545
X6.265Y-2.67
X6.265Y-3.17
X6.265Y-3.295
X6.265Y-3.795
X6.265Y-3.92
X6.265Y-4.42
X6.365Y-1.42
X6.365Y-1.92
X6.365Y-2.045
X6.365Y-2.545
X6.365Y-2.67
X6.365Y-3.17
X6.365Y-3.295
X6.365Y-3.795
X6.365Y-3.92
X6.365Y-4.42
X6.465Y-1.42
X6.465Y-1.92
X6.465Y-2.045
X6.465Y-2.545
X6.465Y-2.67
X6.465Y-3.17
X6.465Y-3.295
X6.465Y-3.795
X6.465Y-3.92
X6.465Y-4.42
T3
X2.8783Y-1.8445
X2.8783Y-1.9445
X2.8783Y-2.0445
X2.8783Y-2.1445
X2.8783Y-2.2445
X2.8783Y-2.3445
X2.8783Y-2.4445
X2.8783Y-2.5445
X2.8783Y-2.6445
X2.8783Y-2.7445
X2.8783Y-2.8445
X2.8783Y-2.9445
X2.8783Y-3.0445
X2.8783Y-3.1445
X2.8783Y-3.2445
X2.8783Y-3.3445
X2.8783Y-3.4445
X2.8783Y-3.5445
X2.8783Y-3.6445
X2.8783Y-3.7445
X2.8783Y-3.8445
X2.8783Y-3.9445
X2.8783Y-4.0445
X2.8783Y-4.1445
X2.9783Y-1.8445
X2.9783Y-1.9445
X2.9783Y-2.0445
X2.9783Y-2.1445
X2.9783Y-2.2445
X2.9783Y-2.3445
X2.9783Y-2.4445
X2.9783Y-2.5445
X2.9783Y-2.6445
X2.9783Y-2.7445
X2.9783Y-2.8445
X2.9783Y-2.9445
X2.9783Y-3.0445
X2.9783Y-3.1445
X2.9783Y-3.2445
X2.9783Y-3.3445
X2.9783Y-3.4445
X2.9783Y-3.5445
X2.9783Y-3.6445
X2.9783Y-3.7445
X2.9783Y-3.8445
X2.9783Y-3.9445
X2.9783Y-4.0445
X2.9783Y-4.1445
X3.165Y-2.5616
X3.165Y-2.66
X3.165Y-2.8966
X3.165Y-2.995
X3.1748Y-1.8252
X3.1748Y-1.9252
X3.2Y-3.83
X3.2748Y-1.8252
X3.2748Y-1.9252
X3.3Y-3.83
X3.3748Y-1.8252
X3.3748Y-1.9252
X3.4Y-3.83
X3.4748Y-1.8252
X3.4748Y-1.9252
X3.475Y-2.5616
X3.475Y-2.66
X3.475Y-2.8966
X3.475Y-2.995
X3.675Y-2.165
X3.675Y-2.265
X3.675Y-2.365
X3.7Y-2.0
X3.7525Y-1.8225
X3.78Y-2.855
X3.78Y-3.005
X3.78Y-3.155
X3.785Y-2.5616
X3.785Y-2.66
X3.8Y-2.0
X3.815Y-2.165
X3.815Y-2.265
X3.815Y-2.365
X3.8525Y-1.8225
X3.88Y-2.855
X3.88Y-3.005
X3.88Y-3.155
X3.9Y-2.0
X3.9525Y-1.8225
X3.96Y-2.165
X3.96Y-2.265
X3.96Y-2.365
X4.0525Y-1.8225
X4.14Y-3.84
X4.14Y-3.94
X4.14Y-4.04
X4.14Y-4.14
X4.1525Y-1.8225
X4.34Y-3.84
X4.34Y-3.94
X4.34Y-4.04
X4.34Y-4.14
X4.475Y-2.485
X4.475Y-2.945
X4.48Y-3.41
X4.54Y-3.84
X4.54Y-3.94
X4.54Y-4.04
X4.54Y-4.14
X4.575Y-2.485
X4.575Y-2.945
X4.58Y-3.41
X4.74Y-3.84
X4.74Y-3.94
X4.74Y-4.04
X4.74Y-4.14
X4.83Y-2.945
X4.8316Y-2.485
X4.835Y-3.41
X4.93Y-2.945
X4.9316Y-2.485
X4.935Y-3.41
X4.94Y-3.84
X4.94Y-3.94
X4.94Y-4.04
X4.94Y-4.14
X5.14Y-3.84
X5.14Y-3.94
X5.14Y-4.04
X5.14Y-4.14
X5.185Y-2.485
X5.185Y-2.945
X5.187Y-2.143
X5.19Y-3.41
X5.285Y-2.485
X5.285Y-2.945
X5.287Y-2.143
X5.29Y-3.41
X5.34Y-3.84
X5.34Y-3.94
X5.34Y-4.04
X5.34Y-4.14
X5.4933Y-1.8441
X5.4933Y-1.9441
X5.4933Y-2.0441
X5.4933Y-2.1441
X5.4933Y-2.2441
X5.4933Y-2.3441
X5.4933Y-2.4441
X5.4933Y-2.5441
X5.4933Y-2.6441
X5.4933Y-2.7441
X5.4933Y-2.8441
X5.4933Y-2.9441
X5.4933Y-3.0441
X5.4933Y-3.1441
X5.4933Y-3.2441
X5.4933Y-3.3441
X5.4933Y-3.4441
X5.4933Y-3.5441
X5.4933Y-3.6441
X5.4933Y-3.7441
X5.4933Y-3.8441
X5.4933Y-3.9441
X5.4933Y-4.0441
X5.4933Y-4.1441
X5.5933Y-1.8441
X5.5933Y-1.9441
X5.5933Y-2.0441
X5.5933Y-2.1441
X5.5933Y-2.2441
X5.5933Y-2.3441
X5.5933Y-2.4441
X5.5933Y-2.5441
X5.5933Y-2.6441
X5.5933Y-2.7441
X5.5933Y-2.8441
X5.5933Y-2.9441
X5.5933Y-3.0441
X5.5933Y-3.1441
X5.5933Y-3.2441
X5.5933Y-3.3441
X5.5933Y-3.4441
X5.5933Y-3.5441
X5.5933Y-3.6441
X5.5933Y-3.7441
X5.5933Y-3.8441
X5.5933Y-3.9441
X5.5933Y-4.0441
X5.5933Y-4.1441
X5.945Y-2.315
X5.945Y-2.415
X5.945Y-2.945
X5.945Y-3.045
X5.95Y-3.57
X5.95Y-3.67
X5.96Y-4.185
X5.96Y-4.285
X6.005Y-1.67
X6.005Y-1.77
X6.045Y-2.315
X6.045Y-2.415
X6.045Y-2.945
X6.045Y-3.045
X6.05Y-3.57
X6.05Y-3.67
X6.06Y-4.185
X6.06Y-4.285
X6.105Y-1.67
X6.105Y-1.77
X6.145Y-2.315
X6.145Y-2.415
X6.145Y-2.945
X6.145Y-3.045
X6.15Y-3.57
X6.15Y-3.67
X6.16Y-4.185
X6.16Y-4.285
X6.205Y-1.67
X6.205Y-1.77
X6.6Y-1.535
X6.6Y-1.635
X6.6Y-1.735
X6.6Y-1.835
X6.6Y-2.16
X6.6Y-2.26
X6.6Y-2.36
X6.6Y-2.46
X6.61Y-2.785
X6.61Y-2.885
X6.61Y-2.985
X6.61Y-3.085
X6.61Y-4.03
X6.61Y-4.13
X6.61Y-4.23
X6.61Y-4.33
X6.625Y-3.42
X6.625Y-3.52
X6.625Y-3.62
X6.625Y-3.72
T4
X3.075Y-4.705
X3.175Y-4.705
X3.275Y-4.705
X3.495Y-4.705
X3.595Y-4.705
X3.695Y-4.705
X3.915Y-4.705
X4.015Y-4.705
X4.115Y-4.705
X4.335Y-4.705
X4.435Y-4.705
X4.535Y-4.705
X4.755Y-4.705
X4.855Y-4.705
X4.955Y-4.705
X5.175Y-4.705
X5.275Y-4.705
X5.375Y-4.705
T5
X3.125Y-2.135
X3.125Y-4.08
X3.13Y-3.315
X3.13Y-3.6
X3.225Y-2.135
X3.225Y-4.08
X3.23Y-3.315
X3.23Y-3.6
X3.325Y-2.135
X3.325Y-4.08
X3.33Y-3.315
X3.33Y-3.6
X3.425Y-2.135
X3.425Y-4.08
X3.43Y-3.315
X3.43Y-3.6
X3.53Y-3.6
X3.63Y-3.6
X3.693Y-4.189
X3.793Y-4.189
T6
X3.095Y-5.07
X3.295Y-5.07
X3.495Y-5.07
X3.695Y-5.07
X3.895Y-5.07
X3.97Y-1.52
X4.095Y-5.07
X4.17Y-1.52
X4.295Y-5.07
X4.37Y-1.52
X4.495Y-5.07
X4.57Y-1.52
X4.695Y-5.07
X4.895Y-5.07
X5.095Y-5.07
X5.295Y-5.07
X5.495Y-5.07
X5.695Y-5.07
X5.895Y-5.07
X6.095Y-5.07
T7
X3.314Y-1.591
X3.4597Y-1.591
X3.629Y-1.591
X3.7747Y-1.591
X4.8133Y-1.753
X4.959Y-1.753
X4.969Y-1.453
X5.1147Y-1.453
X5.1283Y-1.753
X5.274Y-1.753
X5.284Y-1.453
X5.4296Y-1.453
X5.6624Y-4.741
X5.808Y-4.741
X5.9773Y-4.741
X6.123Y-4.741
X6.439Y-4.6833
X6.439Y-4.829
X6.439Y-4.9983
X6.439Y-5.144
T0
M30
